%TF.GenerationSoftware,KiCad,Pcbnew,9.0.2*%
%TF.CreationDate,2025-10-11T19:40:46+02:00*%
%TF.ProjectId,Yet_Another_Business_Card,5965745f-416e-46f7-9468-65725f427573,rev?*%
%TF.SameCoordinates,Original*%
%TF.FileFunction,Soldermask,Bot*%
%TF.FilePolarity,Negative*%
%FSLAX46Y46*%
G04 Gerber Fmt 4.6, Leading zero omitted, Abs format (unit mm)*
G04 Created by KiCad (PCBNEW 9.0.2) date 2025-10-11 19:40:46*
%MOMM*%
%LPD*%
G01*
G04 APERTURE LIST*
%ADD10C,0.000000*%
G04 APERTURE END LIST*
D10*
%TO.C,G\u002A\u002A\u002A*%
G36*
X187482184Y-85882277D02*
G01*
X187847381Y-85884241D01*
X188140580Y-85887753D01*
X188368114Y-85893010D01*
X188536311Y-85900208D01*
X188651505Y-85909543D01*
X188720024Y-85921210D01*
X188747613Y-85934583D01*
X188764193Y-85986759D01*
X188793935Y-86112934D01*
X188834940Y-86303792D01*
X188885313Y-86550016D01*
X188943154Y-86842289D01*
X189006567Y-87171294D01*
X189073653Y-87527714D01*
X189089669Y-87614027D01*
X189158495Y-87979834D01*
X189224463Y-88318844D01*
X189285637Y-88621925D01*
X189340079Y-88879943D01*
X189385852Y-89083764D01*
X189421021Y-89224255D01*
X189443647Y-89292282D01*
X189446398Y-89296291D01*
X189504199Y-89330778D01*
X189628578Y-89390214D01*
X189806952Y-89469518D01*
X190026737Y-89563606D01*
X190275350Y-89667394D01*
X190540209Y-89775801D01*
X190808730Y-89883743D01*
X191068329Y-89986137D01*
X191306424Y-90077901D01*
X191510432Y-90153951D01*
X191667769Y-90209204D01*
X191765852Y-90238578D01*
X191787571Y-90242000D01*
X191863105Y-90216587D01*
X192003084Y-90141498D01*
X192204676Y-90018462D01*
X192465047Y-89849204D01*
X192772445Y-89641565D01*
X193179552Y-89362718D01*
X193522610Y-89128048D01*
X193807344Y-88933777D01*
X194039479Y-88776123D01*
X194224743Y-88651307D01*
X194368858Y-88555549D01*
X194477553Y-88485069D01*
X194556551Y-88436088D01*
X194611579Y-88404825D01*
X194648361Y-88387500D01*
X194672624Y-88380334D01*
X194684390Y-88379333D01*
X194730130Y-88408560D01*
X194826487Y-88490911D01*
X194965484Y-88618389D01*
X195139148Y-88783000D01*
X195339504Y-88976749D01*
X195558575Y-89191639D01*
X195788388Y-89419675D01*
X196020967Y-89652862D01*
X196248337Y-89883205D01*
X196462524Y-90102707D01*
X196655553Y-90303374D01*
X196819447Y-90477210D01*
X196946234Y-90616219D01*
X197027937Y-90712407D01*
X197056584Y-90757621D01*
X197033364Y-90812031D01*
X196968418Y-90924441D01*
X196868811Y-91083662D01*
X196741613Y-91278501D01*
X196593889Y-91497768D01*
X196535450Y-91582838D01*
X196202007Y-92066800D01*
X195917143Y-92482628D01*
X195680307Y-92831144D01*
X195490952Y-93113169D01*
X195348527Y-93329526D01*
X195252484Y-93481037D01*
X195202274Y-93568524D01*
X195193917Y-93590786D01*
X195209949Y-93639165D01*
X195255310Y-93755355D01*
X195325897Y-93929376D01*
X195417609Y-94151253D01*
X195526342Y-94411008D01*
X195647994Y-94698664D01*
X195691334Y-94800495D01*
X195844552Y-95155041D01*
X195979201Y-95456680D01*
X196092668Y-95699926D01*
X196182339Y-95879292D01*
X196245600Y-95989292D01*
X196273417Y-96022518D01*
X196333318Y-96042554D01*
X196466724Y-96075414D01*
X196663791Y-96119047D01*
X196914674Y-96171399D01*
X197209528Y-96230417D01*
X197538511Y-96294050D01*
X197891776Y-96360244D01*
X197903250Y-96362359D01*
X198255465Y-96428078D01*
X198582313Y-96490640D01*
X198874210Y-96548093D01*
X199121574Y-96598482D01*
X199314821Y-96639853D01*
X199444368Y-96670253D01*
X199500633Y-96687727D01*
X199501334Y-96688213D01*
X199515030Y-96739894D01*
X199526875Y-96864779D01*
X199536856Y-97051739D01*
X199544964Y-97289644D01*
X199551187Y-97567364D01*
X199555514Y-97873770D01*
X199557935Y-98197733D01*
X199558437Y-98528122D01*
X199557010Y-98853808D01*
X199553644Y-99163663D01*
X199548327Y-99446555D01*
X199541048Y-99691356D01*
X199531796Y-99886935D01*
X199520560Y-100022164D01*
X199507329Y-100085913D01*
X199504695Y-100088962D01*
X199453055Y-100103440D01*
X199327679Y-100131272D01*
X199138115Y-100170553D01*
X198893906Y-100219375D01*
X198604597Y-100275832D01*
X198279735Y-100338017D01*
X197928864Y-100404022D01*
X197909441Y-100407644D01*
X197557328Y-100474439D01*
X197230718Y-100538653D01*
X196939167Y-100598236D01*
X196692231Y-100651138D01*
X196499466Y-100695309D01*
X196370426Y-100728699D01*
X196314668Y-100749258D01*
X196313957Y-100749932D01*
X196286539Y-100801440D01*
X196232328Y-100921818D01*
X196155492Y-101101136D01*
X196060199Y-101329462D01*
X195950616Y-101596865D01*
X195830912Y-101893412D01*
X195768216Y-102050391D01*
X195625169Y-102412067D01*
X195512229Y-102703275D01*
X195426797Y-102931640D01*
X195366271Y-103104789D01*
X195328051Y-103230346D01*
X195309536Y-103315938D01*
X195308125Y-103369189D01*
X195312824Y-103385642D01*
X195348518Y-103446391D01*
X195424781Y-103564660D01*
X195533696Y-103728563D01*
X195667343Y-103926212D01*
X195817805Y-104145722D01*
X195855735Y-104200621D01*
X196035486Y-104460469D01*
X196225767Y-104735686D01*
X196411485Y-105004435D01*
X196577550Y-105244878D01*
X196696750Y-105417602D01*
X196819592Y-105601508D01*
X196922552Y-105766703D01*
X196996716Y-105898031D01*
X197033168Y-105980333D01*
X197035417Y-105993354D01*
X197006480Y-106039444D01*
X196924930Y-106136660D01*
X196798656Y-106276981D01*
X196635546Y-106452383D01*
X196443490Y-106654846D01*
X196230377Y-106876346D01*
X196004095Y-107108863D01*
X195772535Y-107344374D01*
X195543584Y-107574857D01*
X195325133Y-107792290D01*
X195125070Y-107988652D01*
X194951284Y-108155920D01*
X194811664Y-108286073D01*
X194714100Y-108371088D01*
X194666480Y-108402944D01*
X194665683Y-108402999D01*
X194616750Y-108379971D01*
X194511019Y-108316197D01*
X194360938Y-108219643D01*
X194178961Y-108098275D01*
X194027772Y-107994883D01*
X193589553Y-107692656D01*
X193215897Y-107436229D01*
X192902198Y-107222575D01*
X192643849Y-107048668D01*
X192436245Y-106911479D01*
X192274779Y-106807983D01*
X192154846Y-106735151D01*
X192071839Y-106689957D01*
X192021152Y-106669373D01*
X192007801Y-106667333D01*
X191942674Y-106686868D01*
X191819324Y-106740569D01*
X191653314Y-106821079D01*
X191460205Y-106921040D01*
X191380986Y-106963666D01*
X191181981Y-107069141D01*
X191004503Y-107158061D01*
X190863964Y-107223085D01*
X190775778Y-107256873D01*
X190758819Y-107259999D01*
X190737798Y-107246880D01*
X190706733Y-107204321D01*
X190663499Y-107127519D01*
X190605971Y-107011672D01*
X190532025Y-106851977D01*
X190439537Y-106643632D01*
X190326381Y-106381834D01*
X190190433Y-106061781D01*
X190029568Y-105678670D01*
X189841662Y-105227699D01*
X189624591Y-104704065D01*
X189574273Y-104582416D01*
X189387346Y-104130261D01*
X189209576Y-103700069D01*
X189043665Y-103298394D01*
X188892317Y-102931792D01*
X188758237Y-102606817D01*
X188644129Y-102330025D01*
X188552697Y-102107971D01*
X188486644Y-101947210D01*
X188448675Y-101854297D01*
X188440565Y-101834022D01*
X188431969Y-101798941D01*
X188440235Y-101763004D01*
X188474344Y-101717801D01*
X188543275Y-101654920D01*
X188656011Y-101565953D01*
X188821533Y-101442487D01*
X188992084Y-101317539D01*
X189414666Y-100975703D01*
X189760210Y-100620931D01*
X190036288Y-100243417D01*
X190250469Y-99833356D01*
X190359560Y-99546291D01*
X190497860Y-99002298D01*
X190552529Y-98461754D01*
X190524447Y-97929629D01*
X190414490Y-97410894D01*
X190223537Y-96910520D01*
X189952465Y-96433475D01*
X189764400Y-96176365D01*
X189451990Y-95844100D01*
X189075093Y-95544883D01*
X188651025Y-95289915D01*
X188197099Y-95090398D01*
X187973196Y-95017472D01*
X187679182Y-94956132D01*
X187334225Y-94921479D01*
X186967048Y-94913540D01*
X186606372Y-94932340D01*
X186280921Y-94977903D01*
X186122244Y-95015842D01*
X185614597Y-95204937D01*
X185146137Y-95464786D01*
X184723874Y-95788715D01*
X184354816Y-96170049D01*
X184045972Y-96602115D01*
X183804352Y-97078238D01*
X183720012Y-97303328D01*
X183659195Y-97494803D01*
X183617631Y-97659042D01*
X183590715Y-97824147D01*
X183573843Y-98018218D01*
X183562597Y-98264166D01*
X183556226Y-98521033D01*
X183559501Y-98720898D01*
X183574475Y-98891082D01*
X183603203Y-99058907D01*
X183631993Y-99187090D01*
X183789737Y-99696345D01*
X184010212Y-100158100D01*
X184297848Y-100578457D01*
X184657075Y-100963519D01*
X185092324Y-101319388D01*
X185268803Y-101441747D01*
X185423455Y-101548557D01*
X185550236Y-101643459D01*
X185633009Y-101713946D01*
X185656067Y-101741906D01*
X185643846Y-101789921D01*
X185601059Y-101910617D01*
X185529890Y-102098596D01*
X185432526Y-102348464D01*
X185311151Y-102654824D01*
X185167950Y-103012281D01*
X185005108Y-103415439D01*
X184824810Y-103858902D01*
X184629241Y-104337274D01*
X184420587Y-104845159D01*
X184201031Y-105377163D01*
X183972760Y-105927888D01*
X183737958Y-106491939D01*
X183562956Y-106910749D01*
X183481335Y-107092818D01*
X183417057Y-107203930D01*
X183363550Y-107254344D01*
X183339267Y-107259999D01*
X183275827Y-107240639D01*
X183153757Y-107187396D01*
X182988428Y-107107524D01*
X182795211Y-107008280D01*
X182711484Y-106963666D01*
X182511251Y-106858571D01*
X182332579Y-106769876D01*
X182190846Y-106704835D01*
X182101429Y-106670706D01*
X182083464Y-106667333D01*
X182031659Y-106690554D01*
X181918625Y-106756629D01*
X181752719Y-106860174D01*
X181542293Y-106995807D01*
X181295703Y-107158145D01*
X181021304Y-107341805D01*
X180736568Y-107535166D01*
X180444708Y-107733959D01*
X180174177Y-107916727D01*
X179933061Y-108078123D01*
X179729447Y-108212797D01*
X179571423Y-108315400D01*
X179467074Y-108380581D01*
X179424637Y-108402999D01*
X179386224Y-108374010D01*
X179294871Y-108291332D01*
X179157246Y-108161405D01*
X178980018Y-107990665D01*
X178769856Y-107785552D01*
X178533430Y-107552502D01*
X178277408Y-107297953D01*
X178207384Y-107227971D01*
X177948337Y-106967704D01*
X177709084Y-106725210D01*
X177496060Y-106507172D01*
X177315702Y-106320271D01*
X177174446Y-106171191D01*
X177078728Y-106066615D01*
X177034984Y-106013225D01*
X177032917Y-106008518D01*
X177055636Y-105958070D01*
X177117494Y-105853544D01*
X177209047Y-105710197D01*
X177320851Y-105543291D01*
X177320961Y-105543129D01*
X177432790Y-105379802D01*
X177580486Y-105164246D01*
X177752002Y-104914035D01*
X177935289Y-104646743D01*
X178118301Y-104379945D01*
X178169239Y-104305706D01*
X178331119Y-104068369D01*
X178478677Y-103849343D01*
X178604465Y-103659902D01*
X178701033Y-103511316D01*
X178760934Y-103414860D01*
X178775550Y-103388115D01*
X178785012Y-103350706D01*
X178782696Y-103296132D01*
X178765794Y-103215979D01*
X178731495Y-103101834D01*
X178676989Y-102945282D01*
X178599464Y-102737910D01*
X178496112Y-102471304D01*
X178364120Y-102137050D01*
X178323738Y-102035444D01*
X178200184Y-101727714D01*
X178084329Y-101444560D01*
X177980367Y-101195815D01*
X177892490Y-100991312D01*
X177824891Y-100840882D01*
X177781764Y-100754359D01*
X177770406Y-100737890D01*
X177717401Y-100719934D01*
X177590658Y-100688881D01*
X177399749Y-100646728D01*
X177154246Y-100595470D01*
X176863721Y-100537103D01*
X176537747Y-100473621D01*
X176185896Y-100407022D01*
X176161662Y-100402503D01*
X175730973Y-100320923D01*
X175361805Y-100248201D01*
X175058257Y-100185230D01*
X174824428Y-100132903D01*
X174664418Y-100092111D01*
X174582325Y-100063748D01*
X174572453Y-100056481D01*
X174564452Y-100002758D01*
X174557037Y-99873902D01*
X174550416Y-99679447D01*
X174544792Y-99428926D01*
X174540373Y-99131871D01*
X174537362Y-98797817D01*
X174535966Y-98436295D01*
X174535899Y-98360905D01*
X174535958Y-97943767D01*
X174536732Y-97603313D01*
X174538568Y-97331562D01*
X174541818Y-97120533D01*
X174546829Y-96962245D01*
X174553952Y-96848717D01*
X174563535Y-96771966D01*
X174575929Y-96724012D01*
X174591481Y-96696874D01*
X174609334Y-96683191D01*
X174666733Y-96666888D01*
X174797694Y-96637465D01*
X174992467Y-96596873D01*
X175241299Y-96547063D01*
X175534438Y-96489985D01*
X175862133Y-96427592D01*
X176214632Y-96361832D01*
X176228584Y-96359257D01*
X176690507Y-96272703D01*
X177071279Y-96198446D01*
X177373434Y-96135931D01*
X177599508Y-96084603D01*
X177752033Y-96043906D01*
X177833545Y-96013285D01*
X177845636Y-96004972D01*
X177879811Y-95949810D01*
X177941070Y-95828684D01*
X178024143Y-95653670D01*
X178123759Y-95436843D01*
X178234648Y-95190279D01*
X178351539Y-94926054D01*
X178469161Y-94656243D01*
X178582244Y-94392922D01*
X178685518Y-94148166D01*
X178773711Y-93934052D01*
X178841553Y-93762654D01*
X178883774Y-93646050D01*
X178895584Y-93599389D01*
X178893065Y-93578295D01*
X178882878Y-93548932D01*
X178861083Y-93505317D01*
X178823738Y-93441467D01*
X178766899Y-93351402D01*
X178686627Y-93229138D01*
X178578977Y-93068692D01*
X178440010Y-92864084D01*
X178265782Y-92609330D01*
X178052352Y-92298449D01*
X177795778Y-91925457D01*
X177720800Y-91816529D01*
X177547789Y-91564163D01*
X177390257Y-91332401D01*
X177254744Y-91131025D01*
X177147795Y-90969820D01*
X177075951Y-90858569D01*
X177045754Y-90807057D01*
X177045709Y-90806940D01*
X177062136Y-90764980D01*
X177128218Y-90677820D01*
X177246014Y-90543237D01*
X177417584Y-90359010D01*
X177644989Y-90122917D01*
X177930287Y-89832736D01*
X178201254Y-89560495D01*
X178462596Y-89300464D01*
X178706791Y-89060248D01*
X178927090Y-88846284D01*
X179116741Y-88665005D01*
X179268995Y-88522846D01*
X179377101Y-88426244D01*
X179434310Y-88381632D01*
X179440258Y-88379333D01*
X179501336Y-88402560D01*
X179608526Y-88463855D01*
X179740095Y-88550637D01*
X179758041Y-88563267D01*
X180145898Y-88836385D01*
X180521924Y-89097492D01*
X180879592Y-89342304D01*
X181212379Y-89566537D01*
X181513759Y-89765908D01*
X181777206Y-89936135D01*
X181996195Y-90072933D01*
X182164200Y-90172019D01*
X182274697Y-90229110D01*
X182315166Y-90241808D01*
X182389039Y-90225623D01*
X182526529Y-90180647D01*
X182715093Y-90112061D01*
X182942187Y-90025044D01*
X183195269Y-89924778D01*
X183461795Y-89816441D01*
X183729221Y-89705216D01*
X183985005Y-89596281D01*
X184216602Y-89494817D01*
X184411470Y-89406005D01*
X184557065Y-89335024D01*
X184640844Y-89287055D01*
X184653844Y-89275961D01*
X184678886Y-89212888D01*
X184716421Y-89071823D01*
X184765258Y-88858327D01*
X184824205Y-88577963D01*
X184892072Y-88236292D01*
X184967665Y-87838874D01*
X185005389Y-87635152D01*
X185071421Y-87278758D01*
X185134180Y-86945847D01*
X185191725Y-86646278D01*
X185242118Y-86389912D01*
X185283417Y-86186609D01*
X185313684Y-86046230D01*
X185330977Y-85978634D01*
X185331638Y-85976917D01*
X185370769Y-85881667D01*
X187038660Y-85881667D01*
X187482184Y-85882277D01*
G37*
%TD*%
G36*
X201200642Y-57300007D02*
G01*
X201413471Y-57302328D01*
X201422926Y-57302793D01*
X201847549Y-57339943D01*
X201858274Y-57341355D01*
X202277376Y-57415253D01*
X202287938Y-57417594D01*
X202699019Y-57527743D01*
X202709335Y-57530996D01*
X203109240Y-57676549D01*
X203119235Y-57680689D01*
X203504937Y-57860545D01*
X203514532Y-57865540D01*
X203883083Y-58078323D01*
X203892207Y-58084135D01*
X204240820Y-58328237D01*
X204249402Y-58334822D01*
X204575420Y-58608383D01*
X204583395Y-58615692D01*
X204884307Y-58916604D01*
X204891616Y-58924579D01*
X205165177Y-59250597D01*
X205171762Y-59259179D01*
X205415864Y-59607792D01*
X205421676Y-59616916D01*
X205634459Y-59985467D01*
X205639454Y-59995062D01*
X205819310Y-60380764D01*
X205823450Y-60390759D01*
X205969003Y-60790664D01*
X205972256Y-60800980D01*
X206082405Y-61212061D01*
X206084746Y-61222623D01*
X206158644Y-61641725D01*
X206160056Y-61652450D01*
X206197206Y-62077073D01*
X206197671Y-62086527D01*
X206199993Y-62299357D01*
X206200000Y-62300710D01*
X206200000Y-106299289D01*
X206199993Y-106300642D01*
X206197671Y-106513472D01*
X206197206Y-106522926D01*
X206160056Y-106947549D01*
X206158644Y-106958274D01*
X206084746Y-107377376D01*
X206082405Y-107387938D01*
X205972256Y-107799019D01*
X205969003Y-107809335D01*
X205823450Y-108209240D01*
X205819310Y-108219235D01*
X205639454Y-108604937D01*
X205634459Y-108614532D01*
X205421676Y-108983083D01*
X205415864Y-108992207D01*
X205171762Y-109340820D01*
X205165177Y-109349402D01*
X204891616Y-109675420D01*
X204884307Y-109683395D01*
X204583395Y-109984307D01*
X204575420Y-109991616D01*
X204249402Y-110265177D01*
X204240820Y-110271762D01*
X203892207Y-110515864D01*
X203883083Y-110521676D01*
X203514532Y-110734459D01*
X203504937Y-110739454D01*
X203119235Y-110919310D01*
X203109240Y-110923450D01*
X202709335Y-111069003D01*
X202699019Y-111072256D01*
X202287938Y-111182405D01*
X202277376Y-111184746D01*
X201858274Y-111258644D01*
X201847549Y-111260056D01*
X201422926Y-111297206D01*
X201413472Y-111297671D01*
X201200643Y-111299993D01*
X201199290Y-111300000D01*
X126200710Y-111300000D01*
X126199357Y-111299993D01*
X125986527Y-111297671D01*
X125977073Y-111297206D01*
X125552450Y-111260056D01*
X125541725Y-111258644D01*
X125122623Y-111184746D01*
X125112061Y-111182405D01*
X124700980Y-111072256D01*
X124690664Y-111069003D01*
X124290759Y-110923450D01*
X124280764Y-110919310D01*
X123895062Y-110739454D01*
X123885467Y-110734459D01*
X123516916Y-110521676D01*
X123507792Y-110515864D01*
X123159179Y-110271762D01*
X123150597Y-110265177D01*
X122824579Y-109991616D01*
X122816604Y-109984307D01*
X122515692Y-109683395D01*
X122508383Y-109675420D01*
X122234822Y-109349402D01*
X122228237Y-109340820D01*
X121984135Y-108992207D01*
X121978323Y-108983083D01*
X121765540Y-108614532D01*
X121760545Y-108604937D01*
X121580689Y-108219235D01*
X121576549Y-108209240D01*
X121430996Y-107809335D01*
X121427743Y-107799019D01*
X121317594Y-107387938D01*
X121315253Y-107377376D01*
X121241355Y-106958274D01*
X121239943Y-106947549D01*
X121202793Y-106522926D01*
X121202328Y-106513471D01*
X121200007Y-106300641D01*
X121200000Y-106299289D01*
X121200000Y-62300710D01*
X121200004Y-62299988D01*
X122200000Y-62299988D01*
X122200000Y-106300011D01*
X122202349Y-106496392D01*
X122240847Y-106887282D01*
X122317476Y-107272517D01*
X122431496Y-107648393D01*
X122581809Y-108011280D01*
X122581811Y-108011285D01*
X122766958Y-108357670D01*
X122766969Y-108357688D01*
X122985178Y-108684261D01*
X122985188Y-108684275D01*
X123234367Y-108987901D01*
X123512098Y-109265632D01*
X123815724Y-109514811D01*
X123815738Y-109514821D01*
X124142311Y-109733030D01*
X124142329Y-109733041D01*
X124488714Y-109918188D01*
X124488719Y-109918190D01*
X124851606Y-110068503D01*
X125227482Y-110182523D01*
X125612717Y-110259152D01*
X126003607Y-110297650D01*
X126199989Y-110300000D01*
X201200011Y-110300000D01*
X201396392Y-110297650D01*
X201787282Y-110259152D01*
X202172517Y-110182523D01*
X202548393Y-110068503D01*
X202911280Y-109918190D01*
X202911285Y-109918188D01*
X203257670Y-109733041D01*
X203257688Y-109733030D01*
X203584261Y-109514821D01*
X203584275Y-109514811D01*
X203887901Y-109265632D01*
X204165632Y-108987901D01*
X204414811Y-108684275D01*
X204414821Y-108684261D01*
X204633030Y-108357688D01*
X204633041Y-108357670D01*
X204818188Y-108011285D01*
X204818190Y-108011280D01*
X204968503Y-107648393D01*
X205082523Y-107272517D01*
X205159152Y-106887282D01*
X205197650Y-106496392D01*
X205200000Y-106300011D01*
X205200000Y-62299988D01*
X205197650Y-62103607D01*
X205159152Y-61712717D01*
X205082523Y-61327482D01*
X204968503Y-60951606D01*
X204818190Y-60588719D01*
X204818188Y-60588714D01*
X204633041Y-60242329D01*
X204633030Y-60242311D01*
X204414821Y-59915738D01*
X204414811Y-59915724D01*
X204165632Y-59612098D01*
X203887901Y-59334367D01*
X203584275Y-59085188D01*
X203584261Y-59085178D01*
X203257688Y-58866969D01*
X203257670Y-58866958D01*
X202911285Y-58681811D01*
X202911280Y-58681809D01*
X202548393Y-58531496D01*
X202172517Y-58417476D01*
X201787282Y-58340847D01*
X201396392Y-58302349D01*
X201200011Y-58300000D01*
X126199989Y-58300000D01*
X126003607Y-58302349D01*
X125612717Y-58340847D01*
X125227482Y-58417476D01*
X124851606Y-58531496D01*
X124488719Y-58681809D01*
X124488714Y-58681811D01*
X124142329Y-58866958D01*
X124142311Y-58866969D01*
X123815738Y-59085178D01*
X123815724Y-59085188D01*
X123512098Y-59334367D01*
X123234367Y-59612098D01*
X122985188Y-59915724D01*
X122985178Y-59915738D01*
X122766969Y-60242311D01*
X122766958Y-60242329D01*
X122581811Y-60588714D01*
X122581809Y-60588719D01*
X122431496Y-60951606D01*
X122317476Y-61327482D01*
X122240847Y-61712717D01*
X122202349Y-62103607D01*
X122200000Y-62299988D01*
X121200004Y-62299988D01*
X121200007Y-62299358D01*
X121202328Y-62086528D01*
X121202793Y-62077073D01*
X121239943Y-61652450D01*
X121241355Y-61641725D01*
X121315253Y-61222623D01*
X121317594Y-61212061D01*
X121427743Y-60800980D01*
X121430996Y-60790664D01*
X121576549Y-60390759D01*
X121580689Y-60380764D01*
X121760545Y-59995062D01*
X121765540Y-59985467D01*
X121978323Y-59616916D01*
X121984135Y-59607792D01*
X122228237Y-59259179D01*
X122234822Y-59250597D01*
X122508383Y-58924579D01*
X122515692Y-58916604D01*
X122816604Y-58615692D01*
X122824579Y-58608383D01*
X123150597Y-58334822D01*
X123159179Y-58328237D01*
X123507792Y-58084135D01*
X123516916Y-58078323D01*
X123885467Y-57865540D01*
X123895062Y-57860545D01*
X124280764Y-57680689D01*
X124290759Y-57676549D01*
X124690664Y-57530996D01*
X124700980Y-57527743D01*
X125112061Y-57417594D01*
X125122623Y-57415253D01*
X125541725Y-57341355D01*
X125552450Y-57339943D01*
X125977073Y-57302793D01*
X125986528Y-57302328D01*
X126199358Y-57300007D01*
X126200710Y-57300000D01*
X201199290Y-57300000D01*
X201200642Y-57300007D01*
G37*
M02*
