%TF.GenerationSoftware,KiCad,Pcbnew,9.0.2*%
%TF.CreationDate,2025-12-10T00:27:37+01:00*%
%TF.ProjectId,Yet_Another_Business_Card,5965745f-416e-46f7-9468-65725f427573,rev?*%
%TF.SameCoordinates,Original*%
%TF.FileFunction,Legend,Top*%
%TF.FilePolarity,Positive*%
%FSLAX46Y46*%
G04 Gerber Fmt 4.6, Leading zero omitted, Abs format (unit mm)*
G04 Created by KiCad (PCBNEW 9.0.2) date 2025-12-10 00:27:37*
%MOMM*%
%LPD*%
G01*
G04 APERTURE LIST*
G04 Aperture macros list*
%AMRoundRect*
0 Rectangle with rounded corners*
0 $1 Rounding radius*
0 $2 $3 $4 $5 $6 $7 $8 $9 X,Y pos of 4 corners*
0 Add a 4 corners polygon primitive as box body*
4,1,4,$2,$3,$4,$5,$6,$7,$8,$9,$2,$3,0*
0 Add four circle primitives for the rounded corners*
1,1,$1+$1,$2,$3*
1,1,$1+$1,$4,$5*
1,1,$1+$1,$6,$7*
1,1,$1+$1,$8,$9*
0 Add four rect primitives between the rounded corners*
20,1,$1+$1,$2,$3,$4,$5,0*
20,1,$1+$1,$4,$5,$6,$7,0*
20,1,$1+$1,$6,$7,$8,$9,0*
20,1,$1+$1,$8,$9,$2,$3,0*%
%AMFreePoly0*
4,1,30,0.200000,1.710000,0.236753,1.697426,0.376387,1.589219,0.526382,1.504463,0.606724,1.473357,0.606723,1.473356,0.687059,1.442253,0.771046,1.423078,0.855035,1.403901,1.028740,1.390056,1.444035,1.390057,1.486461,1.372484,1.504035,1.330057,1.504034,-1.539942,1.486460,-1.582368,1.444038,-1.599942,1.046227,-1.599966,0.870517,-1.612848,0.700699,-1.650739,0.538235,-1.712988,
0.386579,-1.798267,0.245504,-1.907442,0.208783,-1.919991,-1.650000,-1.919992,-1.692426,-1.902418,-1.710001,-1.859992,-1.710000,1.650008,-1.692426,1.692433,-1.650000,1.710007,0.200000,1.710000,0.200000,1.710000,$1*%
G04 Aperture macros list end*
%ADD10C,0.160000*%
%ADD11C,0.120000*%
%ADD12R,0.750000X1.000000*%
%ADD13R,1.000000X0.750000*%
%ADD14RoundRect,0.218750X0.026517X-0.335876X0.335876X-0.026517X-0.026517X0.335876X-0.335876X0.026517X0*%
%ADD15RoundRect,0.200000X-0.200000X-0.275000X0.200000X-0.275000X0.200000X0.275000X-0.200000X0.275000X0*%
%ADD16R,1.700000X1.700000*%
%ADD17C,1.700000*%
%ADD18RoundRect,0.225000X-0.335876X-0.017678X-0.017678X-0.335876X0.335876X0.017678X0.017678X0.335876X0*%
%ADD19RoundRect,0.200000X-0.053033X0.335876X-0.335876X0.053033X0.053033X-0.335876X0.335876X-0.053033X0*%
%ADD20RoundRect,0.225000X-0.017678X0.335876X-0.335876X0.017678X0.017678X-0.335876X0.335876X-0.017678X0*%
%ADD21RoundRect,0.225000X0.017678X-0.335876X0.335876X-0.017678X-0.017678X0.335876X-0.335876X0.017678X0*%
%ADD22RoundRect,0.075000X-0.415425X-0.521491X0.521491X0.415425X0.415425X0.521491X-0.521491X-0.415425X0*%
%ADD23RoundRect,0.075000X0.415425X-0.521491X0.521491X-0.415425X-0.415425X0.521491X-0.521491X0.415425X0*%
%ADD24RoundRect,0.225000X0.335876X0.017678X0.017678X0.335876X-0.335876X-0.017678X-0.017678X-0.335876X0*%
%ADD25FreePoly0,315.000000*%
%ADD26FreePoly0,135.000000*%
G04 APERTURE END LIST*
D10*
X177024310Y-91493775D02*
X177024310Y-92065203D01*
X177024310Y-92065203D02*
X176986215Y-92179489D01*
X176986215Y-92179489D02*
X176910024Y-92255680D01*
X176910024Y-92255680D02*
X176795739Y-92293775D01*
X176795739Y-92293775D02*
X176719548Y-92293775D01*
X177786215Y-92293775D02*
X177405263Y-92293775D01*
X177405263Y-92293775D02*
X177405263Y-91493775D01*
X178510025Y-92217584D02*
X178471929Y-92255680D01*
X178471929Y-92255680D02*
X178357644Y-92293775D01*
X178357644Y-92293775D02*
X178281453Y-92293775D01*
X178281453Y-92293775D02*
X178167167Y-92255680D01*
X178167167Y-92255680D02*
X178090977Y-92179489D01*
X178090977Y-92179489D02*
X178052882Y-92103299D01*
X178052882Y-92103299D02*
X178014786Y-91950918D01*
X178014786Y-91950918D02*
X178014786Y-91836632D01*
X178014786Y-91836632D02*
X178052882Y-91684251D01*
X178052882Y-91684251D02*
X178090977Y-91608060D01*
X178090977Y-91608060D02*
X178167167Y-91531870D01*
X178167167Y-91531870D02*
X178281453Y-91493775D01*
X178281453Y-91493775D02*
X178357644Y-91493775D01*
X178357644Y-91493775D02*
X178471929Y-91531870D01*
X178471929Y-91531870D02*
X178510025Y-91569965D01*
X179081453Y-91493775D02*
X179081453Y-92065203D01*
X179081453Y-92065203D02*
X179043358Y-92179489D01*
X179043358Y-92179489D02*
X178967167Y-92255680D01*
X178967167Y-92255680D02*
X178852882Y-92293775D01*
X178852882Y-92293775D02*
X178776691Y-92293775D01*
X179843358Y-92293775D02*
X179462406Y-92293775D01*
X179462406Y-92293775D02*
X179462406Y-91493775D01*
X180567168Y-92217584D02*
X180529072Y-92255680D01*
X180529072Y-92255680D02*
X180414787Y-92293775D01*
X180414787Y-92293775D02*
X180338596Y-92293775D01*
X180338596Y-92293775D02*
X180224310Y-92255680D01*
X180224310Y-92255680D02*
X180148120Y-92179489D01*
X180148120Y-92179489D02*
X180110025Y-92103299D01*
X180110025Y-92103299D02*
X180071929Y-91950918D01*
X180071929Y-91950918D02*
X180071929Y-91836632D01*
X180071929Y-91836632D02*
X180110025Y-91684251D01*
X180110025Y-91684251D02*
X180148120Y-91608060D01*
X180148120Y-91608060D02*
X180224310Y-91531870D01*
X180224310Y-91531870D02*
X180338596Y-91493775D01*
X180338596Y-91493775D02*
X180414787Y-91493775D01*
X180414787Y-91493775D02*
X180529072Y-91531870D01*
X180529072Y-91531870D02*
X180567168Y-91569965D01*
X181138596Y-91493775D02*
X181138596Y-92065203D01*
X181138596Y-92065203D02*
X181100501Y-92179489D01*
X181100501Y-92179489D02*
X181024310Y-92255680D01*
X181024310Y-92255680D02*
X180910025Y-92293775D01*
X180910025Y-92293775D02*
X180833834Y-92293775D01*
X181900501Y-92293775D02*
X181519549Y-92293775D01*
X181519549Y-92293775D02*
X181519549Y-91493775D01*
X182624311Y-92217584D02*
X182586215Y-92255680D01*
X182586215Y-92255680D02*
X182471930Y-92293775D01*
X182471930Y-92293775D02*
X182395739Y-92293775D01*
X182395739Y-92293775D02*
X182281453Y-92255680D01*
X182281453Y-92255680D02*
X182205263Y-92179489D01*
X182205263Y-92179489D02*
X182167168Y-92103299D01*
X182167168Y-92103299D02*
X182129072Y-91950918D01*
X182129072Y-91950918D02*
X182129072Y-91836632D01*
X182129072Y-91836632D02*
X182167168Y-91684251D01*
X182167168Y-91684251D02*
X182205263Y-91608060D01*
X182205263Y-91608060D02*
X182281453Y-91531870D01*
X182281453Y-91531870D02*
X182395739Y-91493775D01*
X182395739Y-91493775D02*
X182471930Y-91493775D01*
X182471930Y-91493775D02*
X182586215Y-91531870D01*
X182586215Y-91531870D02*
X182624311Y-91569965D01*
X183195739Y-91493775D02*
X183195739Y-92065203D01*
X183195739Y-92065203D02*
X183157644Y-92179489D01*
X183157644Y-92179489D02*
X183081453Y-92255680D01*
X183081453Y-92255680D02*
X182967168Y-92293775D01*
X182967168Y-92293775D02*
X182890977Y-92293775D01*
X183957644Y-92293775D02*
X183576692Y-92293775D01*
X183576692Y-92293775D02*
X183576692Y-91493775D01*
X184681454Y-92217584D02*
X184643358Y-92255680D01*
X184643358Y-92255680D02*
X184529073Y-92293775D01*
X184529073Y-92293775D02*
X184452882Y-92293775D01*
X184452882Y-92293775D02*
X184338596Y-92255680D01*
X184338596Y-92255680D02*
X184262406Y-92179489D01*
X184262406Y-92179489D02*
X184224311Y-92103299D01*
X184224311Y-92103299D02*
X184186215Y-91950918D01*
X184186215Y-91950918D02*
X184186215Y-91836632D01*
X184186215Y-91836632D02*
X184224311Y-91684251D01*
X184224311Y-91684251D02*
X184262406Y-91608060D01*
X184262406Y-91608060D02*
X184338596Y-91531870D01*
X184338596Y-91531870D02*
X184452882Y-91493775D01*
X184452882Y-91493775D02*
X184529073Y-91493775D01*
X184529073Y-91493775D02*
X184643358Y-91531870D01*
X184643358Y-91531870D02*
X184681454Y-91569965D01*
D11*
%TO.C,BTN_MAIN4*%
X200800000Y-99050000D02*
X198800000Y-99050000D01*
X202100000Y-100050000D02*
X202550000Y-100500000D01*
X197500000Y-100050000D02*
X197050000Y-100500000D01*
X202550000Y-100500000D02*
X202550000Y-103100000D01*
X197050000Y-100500000D02*
X197050000Y-103100000D01*
X202100000Y-103550000D02*
X202550000Y-103100000D01*
X197500000Y-103550000D02*
X197050000Y-103100000D01*
X200800000Y-104550000D02*
X198800000Y-104550000D01*
%TO.C,BTN_MAIN5*%
X190050000Y-104900000D02*
X190050000Y-106900000D01*
X191050000Y-103600000D02*
X191500000Y-103150000D01*
X191050000Y-108200000D02*
X191500000Y-108650000D01*
X191500000Y-103150000D02*
X194100000Y-103150000D01*
X191500000Y-108650000D02*
X194100000Y-108650000D01*
X194550000Y-103600000D02*
X194100000Y-103150000D01*
X194550000Y-108200000D02*
X194100000Y-108650000D01*
X195550000Y-104900000D02*
X195550000Y-106900000D01*
%TO.C,BTN_MAIN3*%
X184800000Y-104550000D02*
X186800000Y-104550000D01*
X183500000Y-103550000D02*
X183050000Y-103100000D01*
X188100000Y-103550000D02*
X188550000Y-103100000D01*
X183050000Y-103100000D02*
X183050000Y-100500000D01*
X188550000Y-103100000D02*
X188550000Y-100500000D01*
X183500000Y-100050000D02*
X183050000Y-100500000D01*
X188100000Y-100050000D02*
X188550000Y-100500000D01*
X184800000Y-99050000D02*
X186800000Y-99050000D01*
%TO.C,BTN_MAIN1*%
X190050000Y-96700000D02*
X190050000Y-98700000D01*
X191050000Y-95400000D02*
X191500000Y-94950000D01*
X191050000Y-100000000D02*
X191500000Y-100450000D01*
X191500000Y-94950000D02*
X194100000Y-94950000D01*
X191500000Y-100450000D02*
X194100000Y-100450000D01*
X194550000Y-95400000D02*
X194100000Y-94950000D01*
X194550000Y-100000000D02*
X194100000Y-100450000D01*
X195550000Y-96700000D02*
X195550000Y-98700000D01*
%TO.C,R10*%
X168887742Y-76627500D02*
X169362258Y-76627500D01*
X168887742Y-77672500D02*
X169362258Y-77672500D01*
%TO.C,R21*%
X174762742Y-85277500D02*
X175237258Y-85277500D01*
X174762742Y-86322500D02*
X175237258Y-86322500D01*
%TO.C,C5*%
X187239970Y-92961219D02*
X187438781Y-93160030D01*
X187961219Y-92239970D02*
X188160030Y-92438781D01*
%TO.C,R17*%
X175298303Y-96462770D02*
X174962770Y-96798303D01*
X176037230Y-97201697D02*
X175701697Y-97537230D01*
%TO.C,R20*%
X168887742Y-96427500D02*
X169362258Y-96427500D01*
X168887742Y-97472500D02*
X169362258Y-97472500D01*
%TO.C,R19*%
X168887742Y-94227500D02*
X169362258Y-94227500D01*
X168887742Y-95272500D02*
X169362258Y-95272500D01*
%TO.C,R16*%
X168887742Y-89827500D02*
X169362258Y-89827500D01*
X168887742Y-90872500D02*
X169362258Y-90872500D01*
%TO.C,R12*%
X168887742Y-81027500D02*
X169362258Y-81027500D01*
X168887742Y-82072500D02*
X169362258Y-82072500D01*
%TO.C,R7*%
X168887742Y-70027500D02*
X169362258Y-70027500D01*
X168887742Y-71072500D02*
X169362258Y-71072500D01*
%TO.C,R1*%
X168887742Y-98627500D02*
X169362258Y-98627500D01*
X168887742Y-99672500D02*
X169362258Y-99672500D01*
%TO.C,R3*%
X168887742Y-103027500D02*
X169362258Y-103027500D01*
X168887742Y-104072500D02*
X169362258Y-104072500D01*
%TO.C,C1*%
X176338781Y-97639970D02*
X176139970Y-97838781D01*
X177060030Y-98361219D02*
X176861219Y-98560030D01*
%TO.C,C6*%
X181239970Y-84738781D02*
X181438781Y-84539970D01*
X181961219Y-85460030D02*
X182160030Y-85261219D01*
%TO.C,R9*%
X168887742Y-74427500D02*
X169362258Y-74427500D01*
X168887742Y-75472500D02*
X169362258Y-75472500D01*
%TO.C,R15*%
X168887742Y-87627500D02*
X169362258Y-87627500D01*
X168887742Y-88672500D02*
X169362258Y-88672500D01*
%TO.C,U1*%
X175694689Y-91900000D02*
X176012887Y-92218198D01*
X176012887Y-91581802D02*
X175694689Y-91900000D01*
X180481802Y-87112887D02*
X180800000Y-86794689D01*
X180800000Y-86794689D02*
X181118198Y-87112887D01*
X180800000Y-97005311D02*
X180481802Y-96687113D01*
X181118198Y-96687113D02*
X180800000Y-97005311D01*
X185587113Y-92218198D02*
X185905311Y-91900000D01*
X185905311Y-91900000D02*
X185587113Y-91581802D01*
X175595694Y-92635391D02*
X175022938Y-92543467D01*
X175503770Y-92062635D01*
X175595694Y-92635391D01*
G36*
X175595694Y-92635391D02*
G01*
X175022938Y-92543467D01*
X175503770Y-92062635D01*
X175595694Y-92635391D01*
G37*
%TO.C,R11*%
X168887742Y-78827500D02*
X169362258Y-78827500D01*
X168887742Y-79872500D02*
X169362258Y-79872500D01*
%TO.C,C3*%
X173638781Y-91460030D02*
X173439970Y-91261219D01*
X174360030Y-90738781D02*
X174161219Y-90539970D01*
%TO.C,C4*%
X173438781Y-93939970D02*
X173239970Y-94138781D01*
X174160030Y-94661219D02*
X173961219Y-94860030D01*
%TO.C,C2*%
X177438781Y-98739970D02*
X177239970Y-98938781D01*
X178160030Y-99461219D02*
X177961219Y-99660030D01*
%TO.C,BT1*%
X181184389Y-59900326D02*
X180477282Y-60607433D01*
X181184389Y-60607433D02*
X180477282Y-59900326D01*
%TO.C,R5*%
X168887742Y-65627500D02*
X169362258Y-65627500D01*
X168887742Y-66672500D02*
X169362258Y-66672500D01*
%TO.C,R14*%
X168887742Y-85427500D02*
X169362258Y-85427500D01*
X168887742Y-86472500D02*
X169362258Y-86472500D01*
%TO.C,R13*%
X168887742Y-83227500D02*
X169362258Y-83227500D01*
X168887742Y-84272500D02*
X169362258Y-84272500D01*
%TO.C,R18*%
X168887742Y-92027500D02*
X169362258Y-92027500D01*
X168887742Y-93072500D02*
X169362258Y-93072500D01*
%TO.C,R2*%
X168887742Y-100827500D02*
X169362258Y-100827500D01*
X168887742Y-101872500D02*
X169362258Y-101872500D01*
%TO.C,R6*%
X168887742Y-67827500D02*
X169362258Y-67827500D01*
X168887742Y-68872500D02*
X169362258Y-68872500D01*
%TO.C,R4*%
X168887742Y-63427500D02*
X169362258Y-63427500D01*
X168887742Y-64472500D02*
X169362258Y-64472500D01*
%TO.C,R8*%
X168887742Y-72227500D02*
X169362258Y-72227500D01*
X168887742Y-73272500D02*
X169362258Y-73272500D01*
%TD*%
%LPC*%
D12*
%TO.C,BTN_MAIN4*%
X201675000Y-98800000D03*
X201675000Y-104800000D03*
X197925000Y-98800000D03*
X197925000Y-104800000D03*
%TD*%
D13*
%TO.C,BTN_MAIN5*%
X189800000Y-104025000D03*
X195800000Y-104025000D03*
X189800000Y-107775000D03*
X195800000Y-107775000D03*
%TD*%
D12*
%TO.C,BTN_MAIN3*%
X183925000Y-104800000D03*
X183925000Y-98800000D03*
X187675000Y-104800000D03*
X187675000Y-98800000D03*
%TD*%
D13*
%TO.C,BTN_MAIN1*%
X189800000Y-95825000D03*
X195800000Y-95825000D03*
X189800000Y-99575000D03*
X195800000Y-99575000D03*
%TD*%
D14*
%TO.C,D284*%
X156643153Y-98088182D03*
X157756847Y-96974488D03*
%TD*%
D15*
%TO.C,R10*%
X168300000Y-77150000D03*
X169950000Y-77150000D03*
%TD*%
D14*
%TO.C,D305*%
X163243153Y-100288182D03*
X164356847Y-99174488D03*
%TD*%
%TO.C,D195*%
X158843153Y-87088182D03*
X159956847Y-85974488D03*
%TD*%
%TO.C,D58*%
X134643153Y-71688182D03*
X135756847Y-70574488D03*
%TD*%
%TO.C,D273*%
X132443153Y-98088182D03*
X133556847Y-96974488D03*
%TD*%
%TO.C,D123*%
X158843153Y-78288182D03*
X159956847Y-77174488D03*
%TD*%
%TO.C,D56*%
X130243153Y-71688182D03*
X131356847Y-70574488D03*
%TD*%
%TO.C,D35*%
X163243153Y-67288182D03*
X164356847Y-66174488D03*
%TD*%
%TO.C,D317*%
X150043153Y-102488182D03*
X151156847Y-101374488D03*
%TD*%
%TO.C,D149*%
X136843153Y-82688182D03*
X137956847Y-81574488D03*
%TD*%
%TO.C,D21*%
X132443153Y-67288182D03*
X133556847Y-66174488D03*
%TD*%
%TO.C,D70*%
X161043153Y-71688182D03*
X162156847Y-70574488D03*
%TD*%
%TO.C,D271*%
X128043153Y-98088182D03*
X129156847Y-96974488D03*
%TD*%
%TO.C,D336*%
X152243153Y-104688182D03*
X153356847Y-103574488D03*
%TD*%
%TO.C,D341*%
X163243153Y-104688182D03*
X164356847Y-103574488D03*
%TD*%
%TO.C,D316*%
X147843153Y-102488182D03*
X148956847Y-101374488D03*
%TD*%
%TO.C,D177*%
X158843153Y-84888182D03*
X159956847Y-83774488D03*
%TD*%
D15*
%TO.C,R21*%
X174175000Y-85800000D03*
X175825000Y-85800000D03*
%TD*%
D16*
%TO.C,J1*%
X192860000Y-89554000D03*
D17*
X195400000Y-89300000D03*
X197939999Y-89554000D03*
X200480000Y-89300000D03*
X203020000Y-89554000D03*
%TD*%
D14*
%TO.C,D62*%
X143443153Y-71688182D03*
X144556847Y-70574488D03*
%TD*%
%TO.C,D63*%
X145643153Y-71688182D03*
X146756847Y-70574488D03*
%TD*%
%TO.C,D228*%
X152243153Y-91488182D03*
X153356847Y-90374488D03*
%TD*%
%TO.C,D60*%
X139043153Y-71688182D03*
X140156847Y-70574488D03*
%TD*%
%TO.C,D11*%
X150043153Y-65088182D03*
X151156847Y-63974488D03*
%TD*%
%TO.C,D14*%
X156643153Y-65088182D03*
X157756847Y-63974488D03*
%TD*%
%TO.C,D112*%
X134643153Y-78288182D03*
X135756847Y-77174488D03*
%TD*%
%TO.C,D257*%
X136843153Y-95888182D03*
X137956847Y-94774488D03*
%TD*%
%TO.C,D133*%
X141243153Y-80488182D03*
X142356847Y-79374488D03*
%TD*%
%TO.C,D310*%
X134643153Y-102488182D03*
X135756847Y-101374488D03*
%TD*%
%TO.C,D314*%
X143443153Y-102488182D03*
X144556847Y-101374488D03*
%TD*%
%TO.C,D243*%
X145643153Y-93688182D03*
X146756847Y-92574488D03*
%TD*%
%TO.C,D194*%
X156643153Y-87088182D03*
X157756847Y-85974488D03*
%TD*%
%TO.C,D233*%
X163243153Y-91488182D03*
X164356847Y-90374488D03*
%TD*%
D18*
%TO.C,C5*%
X187151992Y-92151992D03*
X188248008Y-93248008D03*
%TD*%
D14*
%TO.C,D327*%
X132443153Y-104688182D03*
X133556847Y-103574488D03*
%TD*%
%TO.C,D99*%
X145643153Y-76088182D03*
X146756847Y-74974488D03*
%TD*%
%TO.C,D300*%
X152243153Y-100288182D03*
X153356847Y-99174488D03*
%TD*%
%TO.C,D162*%
X165443153Y-82688182D03*
X166556847Y-81574488D03*
%TD*%
%TO.C,D262*%
X147843153Y-95888182D03*
X148956847Y-94774488D03*
%TD*%
%TO.C,D121*%
X154443153Y-78288182D03*
X155556847Y-77174488D03*
%TD*%
%TO.C,D326*%
X130243153Y-104688182D03*
X131356847Y-103574488D03*
%TD*%
%TO.C,D188*%
X143443153Y-87088182D03*
X144556847Y-85974488D03*
%TD*%
%TO.C,D291*%
X132443153Y-100288182D03*
X133556847Y-99174488D03*
%TD*%
%TO.C,D212*%
X156643153Y-89288182D03*
X157756847Y-88174488D03*
%TD*%
%TO.C,D128*%
X130243153Y-80488182D03*
X131356847Y-79374488D03*
%TD*%
%TO.C,D209*%
X150043153Y-89288182D03*
X151156847Y-88174488D03*
%TD*%
%TO.C,D293*%
X136843153Y-100288182D03*
X137956847Y-99174488D03*
%TD*%
%TO.C,D248*%
X156643153Y-93688182D03*
X157756847Y-92574488D03*
%TD*%
%TO.C,D213*%
X158843153Y-89288182D03*
X159956847Y-88174488D03*
%TD*%
%TO.C,D207*%
X145643153Y-89288182D03*
X146756847Y-88174488D03*
%TD*%
%TO.C,D306*%
X165443153Y-100288182D03*
X166556847Y-99174488D03*
%TD*%
%TO.C,D334*%
X147843153Y-104688182D03*
X148956847Y-103574488D03*
%TD*%
D19*
%TO.C,R17*%
X176083363Y-96416637D03*
X174916637Y-97583363D03*
%TD*%
D14*
%TO.C,D22*%
X134643153Y-67288182D03*
X135756847Y-66174488D03*
%TD*%
%TO.C,D276*%
X139043153Y-98088182D03*
X140156847Y-96974488D03*
%TD*%
%TO.C,D144*%
X165443153Y-80488182D03*
X166556847Y-79374488D03*
%TD*%
%TO.C,D279*%
X145643153Y-98088182D03*
X146756847Y-96974488D03*
%TD*%
%TO.C,D156*%
X152243153Y-82688182D03*
X153356847Y-81574488D03*
%TD*%
%TO.C,D241*%
X141243153Y-93688182D03*
X142356847Y-92574488D03*
%TD*%
%TO.C,D303*%
X158843153Y-100288182D03*
X159956847Y-99174488D03*
%TD*%
%TO.C,D136*%
X147843153Y-80488182D03*
X148956847Y-79374488D03*
%TD*%
%TO.C,D226*%
X147843153Y-91488182D03*
X148956847Y-90374488D03*
%TD*%
%TO.C,D182*%
X130243153Y-87088182D03*
X131356847Y-85974488D03*
%TD*%
%TO.C,D104*%
X156643153Y-76088182D03*
X157756847Y-74974488D03*
%TD*%
%TO.C,D298*%
X147843153Y-100288182D03*
X148956847Y-99174488D03*
%TD*%
%TO.C,D137*%
X150043153Y-80488182D03*
X151156847Y-79374488D03*
%TD*%
%TO.C,D39*%
X132443153Y-69488182D03*
X133556847Y-68374488D03*
%TD*%
%TO.C,D115*%
X141243153Y-78288182D03*
X142356847Y-77174488D03*
%TD*%
%TO.C,D24*%
X139043153Y-67288182D03*
X140156847Y-66174488D03*
%TD*%
%TO.C,D288*%
X165443153Y-98088182D03*
X166556847Y-96974488D03*
%TD*%
%TO.C,D190*%
X147843153Y-87088182D03*
X148956847Y-85974488D03*
%TD*%
%TO.C,D285*%
X158843153Y-98088182D03*
X159956847Y-96974488D03*
%TD*%
%TO.C,D204*%
X139043153Y-89288182D03*
X140156847Y-88174488D03*
%TD*%
%TO.C,D187*%
X141243153Y-87088182D03*
X142356847Y-85974488D03*
%TD*%
%TO.C,D321*%
X158843153Y-102488182D03*
X159956847Y-101374488D03*
%TD*%
%TO.C,D57*%
X132443153Y-71688182D03*
X133556847Y-70574488D03*
%TD*%
%TO.C,D131*%
X136843153Y-80488182D03*
X137956847Y-79374488D03*
%TD*%
%TO.C,D167*%
X136843153Y-84888182D03*
X137956847Y-83774488D03*
%TD*%
%TO.C,D124*%
X161043153Y-78288182D03*
X162156847Y-77174488D03*
%TD*%
D15*
%TO.C,R20*%
X168300000Y-96950000D03*
X169950000Y-96950000D03*
%TD*%
D14*
%TO.C,D192*%
X152243153Y-87088182D03*
X153356847Y-85974488D03*
%TD*%
%TO.C,D255*%
X132443153Y-95888182D03*
X133556847Y-94774488D03*
%TD*%
%TO.C,D19*%
X128043153Y-67288182D03*
X129156847Y-66174488D03*
%TD*%
%TO.C,D116*%
X143443153Y-78288182D03*
X144556847Y-77174488D03*
%TD*%
D15*
%TO.C,R19*%
X168300000Y-94750000D03*
X169950000Y-94750000D03*
%TD*%
D14*
%TO.C,D309*%
X132443153Y-102488182D03*
X133556847Y-101374488D03*
%TD*%
%TO.C,D45*%
X145643153Y-69488182D03*
X146756847Y-68374488D03*
%TD*%
%TO.C,D323*%
X163243153Y-102488182D03*
X164356847Y-101374488D03*
%TD*%
%TO.C,D86*%
X156643153Y-73888182D03*
X157756847Y-72774488D03*
%TD*%
%TO.C,D289*%
X128043153Y-100288182D03*
X129156847Y-99174488D03*
%TD*%
%TO.C,D218*%
X130243153Y-91488182D03*
X131356847Y-90374488D03*
%TD*%
%TO.C,D147*%
X132443153Y-82688182D03*
X133556847Y-81574488D03*
%TD*%
%TO.C,D82*%
X147843153Y-73888182D03*
X148956847Y-72774488D03*
%TD*%
%TO.C,D61*%
X141243153Y-71688182D03*
X142356847Y-70574488D03*
%TD*%
%TO.C,D12*%
X152243153Y-65088182D03*
X153356847Y-63974488D03*
%TD*%
%TO.C,D20*%
X130243153Y-67288182D03*
X131356847Y-66174488D03*
%TD*%
%TO.C,D92*%
X130243153Y-76088182D03*
X131356847Y-74974488D03*
%TD*%
%TO.C,D125*%
X163243153Y-78288182D03*
X164356847Y-77174488D03*
%TD*%
%TO.C,D186*%
X139043153Y-87088182D03*
X140156847Y-85974488D03*
%TD*%
%TO.C,D247*%
X154443153Y-93688182D03*
X155556847Y-92574488D03*
%TD*%
%TO.C,D161*%
X163243153Y-82688182D03*
X164356847Y-81574488D03*
%TD*%
%TO.C,D322*%
X161043153Y-102488182D03*
X162156847Y-101374488D03*
%TD*%
%TO.C,D157*%
X154443153Y-82688182D03*
X155556847Y-81574488D03*
%TD*%
%TO.C,D110*%
X130243153Y-78288182D03*
X131356847Y-77174488D03*
%TD*%
%TO.C,D235*%
X128043153Y-93688182D03*
X129156847Y-92574488D03*
%TD*%
%TO.C,D5*%
X136843153Y-65088182D03*
X137956847Y-63974488D03*
%TD*%
%TO.C,D36*%
X165443153Y-67288182D03*
X166556847Y-66174488D03*
%TD*%
%TO.C,D2*%
X130243153Y-65088182D03*
X131356847Y-63974488D03*
%TD*%
%TO.C,D174*%
X152243153Y-84888182D03*
X153356847Y-83774488D03*
%TD*%
%TO.C,D223*%
X141243153Y-91488182D03*
X142356847Y-90374488D03*
%TD*%
%TO.C,D43*%
X141243153Y-69488182D03*
X142356847Y-68374488D03*
%TD*%
%TO.C,D173*%
X150043153Y-84888182D03*
X151156847Y-83774488D03*
%TD*%
%TO.C,D87*%
X158843153Y-73888182D03*
X159956847Y-72774488D03*
%TD*%
%TO.C,D77*%
X136843153Y-73888182D03*
X137956847Y-72774488D03*
%TD*%
%TO.C,D180*%
X165443153Y-84888182D03*
X166556847Y-83774488D03*
%TD*%
%TO.C,D206*%
X143443153Y-89288182D03*
X144556847Y-88174488D03*
%TD*%
D15*
%TO.C,R16*%
X168300000Y-90350000D03*
X169950000Y-90350000D03*
%TD*%
D14*
%TO.C,D199*%
X128043153Y-89288182D03*
X129156847Y-88174488D03*
%TD*%
%TO.C,D253*%
X128043153Y-95888182D03*
X129156847Y-94774488D03*
%TD*%
%TO.C,D230*%
X156643153Y-91488182D03*
X157756847Y-90374488D03*
%TD*%
D15*
%TO.C,R12*%
X168300000Y-81550000D03*
X169950000Y-81550000D03*
%TD*%
D14*
%TO.C,D152*%
X143443153Y-82688182D03*
X144556847Y-81574488D03*
%TD*%
%TO.C,D304*%
X161043153Y-100288182D03*
X162156847Y-99174488D03*
%TD*%
%TO.C,D333*%
X145643153Y-104688182D03*
X146756847Y-103574488D03*
%TD*%
%TO.C,D44*%
X143443153Y-69488182D03*
X144556847Y-68374488D03*
%TD*%
D15*
%TO.C,R7*%
X168300000Y-70550000D03*
X169950000Y-70550000D03*
%TD*%
D14*
%TO.C,D93*%
X132443153Y-76088182D03*
X133556847Y-74974488D03*
%TD*%
%TO.C,D229*%
X154443153Y-91488182D03*
X155556847Y-90374488D03*
%TD*%
%TO.C,D179*%
X163243153Y-84888182D03*
X164356847Y-83774488D03*
%TD*%
%TO.C,D49*%
X154443153Y-69488182D03*
X155556847Y-68374488D03*
%TD*%
%TO.C,D278*%
X143443153Y-98088182D03*
X144556847Y-96974488D03*
%TD*%
%TO.C,D151*%
X141243153Y-82688182D03*
X142356847Y-81574488D03*
%TD*%
%TO.C,D311*%
X136843153Y-102488182D03*
X137956847Y-101374488D03*
%TD*%
%TO.C,D169*%
X141243153Y-84888182D03*
X142356847Y-83774488D03*
%TD*%
D15*
%TO.C,R1*%
X168300000Y-99150000D03*
X169950000Y-99150000D03*
%TD*%
D14*
%TO.C,D140*%
X156643153Y-80488182D03*
X157756847Y-79374488D03*
%TD*%
%TO.C,D130*%
X134643153Y-80488182D03*
X135756847Y-79374488D03*
%TD*%
%TO.C,D269*%
X163243153Y-95888182D03*
X164356847Y-94774488D03*
%TD*%
%TO.C,D90*%
X165443153Y-73888182D03*
X166556847Y-72774488D03*
%TD*%
%TO.C,D275*%
X136843153Y-98088182D03*
X137956847Y-96974488D03*
%TD*%
%TO.C,D120*%
X152243153Y-78288182D03*
X153356847Y-77174488D03*
%TD*%
%TO.C,D13*%
X154443153Y-65088182D03*
X155556847Y-63974488D03*
%TD*%
%TO.C,D72*%
X165443153Y-71688182D03*
X166556847Y-70574488D03*
%TD*%
%TO.C,D261*%
X145643153Y-95888182D03*
X146756847Y-94774488D03*
%TD*%
%TO.C,D339*%
X158843153Y-104688182D03*
X159956847Y-103574488D03*
%TD*%
%TO.C,D224*%
X143443153Y-91488182D03*
X144556847Y-90374488D03*
%TD*%
%TO.C,D338*%
X156643153Y-104688182D03*
X157756847Y-103574488D03*
%TD*%
%TO.C,D184*%
X134643153Y-87088182D03*
X135756847Y-85974488D03*
%TD*%
%TO.C,D245*%
X150043153Y-93688182D03*
X151156847Y-92574488D03*
%TD*%
%TO.C,D126*%
X165443153Y-78288182D03*
X166556847Y-77174488D03*
%TD*%
%TO.C,D1*%
X128043153Y-65088182D03*
X129156847Y-63974488D03*
%TD*%
%TO.C,D88*%
X161043153Y-73888182D03*
X162156847Y-72774488D03*
%TD*%
%TO.C,D208*%
X147843153Y-89288182D03*
X148956847Y-88174488D03*
%TD*%
%TO.C,D294*%
X139043153Y-100288182D03*
X140156847Y-99174488D03*
%TD*%
%TO.C,D117*%
X145643153Y-78288182D03*
X146756847Y-77174488D03*
%TD*%
D15*
%TO.C,R3*%
X168300000Y-103550000D03*
X169950000Y-103550000D03*
%TD*%
D14*
%TO.C,D315*%
X145643153Y-102488182D03*
X146756847Y-101374488D03*
%TD*%
%TO.C,D251*%
X163243153Y-93688182D03*
X164356847Y-92574488D03*
%TD*%
%TO.C,D249*%
X158843153Y-93688182D03*
X159956847Y-92574488D03*
%TD*%
%TO.C,D281*%
X150043153Y-98088182D03*
X151156847Y-96974488D03*
%TD*%
%TO.C,D42*%
X139043153Y-69488182D03*
X140156847Y-68374488D03*
%TD*%
%TO.C,D168*%
X139043153Y-84888182D03*
X140156847Y-83774488D03*
%TD*%
%TO.C,D138*%
X152243153Y-80488182D03*
X153356847Y-79374488D03*
%TD*%
%TO.C,D280*%
X147843153Y-98088182D03*
X148956847Y-96974488D03*
%TD*%
%TO.C,D154*%
X147843153Y-82688182D03*
X148956847Y-81574488D03*
%TD*%
D20*
%TO.C,C1*%
X177148008Y-97551992D03*
X176051992Y-98648008D03*
%TD*%
D14*
%TO.C,D335*%
X150043153Y-104688182D03*
X151156847Y-103574488D03*
%TD*%
%TO.C,D191*%
X150043153Y-87088182D03*
X151156847Y-85974488D03*
%TD*%
%TO.C,D50*%
X156643153Y-69488182D03*
X157756847Y-68374488D03*
%TD*%
%TO.C,D225*%
X145643153Y-91488182D03*
X146756847Y-90374488D03*
%TD*%
%TO.C,D301*%
X154443153Y-100288182D03*
X155556847Y-99174488D03*
%TD*%
%TO.C,D98*%
X143443153Y-76088182D03*
X144556847Y-74974488D03*
%TD*%
%TO.C,D232*%
X161043153Y-91488182D03*
X162156847Y-90374488D03*
%TD*%
D21*
%TO.C,C6*%
X181151992Y-85548008D03*
X182248008Y-84451992D03*
%TD*%
D14*
%TO.C,D38*%
X130243153Y-69488182D03*
X131356847Y-68374488D03*
%TD*%
%TO.C,D256*%
X134643153Y-95888182D03*
X135756847Y-94774488D03*
%TD*%
%TO.C,D221*%
X136843153Y-91488182D03*
X137956847Y-90374488D03*
%TD*%
%TO.C,D237*%
X132443153Y-93688182D03*
X133556847Y-92574488D03*
%TD*%
%TO.C,D28*%
X147843153Y-67288182D03*
X148956847Y-66174488D03*
%TD*%
%TO.C,D83*%
X150043153Y-73888182D03*
X151156847Y-72774488D03*
%TD*%
%TO.C,D205*%
X141243153Y-89288182D03*
X142356847Y-88174488D03*
%TD*%
%TO.C,D159*%
X158843153Y-82688182D03*
X159956847Y-81574488D03*
%TD*%
%TO.C,D41*%
X136843153Y-69488182D03*
X137956847Y-68374488D03*
%TD*%
%TO.C,D96*%
X139043153Y-76088182D03*
X140156847Y-74974488D03*
%TD*%
%TO.C,D146*%
X130243153Y-82688182D03*
X131356847Y-81574488D03*
%TD*%
D15*
%TO.C,R9*%
X168300000Y-74950000D03*
X169950000Y-74950000D03*
%TD*%
%TO.C,R15*%
X168300000Y-88150000D03*
X169950000Y-88150000D03*
%TD*%
D14*
%TO.C,D52*%
X161043153Y-69488182D03*
X162156847Y-68374488D03*
%TD*%
%TO.C,D202*%
X134643153Y-89288182D03*
X135756847Y-88174488D03*
%TD*%
%TO.C,D292*%
X134643153Y-100288182D03*
X135756847Y-99174488D03*
%TD*%
%TO.C,D40*%
X134643153Y-69488182D03*
X135756847Y-68374488D03*
%TD*%
%TO.C,D15*%
X158843153Y-65088182D03*
X159956847Y-63974488D03*
%TD*%
%TO.C,D302*%
X156643153Y-100288182D03*
X157756847Y-99174488D03*
%TD*%
%TO.C,D37*%
X128043153Y-69488182D03*
X129156847Y-68374488D03*
%TD*%
D22*
%TO.C,U1*%
X175912124Y-92898788D03*
X176265678Y-93252342D03*
X176619231Y-93605895D03*
X176972785Y-93959449D03*
X177326338Y-94313002D03*
X177679891Y-94666555D03*
X178033445Y-95020109D03*
X178386998Y-95373662D03*
X178740551Y-95727215D03*
X179094105Y-96080769D03*
X179447658Y-96434322D03*
X179801212Y-96787876D03*
D23*
X181798788Y-96787876D03*
X182152342Y-96434322D03*
X182505895Y-96080769D03*
X182859449Y-95727215D03*
X183213002Y-95373662D03*
X183566555Y-95020109D03*
X183920109Y-94666555D03*
X184273662Y-94313002D03*
X184627215Y-93959449D03*
X184980769Y-93605895D03*
X185334322Y-93252342D03*
X185687876Y-92898788D03*
D22*
X185687876Y-90901212D03*
X185334322Y-90547658D03*
X184980769Y-90194105D03*
X184627215Y-89840551D03*
X184273662Y-89486998D03*
X183920109Y-89133445D03*
X183566555Y-88779891D03*
X183213002Y-88426338D03*
X182859449Y-88072785D03*
X182505895Y-87719231D03*
X182152342Y-87365678D03*
X181798788Y-87012124D03*
D23*
X179801212Y-87012124D03*
X179447658Y-87365678D03*
X179094105Y-87719231D03*
X178740551Y-88072785D03*
X178386998Y-88426338D03*
X178033445Y-88779891D03*
X177679891Y-89133445D03*
X177326338Y-89486998D03*
X176972785Y-89840551D03*
X176619231Y-90194105D03*
X176265678Y-90547658D03*
X175912124Y-90901212D03*
%TD*%
D15*
%TO.C,R11*%
X168300000Y-79350000D03*
X169950000Y-79350000D03*
%TD*%
D14*
%TO.C,D158*%
X156643153Y-82688182D03*
X157756847Y-81574488D03*
%TD*%
%TO.C,D203*%
X136843153Y-89288182D03*
X137956847Y-88174488D03*
%TD*%
D24*
%TO.C,C3*%
X174448008Y-91548008D03*
X173351992Y-90451992D03*
%TD*%
D14*
%TO.C,D171*%
X145643153Y-84888182D03*
X146756847Y-83774488D03*
%TD*%
%TO.C,D67*%
X154443153Y-71688182D03*
X155556847Y-70574488D03*
%TD*%
%TO.C,D189*%
X145643153Y-87088182D03*
X146756847Y-85974488D03*
%TD*%
%TO.C,D320*%
X156643153Y-102488182D03*
X157756847Y-101374488D03*
%TD*%
%TO.C,D113*%
X136843153Y-78288182D03*
X137956847Y-77174488D03*
%TD*%
%TO.C,D231*%
X158843153Y-91488182D03*
X159956847Y-90374488D03*
%TD*%
%TO.C,D51*%
X158843153Y-69488182D03*
X159956847Y-68374488D03*
%TD*%
%TO.C,D29*%
X150043153Y-67288182D03*
X151156847Y-66174488D03*
%TD*%
%TO.C,D250*%
X161043153Y-93688182D03*
X162156847Y-92574488D03*
%TD*%
%TO.C,D47*%
X150043153Y-69488182D03*
X151156847Y-68374488D03*
%TD*%
%TO.C,D4*%
X134643153Y-65088182D03*
X135756847Y-63974488D03*
%TD*%
%TO.C,D340*%
X161043153Y-104688182D03*
X162156847Y-103574488D03*
%TD*%
%TO.C,D105*%
X158843153Y-76088182D03*
X159956847Y-74974488D03*
%TD*%
%TO.C,D215*%
X163243153Y-89288182D03*
X164356847Y-88174488D03*
%TD*%
%TO.C,D216*%
X165443153Y-89288182D03*
X166556847Y-88174488D03*
%TD*%
%TO.C,D160*%
X161043153Y-82688182D03*
X162156847Y-81574488D03*
%TD*%
%TO.C,D102*%
X152243153Y-76088182D03*
X153356847Y-74974488D03*
%TD*%
%TO.C,D170*%
X143443153Y-84888182D03*
X144556847Y-83774488D03*
%TD*%
%TO.C,D260*%
X143443153Y-95888182D03*
X144556847Y-94774488D03*
%TD*%
%TO.C,D119*%
X150043153Y-78288182D03*
X151156847Y-77174488D03*
%TD*%
%TO.C,D48*%
X152243153Y-69488182D03*
X153356847Y-68374488D03*
%TD*%
%TO.C,D26*%
X143443153Y-67288182D03*
X144556847Y-66174488D03*
%TD*%
%TO.C,D55*%
X128043153Y-71688182D03*
X129156847Y-70574488D03*
%TD*%
%TO.C,D163*%
X128043153Y-84888182D03*
X129156847Y-83774488D03*
%TD*%
%TO.C,D193*%
X154443153Y-87088182D03*
X155556847Y-85974488D03*
%TD*%
%TO.C,D31*%
X154443153Y-67288182D03*
X155556847Y-66174488D03*
%TD*%
%TO.C,D23*%
X136843153Y-67288182D03*
X137956847Y-66174488D03*
%TD*%
%TO.C,D282*%
X152243153Y-98088182D03*
X153356847Y-96974488D03*
%TD*%
%TO.C,D196*%
X161043153Y-87088182D03*
X162156847Y-85974488D03*
%TD*%
%TO.C,D201*%
X132443153Y-89288182D03*
X133556847Y-88174488D03*
%TD*%
%TO.C,D127*%
X128043153Y-80488182D03*
X129156847Y-79374488D03*
%TD*%
%TO.C,D197*%
X163243153Y-87088182D03*
X164356847Y-85974488D03*
%TD*%
%TO.C,D79*%
X141243153Y-73888182D03*
X142356847Y-72774488D03*
%TD*%
%TO.C,D65*%
X150043153Y-71688182D03*
X151156847Y-70574488D03*
%TD*%
%TO.C,D114*%
X139043153Y-78288182D03*
X140156847Y-77174488D03*
%TD*%
%TO.C,D307*%
X128043153Y-102488182D03*
X129156847Y-101374488D03*
%TD*%
%TO.C,D240*%
X139043153Y-93688182D03*
X140156847Y-92574488D03*
%TD*%
%TO.C,D178*%
X161043153Y-84888182D03*
X162156847Y-83774488D03*
%TD*%
%TO.C,D296*%
X143443153Y-100288182D03*
X144556847Y-99174488D03*
%TD*%
%TO.C,D34*%
X161043153Y-67288182D03*
X162156847Y-66174488D03*
%TD*%
%TO.C,D211*%
X154443153Y-89288182D03*
X155556847Y-88174488D03*
%TD*%
%TO.C,D142*%
X161043153Y-80488182D03*
X162156847Y-79374488D03*
%TD*%
%TO.C,D220*%
X134643153Y-91488182D03*
X135756847Y-90374488D03*
%TD*%
%TO.C,D236*%
X130243153Y-93688182D03*
X131356847Y-92574488D03*
%TD*%
%TO.C,D331*%
X141243153Y-104688182D03*
X142356847Y-103574488D03*
%TD*%
%TO.C,D103*%
X154443153Y-76088182D03*
X155556847Y-74974488D03*
%TD*%
%TO.C,D9*%
X145643153Y-65088182D03*
X146756847Y-63974488D03*
%TD*%
%TO.C,D297*%
X145643153Y-100288182D03*
X146756847Y-99174488D03*
%TD*%
%TO.C,D25*%
X141243153Y-67288182D03*
X142356847Y-66174488D03*
%TD*%
%TO.C,D132*%
X139043153Y-80488182D03*
X140156847Y-79374488D03*
%TD*%
%TO.C,D53*%
X163243153Y-69488182D03*
X164356847Y-68374488D03*
%TD*%
%TO.C,D324*%
X165443153Y-102488182D03*
X166556847Y-101374488D03*
%TD*%
D20*
%TO.C,C4*%
X174248008Y-93851992D03*
X173151992Y-94948008D03*
%TD*%
D14*
%TO.C,D122*%
X156643153Y-78288182D03*
X157756847Y-77174488D03*
%TD*%
%TO.C,D111*%
X132443153Y-78288182D03*
X133556847Y-77174488D03*
%TD*%
%TO.C,D141*%
X158843153Y-80488182D03*
X159956847Y-79374488D03*
%TD*%
%TO.C,D91*%
X128043153Y-76088182D03*
X129156847Y-74974488D03*
%TD*%
%TO.C,D308*%
X130243153Y-102488182D03*
X131356847Y-101374488D03*
%TD*%
%TO.C,D100*%
X147843153Y-76088182D03*
X148956847Y-74974488D03*
%TD*%
%TO.C,D153*%
X145643153Y-82688182D03*
X146756847Y-81574488D03*
%TD*%
%TO.C,D270*%
X165443153Y-95888182D03*
X166556847Y-94774488D03*
%TD*%
D20*
%TO.C,C2*%
X178248008Y-98651992D03*
X177151992Y-99748008D03*
%TD*%
D14*
%TO.C,D265*%
X154443153Y-95888182D03*
X155556847Y-94774488D03*
%TD*%
%TO.C,D267*%
X158843153Y-95888182D03*
X159956847Y-94774488D03*
%TD*%
%TO.C,D68*%
X156643153Y-71688182D03*
X157756847Y-70574488D03*
%TD*%
%TO.C,D183*%
X132443153Y-87088182D03*
X133556847Y-85974488D03*
%TD*%
%TO.C,D27*%
X145643153Y-67288182D03*
X146756847Y-66174488D03*
%TD*%
%TO.C,D6*%
X139043153Y-65088182D03*
X140156847Y-63974488D03*
%TD*%
%TO.C,D175*%
X154443153Y-84888182D03*
X155556847Y-83774488D03*
%TD*%
%TO.C,D89*%
X163243153Y-73888182D03*
X164356847Y-72774488D03*
%TD*%
%TO.C,D16*%
X161043153Y-65088182D03*
X162156847Y-63974488D03*
%TD*%
D25*
%TO.C,BT1*%
X179558043Y-62516622D03*
D26*
X200841957Y-84083378D03*
%TD*%
D15*
%TO.C,R5*%
X168300000Y-66150000D03*
X169950000Y-66150000D03*
%TD*%
D14*
%TO.C,D81*%
X145643153Y-73888182D03*
X146756847Y-72774488D03*
%TD*%
%TO.C,D210*%
X152243153Y-89288182D03*
X153356847Y-88174488D03*
%TD*%
%TO.C,D227*%
X150043153Y-91488182D03*
X151156847Y-90374488D03*
%TD*%
%TO.C,D295*%
X141243153Y-100288182D03*
X142356847Y-99174488D03*
%TD*%
%TO.C,D17*%
X163243153Y-65088182D03*
X164356847Y-63974488D03*
%TD*%
%TO.C,D74*%
X130243153Y-73888182D03*
X131356847Y-72774488D03*
%TD*%
%TO.C,D287*%
X163243153Y-98088182D03*
X164356847Y-96974488D03*
%TD*%
%TO.C,D234*%
X165443153Y-91488182D03*
X166556847Y-90374488D03*
%TD*%
%TO.C,D222*%
X139043153Y-91488182D03*
X140156847Y-90374488D03*
%TD*%
%TO.C,D299*%
X150043153Y-100288182D03*
X151156847Y-99174488D03*
%TD*%
%TO.C,D33*%
X158843153Y-67288182D03*
X159956847Y-66174488D03*
%TD*%
%TO.C,D286*%
X161043153Y-98088182D03*
X162156847Y-96974488D03*
%TD*%
D15*
%TO.C,R14*%
X168300000Y-85950000D03*
X169950000Y-85950000D03*
%TD*%
%TO.C,R13*%
X168300000Y-83750000D03*
X169950000Y-83750000D03*
%TD*%
D14*
%TO.C,D172*%
X147843153Y-84888182D03*
X148956847Y-83774488D03*
%TD*%
D15*
%TO.C,R18*%
X168300000Y-92550000D03*
X169950000Y-92550000D03*
%TD*%
D14*
%TO.C,D94*%
X134643153Y-76088182D03*
X135756847Y-74974488D03*
%TD*%
%TO.C,D258*%
X139043153Y-95888182D03*
X140156847Y-94774488D03*
%TD*%
%TO.C,D268*%
X161043153Y-95888182D03*
X162156847Y-94774488D03*
%TD*%
%TO.C,D318*%
X152243153Y-102488182D03*
X153356847Y-101374488D03*
%TD*%
%TO.C,D252*%
X165443153Y-93688182D03*
X166556847Y-92574488D03*
%TD*%
%TO.C,D54*%
X165443153Y-69488182D03*
X166556847Y-68374488D03*
%TD*%
%TO.C,D107*%
X163243153Y-76088182D03*
X164356847Y-74974488D03*
%TD*%
%TO.C,D95*%
X136843153Y-76088182D03*
X137956847Y-74974488D03*
%TD*%
%TO.C,D135*%
X145643153Y-80488182D03*
X146756847Y-79374488D03*
%TD*%
%TO.C,D332*%
X143443153Y-104688182D03*
X144556847Y-103574488D03*
%TD*%
%TO.C,D312*%
X139043153Y-102488182D03*
X140156847Y-101374488D03*
%TD*%
%TO.C,D181*%
X128043153Y-87088182D03*
X129156847Y-85974488D03*
%TD*%
%TO.C,D264*%
X152243153Y-95888182D03*
X153356847Y-94774488D03*
%TD*%
%TO.C,D239*%
X136843153Y-93688182D03*
X137956847Y-92574488D03*
%TD*%
%TO.C,D46*%
X147843153Y-69488182D03*
X148956847Y-68374488D03*
%TD*%
%TO.C,D75*%
X132443153Y-73888182D03*
X133556847Y-72774488D03*
%TD*%
%TO.C,D101*%
X150043153Y-76088182D03*
X151156847Y-74974488D03*
%TD*%
%TO.C,D200*%
X130243153Y-89288182D03*
X131356847Y-88174488D03*
%TD*%
%TO.C,D59*%
X136843153Y-71688182D03*
X137956847Y-70574488D03*
%TD*%
%TO.C,D71*%
X163243153Y-71688182D03*
X164356847Y-70574488D03*
%TD*%
%TO.C,D244*%
X147843153Y-93688182D03*
X148956847Y-92574488D03*
%TD*%
%TO.C,D164*%
X130243153Y-84888182D03*
X131356847Y-83774488D03*
%TD*%
%TO.C,D3*%
X132443153Y-65088182D03*
X133556847Y-63974488D03*
%TD*%
%TO.C,D319*%
X154443153Y-102488182D03*
X155556847Y-101374488D03*
%TD*%
%TO.C,D78*%
X139043153Y-73888182D03*
X140156847Y-72774488D03*
%TD*%
%TO.C,D155*%
X150043153Y-82688182D03*
X151156847Y-81574488D03*
%TD*%
%TO.C,D30*%
X152243153Y-67288182D03*
X153356847Y-66174488D03*
%TD*%
%TO.C,D66*%
X152243153Y-71688182D03*
X153356847Y-70574488D03*
%TD*%
%TO.C,D76*%
X134643153Y-73888182D03*
X135756847Y-72774488D03*
%TD*%
%TO.C,D238*%
X134643153Y-93688182D03*
X135756847Y-92574488D03*
%TD*%
%TO.C,D118*%
X147843153Y-78288182D03*
X148956847Y-77174488D03*
%TD*%
%TO.C,D254*%
X130243153Y-95888182D03*
X131356847Y-94774488D03*
%TD*%
%TO.C,D185*%
X136843153Y-87088182D03*
X137956847Y-85974488D03*
%TD*%
%TO.C,D328*%
X134643153Y-104688182D03*
X135756847Y-103574488D03*
%TD*%
%TO.C,D272*%
X130243153Y-98088182D03*
X131356847Y-96974488D03*
%TD*%
%TO.C,D176*%
X156643153Y-84888182D03*
X157756847Y-83774488D03*
%TD*%
%TO.C,D18*%
X165443153Y-65088182D03*
X166556847Y-63974488D03*
%TD*%
%TO.C,D150*%
X139043153Y-82688182D03*
X140156847Y-81574488D03*
%TD*%
%TO.C,D85*%
X154443153Y-73888182D03*
X155556847Y-72774488D03*
%TD*%
%TO.C,D325*%
X128043153Y-104688182D03*
X129156847Y-103574488D03*
%TD*%
D15*
%TO.C,R2*%
X168300000Y-101350000D03*
X169950000Y-101350000D03*
%TD*%
%TO.C,R6*%
X168300000Y-68350000D03*
X169950000Y-68350000D03*
%TD*%
D14*
%TO.C,D198*%
X165443153Y-87088182D03*
X166556847Y-85974488D03*
%TD*%
%TO.C,D219*%
X132443153Y-91488182D03*
X133556847Y-90374488D03*
%TD*%
%TO.C,D8*%
X143443153Y-65088182D03*
X144556847Y-63974488D03*
%TD*%
%TO.C,D266*%
X156643153Y-95888182D03*
X157756847Y-94774488D03*
%TD*%
%TO.C,D330*%
X139043153Y-104688182D03*
X140156847Y-103574488D03*
%TD*%
%TO.C,D64*%
X147843153Y-71688182D03*
X148956847Y-70574488D03*
%TD*%
%TO.C,D7*%
X141243153Y-65088182D03*
X142356847Y-63974488D03*
%TD*%
%TO.C,D106*%
X161043153Y-76088182D03*
X162156847Y-74974488D03*
%TD*%
%TO.C,D313*%
X141243153Y-102488182D03*
X142356847Y-101374488D03*
%TD*%
%TO.C,D214*%
X161043153Y-89288182D03*
X162156847Y-88174488D03*
%TD*%
%TO.C,D290*%
X130243153Y-100288182D03*
X131356847Y-99174488D03*
%TD*%
%TO.C,D143*%
X163243153Y-80488182D03*
X164356847Y-79374488D03*
%TD*%
%TO.C,D32*%
X156643153Y-67288182D03*
X157756847Y-66174488D03*
%TD*%
%TO.C,D69*%
X158843153Y-71688182D03*
X159956847Y-70574488D03*
%TD*%
%TO.C,D148*%
X134643153Y-82688182D03*
X135756847Y-81574488D03*
%TD*%
%TO.C,D145*%
X128043153Y-82688182D03*
X129156847Y-81574488D03*
%TD*%
%TO.C,D217*%
X128043153Y-91488182D03*
X129156847Y-90374488D03*
%TD*%
%TO.C,D329*%
X136843153Y-104688182D03*
X137956847Y-103574488D03*
%TD*%
D15*
%TO.C,R4*%
X168300000Y-63950000D03*
X169950000Y-63950000D03*
%TD*%
D14*
%TO.C,D259*%
X141243153Y-95888182D03*
X142356847Y-94774488D03*
%TD*%
%TO.C,D277*%
X141243153Y-98088182D03*
X142356847Y-96974488D03*
%TD*%
%TO.C,D166*%
X134643153Y-84888182D03*
X135756847Y-83774488D03*
%TD*%
%TO.C,D108*%
X165443153Y-76088182D03*
X166556847Y-74974488D03*
%TD*%
%TO.C,D10*%
X147843153Y-65088182D03*
X148956847Y-63974488D03*
%TD*%
%TO.C,D84*%
X152243153Y-73888182D03*
X153356847Y-72774488D03*
%TD*%
%TO.C,D246*%
X152243153Y-93688182D03*
X153356847Y-92574488D03*
%TD*%
%TO.C,D134*%
X143443153Y-80488182D03*
X144556847Y-79374488D03*
%TD*%
%TO.C,D139*%
X154443153Y-80488182D03*
X155556847Y-79374488D03*
%TD*%
%TO.C,D263*%
X150043153Y-95888182D03*
X151156847Y-94774488D03*
%TD*%
%TO.C,D109*%
X128043153Y-78288182D03*
X129156847Y-77174488D03*
%TD*%
%TO.C,D165*%
X132443153Y-84888182D03*
X133556847Y-83774488D03*
%TD*%
D15*
%TO.C,R8*%
X168300000Y-72750000D03*
X169950000Y-72750000D03*
%TD*%
D14*
%TO.C,D274*%
X134643153Y-98088182D03*
X135756847Y-96974488D03*
%TD*%
%TO.C,D80*%
X143443153Y-73888182D03*
X144556847Y-72774488D03*
%TD*%
%TO.C,D242*%
X143443153Y-93688182D03*
X144556847Y-92574488D03*
%TD*%
%TO.C,D97*%
X141243153Y-76088182D03*
X142356847Y-74974488D03*
%TD*%
%TO.C,D283*%
X154443153Y-98088182D03*
X155556847Y-96974488D03*
%TD*%
%TO.C,D73*%
X128043153Y-73888182D03*
X129156847Y-72774488D03*
%TD*%
%TO.C,D337*%
X154443153Y-104688182D03*
X155556847Y-103574488D03*
%TD*%
%TO.C,D129*%
X132443153Y-80488182D03*
X133556847Y-79374488D03*
%TD*%
%TO.C,D342*%
X165443153Y-104688182D03*
X166556847Y-103574488D03*
%TD*%
G36*
X201200642Y-57300007D02*
G01*
X201413471Y-57302328D01*
X201422926Y-57302793D01*
X201847549Y-57339943D01*
X201858274Y-57341355D01*
X202277376Y-57415253D01*
X202287938Y-57417594D01*
X202699019Y-57527743D01*
X202709335Y-57530996D01*
X203109240Y-57676549D01*
X203119235Y-57680689D01*
X203504937Y-57860545D01*
X203514532Y-57865540D01*
X203883083Y-58078323D01*
X203892207Y-58084135D01*
X204240820Y-58328237D01*
X204249402Y-58334822D01*
X204575420Y-58608383D01*
X204583395Y-58615692D01*
X204884307Y-58916604D01*
X204891616Y-58924579D01*
X205165177Y-59250597D01*
X205171762Y-59259179D01*
X205415864Y-59607792D01*
X205421676Y-59616916D01*
X205634459Y-59985467D01*
X205639454Y-59995062D01*
X205819310Y-60380764D01*
X205823450Y-60390759D01*
X205969003Y-60790664D01*
X205972256Y-60800980D01*
X206082405Y-61212061D01*
X206084746Y-61222623D01*
X206158644Y-61641725D01*
X206160056Y-61652450D01*
X206197206Y-62077073D01*
X206197671Y-62086527D01*
X206199993Y-62299357D01*
X206200000Y-62300710D01*
X206200000Y-106299289D01*
X206199993Y-106300642D01*
X206197671Y-106513472D01*
X206197206Y-106522926D01*
X206160056Y-106947549D01*
X206158644Y-106958274D01*
X206084746Y-107377376D01*
X206082405Y-107387938D01*
X205972256Y-107799019D01*
X205969003Y-107809335D01*
X205823450Y-108209240D01*
X205819310Y-108219235D01*
X205639454Y-108604937D01*
X205634459Y-108614532D01*
X205421676Y-108983083D01*
X205415864Y-108992207D01*
X205171762Y-109340820D01*
X205165177Y-109349402D01*
X204891616Y-109675420D01*
X204884307Y-109683395D01*
X204583395Y-109984307D01*
X204575420Y-109991616D01*
X204249402Y-110265177D01*
X204240820Y-110271762D01*
X203892207Y-110515864D01*
X203883083Y-110521676D01*
X203514532Y-110734459D01*
X203504937Y-110739454D01*
X203119235Y-110919310D01*
X203109240Y-110923450D01*
X202709335Y-111069003D01*
X202699019Y-111072256D01*
X202287938Y-111182405D01*
X202277376Y-111184746D01*
X201858274Y-111258644D01*
X201847549Y-111260056D01*
X201422926Y-111297206D01*
X201413472Y-111297671D01*
X201200643Y-111299993D01*
X201199290Y-111300000D01*
X126200710Y-111300000D01*
X126199357Y-111299993D01*
X125986527Y-111297671D01*
X125977073Y-111297206D01*
X125552450Y-111260056D01*
X125541725Y-111258644D01*
X125122623Y-111184746D01*
X125112061Y-111182405D01*
X124700980Y-111072256D01*
X124690664Y-111069003D01*
X124290759Y-110923450D01*
X124280764Y-110919310D01*
X123895062Y-110739454D01*
X123885467Y-110734459D01*
X123516916Y-110521676D01*
X123507792Y-110515864D01*
X123159179Y-110271762D01*
X123150597Y-110265177D01*
X122824579Y-109991616D01*
X122816604Y-109984307D01*
X122515692Y-109683395D01*
X122508383Y-109675420D01*
X122234822Y-109349402D01*
X122228237Y-109340820D01*
X121984135Y-108992207D01*
X121978323Y-108983083D01*
X121765540Y-108614532D01*
X121760545Y-108604937D01*
X121580689Y-108219235D01*
X121576549Y-108209240D01*
X121430996Y-107809335D01*
X121427743Y-107799019D01*
X121317594Y-107387938D01*
X121315253Y-107377376D01*
X121241355Y-106958274D01*
X121239943Y-106947549D01*
X121202793Y-106522926D01*
X121202328Y-106513471D01*
X121200007Y-106300641D01*
X121200000Y-106299289D01*
X121200000Y-62300710D01*
X121200004Y-62300013D01*
X123200000Y-62300013D01*
X123200000Y-106299986D01*
X123202360Y-106468348D01*
X123240054Y-106802900D01*
X123240057Y-106802914D01*
X123314977Y-107131164D01*
X123314980Y-107131172D01*
X123426179Y-107448958D01*
X123572259Y-107752297D01*
X123751389Y-108037380D01*
X123961310Y-108300614D01*
X124199385Y-108538689D01*
X124462619Y-108748610D01*
X124747702Y-108927740D01*
X125051041Y-109073820D01*
X125368827Y-109185019D01*
X125368835Y-109185022D01*
X125697085Y-109259942D01*
X125697099Y-109259945D01*
X126031651Y-109297639D01*
X126031650Y-109297639D01*
X126200013Y-109300000D01*
X201199987Y-109300000D01*
X201368348Y-109297639D01*
X201702900Y-109259945D01*
X201702914Y-109259942D01*
X202031164Y-109185022D01*
X202031172Y-109185019D01*
X202348958Y-109073820D01*
X202652297Y-108927740D01*
X202937380Y-108748610D01*
X203200614Y-108538689D01*
X203438689Y-108300614D01*
X203648610Y-108037380D01*
X203827740Y-107752297D01*
X203973820Y-107448958D01*
X204085019Y-107131172D01*
X204085022Y-107131164D01*
X204159942Y-106802914D01*
X204159945Y-106802900D01*
X204197639Y-106468348D01*
X204200000Y-106299986D01*
X204200000Y-62300013D01*
X204197639Y-62131651D01*
X204159945Y-61797099D01*
X204159942Y-61797085D01*
X204085022Y-61468835D01*
X204085019Y-61468827D01*
X203973820Y-61151041D01*
X203827740Y-60847702D01*
X203648610Y-60562619D01*
X203438689Y-60299385D01*
X203200614Y-60061310D01*
X202937380Y-59851389D01*
X202652297Y-59672259D01*
X202348958Y-59526179D01*
X202031172Y-59414980D01*
X202031164Y-59414977D01*
X201702914Y-59340057D01*
X201702900Y-59340054D01*
X201368348Y-59302360D01*
X201368349Y-59302360D01*
X201199987Y-59300000D01*
X126200013Y-59300000D01*
X126031651Y-59302360D01*
X125697099Y-59340054D01*
X125697085Y-59340057D01*
X125368835Y-59414977D01*
X125368827Y-59414980D01*
X125051041Y-59526179D01*
X124747702Y-59672259D01*
X124462619Y-59851389D01*
X124199385Y-60061310D01*
X123961310Y-60299385D01*
X123751389Y-60562619D01*
X123572259Y-60847702D01*
X123426179Y-61151041D01*
X123314980Y-61468827D01*
X123314977Y-61468835D01*
X123240057Y-61797085D01*
X123240054Y-61797099D01*
X123202360Y-62131651D01*
X123200000Y-62300013D01*
X121200004Y-62300013D01*
X121200007Y-62299358D01*
X121202328Y-62086528D01*
X121202793Y-62077073D01*
X121239943Y-61652450D01*
X121241355Y-61641725D01*
X121315253Y-61222623D01*
X121317594Y-61212061D01*
X121427743Y-60800980D01*
X121430996Y-60790664D01*
X121576549Y-60390759D01*
X121580689Y-60380764D01*
X121760545Y-59995062D01*
X121765540Y-59985467D01*
X121978323Y-59616916D01*
X121984135Y-59607792D01*
X122228237Y-59259179D01*
X122234822Y-59250597D01*
X122508383Y-58924579D01*
X122515692Y-58916604D01*
X122816604Y-58615692D01*
X122824579Y-58608383D01*
X123150597Y-58334822D01*
X123159179Y-58328237D01*
X123507792Y-58084135D01*
X123516916Y-58078323D01*
X123885467Y-57865540D01*
X123895062Y-57860545D01*
X124280764Y-57680689D01*
X124290759Y-57676549D01*
X124690664Y-57530996D01*
X124700980Y-57527743D01*
X125112061Y-57417594D01*
X125122623Y-57415253D01*
X125541725Y-57341355D01*
X125552450Y-57339943D01*
X125977073Y-57302793D01*
X125986528Y-57302328D01*
X126199358Y-57300007D01*
X126200710Y-57300000D01*
X201199290Y-57300000D01*
X201200642Y-57300007D01*
G37*
%LPD*%
M02*
