M48
; DRILL file {KiCad 9.0.2} date 2025-10-11T19:40:46+0200
; FORMAT={-:-/ absolute / inch / decimal}
; #@! TF.CreationDate,2025-10-11T19:40:46+02:00
; #@! TF.GenerationSoftware,Kicad,Pcbnew,9.0.2
; #@! TF.FileFunction,Plated,1,2,PTH
FMAT,2
INCH
; #@! TA.AperFunction,Plated,PTH,ViaDrill
T1C0.0118
%
G90
G05
T1
X5.0455Y-2.5246
X5.0455Y-2.6978
X5.0455Y-2.7844
X5.0455Y-2.871
X5.0455Y-2.9577
X5.0455Y-3.0443
X5.0455Y-3.1309
X5.0455Y-3.2175
X5.0455Y-3.3041
X5.0455Y-3.3907
X5.0455Y-3.4773
X5.0455Y-3.564
X5.0455Y-3.6506
X5.0455Y-3.7372
X5.0455Y-3.8238
X5.0455Y-3.9104
X5.0455Y-3.997
X5.0455Y-4.0836
X5.0883Y-2.655
X5.1322Y-2.5246
X5.1322Y-2.6112
X5.1322Y-2.6978
X5.1322Y-2.7844
X5.1322Y-2.871
X5.1322Y-2.9577
X5.1322Y-3.0443
X5.1322Y-3.1309
X5.1322Y-3.2175
X5.1322Y-3.3041
X5.1322Y-3.3907
X5.1322Y-3.4773
X5.1322Y-3.564
X5.1322Y-3.6506
X5.1322Y-3.7372
X5.1322Y-3.8238
X5.1322Y-3.9104
X5.1322Y-3.997
X5.1322Y-4.0836
X5.1749Y-2.7417
X5.2188Y-2.5246
X5.2188Y-2.6112
X5.2188Y-2.6978
X5.2188Y-2.7844
X5.2188Y-2.871
X5.2188Y-2.9577
X5.2188Y-3.0443
X5.2188Y-3.1309
X5.2188Y-3.2175
X5.2188Y-3.3041
X5.2188Y-3.3907
X5.2188Y-3.4773
X5.2188Y-3.564
X5.2188Y-3.6506
X5.2188Y-3.7372
X5.2188Y-3.8238
X5.2188Y-3.9104
X5.2188Y-3.997
X5.2188Y-4.0836
X5.2615Y-2.8283
X5.3054Y-2.5246
X5.3054Y-2.6112
X5.3054Y-2.6978
X5.3054Y-2.7844
X5.3054Y-2.871
X5.3054Y-2.9577
X5.3054Y-3.0443
X5.3054Y-3.1309
X5.3054Y-3.2175
X5.3054Y-3.3041
X5.3054Y-3.3907
X5.3054Y-3.4773
X5.3054Y-3.564
X5.3054Y-3.6506
X5.3054Y-3.7372
X5.3054Y-3.8238
X5.3054Y-3.9104
X5.3054Y-3.997
X5.3054Y-4.0836
X5.3482Y-2.9149
X5.392Y-2.5246
X5.392Y-2.6112
X5.392Y-2.6978
X5.392Y-2.7844
X5.392Y-2.871
X5.392Y-2.9577
X5.392Y-3.0443
X5.392Y-3.1309
X5.392Y-3.2175
X5.392Y-3.3041
X5.392Y-3.3907
X5.392Y-3.4773
X5.392Y-3.564
X5.392Y-3.6506
X5.392Y-3.7372
X5.392Y-3.8238
X5.392Y-3.9104
X5.392Y-3.997
X5.392Y-4.0836
X5.4348Y-3.0015
X5.4786Y-2.5246
X5.4786Y-2.6112
X5.4786Y-2.6978
X5.4786Y-2.7844
X5.4786Y-2.871
X5.4786Y-2.9577
X5.4786Y-3.0443
X5.4786Y-3.1309
X5.4786Y-3.2175
X5.4786Y-3.3041
X5.4786Y-3.3907
X5.4786Y-3.4773
X5.4786Y-3.564
X5.4786Y-3.6506
X5.4786Y-3.7372
X5.4786Y-3.8238
X5.4786Y-3.9104
X5.4786Y-3.997
X5.4786Y-4.0836
X5.5214Y-3.0881
X5.5652Y-2.5246
X5.5652Y-2.6112
X5.5652Y-2.6978
X5.5652Y-2.7844
X5.5652Y-2.871
X5.5652Y-2.9577
X5.5652Y-3.0443
X5.5652Y-3.1309
X5.5652Y-3.2175
X5.5652Y-3.3041
X5.5652Y-3.3907
X5.5652Y-3.4773
X5.5652Y-3.564
X5.5652Y-3.6506
X5.5652Y-3.7372
X5.5652Y-3.8238
X5.5652Y-3.9104
X5.5652Y-3.997
X5.5652Y-4.0836
X5.608Y-3.1747
X5.6518Y-2.5246
X5.6518Y-2.6112
X5.6518Y-2.6978
X5.6518Y-2.7844
X5.6518Y-2.871
X5.6518Y-2.9577
X5.6518Y-3.0443
X5.6518Y-3.1309
X5.6518Y-3.2175
X5.6518Y-3.3041
X5.6518Y-3.3907
X5.6518Y-3.4773
X5.6518Y-3.564
X5.6518Y-3.6506
X5.6518Y-3.7372
X5.6518Y-3.8238
X5.6518Y-3.9104
X5.6518Y-3.997
X5.6518Y-4.0836
X5.6946Y-3.2613
X5.7385Y-2.5246
X5.7385Y-2.6112
X5.7385Y-2.6978
X5.7385Y-2.7844
X5.7385Y-2.871
X5.7385Y-2.9577
X5.7385Y-3.0443
X5.7385Y-3.1309
X5.7385Y-3.2175
X5.7385Y-3.3041
X5.7385Y-3.3907
X5.7385Y-3.4773
X5.7385Y-3.564
X5.7385Y-3.6506
X5.7385Y-3.7372
X5.7385Y-3.8238
X5.7385Y-3.9104
X5.7385Y-3.997
X5.7385Y-4.0836
X5.7812Y-3.348
X5.8251Y-2.5246
X5.8251Y-2.6112
X5.8251Y-2.6978
X5.8251Y-2.7844
X5.8251Y-2.871
X5.8251Y-2.9577
X5.8251Y-3.0443
X5.8251Y-3.1309
X5.8251Y-3.2175
X5.8251Y-3.3041
X5.8251Y-3.3907
X5.8251Y-3.4773
X5.8251Y-3.564
X5.8251Y-3.6506
X5.8251Y-3.7372
X5.8251Y-3.8238
X5.8251Y-3.9104
X5.8251Y-3.997
X5.8251Y-4.0836
X5.8678Y-3.4346
X5.9117Y-2.5246
X5.9117Y-2.6112
X5.9117Y-2.6978
X5.9117Y-2.7844
X5.9117Y-2.871
X5.9117Y-2.9577
X5.9117Y-3.0443
X5.9117Y-3.1309
X5.9117Y-3.2175
X5.9117Y-3.3041
X5.9117Y-3.3907
X5.9117Y-3.4773
X5.9117Y-3.564
X5.9117Y-3.6506
X5.9117Y-3.7372
X5.9117Y-3.8238
X5.9117Y-3.9104
X5.9117Y-3.997
X5.9117Y-4.0836
X5.9545Y-3.5212
X5.9983Y-2.5246
X5.9983Y-2.6112
X5.9983Y-2.6978
X5.9983Y-2.7844
X5.9983Y-2.871
X5.9983Y-2.9577
X5.9983Y-3.0443
X5.9983Y-3.1309
X5.9983Y-3.2175
X5.9983Y-3.3041
X5.9983Y-3.3907
X5.9983Y-3.4773
X5.9983Y-3.564
X5.9983Y-3.6506
X5.9983Y-3.7372
X5.9983Y-3.8238
X5.9983Y-3.9104
X5.9983Y-3.997
X5.9983Y-4.0836
X6.0411Y-3.6078
X6.0849Y-2.5246
X6.0849Y-2.6112
X6.0849Y-2.6978
X6.0849Y-2.7844
X6.0849Y-2.871
X6.0849Y-2.9577
X6.0849Y-3.0443
X6.0849Y-3.1309
X6.0849Y-3.2175
X6.0849Y-3.3041
X6.0849Y-3.3907
X6.0849Y-3.4773
X6.0849Y-3.564
X6.0849Y-3.6506
X6.0849Y-3.7372
X6.0849Y-3.8238
X6.0849Y-3.9104
X6.0849Y-3.997
X6.0849Y-4.0836
X6.1277Y-3.6944
X6.1715Y-2.5246
X6.1715Y-2.6112
X6.1715Y-2.6978
X6.1715Y-2.7844
X6.1715Y-2.871
X6.1715Y-2.9577
X6.1715Y-3.0443
X6.1715Y-3.0443
X6.1715Y-3.1309
X6.1715Y-3.2175
X6.1715Y-3.3041
X6.1715Y-3.3907
X6.1715Y-3.4773
X6.1715Y-3.564
X6.1715Y-3.6506
X6.1715Y-3.7372
X6.1715Y-3.8238
X6.1715Y-3.9104
X6.1715Y-3.997
X6.1715Y-4.0836
X6.2143Y-3.781
X6.2581Y-2.5246
X6.2581Y-2.6112
X6.2581Y-2.6978
X6.2581Y-2.7844
X6.2581Y-2.871
X6.2581Y-2.9577
X6.2581Y-3.0443
X6.2581Y-3.1309
X6.2581Y-3.2175
X6.2581Y-3.3041
X6.2581Y-3.3907
X6.2581Y-3.4773
X6.2581Y-3.564
X6.2581Y-3.6506
X6.2581Y-3.7372
X6.2581Y-3.8238
X6.2581Y-3.9104
X6.2581Y-3.997
X6.2581Y-4.0836
X6.3009Y-3.8676
X6.3448Y-2.5246
X6.3448Y-2.6112
X6.3448Y-2.6978
X6.3448Y-2.7844
X6.3448Y-2.871
X6.3448Y-2.9577
X6.3448Y-3.0443
X6.3448Y-3.1309
X6.3448Y-3.2175
X6.3448Y-3.3041
X6.3448Y-3.3907
X6.3448Y-3.4773
X6.3448Y-3.564
X6.3448Y-3.6506
X6.3448Y-3.7372
X6.3448Y-3.8238
X6.3448Y-3.9104
X6.3448Y-3.997
X6.3448Y-4.0836
X6.3875Y-3.9543
X6.4314Y-2.5246
X6.4314Y-2.6112
X6.4314Y-2.6978
X6.4314Y-2.7844
X6.4314Y-2.871
X6.4314Y-2.9577
X6.4314Y-3.0443
X6.4314Y-3.1309
X6.4314Y-3.2175
X6.4314Y-3.3041
X6.4314Y-3.3907
X6.4314Y-3.4773
X6.4314Y-3.564
X6.4314Y-3.6506
X6.4314Y-3.7372
X6.4314Y-3.8238
X6.4314Y-3.9104
X6.4314Y-3.997
X6.4314Y-4.0836
X6.4741Y-4.0409
X6.518Y-2.5246
X6.518Y-2.6112
X6.518Y-2.6978
X6.518Y-2.7844
X6.518Y-2.871
X6.518Y-2.9577
X6.518Y-3.0443
X6.518Y-3.1309
X6.518Y-3.2175
X6.518Y-3.3041
X6.518Y-3.3907
X6.518Y-3.4773
X6.518Y-3.564
X6.518Y-3.6506
X6.518Y-3.7372
X6.518Y-3.8238
X6.518Y-3.9104
X6.518Y-3.997
X6.518Y-4.0836
X6.5608Y-4.1275
X6.6046Y-2.5246
X6.6046Y-2.6112
X6.6046Y-2.6978
X6.6046Y-2.7844
X6.6046Y-2.871
X6.6046Y-2.9577
X6.6046Y-3.0443
X6.6046Y-3.1309
X6.6046Y-3.2175
X6.6046Y-3.3041
X6.6046Y-3.3907
X6.6046Y-3.4773
X6.6046Y-3.564
X6.6046Y-3.6506
X6.6046Y-3.7372
X6.6046Y-3.8238
X6.6046Y-3.9104
X6.6046Y-3.997
X6.8583Y-3.2894
X6.9764Y-3.1811
X7.0157Y-3.1417
X7.872Y-3.378
X8.0394Y-3.3583
X8.0492Y-3.2008
M30
