%TF.GenerationSoftware,KiCad,Pcbnew,9.0.2*%
%TF.CreationDate,2025-10-11T19:40:45+02:00*%
%TF.ProjectId,Yet_Another_Business_Card,5965745f-416e-46f7-9468-65725f427573,rev?*%
%TF.SameCoordinates,Original*%
%TF.FileFunction,Soldermask,Top*%
%TF.FilePolarity,Negative*%
%FSLAX46Y46*%
G04 Gerber Fmt 4.6, Leading zero omitted, Abs format (unit mm)*
G04 Created by KiCad (PCBNEW 9.0.2) date 2025-10-11 19:40:45*
%MOMM*%
%LPD*%
G01*
G04 APERTURE LIST*
G04 Aperture macros list*
%AMRoundRect*
0 Rectangle with rounded corners*
0 $1 Rounding radius*
0 $2 $3 $4 $5 $6 $7 $8 $9 X,Y pos of 4 corners*
0 Add a 4 corners polygon primitive as box body*
4,1,4,$2,$3,$4,$5,$6,$7,$8,$9,$2,$3,0*
0 Add four circle primitives for the rounded corners*
1,1,$1+$1,$2,$3*
1,1,$1+$1,$4,$5*
1,1,$1+$1,$6,$7*
1,1,$1+$1,$8,$9*
0 Add four rect primitives between the rounded corners*
20,1,$1+$1,$2,$3,$4,$5,0*
20,1,$1+$1,$4,$5,$6,$7,0*
20,1,$1+$1,$6,$7,$8,$9,0*
20,1,$1+$1,$8,$9,$2,$3,0*%
%AMFreePoly0*
4,1,30,0.200000,1.710000,0.236753,1.697426,0.376387,1.589219,0.526382,1.504463,0.606724,1.473357,0.606723,1.473356,0.687059,1.442253,0.771046,1.423078,0.855035,1.403901,1.028740,1.390056,1.444035,1.390057,1.486461,1.372484,1.504035,1.330057,1.504034,-1.539942,1.486460,-1.582368,1.444038,-1.599942,1.046227,-1.599966,0.870517,-1.612848,0.700699,-1.650739,0.538235,-1.712988,
0.386579,-1.798267,0.245504,-1.907442,0.208783,-1.919991,-1.650000,-1.919992,-1.692426,-1.902418,-1.710001,-1.859992,-1.710000,1.650008,-1.692426,1.692433,-1.650000,1.710007,0.200000,1.710000,0.200000,1.710000,$1*%
G04 Aperture macros list end*
%ADD10C,0.220000*%
%ADD11C,0.300000*%
%ADD12RoundRect,0.225000X0.335876X0.017678X0.017678X0.335876X-0.335876X-0.017678X-0.017678X-0.335876X0*%
%ADD13RoundRect,0.200000X0.053033X-0.335876X0.335876X-0.053033X-0.053033X0.335876X-0.335876X0.053033X0*%
%ADD14R,1.000000X0.750000*%
%ADD15RoundRect,0.200000X-0.335876X-0.053033X-0.053033X-0.335876X0.335876X0.053033X0.053033X0.335876X0*%
%ADD16RoundRect,0.225000X-0.335876X-0.017678X-0.017678X-0.335876X0.335876X0.017678X0.017678X0.335876X0*%
%ADD17RoundRect,0.225000X-0.017678X0.335876X-0.335876X0.017678X0.017678X-0.335876X0.335876X-0.017678X0*%
%ADD18RoundRect,0.218750X0.026517X-0.335876X0.335876X-0.026517X-0.026517X0.335876X-0.335876X0.026517X0*%
%ADD19RoundRect,0.200000X-0.200000X-0.275000X0.200000X-0.275000X0.200000X0.275000X-0.200000X0.275000X0*%
%ADD20RoundRect,0.200000X0.200000X0.275000X-0.200000X0.275000X-0.200000X-0.275000X0.200000X-0.275000X0*%
%ADD21RoundRect,0.075000X-0.521491X0.415425X0.415425X-0.521491X0.521491X-0.415425X-0.415425X0.521491X0*%
%ADD22RoundRect,0.075000X-0.521491X-0.415425X-0.415425X-0.521491X0.521491X0.415425X0.415425X0.521491X0*%
%ADD23FreePoly0,315.000000*%
%ADD24FreePoly0,135.000000*%
G04 APERTURE END LIST*
D10*
X183406640Y-105812064D02*
X183406640Y-104712064D01*
X183406640Y-104712064D02*
X183773307Y-105497779D01*
X183773307Y-105497779D02*
X184139974Y-104712064D01*
X184139974Y-104712064D02*
X184139974Y-105812064D01*
X185135212Y-105812064D02*
X185135212Y-105235874D01*
X185135212Y-105235874D02*
X185082831Y-105131112D01*
X185082831Y-105131112D02*
X184978069Y-105078731D01*
X184978069Y-105078731D02*
X184768545Y-105078731D01*
X184768545Y-105078731D02*
X184663783Y-105131112D01*
X185135212Y-105759684D02*
X185030450Y-105812064D01*
X185030450Y-105812064D02*
X184768545Y-105812064D01*
X184768545Y-105812064D02*
X184663783Y-105759684D01*
X184663783Y-105759684D02*
X184611402Y-105654922D01*
X184611402Y-105654922D02*
X184611402Y-105550160D01*
X184611402Y-105550160D02*
X184663783Y-105445398D01*
X184663783Y-105445398D02*
X184768545Y-105393017D01*
X184768545Y-105393017D02*
X185030450Y-105393017D01*
X185030450Y-105393017D02*
X185135212Y-105340636D01*
X186130450Y-105812064D02*
X186130450Y-104712064D01*
X186130450Y-105759684D02*
X186025688Y-105812064D01*
X186025688Y-105812064D02*
X185816164Y-105812064D01*
X185816164Y-105812064D02*
X185711402Y-105759684D01*
X185711402Y-105759684D02*
X185659021Y-105707303D01*
X185659021Y-105707303D02*
X185606640Y-105602541D01*
X185606640Y-105602541D02*
X185606640Y-105288255D01*
X185606640Y-105288255D02*
X185659021Y-105183493D01*
X185659021Y-105183493D02*
X185711402Y-105131112D01*
X185711402Y-105131112D02*
X185816164Y-105078731D01*
X185816164Y-105078731D02*
X186025688Y-105078731D01*
X186025688Y-105078731D02*
X186130450Y-105131112D01*
X187073307Y-105759684D02*
X186968545Y-105812064D01*
X186968545Y-105812064D02*
X186759021Y-105812064D01*
X186759021Y-105812064D02*
X186654259Y-105759684D01*
X186654259Y-105759684D02*
X186601878Y-105654922D01*
X186601878Y-105654922D02*
X186601878Y-105235874D01*
X186601878Y-105235874D02*
X186654259Y-105131112D01*
X186654259Y-105131112D02*
X186759021Y-105078731D01*
X186759021Y-105078731D02*
X186968545Y-105078731D01*
X186968545Y-105078731D02*
X187073307Y-105131112D01*
X187073307Y-105131112D02*
X187125688Y-105235874D01*
X187125688Y-105235874D02*
X187125688Y-105340636D01*
X187125688Y-105340636D02*
X186601878Y-105445398D01*
X188435211Y-105812064D02*
X188435211Y-104712064D01*
X188435211Y-105131112D02*
X188539973Y-105078731D01*
X188539973Y-105078731D02*
X188749497Y-105078731D01*
X188749497Y-105078731D02*
X188854259Y-105131112D01*
X188854259Y-105131112D02*
X188906640Y-105183493D01*
X188906640Y-105183493D02*
X188959021Y-105288255D01*
X188959021Y-105288255D02*
X188959021Y-105602541D01*
X188959021Y-105602541D02*
X188906640Y-105707303D01*
X188906640Y-105707303D02*
X188854259Y-105759684D01*
X188854259Y-105759684D02*
X188749497Y-105812064D01*
X188749497Y-105812064D02*
X188539973Y-105812064D01*
X188539973Y-105812064D02*
X188435211Y-105759684D01*
X189325687Y-105078731D02*
X189587592Y-105812064D01*
X189849497Y-105078731D02*
X189587592Y-105812064D01*
X189587592Y-105812064D02*
X189482830Y-106073969D01*
X189482830Y-106073969D02*
X189430449Y-106126350D01*
X189430449Y-106126350D02*
X189325687Y-106178731D01*
X190268544Y-105707303D02*
X190320925Y-105759684D01*
X190320925Y-105759684D02*
X190268544Y-105812064D01*
X190268544Y-105812064D02*
X190216163Y-105759684D01*
X190216163Y-105759684D02*
X190268544Y-105707303D01*
X190268544Y-105707303D02*
X190268544Y-105812064D01*
X190268544Y-105131112D02*
X190320925Y-105183493D01*
X190320925Y-105183493D02*
X190268544Y-105235874D01*
X190268544Y-105235874D02*
X190216163Y-105183493D01*
X190216163Y-105183493D02*
X190268544Y-105131112D01*
X190268544Y-105131112D02*
X190268544Y-105235874D01*
X191578068Y-105497779D02*
X192101878Y-105497779D01*
X191473306Y-105812064D02*
X191839973Y-104712064D01*
X191839973Y-104712064D02*
X192206640Y-105812064D01*
X192573306Y-105078731D02*
X192573306Y-105812064D01*
X192573306Y-105183493D02*
X192625687Y-105131112D01*
X192625687Y-105131112D02*
X192730449Y-105078731D01*
X192730449Y-105078731D02*
X192887592Y-105078731D01*
X192887592Y-105078731D02*
X192992354Y-105131112D01*
X192992354Y-105131112D02*
X193044735Y-105235874D01*
X193044735Y-105235874D02*
X193044735Y-105812064D01*
X194039973Y-105812064D02*
X194039973Y-104712064D01*
X194039973Y-105759684D02*
X193935211Y-105812064D01*
X193935211Y-105812064D02*
X193725687Y-105812064D01*
X193725687Y-105812064D02*
X193620925Y-105759684D01*
X193620925Y-105759684D02*
X193568544Y-105707303D01*
X193568544Y-105707303D02*
X193516163Y-105602541D01*
X193516163Y-105602541D02*
X193516163Y-105288255D01*
X193516163Y-105288255D02*
X193568544Y-105183493D01*
X193568544Y-105183493D02*
X193620925Y-105131112D01*
X193620925Y-105131112D02*
X193725687Y-105078731D01*
X193725687Y-105078731D02*
X193935211Y-105078731D01*
X193935211Y-105078731D02*
X194039973Y-105131112D01*
X194563782Y-105812064D02*
X194563782Y-105078731D01*
X194563782Y-105288255D02*
X194616163Y-105183493D01*
X194616163Y-105183493D02*
X194668544Y-105131112D01*
X194668544Y-105131112D02*
X194773306Y-105078731D01*
X194773306Y-105078731D02*
X194878068Y-105078731D01*
X195663782Y-105759684D02*
X195559020Y-105812064D01*
X195559020Y-105812064D02*
X195349496Y-105812064D01*
X195349496Y-105812064D02*
X195244734Y-105759684D01*
X195244734Y-105759684D02*
X195192353Y-105654922D01*
X195192353Y-105654922D02*
X195192353Y-105235874D01*
X195192353Y-105235874D02*
X195244734Y-105131112D01*
X195244734Y-105131112D02*
X195349496Y-105078731D01*
X195349496Y-105078731D02*
X195559020Y-105078731D01*
X195559020Y-105078731D02*
X195663782Y-105131112D01*
X195663782Y-105131112D02*
X195716163Y-105235874D01*
X195716163Y-105235874D02*
X195716163Y-105340636D01*
X195716163Y-105340636D02*
X195192353Y-105445398D01*
X196659020Y-105812064D02*
X196659020Y-105235874D01*
X196659020Y-105235874D02*
X196606639Y-105131112D01*
X196606639Y-105131112D02*
X196501877Y-105078731D01*
X196501877Y-105078731D02*
X196292353Y-105078731D01*
X196292353Y-105078731D02*
X196187591Y-105131112D01*
X196659020Y-105759684D02*
X196554258Y-105812064D01*
X196554258Y-105812064D02*
X196292353Y-105812064D01*
X196292353Y-105812064D02*
X196187591Y-105759684D01*
X196187591Y-105759684D02*
X196135210Y-105654922D01*
X196135210Y-105654922D02*
X196135210Y-105550160D01*
X196135210Y-105550160D02*
X196187591Y-105445398D01*
X196187591Y-105445398D02*
X196292353Y-105393017D01*
X196292353Y-105393017D02*
X196554258Y-105393017D01*
X196554258Y-105393017D02*
X196659020Y-105340636D01*
X198020924Y-105812064D02*
X198020924Y-104712064D01*
X198020924Y-104712064D02*
X198387591Y-105497779D01*
X198387591Y-105497779D02*
X198754258Y-104712064D01*
X198754258Y-104712064D02*
X198754258Y-105812064D01*
X199749496Y-105812064D02*
X199749496Y-105235874D01*
X199749496Y-105235874D02*
X199697115Y-105131112D01*
X199697115Y-105131112D02*
X199592353Y-105078731D01*
X199592353Y-105078731D02*
X199382829Y-105078731D01*
X199382829Y-105078731D02*
X199278067Y-105131112D01*
X199749496Y-105759684D02*
X199644734Y-105812064D01*
X199644734Y-105812064D02*
X199382829Y-105812064D01*
X199382829Y-105812064D02*
X199278067Y-105759684D01*
X199278067Y-105759684D02*
X199225686Y-105654922D01*
X199225686Y-105654922D02*
X199225686Y-105550160D01*
X199225686Y-105550160D02*
X199278067Y-105445398D01*
X199278067Y-105445398D02*
X199382829Y-105393017D01*
X199382829Y-105393017D02*
X199644734Y-105393017D01*
X199644734Y-105393017D02*
X199749496Y-105340636D01*
X200220924Y-105759684D02*
X200325686Y-105812064D01*
X200325686Y-105812064D02*
X200535210Y-105812064D01*
X200535210Y-105812064D02*
X200639972Y-105759684D01*
X200639972Y-105759684D02*
X200692353Y-105654922D01*
X200692353Y-105654922D02*
X200692353Y-105602541D01*
X200692353Y-105602541D02*
X200639972Y-105497779D01*
X200639972Y-105497779D02*
X200535210Y-105445398D01*
X200535210Y-105445398D02*
X200378067Y-105445398D01*
X200378067Y-105445398D02*
X200273305Y-105393017D01*
X200273305Y-105393017D02*
X200220924Y-105288255D01*
X200220924Y-105288255D02*
X200220924Y-105235874D01*
X200220924Y-105235874D02*
X200273305Y-105131112D01*
X200273305Y-105131112D02*
X200378067Y-105078731D01*
X200378067Y-105078731D02*
X200535210Y-105078731D01*
X200535210Y-105078731D02*
X200639972Y-105131112D01*
X201111400Y-105759684D02*
X201216162Y-105812064D01*
X201216162Y-105812064D02*
X201425686Y-105812064D01*
X201425686Y-105812064D02*
X201530448Y-105759684D01*
X201530448Y-105759684D02*
X201582829Y-105654922D01*
X201582829Y-105654922D02*
X201582829Y-105602541D01*
X201582829Y-105602541D02*
X201530448Y-105497779D01*
X201530448Y-105497779D02*
X201425686Y-105445398D01*
X201425686Y-105445398D02*
X201268543Y-105445398D01*
X201268543Y-105445398D02*
X201163781Y-105393017D01*
X201163781Y-105393017D02*
X201111400Y-105288255D01*
X201111400Y-105288255D02*
X201111400Y-105235874D01*
X201111400Y-105235874D02*
X201163781Y-105131112D01*
X201163781Y-105131112D02*
X201268543Y-105078731D01*
X201268543Y-105078731D02*
X201425686Y-105078731D01*
X201425686Y-105078731D02*
X201530448Y-105131112D01*
X202473305Y-105759684D02*
X202368543Y-105812064D01*
X202368543Y-105812064D02*
X202159019Y-105812064D01*
X202159019Y-105812064D02*
X202054257Y-105759684D01*
X202054257Y-105759684D02*
X202001876Y-105654922D01*
X202001876Y-105654922D02*
X202001876Y-105235874D01*
X202001876Y-105235874D02*
X202054257Y-105131112D01*
X202054257Y-105131112D02*
X202159019Y-105078731D01*
X202159019Y-105078731D02*
X202368543Y-105078731D01*
X202368543Y-105078731D02*
X202473305Y-105131112D01*
X202473305Y-105131112D02*
X202525686Y-105235874D01*
X202525686Y-105235874D02*
X202525686Y-105340636D01*
X202525686Y-105340636D02*
X202001876Y-105445398D01*
X202839971Y-105078731D02*
X203259019Y-105078731D01*
X202997114Y-104712064D02*
X202997114Y-105654922D01*
X202997114Y-105654922D02*
X203049495Y-105759684D01*
X203049495Y-105759684D02*
X203154257Y-105812064D01*
X203154257Y-105812064D02*
X203259019Y-105812064D01*
X203468542Y-105078731D02*
X203887590Y-105078731D01*
X203625685Y-104712064D02*
X203625685Y-105654922D01*
X203625685Y-105654922D02*
X203678066Y-105759684D01*
X203678066Y-105759684D02*
X203782828Y-105812064D01*
X203782828Y-105812064D02*
X203887590Y-105812064D01*
X204254256Y-105812064D02*
X204254256Y-105078731D01*
X204254256Y-104712064D02*
X204201875Y-104764445D01*
X204201875Y-104764445D02*
X204254256Y-104816826D01*
X204254256Y-104816826D02*
X204306637Y-104764445D01*
X204306637Y-104764445D02*
X204254256Y-104712064D01*
X204254256Y-104712064D02*
X204254256Y-104816826D01*
X183406640Y-107583002D02*
X183406640Y-106483002D01*
X183930450Y-106849669D02*
X183930450Y-107583002D01*
X183930450Y-106954431D02*
X183982831Y-106902050D01*
X183982831Y-106902050D02*
X184087593Y-106849669D01*
X184087593Y-106849669D02*
X184244736Y-106849669D01*
X184244736Y-106849669D02*
X184349498Y-106902050D01*
X184349498Y-106902050D02*
X184401879Y-107006812D01*
X184401879Y-107006812D02*
X184401879Y-107583002D01*
X184925688Y-107478241D02*
X184978069Y-107530622D01*
X184978069Y-107530622D02*
X184925688Y-107583002D01*
X184925688Y-107583002D02*
X184873307Y-107530622D01*
X184873307Y-107530622D02*
X184925688Y-107478241D01*
X184925688Y-107478241D02*
X184925688Y-107583002D01*
X184925688Y-106902050D02*
X184978069Y-106954431D01*
X184978069Y-106954431D02*
X184925688Y-107006812D01*
X184925688Y-107006812D02*
X184873307Y-106954431D01*
X184873307Y-106954431D02*
X184925688Y-106902050D01*
X184925688Y-106902050D02*
X184925688Y-107006812D01*
X186130450Y-106483002D02*
X186759022Y-106483002D01*
X186444736Y-107583002D02*
X186444736Y-106483002D01*
X187597117Y-106849669D02*
X187597117Y-107583002D01*
X187125688Y-106849669D02*
X187125688Y-107425860D01*
X187125688Y-107425860D02*
X187178069Y-107530622D01*
X187178069Y-107530622D02*
X187282831Y-107583002D01*
X187282831Y-107583002D02*
X187439974Y-107583002D01*
X187439974Y-107583002D02*
X187544736Y-107530622D01*
X187544736Y-107530622D02*
X187597117Y-107478241D01*
X188120926Y-107583002D02*
X188120926Y-106849669D01*
X188120926Y-107059193D02*
X188173307Y-106954431D01*
X188173307Y-106954431D02*
X188225688Y-106902050D01*
X188225688Y-106902050D02*
X188330450Y-106849669D01*
X188330450Y-106849669D02*
X188435212Y-106849669D01*
X188801878Y-107583002D02*
X188801878Y-106849669D01*
X188801878Y-106483002D02*
X188749497Y-106535383D01*
X188749497Y-106535383D02*
X188801878Y-106587764D01*
X188801878Y-106587764D02*
X188854259Y-106535383D01*
X188854259Y-106535383D02*
X188801878Y-106483002D01*
X188801878Y-106483002D02*
X188801878Y-106587764D01*
X189325688Y-106849669D02*
X189325688Y-107583002D01*
X189325688Y-106954431D02*
X189378069Y-106902050D01*
X189378069Y-106902050D02*
X189482831Y-106849669D01*
X189482831Y-106849669D02*
X189639974Y-106849669D01*
X189639974Y-106849669D02*
X189744736Y-106902050D01*
X189744736Y-106902050D02*
X189797117Y-107006812D01*
X189797117Y-107006812D02*
X189797117Y-107583002D01*
X183301878Y-108253940D02*
X183563783Y-109353940D01*
X183563783Y-109353940D02*
X183773307Y-108568226D01*
X183773307Y-108568226D02*
X183982831Y-109353940D01*
X183982831Y-109353940D02*
X184244736Y-108253940D01*
X184663783Y-109353940D02*
X184663783Y-108620607D01*
X184663783Y-108253940D02*
X184611402Y-108306321D01*
X184611402Y-108306321D02*
X184663783Y-108358702D01*
X184663783Y-108358702D02*
X184716164Y-108306321D01*
X184716164Y-108306321D02*
X184663783Y-108253940D01*
X184663783Y-108253940D02*
X184663783Y-108358702D01*
X185030450Y-108620607D02*
X185449498Y-108620607D01*
X185187593Y-108253940D02*
X185187593Y-109196798D01*
X185187593Y-109196798D02*
X185239974Y-109301560D01*
X185239974Y-109301560D02*
X185344736Y-109353940D01*
X185344736Y-109353940D02*
X185449498Y-109353940D01*
X185816164Y-109353940D02*
X185816164Y-108253940D01*
X186287593Y-109353940D02*
X186287593Y-108777750D01*
X186287593Y-108777750D02*
X186235212Y-108672988D01*
X186235212Y-108672988D02*
X186130450Y-108620607D01*
X186130450Y-108620607D02*
X185973307Y-108620607D01*
X185973307Y-108620607D02*
X185868545Y-108672988D01*
X185868545Y-108672988D02*
X185816164Y-108725369D01*
X186811402Y-109249179D02*
X186863783Y-109301560D01*
X186863783Y-109301560D02*
X186811402Y-109353940D01*
X186811402Y-109353940D02*
X186759021Y-109301560D01*
X186759021Y-109301560D02*
X186811402Y-109249179D01*
X186811402Y-109249179D02*
X186811402Y-109353940D01*
X186811402Y-108672988D02*
X186863783Y-108725369D01*
X186863783Y-108725369D02*
X186811402Y-108777750D01*
X186811402Y-108777750D02*
X186759021Y-108725369D01*
X186759021Y-108725369D02*
X186811402Y-108672988D01*
X186811402Y-108672988D02*
X186811402Y-108777750D01*
X188644736Y-109353940D02*
X188644736Y-108777750D01*
X188644736Y-108777750D02*
X188592355Y-108672988D01*
X188592355Y-108672988D02*
X188487593Y-108620607D01*
X188487593Y-108620607D02*
X188278069Y-108620607D01*
X188278069Y-108620607D02*
X188173307Y-108672988D01*
X188644736Y-109301560D02*
X188539974Y-109353940D01*
X188539974Y-109353940D02*
X188278069Y-109353940D01*
X188278069Y-109353940D02*
X188173307Y-109301560D01*
X188173307Y-109301560D02*
X188120926Y-109196798D01*
X188120926Y-109196798D02*
X188120926Y-109092036D01*
X188120926Y-109092036D02*
X188173307Y-108987274D01*
X188173307Y-108987274D02*
X188278069Y-108934893D01*
X188278069Y-108934893D02*
X188539974Y-108934893D01*
X188539974Y-108934893D02*
X188644736Y-108882512D01*
X190163783Y-109353940D02*
X190059021Y-109301560D01*
X190059021Y-109301560D02*
X190006640Y-109196798D01*
X190006640Y-109196798D02*
X190006640Y-108253940D01*
X190739973Y-109353940D02*
X190635211Y-109301560D01*
X190635211Y-109301560D02*
X190582830Y-109249179D01*
X190582830Y-109249179D02*
X190530449Y-109144417D01*
X190530449Y-109144417D02*
X190530449Y-108830131D01*
X190530449Y-108830131D02*
X190582830Y-108725369D01*
X190582830Y-108725369D02*
X190635211Y-108672988D01*
X190635211Y-108672988D02*
X190739973Y-108620607D01*
X190739973Y-108620607D02*
X190897116Y-108620607D01*
X190897116Y-108620607D02*
X191001878Y-108672988D01*
X191001878Y-108672988D02*
X191054259Y-108725369D01*
X191054259Y-108725369D02*
X191106640Y-108830131D01*
X191106640Y-108830131D02*
X191106640Y-109144417D01*
X191106640Y-109144417D02*
X191054259Y-109249179D01*
X191054259Y-109249179D02*
X191001878Y-109301560D01*
X191001878Y-109301560D02*
X190897116Y-109353940D01*
X190897116Y-109353940D02*
X190739973Y-109353940D01*
X191420925Y-108620607D02*
X191839973Y-108620607D01*
X191578068Y-108253940D02*
X191578068Y-109196798D01*
X191578068Y-109196798D02*
X191630449Y-109301560D01*
X191630449Y-109301560D02*
X191735211Y-109353940D01*
X191735211Y-109353940D02*
X191839973Y-109353940D01*
X193201877Y-109353940D02*
X193097115Y-109301560D01*
X193097115Y-109301560D02*
X193044734Y-109249179D01*
X193044734Y-109249179D02*
X192992353Y-109144417D01*
X192992353Y-109144417D02*
X192992353Y-108830131D01*
X192992353Y-108830131D02*
X193044734Y-108725369D01*
X193044734Y-108725369D02*
X193097115Y-108672988D01*
X193097115Y-108672988D02*
X193201877Y-108620607D01*
X193201877Y-108620607D02*
X193359020Y-108620607D01*
X193359020Y-108620607D02*
X193463782Y-108672988D01*
X193463782Y-108672988D02*
X193516163Y-108725369D01*
X193516163Y-108725369D02*
X193568544Y-108830131D01*
X193568544Y-108830131D02*
X193568544Y-109144417D01*
X193568544Y-109144417D02*
X193516163Y-109249179D01*
X193516163Y-109249179D02*
X193463782Y-109301560D01*
X193463782Y-109301560D02*
X193359020Y-109353940D01*
X193359020Y-109353940D02*
X193201877Y-109353940D01*
X193882829Y-108620607D02*
X194301877Y-108620607D01*
X194039972Y-109353940D02*
X194039972Y-108411083D01*
X194039972Y-108411083D02*
X194092353Y-108306321D01*
X194092353Y-108306321D02*
X194197115Y-108253940D01*
X194197115Y-108253940D02*
X194301877Y-108253940D01*
X195978067Y-109301560D02*
X195873305Y-109353940D01*
X195873305Y-109353940D02*
X195663781Y-109353940D01*
X195663781Y-109353940D02*
X195559019Y-109301560D01*
X195559019Y-109301560D02*
X195506638Y-109249179D01*
X195506638Y-109249179D02*
X195454257Y-109144417D01*
X195454257Y-109144417D02*
X195454257Y-108830131D01*
X195454257Y-108830131D02*
X195506638Y-108725369D01*
X195506638Y-108725369D02*
X195559019Y-108672988D01*
X195559019Y-108672988D02*
X195663781Y-108620607D01*
X195663781Y-108620607D02*
X195873305Y-108620607D01*
X195873305Y-108620607D02*
X195978067Y-108672988D01*
X196606638Y-109353940D02*
X196501876Y-109301560D01*
X196501876Y-109301560D02*
X196449495Y-109249179D01*
X196449495Y-109249179D02*
X196397114Y-109144417D01*
X196397114Y-109144417D02*
X196397114Y-108830131D01*
X196397114Y-108830131D02*
X196449495Y-108725369D01*
X196449495Y-108725369D02*
X196501876Y-108672988D01*
X196501876Y-108672988D02*
X196606638Y-108620607D01*
X196606638Y-108620607D02*
X196763781Y-108620607D01*
X196763781Y-108620607D02*
X196868543Y-108672988D01*
X196868543Y-108672988D02*
X196920924Y-108725369D01*
X196920924Y-108725369D02*
X196973305Y-108830131D01*
X196973305Y-108830131D02*
X196973305Y-109144417D01*
X196973305Y-109144417D02*
X196920924Y-109249179D01*
X196920924Y-109249179D02*
X196868543Y-109301560D01*
X196868543Y-109301560D02*
X196763781Y-109353940D01*
X196763781Y-109353940D02*
X196606638Y-109353940D01*
X197287590Y-108620607D02*
X197706638Y-108620607D01*
X197444733Y-109353940D02*
X197444733Y-108411083D01*
X197444733Y-108411083D02*
X197497114Y-108306321D01*
X197497114Y-108306321D02*
X197601876Y-108253940D01*
X197601876Y-108253940D02*
X197706638Y-108253940D01*
X197916161Y-108620607D02*
X198335209Y-108620607D01*
X198073304Y-109353940D02*
X198073304Y-108411083D01*
X198073304Y-108411083D02*
X198125685Y-108306321D01*
X198125685Y-108306321D02*
X198230447Y-108253940D01*
X198230447Y-108253940D02*
X198335209Y-108253940D01*
X199120923Y-109301560D02*
X199016161Y-109353940D01*
X199016161Y-109353940D02*
X198806637Y-109353940D01*
X198806637Y-109353940D02*
X198701875Y-109301560D01*
X198701875Y-109301560D02*
X198649494Y-109196798D01*
X198649494Y-109196798D02*
X198649494Y-108777750D01*
X198649494Y-108777750D02*
X198701875Y-108672988D01*
X198701875Y-108672988D02*
X198806637Y-108620607D01*
X198806637Y-108620607D02*
X199016161Y-108620607D01*
X199016161Y-108620607D02*
X199120923Y-108672988D01*
X199120923Y-108672988D02*
X199173304Y-108777750D01*
X199173304Y-108777750D02*
X199173304Y-108882512D01*
X199173304Y-108882512D02*
X198649494Y-108987274D01*
X200063780Y-109301560D02*
X199959018Y-109353940D01*
X199959018Y-109353940D02*
X199749494Y-109353940D01*
X199749494Y-109353940D02*
X199644732Y-109301560D01*
X199644732Y-109301560D02*
X199592351Y-109196798D01*
X199592351Y-109196798D02*
X199592351Y-108777750D01*
X199592351Y-108777750D02*
X199644732Y-108672988D01*
X199644732Y-108672988D02*
X199749494Y-108620607D01*
X199749494Y-108620607D02*
X199959018Y-108620607D01*
X199959018Y-108620607D02*
X200063780Y-108672988D01*
X200063780Y-108672988D02*
X200116161Y-108777750D01*
X200116161Y-108777750D02*
X200116161Y-108882512D01*
X200116161Y-108882512D02*
X199592351Y-108987274D01*
D11*
X193254510Y-92600828D02*
X193254510Y-91100828D01*
X193254510Y-91100828D02*
X193825939Y-91100828D01*
X193825939Y-91100828D02*
X193968796Y-91172257D01*
X193968796Y-91172257D02*
X194040225Y-91243685D01*
X194040225Y-91243685D02*
X194111653Y-91386542D01*
X194111653Y-91386542D02*
X194111653Y-91600828D01*
X194111653Y-91600828D02*
X194040225Y-91743685D01*
X194040225Y-91743685D02*
X193968796Y-91815114D01*
X193968796Y-91815114D02*
X193825939Y-91886542D01*
X193825939Y-91886542D02*
X193254510Y-91886542D01*
X194754510Y-91100828D02*
X194754510Y-92315114D01*
X194754510Y-92315114D02*
X194825939Y-92457971D01*
X194825939Y-92457971D02*
X194897368Y-92529400D01*
X194897368Y-92529400D02*
X195040225Y-92600828D01*
X195040225Y-92600828D02*
X195325939Y-92600828D01*
X195325939Y-92600828D02*
X195468796Y-92529400D01*
X195468796Y-92529400D02*
X195540225Y-92457971D01*
X195540225Y-92457971D02*
X195611653Y-92315114D01*
X195611653Y-92315114D02*
X195611653Y-91100828D01*
X196254511Y-92529400D02*
X196468797Y-92600828D01*
X196468797Y-92600828D02*
X196825939Y-92600828D01*
X196825939Y-92600828D02*
X196968797Y-92529400D01*
X196968797Y-92529400D02*
X197040225Y-92457971D01*
X197040225Y-92457971D02*
X197111654Y-92315114D01*
X197111654Y-92315114D02*
X197111654Y-92172257D01*
X197111654Y-92172257D02*
X197040225Y-92029400D01*
X197040225Y-92029400D02*
X196968797Y-91957971D01*
X196968797Y-91957971D02*
X196825939Y-91886542D01*
X196825939Y-91886542D02*
X196540225Y-91815114D01*
X196540225Y-91815114D02*
X196397368Y-91743685D01*
X196397368Y-91743685D02*
X196325939Y-91672257D01*
X196325939Y-91672257D02*
X196254511Y-91529400D01*
X196254511Y-91529400D02*
X196254511Y-91386542D01*
X196254511Y-91386542D02*
X196325939Y-91243685D01*
X196325939Y-91243685D02*
X196397368Y-91172257D01*
X196397368Y-91172257D02*
X196540225Y-91100828D01*
X196540225Y-91100828D02*
X196897368Y-91100828D01*
X196897368Y-91100828D02*
X197111654Y-91172257D01*
X197754510Y-92600828D02*
X197754510Y-91100828D01*
X197754510Y-91815114D02*
X198611653Y-91815114D01*
X198611653Y-92600828D02*
X198611653Y-91100828D01*
X200468796Y-92600828D02*
X200468796Y-91100828D01*
X200468796Y-91100828D02*
X200968796Y-92172257D01*
X200968796Y-92172257D02*
X201468796Y-91100828D01*
X201468796Y-91100828D02*
X201468796Y-92600828D01*
X202183082Y-91815114D02*
X202683082Y-91815114D01*
X202897368Y-92600828D02*
X202183082Y-92600828D01*
X202183082Y-92600828D02*
X202183082Y-91100828D01*
X202183082Y-91100828D02*
X202897368Y-91100828D01*
X203540225Y-92457971D02*
X203611654Y-92529400D01*
X203611654Y-92529400D02*
X203540225Y-92600828D01*
X203540225Y-92600828D02*
X203468797Y-92529400D01*
X203468797Y-92529400D02*
X203540225Y-92457971D01*
X203540225Y-92457971D02*
X203540225Y-92600828D01*
X203540225Y-92029400D02*
X203468797Y-91172257D01*
X203468797Y-91172257D02*
X203540225Y-91100828D01*
X203540225Y-91100828D02*
X203611654Y-91172257D01*
X203611654Y-91172257D02*
X203540225Y-92029400D01*
X203540225Y-92029400D02*
X203540225Y-91100828D01*
D12*
%TO.C,C3*%
X178251992Y-82151992D03*
X179348008Y-83248008D03*
%TD*%
%TO.C,C2*%
X179351992Y-81051992D03*
X180448008Y-82148008D03*
%TD*%
D13*
%TO.C,R22*%
X188016637Y-87283363D03*
X189183363Y-86116637D03*
%TD*%
D14*
%TO.C,BTN_MAIN1*%
X195300000Y-94425000D03*
X201300000Y-94425000D03*
X195300000Y-98175000D03*
X201300000Y-98175000D03*
%TD*%
D15*
%TO.C,R21*%
X185416637Y-95716637D03*
X186583363Y-96883363D03*
%TD*%
D16*
%TO.C,C6*%
X184151992Y-96951992D03*
X185248008Y-98048008D03*
%TD*%
%TO.C,C5*%
X188151992Y-93051992D03*
X189248008Y-94148008D03*
%TD*%
D17*
%TO.C,C4*%
X179148008Y-96951992D03*
X178051992Y-98048008D03*
%TD*%
D12*
%TO.C,C1*%
X176548008Y-85948008D03*
X175451992Y-84851992D03*
%TD*%
D18*
%TO.C,D300*%
X155643153Y-96038182D03*
X156756847Y-94924488D03*
%TD*%
%TO.C,D322*%
X162243153Y-98238182D03*
X163356847Y-97124488D03*
%TD*%
%TO.C,D206*%
X157843153Y-85038182D03*
X158956847Y-83924488D03*
%TD*%
%TO.C,D62*%
X133643153Y-69638182D03*
X134756847Y-68524488D03*
%TD*%
%TO.C,D289*%
X131443153Y-96038182D03*
X132556847Y-94924488D03*
%TD*%
%TO.C,D267*%
X166643153Y-91638182D03*
X167756847Y-90524488D03*
%TD*%
%TO.C,D130*%
X157843153Y-76238182D03*
X158956847Y-75124488D03*
%TD*%
%TO.C,D371*%
X144643153Y-104838182D03*
X145756847Y-103724488D03*
%TD*%
%TO.C,D134*%
X166643153Y-76238182D03*
X167756847Y-75124488D03*
%TD*%
%TO.C,D305*%
X166643153Y-96038182D03*
X167756847Y-94924488D03*
%TD*%
%TO.C,D60*%
X129243153Y-69638182D03*
X130356847Y-68524488D03*
%TD*%
%TO.C,D37*%
X162243153Y-65238182D03*
X163356847Y-64124488D03*
%TD*%
%TO.C,D335*%
X149043153Y-100438182D03*
X150156847Y-99324488D03*
%TD*%
%TO.C,D158*%
X135843153Y-80638182D03*
X136956847Y-79524488D03*
%TD*%
%TO.C,D23*%
X131443153Y-65238182D03*
X132556847Y-64124488D03*
%TD*%
%TO.C,D74*%
X160043153Y-69638182D03*
X161156847Y-68524488D03*
%TD*%
%TO.C,D287*%
X127043153Y-96038182D03*
X128156847Y-94924488D03*
%TD*%
%TO.C,D355*%
X151243153Y-102638182D03*
X152356847Y-101524488D03*
%TD*%
%TO.C,D360*%
X162243153Y-102638182D03*
X163356847Y-101524488D03*
%TD*%
%TO.C,D334*%
X146843153Y-100438182D03*
X147956847Y-99324488D03*
%TD*%
%TO.C,D187*%
X157843153Y-82838182D03*
X158956847Y-81724488D03*
%TD*%
%TO.C,D66*%
X142443153Y-69638182D03*
X143556847Y-68524488D03*
%TD*%
%TO.C,D67*%
X144643153Y-69638182D03*
X145756847Y-68524488D03*
%TD*%
%TO.C,D241*%
X151243153Y-89438182D03*
X152356847Y-88324488D03*
%TD*%
%TO.C,D64*%
X138043153Y-69638182D03*
X139156847Y-68524488D03*
%TD*%
%TO.C,D12*%
X149043153Y-63038182D03*
X150156847Y-61924488D03*
%TD*%
%TO.C,D15*%
X155643153Y-63038182D03*
X156756847Y-61924488D03*
%TD*%
%TO.C,D119*%
X133643153Y-76238182D03*
X134756847Y-75124488D03*
%TD*%
%TO.C,D272*%
X135843153Y-93838182D03*
X136956847Y-92724488D03*
%TD*%
%TO.C,D153*%
X166643153Y-78438182D03*
X167756847Y-77324488D03*
%TD*%
%TO.C,D141*%
X140243153Y-78438182D03*
X141356847Y-77324488D03*
%TD*%
%TO.C,D328*%
X133643153Y-100438182D03*
X134756847Y-99324488D03*
%TD*%
%TO.C,D332*%
X142443153Y-100438182D03*
X143556847Y-99324488D03*
%TD*%
%TO.C,D257*%
X144643153Y-91638182D03*
X145756847Y-90524488D03*
%TD*%
%TO.C,D205*%
X155643153Y-85038182D03*
X156756847Y-83924488D03*
%TD*%
%TO.C,D20*%
X166643153Y-63038182D03*
X167756847Y-61924488D03*
%TD*%
%TO.C,D246*%
X162243153Y-89438182D03*
X163356847Y-88324488D03*
%TD*%
%TO.C,D346*%
X131443153Y-102638182D03*
X132556847Y-101524488D03*
%TD*%
%TO.C,D105*%
X144643153Y-74038182D03*
X145756847Y-72924488D03*
%TD*%
%TO.C,D317*%
X151243153Y-98238182D03*
X152356847Y-97124488D03*
%TD*%
%TO.C,D171*%
X164443153Y-80638182D03*
X165556847Y-79524488D03*
%TD*%
%TO.C,D277*%
X146843153Y-93838182D03*
X147956847Y-92724488D03*
%TD*%
%TO.C,D128*%
X153443153Y-76238182D03*
X154556847Y-75124488D03*
%TD*%
%TO.C,D345*%
X129243153Y-102638182D03*
X130356847Y-101524488D03*
%TD*%
%TO.C,D199*%
X142443153Y-85038182D03*
X143556847Y-83924488D03*
%TD*%
%TO.C,D308*%
X131443153Y-98238182D03*
X132556847Y-97124488D03*
%TD*%
D19*
%TO.C,R9*%
X169475000Y-75100000D03*
X171125000Y-75100000D03*
%TD*%
D18*
%TO.C,D224*%
X155643153Y-87238182D03*
X156756847Y-86124488D03*
%TD*%
%TO.C,D136*%
X129243153Y-78438182D03*
X130356847Y-77324488D03*
%TD*%
%TO.C,D221*%
X149043153Y-87238182D03*
X150156847Y-86124488D03*
%TD*%
%TO.C,D310*%
X135843153Y-98238182D03*
X136956847Y-97124488D03*
%TD*%
%TO.C,D262*%
X155643153Y-91638182D03*
X156756847Y-90524488D03*
%TD*%
%TO.C,D380*%
X164443153Y-104838182D03*
X165556847Y-103724488D03*
%TD*%
%TO.C,D286*%
X166643153Y-93838182D03*
X167756847Y-92724488D03*
%TD*%
%TO.C,D225*%
X157843153Y-87238182D03*
X158956847Y-86124488D03*
%TD*%
%TO.C,D219*%
X144643153Y-87238182D03*
X145756847Y-86124488D03*
%TD*%
%TO.C,D323*%
X164443153Y-98238182D03*
X165556847Y-97124488D03*
%TD*%
%TO.C,D353*%
X146843153Y-102638182D03*
X147956847Y-101524488D03*
%TD*%
%TO.C,D343*%
X166643153Y-100438182D03*
X167756847Y-99324488D03*
%TD*%
%TO.C,D24*%
X133643153Y-65238182D03*
X134756847Y-64124488D03*
%TD*%
%TO.C,D292*%
X138043153Y-96038182D03*
X139156847Y-94924488D03*
%TD*%
%TO.C,D152*%
X164443153Y-78438182D03*
X165556847Y-77324488D03*
%TD*%
%TO.C,D295*%
X144643153Y-96038182D03*
X145756847Y-94924488D03*
%TD*%
%TO.C,D165*%
X151243153Y-80638182D03*
X152356847Y-79524488D03*
%TD*%
%TO.C,D255*%
X140243153Y-91638182D03*
X141356847Y-90524488D03*
%TD*%
%TO.C,D320*%
X157843153Y-98238182D03*
X158956847Y-97124488D03*
%TD*%
%TO.C,D144*%
X146843153Y-78438182D03*
X147956847Y-77324488D03*
%TD*%
%TO.C,D210*%
X166643153Y-85038182D03*
X167756847Y-83924488D03*
%TD*%
%TO.C,D239*%
X146843153Y-89438182D03*
X147956847Y-88324488D03*
%TD*%
%TO.C,D193*%
X129243153Y-85038182D03*
X130356847Y-83924488D03*
%TD*%
%TO.C,D110*%
X155643153Y-74038182D03*
X156756847Y-72924488D03*
%TD*%
%TO.C,D315*%
X146843153Y-98238182D03*
X147956847Y-97124488D03*
%TD*%
%TO.C,D145*%
X149043153Y-78438182D03*
X150156847Y-77324488D03*
%TD*%
%TO.C,D42*%
X131443153Y-67438182D03*
X132556847Y-66324488D03*
%TD*%
%TO.C,D122*%
X140243153Y-76238182D03*
X141356847Y-75124488D03*
%TD*%
%TO.C,D191*%
X166643153Y-82838182D03*
X167756847Y-81724488D03*
%TD*%
%TO.C,D26*%
X138043153Y-65238182D03*
X139156847Y-64124488D03*
%TD*%
D20*
%TO.C,R15*%
X171125000Y-88300000D03*
X169475000Y-88300000D03*
%TD*%
D18*
%TO.C,D304*%
X164443153Y-96038182D03*
X165556847Y-94924488D03*
%TD*%
%TO.C,D201*%
X146843153Y-85038182D03*
X147956847Y-83924488D03*
%TD*%
%TO.C,D301*%
X157843153Y-96038182D03*
X158956847Y-94924488D03*
%TD*%
%TO.C,D216*%
X138043153Y-87238182D03*
X139156847Y-86124488D03*
%TD*%
%TO.C,D198*%
X140243153Y-85038182D03*
X141356847Y-83924488D03*
%TD*%
%TO.C,D339*%
X157843153Y-100438182D03*
X158956847Y-99324488D03*
%TD*%
%TO.C,D61*%
X131443153Y-69638182D03*
X132556847Y-68524488D03*
%TD*%
%TO.C,D139*%
X135843153Y-78438182D03*
X136956847Y-77324488D03*
%TD*%
%TO.C,D177*%
X135843153Y-82838182D03*
X136956847Y-81724488D03*
%TD*%
%TO.C,D131*%
X160043153Y-76238182D03*
X161156847Y-75124488D03*
%TD*%
D20*
%TO.C,R13*%
X171125000Y-83900000D03*
X169475000Y-83900000D03*
%TD*%
D18*
%TO.C,D203*%
X151243153Y-85038182D03*
X152356847Y-83924488D03*
%TD*%
D20*
%TO.C,R11*%
X171125000Y-79500000D03*
X169475000Y-79500000D03*
%TD*%
D18*
%TO.C,D270*%
X131443153Y-93838182D03*
X132556847Y-92724488D03*
%TD*%
D20*
%TO.C,R10*%
X171125000Y-77300000D03*
X169475000Y-77300000D03*
%TD*%
D18*
%TO.C,D21*%
X127043153Y-65238182D03*
X128156847Y-64124488D03*
%TD*%
%TO.C,D123*%
X142443153Y-76238182D03*
X143556847Y-75124488D03*
%TD*%
%TO.C,D327*%
X131443153Y-100438182D03*
X132556847Y-99324488D03*
%TD*%
%TO.C,D48*%
X144643153Y-67438182D03*
X145756847Y-66324488D03*
%TD*%
%TO.C,D341*%
X162243153Y-100438182D03*
X163356847Y-99324488D03*
%TD*%
%TO.C,D91*%
X155643153Y-71838182D03*
X156756847Y-70724488D03*
%TD*%
%TO.C,D306*%
X127043153Y-98238182D03*
X128156847Y-97124488D03*
%TD*%
%TO.C,D377*%
X157843153Y-104838182D03*
X158956847Y-103724488D03*
%TD*%
%TO.C,D231*%
X129243153Y-89438182D03*
X130356847Y-88324488D03*
%TD*%
%TO.C,D156*%
X131443153Y-80638182D03*
X132556847Y-79524488D03*
%TD*%
%TO.C,D115*%
X166643153Y-74038182D03*
X167756847Y-72924488D03*
%TD*%
%TO.C,D87*%
X146843153Y-71838182D03*
X147956847Y-70724488D03*
%TD*%
%TO.C,D65*%
X140243153Y-69638182D03*
X141356847Y-68524488D03*
%TD*%
%TO.C,D13*%
X151243153Y-63038182D03*
X152356847Y-61924488D03*
%TD*%
%TO.C,D22*%
X129243153Y-65238182D03*
X130356847Y-64124488D03*
%TD*%
%TO.C,D98*%
X129243153Y-74038182D03*
X130356847Y-72924488D03*
%TD*%
%TO.C,D366*%
X133643153Y-104838182D03*
X134756847Y-103724488D03*
%TD*%
%TO.C,D132*%
X162243153Y-76238182D03*
X163356847Y-75124488D03*
%TD*%
D20*
%TO.C,R17*%
X171125000Y-92700000D03*
X169475000Y-92700000D03*
%TD*%
D18*
%TO.C,D197*%
X138043153Y-85038182D03*
X139156847Y-83924488D03*
%TD*%
%TO.C,D261*%
X153443153Y-91638182D03*
X154556847Y-90524488D03*
%TD*%
%TO.C,D170*%
X162243153Y-80638182D03*
X163356847Y-79524488D03*
%TD*%
%TO.C,D340*%
X160043153Y-100438182D03*
X161156847Y-99324488D03*
%TD*%
%TO.C,D166*%
X153443153Y-80638182D03*
X154556847Y-79524488D03*
%TD*%
%TO.C,D117*%
X129243153Y-76238182D03*
X130356847Y-75124488D03*
%TD*%
%TO.C,D249*%
X127043153Y-91638182D03*
X128156847Y-90524488D03*
%TD*%
%TO.C,D6*%
X135843153Y-63038182D03*
X136956847Y-61924488D03*
%TD*%
%TO.C,D38*%
X164443153Y-65238182D03*
X165556847Y-64124488D03*
%TD*%
%TO.C,D3*%
X129243153Y-63038182D03*
X130356847Y-61924488D03*
%TD*%
%TO.C,D184*%
X151243153Y-82838182D03*
X152356847Y-81724488D03*
%TD*%
%TO.C,D236*%
X140243153Y-89438182D03*
X141356847Y-88324488D03*
%TD*%
%TO.C,D46*%
X140243153Y-67438182D03*
X141356847Y-66324488D03*
%TD*%
%TO.C,D183*%
X149043153Y-82838182D03*
X150156847Y-81724488D03*
%TD*%
%TO.C,D373*%
X149043153Y-104838182D03*
X150156847Y-103724488D03*
%TD*%
%TO.C,D92*%
X157843153Y-71838182D03*
X158956847Y-70724488D03*
%TD*%
%TO.C,D229*%
X166643153Y-87238182D03*
X167756847Y-86124488D03*
%TD*%
%TO.C,D82*%
X135843153Y-71838182D03*
X136956847Y-70724488D03*
%TD*%
%TO.C,D190*%
X164443153Y-82838182D03*
X165556847Y-81724488D03*
%TD*%
%TO.C,D218*%
X142443153Y-87238182D03*
X143556847Y-86124488D03*
%TD*%
%TO.C,D211*%
X127043153Y-87238182D03*
X128156847Y-86124488D03*
%TD*%
%TO.C,D268*%
X127043153Y-93838182D03*
X128156847Y-92724488D03*
%TD*%
%TO.C,D243*%
X155643153Y-89438182D03*
X156756847Y-88324488D03*
%TD*%
D19*
%TO.C,R1*%
X169475000Y-61900000D03*
X171125000Y-61900000D03*
%TD*%
D18*
%TO.C,D161*%
X142443153Y-80638182D03*
X143556847Y-79524488D03*
%TD*%
%TO.C,D321*%
X160043153Y-98238182D03*
X161156847Y-97124488D03*
%TD*%
%TO.C,D352*%
X144643153Y-102638182D03*
X145756847Y-101524488D03*
%TD*%
%TO.C,D47*%
X142443153Y-67438182D03*
X143556847Y-66324488D03*
%TD*%
%TO.C,D99*%
X131443153Y-74038182D03*
X132556847Y-72924488D03*
%TD*%
%TO.C,D242*%
X153443153Y-89438182D03*
X154556847Y-88324488D03*
%TD*%
%TO.C,D189*%
X162243153Y-82838182D03*
X163356847Y-81724488D03*
%TD*%
%TO.C,D52*%
X153443153Y-67438182D03*
X154556847Y-66324488D03*
%TD*%
%TO.C,D294*%
X142443153Y-96038182D03*
X143556847Y-94924488D03*
%TD*%
%TO.C,D160*%
X140243153Y-80638182D03*
X141356847Y-79524488D03*
%TD*%
%TO.C,D329*%
X135843153Y-100438182D03*
X136956847Y-99324488D03*
%TD*%
%TO.C,D324*%
X166643153Y-98238182D03*
X167756847Y-97124488D03*
%TD*%
%TO.C,D179*%
X140243153Y-82838182D03*
X141356847Y-81724488D03*
%TD*%
D19*
%TO.C,R5*%
X169475000Y-66300000D03*
X171125000Y-66300000D03*
%TD*%
D18*
%TO.C,D148*%
X155643153Y-78438182D03*
X156756847Y-77324488D03*
%TD*%
%TO.C,D138*%
X133643153Y-78438182D03*
X134756847Y-77324488D03*
%TD*%
%TO.C,D372*%
X146843153Y-104838182D03*
X147956847Y-103724488D03*
%TD*%
%TO.C,D284*%
X162243153Y-93838182D03*
X163356847Y-92724488D03*
%TD*%
D20*
%TO.C,R14*%
X171125000Y-86100000D03*
X169475000Y-86100000D03*
%TD*%
D18*
%TO.C,D95*%
X164443153Y-71838182D03*
X165556847Y-70724488D03*
%TD*%
%TO.C,D291*%
X135843153Y-96038182D03*
X136956847Y-94924488D03*
%TD*%
%TO.C,D127*%
X151243153Y-76238182D03*
X152356847Y-75124488D03*
%TD*%
%TO.C,D14*%
X153443153Y-63038182D03*
X154556847Y-61924488D03*
%TD*%
%TO.C,D76*%
X164443153Y-69638182D03*
X165556847Y-68524488D03*
%TD*%
%TO.C,D276*%
X144643153Y-93838182D03*
X145756847Y-92724488D03*
%TD*%
%TO.C,D358*%
X157843153Y-102638182D03*
X158956847Y-101524488D03*
%TD*%
%TO.C,D237*%
X142443153Y-89438182D03*
X143556847Y-88324488D03*
%TD*%
%TO.C,D357*%
X155643153Y-102638182D03*
X156756847Y-101524488D03*
%TD*%
%TO.C,D195*%
X133643153Y-85038182D03*
X134756847Y-83924488D03*
%TD*%
%TO.C,D259*%
X149043153Y-91638182D03*
X150156847Y-90524488D03*
%TD*%
%TO.C,D133*%
X164443153Y-76238182D03*
X165556847Y-75124488D03*
%TD*%
%TO.C,D2*%
X127043153Y-63038182D03*
X128156847Y-61924488D03*
%TD*%
%TO.C,D93*%
X160043153Y-71838182D03*
X161156847Y-70724488D03*
%TD*%
%TO.C,D220*%
X146843153Y-87238182D03*
X147956847Y-86124488D03*
%TD*%
%TO.C,D311*%
X138043153Y-98238182D03*
X139156847Y-97124488D03*
%TD*%
%TO.C,D124*%
X144643153Y-76238182D03*
X145756847Y-75124488D03*
%TD*%
D19*
%TO.C,R7*%
X169475000Y-70700000D03*
X171125000Y-70700000D03*
%TD*%
D20*
%TO.C,R12*%
X171125000Y-81700000D03*
X169475000Y-81700000D03*
%TD*%
D18*
%TO.C,D333*%
X144643153Y-100438182D03*
X145756847Y-99324488D03*
%TD*%
%TO.C,D265*%
X162243153Y-91638182D03*
X163356847Y-90524488D03*
%TD*%
%TO.C,D263*%
X157843153Y-91638182D03*
X158956847Y-90524488D03*
%TD*%
D19*
%TO.C,R8*%
X169475000Y-72900000D03*
X171125000Y-72900000D03*
%TD*%
D18*
%TO.C,D297*%
X149043153Y-96038182D03*
X150156847Y-94924488D03*
%TD*%
%TO.C,D379*%
X162243153Y-104838182D03*
X163356847Y-103724488D03*
%TD*%
%TO.C,D45*%
X138043153Y-67438182D03*
X139156847Y-66324488D03*
%TD*%
%TO.C,D178*%
X138043153Y-82838182D03*
X139156847Y-81724488D03*
%TD*%
%TO.C,D146*%
X151243153Y-78438182D03*
X152356847Y-77324488D03*
%TD*%
%TO.C,D296*%
X146843153Y-96038182D03*
X147956847Y-94924488D03*
%TD*%
%TO.C,D163*%
X146843153Y-80638182D03*
X147956847Y-79524488D03*
%TD*%
%TO.C,D354*%
X149043153Y-102638182D03*
X150156847Y-101524488D03*
%TD*%
%TO.C,D202*%
X149043153Y-85038182D03*
X150156847Y-83924488D03*
%TD*%
%TO.C,D53*%
X155643153Y-67438182D03*
X156756847Y-66324488D03*
%TD*%
%TO.C,D238*%
X144643153Y-89438182D03*
X145756847Y-88324488D03*
%TD*%
%TO.C,D318*%
X153443153Y-98238182D03*
X154556847Y-97124488D03*
%TD*%
%TO.C,D104*%
X142443153Y-74038182D03*
X143556847Y-72924488D03*
%TD*%
%TO.C,D245*%
X160043153Y-89438182D03*
X161156847Y-88324488D03*
%TD*%
%TO.C,D41*%
X129243153Y-67438182D03*
X130356847Y-66324488D03*
%TD*%
%TO.C,D271*%
X133643153Y-93838182D03*
X134756847Y-92724488D03*
%TD*%
%TO.C,D234*%
X135843153Y-89438182D03*
X136956847Y-88324488D03*
%TD*%
%TO.C,D251*%
X131443153Y-91638182D03*
X132556847Y-90524488D03*
%TD*%
%TO.C,D30*%
X146843153Y-65238182D03*
X147956847Y-64124488D03*
%TD*%
%TO.C,D88*%
X149043153Y-71838182D03*
X150156847Y-70724488D03*
%TD*%
%TO.C,D217*%
X140243153Y-87238182D03*
X141356847Y-86124488D03*
%TD*%
%TO.C,D168*%
X157843153Y-80638182D03*
X158956847Y-79524488D03*
%TD*%
%TO.C,D44*%
X135843153Y-67438182D03*
X136956847Y-66324488D03*
%TD*%
%TO.C,D102*%
X138043153Y-74038182D03*
X139156847Y-72924488D03*
%TD*%
%TO.C,D364*%
X129243153Y-104838182D03*
X130356847Y-103724488D03*
%TD*%
%TO.C,D367*%
X135843153Y-104838182D03*
X136956847Y-103724488D03*
%TD*%
%TO.C,D155*%
X129243153Y-80638182D03*
X130356847Y-79524488D03*
%TD*%
D19*
%TO.C,R4*%
X169475000Y-103700000D03*
X171125000Y-103700000D03*
%TD*%
D18*
%TO.C,D55*%
X160043153Y-67438182D03*
X161156847Y-66324488D03*
%TD*%
%TO.C,D214*%
X133643153Y-87238182D03*
X134756847Y-86124488D03*
%TD*%
%TO.C,D376*%
X155643153Y-104838182D03*
X156756847Y-103724488D03*
%TD*%
%TO.C,D309*%
X133643153Y-98238182D03*
X134756847Y-97124488D03*
%TD*%
%TO.C,D43*%
X133643153Y-67438182D03*
X134756847Y-66324488D03*
%TD*%
%TO.C,D16*%
X157843153Y-63038182D03*
X158956847Y-61924488D03*
%TD*%
%TO.C,D319*%
X155643153Y-98238182D03*
X156756847Y-97124488D03*
%TD*%
%TO.C,D40*%
X127043153Y-67438182D03*
X128156847Y-66324488D03*
%TD*%
D21*
%TO.C,U1*%
X180901212Y-85312124D03*
X180547658Y-85665678D03*
X180194105Y-86019231D03*
X179840551Y-86372785D03*
X179486998Y-86726338D03*
X179133445Y-87079891D03*
X178779891Y-87433445D03*
X178426338Y-87786998D03*
X178072785Y-88140551D03*
X177719231Y-88494105D03*
X177365678Y-88847658D03*
X177012124Y-89201212D03*
D22*
X177012124Y-91198788D03*
X177365678Y-91552342D03*
X177719231Y-91905895D03*
X178072785Y-92259449D03*
X178426338Y-92613002D03*
X178779891Y-92966555D03*
X179133445Y-93320109D03*
X179486998Y-93673662D03*
X179840551Y-94027215D03*
X180194105Y-94380769D03*
X180547658Y-94734322D03*
X180901212Y-95087876D03*
D21*
X182898788Y-95087876D03*
X183252342Y-94734322D03*
X183605895Y-94380769D03*
X183959449Y-94027215D03*
X184313002Y-93673662D03*
X184666555Y-93320109D03*
X185020109Y-92966555D03*
X185373662Y-92613002D03*
X185727215Y-92259449D03*
X186080769Y-91905895D03*
X186434322Y-91552342D03*
X186787876Y-91198788D03*
D22*
X186787876Y-89201212D03*
X186434322Y-88847658D03*
X186080769Y-88494105D03*
X185727215Y-88140551D03*
X185373662Y-87786998D03*
X185020109Y-87433445D03*
X184666555Y-87079891D03*
X184313002Y-86726338D03*
X183959449Y-86372785D03*
X183605895Y-86019231D03*
X183252342Y-85665678D03*
X182898788Y-85312124D03*
%TD*%
D18*
%TO.C,D96*%
X166643153Y-71838182D03*
X167756847Y-70724488D03*
%TD*%
%TO.C,D167*%
X155643153Y-80638182D03*
X156756847Y-79524488D03*
%TD*%
%TO.C,D362*%
X166643153Y-102638182D03*
X167756847Y-101524488D03*
%TD*%
%TO.C,D215*%
X135843153Y-87238182D03*
X136956847Y-86124488D03*
%TD*%
%TO.C,D181*%
X144643153Y-82838182D03*
X145756847Y-81724488D03*
%TD*%
%TO.C,D71*%
X153443153Y-69638182D03*
X154556847Y-68524488D03*
%TD*%
D20*
%TO.C,R16*%
X171125000Y-90500000D03*
X169475000Y-90500000D03*
%TD*%
D18*
%TO.C,D200*%
X144643153Y-85038182D03*
X145756847Y-83924488D03*
%TD*%
%TO.C,D338*%
X155643153Y-100438182D03*
X156756847Y-99324488D03*
%TD*%
%TO.C,D120*%
X135843153Y-76238182D03*
X136956847Y-75124488D03*
%TD*%
%TO.C,D244*%
X157843153Y-89438182D03*
X158956847Y-88324488D03*
%TD*%
%TO.C,D54*%
X157843153Y-67438182D03*
X158956847Y-66324488D03*
%TD*%
%TO.C,D31*%
X149043153Y-65238182D03*
X150156847Y-64124488D03*
%TD*%
%TO.C,D264*%
X160043153Y-91638182D03*
X161156847Y-90524488D03*
%TD*%
%TO.C,D50*%
X149043153Y-67438182D03*
X150156847Y-66324488D03*
%TD*%
%TO.C,D5*%
X133643153Y-63038182D03*
X134756847Y-61924488D03*
%TD*%
%TO.C,D359*%
X160043153Y-102638182D03*
X161156847Y-101524488D03*
%TD*%
%TO.C,D111*%
X157843153Y-74038182D03*
X158956847Y-72924488D03*
%TD*%
%TO.C,D227*%
X162243153Y-87238182D03*
X163356847Y-86124488D03*
%TD*%
%TO.C,D228*%
X164443153Y-87238182D03*
X165556847Y-86124488D03*
%TD*%
%TO.C,D169*%
X160043153Y-80638182D03*
X161156847Y-79524488D03*
%TD*%
%TO.C,D108*%
X151243153Y-74038182D03*
X152356847Y-72924488D03*
%TD*%
%TO.C,D180*%
X142443153Y-82838182D03*
X143556847Y-81724488D03*
%TD*%
%TO.C,D275*%
X142443153Y-93838182D03*
X143556847Y-92724488D03*
%TD*%
%TO.C,D126*%
X149043153Y-76238182D03*
X150156847Y-75124488D03*
%TD*%
%TO.C,D51*%
X151243153Y-67438182D03*
X152356847Y-66324488D03*
%TD*%
%TO.C,D28*%
X142443153Y-65238182D03*
X143556847Y-64124488D03*
%TD*%
%TO.C,D59*%
X127043153Y-69638182D03*
X128156847Y-68524488D03*
%TD*%
%TO.C,D173*%
X127043153Y-82838182D03*
X128156847Y-81724488D03*
%TD*%
%TO.C,D204*%
X153443153Y-85038182D03*
X154556847Y-83924488D03*
%TD*%
%TO.C,D33*%
X153443153Y-65238182D03*
X154556847Y-64124488D03*
%TD*%
%TO.C,D172*%
X166643153Y-80638182D03*
X167756847Y-79524488D03*
%TD*%
%TO.C,D25*%
X135843153Y-65238182D03*
X136956847Y-64124488D03*
%TD*%
%TO.C,D298*%
X151243153Y-96038182D03*
X152356847Y-94924488D03*
%TD*%
%TO.C,D207*%
X160043153Y-85038182D03*
X161156847Y-83924488D03*
%TD*%
%TO.C,D213*%
X131443153Y-87238182D03*
X132556847Y-86124488D03*
%TD*%
%TO.C,D135*%
X127043153Y-78438182D03*
X128156847Y-77324488D03*
%TD*%
%TO.C,D208*%
X162243153Y-85038182D03*
X163356847Y-83924488D03*
%TD*%
%TO.C,D84*%
X140243153Y-71838182D03*
X141356847Y-70724488D03*
%TD*%
%TO.C,D69*%
X149043153Y-69638182D03*
X150156847Y-68524488D03*
%TD*%
%TO.C,D374*%
X151243153Y-104838182D03*
X152356847Y-103724488D03*
%TD*%
%TO.C,D121*%
X138043153Y-76238182D03*
X139156847Y-75124488D03*
%TD*%
%TO.C,D325*%
X127043153Y-100438182D03*
X128156847Y-99324488D03*
%TD*%
%TO.C,D254*%
X138043153Y-91638182D03*
X139156847Y-90524488D03*
%TD*%
%TO.C,D188*%
X160043153Y-82838182D03*
X161156847Y-81724488D03*
%TD*%
%TO.C,D313*%
X142443153Y-98238182D03*
X143556847Y-97124488D03*
%TD*%
%TO.C,D36*%
X160043153Y-65238182D03*
X161156847Y-64124488D03*
%TD*%
%TO.C,D223*%
X153443153Y-87238182D03*
X154556847Y-86124488D03*
%TD*%
%TO.C,D150*%
X160043153Y-78438182D03*
X161156847Y-77324488D03*
%TD*%
%TO.C,D233*%
X133643153Y-89438182D03*
X134756847Y-88324488D03*
%TD*%
%TO.C,D250*%
X129243153Y-91638182D03*
X130356847Y-90524488D03*
%TD*%
%TO.C,D350*%
X140243153Y-102638182D03*
X141356847Y-101524488D03*
%TD*%
%TO.C,D109*%
X153443153Y-74038182D03*
X154556847Y-72924488D03*
%TD*%
%TO.C,D10*%
X144643153Y-63038182D03*
X145756847Y-61924488D03*
%TD*%
%TO.C,D314*%
X144643153Y-98238182D03*
X145756847Y-97124488D03*
%TD*%
%TO.C,D27*%
X140243153Y-65238182D03*
X141356847Y-64124488D03*
%TD*%
%TO.C,D140*%
X138043153Y-78438182D03*
X139156847Y-77324488D03*
%TD*%
%TO.C,D56*%
X162243153Y-67438182D03*
X163356847Y-66324488D03*
%TD*%
%TO.C,D342*%
X164443153Y-100438182D03*
X165556847Y-99324488D03*
%TD*%
%TO.C,D129*%
X155643153Y-76238182D03*
X156756847Y-75124488D03*
%TD*%
%TO.C,D365*%
X131443153Y-104838182D03*
X132556847Y-103724488D03*
%TD*%
%TO.C,D118*%
X131443153Y-76238182D03*
X132556847Y-75124488D03*
%TD*%
%TO.C,D368*%
X138043153Y-104838182D03*
X139156847Y-103724488D03*
%TD*%
%TO.C,D149*%
X157843153Y-78438182D03*
X158956847Y-77324488D03*
%TD*%
%TO.C,D97*%
X127043153Y-74038182D03*
X128156847Y-72924488D03*
%TD*%
%TO.C,D326*%
X129243153Y-100438182D03*
X130356847Y-99324488D03*
%TD*%
%TO.C,D106*%
X146843153Y-74038182D03*
X147956847Y-72924488D03*
%TD*%
%TO.C,D162*%
X144643153Y-80638182D03*
X145756847Y-79524488D03*
%TD*%
%TO.C,D285*%
X164443153Y-93838182D03*
X165556847Y-92724488D03*
%TD*%
%TO.C,D280*%
X153443153Y-93838182D03*
X154556847Y-92724488D03*
%TD*%
%TO.C,D58*%
X166643153Y-67438182D03*
X167756847Y-66324488D03*
%TD*%
%TO.C,D381*%
X166643153Y-104838182D03*
X167756847Y-103724488D03*
%TD*%
%TO.C,D282*%
X157843153Y-93838182D03*
X158956847Y-92724488D03*
%TD*%
%TO.C,D248*%
X166643153Y-89438182D03*
X167756847Y-88324488D03*
%TD*%
%TO.C,D72*%
X155643153Y-69638182D03*
X156756847Y-68524488D03*
%TD*%
%TO.C,D194*%
X131443153Y-85038182D03*
X132556847Y-83924488D03*
%TD*%
%TO.C,D29*%
X144643153Y-65238182D03*
X145756847Y-64124488D03*
%TD*%
%TO.C,D7*%
X138043153Y-63038182D03*
X139156847Y-61924488D03*
%TD*%
%TO.C,D185*%
X153443153Y-82838182D03*
X154556847Y-81724488D03*
%TD*%
%TO.C,D94*%
X162243153Y-71838182D03*
X163356847Y-70724488D03*
%TD*%
%TO.C,D17*%
X160043153Y-63038182D03*
X161156847Y-61924488D03*
%TD*%
D23*
%TO.C,BT1*%
X180558043Y-61516622D03*
D24*
X201841957Y-83083378D03*
%TD*%
D19*
%TO.C,R19*%
X169475000Y-97100000D03*
X171125000Y-97100000D03*
%TD*%
D18*
%TO.C,D86*%
X144643153Y-71838182D03*
X145756847Y-70724488D03*
%TD*%
%TO.C,D222*%
X151243153Y-87238182D03*
X152356847Y-86124488D03*
%TD*%
%TO.C,D240*%
X149043153Y-89438182D03*
X150156847Y-88324488D03*
%TD*%
%TO.C,D312*%
X140243153Y-98238182D03*
X141356847Y-97124488D03*
%TD*%
%TO.C,D18*%
X162243153Y-63038182D03*
X163356847Y-61924488D03*
%TD*%
%TO.C,D79*%
X129243153Y-71838182D03*
X130356847Y-70724488D03*
%TD*%
%TO.C,D303*%
X162243153Y-96038182D03*
X163356847Y-94924488D03*
%TD*%
%TO.C,D247*%
X164443153Y-89438182D03*
X165556847Y-88324488D03*
%TD*%
%TO.C,D235*%
X138043153Y-89438182D03*
X139156847Y-88324488D03*
%TD*%
%TO.C,D316*%
X149043153Y-98238182D03*
X150156847Y-97124488D03*
%TD*%
%TO.C,D35*%
X157843153Y-65238182D03*
X158956847Y-64124488D03*
%TD*%
%TO.C,D302*%
X160043153Y-96038182D03*
X161156847Y-94924488D03*
%TD*%
D19*
%TO.C,R3*%
X169475000Y-101500000D03*
X171125000Y-101500000D03*
%TD*%
%TO.C,R2*%
X169475000Y-64100000D03*
X171125000Y-64100000D03*
%TD*%
D18*
%TO.C,D182*%
X146843153Y-82838182D03*
X147956847Y-81724488D03*
%TD*%
%TO.C,D100*%
X133643153Y-74038182D03*
X134756847Y-72924488D03*
%TD*%
%TO.C,D273*%
X138043153Y-93838182D03*
X139156847Y-92724488D03*
%TD*%
%TO.C,D283*%
X160043153Y-93838182D03*
X161156847Y-92724488D03*
%TD*%
%TO.C,D370*%
X142443153Y-104838182D03*
X143556847Y-103724488D03*
%TD*%
%TO.C,D336*%
X151243153Y-100438182D03*
X152356847Y-99324488D03*
%TD*%
%TO.C,D266*%
X164443153Y-91638182D03*
X165556847Y-90524488D03*
%TD*%
%TO.C,D57*%
X164443153Y-67438182D03*
X165556847Y-66324488D03*
%TD*%
%TO.C,D113*%
X162243153Y-74038182D03*
X163356847Y-72924488D03*
%TD*%
%TO.C,D101*%
X135843153Y-74038182D03*
X136956847Y-72924488D03*
%TD*%
%TO.C,D143*%
X144643153Y-78438182D03*
X145756847Y-77324488D03*
%TD*%
%TO.C,D351*%
X142443153Y-102638182D03*
X143556847Y-101524488D03*
%TD*%
%TO.C,D330*%
X138043153Y-100438182D03*
X139156847Y-99324488D03*
%TD*%
%TO.C,D192*%
X127043153Y-85038182D03*
X128156847Y-83924488D03*
%TD*%
%TO.C,D279*%
X151243153Y-93838182D03*
X152356847Y-92724488D03*
%TD*%
%TO.C,D253*%
X135843153Y-91638182D03*
X136956847Y-90524488D03*
%TD*%
%TO.C,D49*%
X146843153Y-67438182D03*
X147956847Y-66324488D03*
%TD*%
%TO.C,D80*%
X131443153Y-71838182D03*
X132556847Y-70724488D03*
%TD*%
%TO.C,D107*%
X149043153Y-74038182D03*
X150156847Y-72924488D03*
%TD*%
%TO.C,D212*%
X129243153Y-87238182D03*
X130356847Y-86124488D03*
%TD*%
%TO.C,D63*%
X135843153Y-69638182D03*
X136956847Y-68524488D03*
%TD*%
%TO.C,D75*%
X162243153Y-69638182D03*
X163356847Y-68524488D03*
%TD*%
%TO.C,D378*%
X160043153Y-104838182D03*
X161156847Y-103724488D03*
%TD*%
%TO.C,D258*%
X146843153Y-91638182D03*
X147956847Y-90524488D03*
%TD*%
%TO.C,D174*%
X129243153Y-82838182D03*
X130356847Y-81724488D03*
%TD*%
%TO.C,D375*%
X153443153Y-104838182D03*
X154556847Y-103724488D03*
%TD*%
%TO.C,D4*%
X131443153Y-63038182D03*
X132556847Y-61924488D03*
%TD*%
%TO.C,D337*%
X153443153Y-100438182D03*
X154556847Y-99324488D03*
%TD*%
%TO.C,D83*%
X138043153Y-71838182D03*
X139156847Y-70724488D03*
%TD*%
%TO.C,D369*%
X140243153Y-104838182D03*
X141356847Y-103724488D03*
%TD*%
%TO.C,D164*%
X149043153Y-80638182D03*
X150156847Y-79524488D03*
%TD*%
%TO.C,D32*%
X151243153Y-65238182D03*
X152356847Y-64124488D03*
%TD*%
%TO.C,D70*%
X151243153Y-69638182D03*
X152356847Y-68524488D03*
%TD*%
%TO.C,D81*%
X133643153Y-71838182D03*
X134756847Y-70724488D03*
%TD*%
%TO.C,D77*%
X166643153Y-69638182D03*
X167756847Y-68524488D03*
%TD*%
%TO.C,D252*%
X133643153Y-91638182D03*
X134756847Y-90524488D03*
%TD*%
%TO.C,D125*%
X146843153Y-76238182D03*
X147956847Y-75124488D03*
%TD*%
%TO.C,D269*%
X129243153Y-93838182D03*
X130356847Y-92724488D03*
%TD*%
%TO.C,D196*%
X135843153Y-85038182D03*
X136956847Y-83924488D03*
%TD*%
%TO.C,D347*%
X133643153Y-102638182D03*
X134756847Y-101524488D03*
%TD*%
%TO.C,D288*%
X129243153Y-96038182D03*
X130356847Y-94924488D03*
%TD*%
%TO.C,D186*%
X155643153Y-82838182D03*
X156756847Y-81724488D03*
%TD*%
%TO.C,D19*%
X164443153Y-63038182D03*
X165556847Y-61924488D03*
%TD*%
%TO.C,D159*%
X138043153Y-80638182D03*
X139156847Y-79524488D03*
%TD*%
%TO.C,D90*%
X153443153Y-71838182D03*
X154556847Y-70724488D03*
%TD*%
%TO.C,D344*%
X127043153Y-102638182D03*
X128156847Y-101524488D03*
%TD*%
D19*
%TO.C,R6*%
X169475000Y-68500000D03*
X171125000Y-68500000D03*
%TD*%
%TO.C,R20*%
X169475000Y-99300000D03*
X171125000Y-99300000D03*
%TD*%
D18*
%TO.C,D209*%
X164443153Y-85038182D03*
X165556847Y-83924488D03*
%TD*%
%TO.C,D232*%
X131443153Y-89438182D03*
X132556847Y-88324488D03*
%TD*%
%TO.C,D9*%
X142443153Y-63038182D03*
X143556847Y-61924488D03*
%TD*%
%TO.C,D281*%
X155643153Y-93838182D03*
X156756847Y-92724488D03*
%TD*%
%TO.C,D349*%
X138043153Y-102638182D03*
X139156847Y-101524488D03*
%TD*%
%TO.C,D68*%
X146843153Y-69638182D03*
X147956847Y-68524488D03*
%TD*%
%TO.C,D8*%
X140243153Y-63038182D03*
X141356847Y-61924488D03*
%TD*%
%TO.C,D112*%
X160043153Y-74038182D03*
X161156847Y-72924488D03*
%TD*%
%TO.C,D331*%
X140243153Y-100438182D03*
X141356847Y-99324488D03*
%TD*%
%TO.C,D226*%
X160043153Y-87238182D03*
X161156847Y-86124488D03*
%TD*%
%TO.C,D307*%
X129243153Y-98238182D03*
X130356847Y-97124488D03*
%TD*%
%TO.C,D151*%
X162243153Y-78438182D03*
X163356847Y-77324488D03*
%TD*%
%TO.C,D34*%
X155643153Y-65238182D03*
X156756847Y-64124488D03*
%TD*%
%TO.C,D39*%
X166643153Y-65238182D03*
X167756847Y-64124488D03*
%TD*%
%TO.C,D73*%
X157843153Y-69638182D03*
X158956847Y-68524488D03*
%TD*%
%TO.C,D157*%
X133643153Y-80638182D03*
X134756847Y-79524488D03*
%TD*%
%TO.C,D154*%
X127043153Y-80638182D03*
X128156847Y-79524488D03*
%TD*%
%TO.C,D230*%
X127043153Y-89438182D03*
X128156847Y-88324488D03*
%TD*%
%TO.C,D348*%
X135843153Y-102638182D03*
X136956847Y-101524488D03*
%TD*%
D19*
%TO.C,R18*%
X169475000Y-94900000D03*
X171125000Y-94900000D03*
%TD*%
D18*
%TO.C,D274*%
X140243153Y-93838182D03*
X141356847Y-92724488D03*
%TD*%
%TO.C,D293*%
X140243153Y-96038182D03*
X141356847Y-94924488D03*
%TD*%
%TO.C,D176*%
X133643153Y-82838182D03*
X134756847Y-81724488D03*
%TD*%
%TO.C,D114*%
X164443153Y-74038182D03*
X165556847Y-72924488D03*
%TD*%
%TO.C,D11*%
X146843153Y-63038182D03*
X147956847Y-61924488D03*
%TD*%
%TO.C,D89*%
X151243153Y-71838182D03*
X152356847Y-70724488D03*
%TD*%
%TO.C,D260*%
X151243153Y-91638182D03*
X152356847Y-90524488D03*
%TD*%
%TO.C,D142*%
X142443153Y-78438182D03*
X143556847Y-77324488D03*
%TD*%
%TO.C,D147*%
X153443153Y-78438182D03*
X154556847Y-77324488D03*
%TD*%
%TO.C,D278*%
X149043153Y-93838182D03*
X150156847Y-92724488D03*
%TD*%
%TO.C,D116*%
X127043153Y-76238182D03*
X128156847Y-75124488D03*
%TD*%
%TO.C,D175*%
X131443153Y-82838182D03*
X132556847Y-81724488D03*
%TD*%
%TO.C,D290*%
X133643153Y-96038182D03*
X134756847Y-94924488D03*
%TD*%
%TO.C,D85*%
X142443153Y-71838182D03*
X143556847Y-70724488D03*
%TD*%
%TO.C,D256*%
X142443153Y-91638182D03*
X143556847Y-90524488D03*
%TD*%
%TO.C,D103*%
X140243153Y-74038182D03*
X141356847Y-72924488D03*
%TD*%
%TO.C,D299*%
X153443153Y-96038182D03*
X154556847Y-94924488D03*
%TD*%
%TO.C,D78*%
X127043153Y-71838182D03*
X128156847Y-70724488D03*
%TD*%
%TO.C,D363*%
X127043153Y-104838182D03*
X128156847Y-103724488D03*
%TD*%
%TO.C,D356*%
X153443153Y-102638182D03*
X154556847Y-101524488D03*
%TD*%
%TO.C,D137*%
X131443153Y-78438182D03*
X132556847Y-77324488D03*
%TD*%
%TO.C,D361*%
X164443153Y-102638182D03*
X165556847Y-101524488D03*
%TD*%
G36*
X201200642Y-57300007D02*
G01*
X201413471Y-57302328D01*
X201422926Y-57302793D01*
X201847549Y-57339943D01*
X201858274Y-57341355D01*
X202277376Y-57415253D01*
X202287938Y-57417594D01*
X202699019Y-57527743D01*
X202709335Y-57530996D01*
X203109240Y-57676549D01*
X203119235Y-57680689D01*
X203504937Y-57860545D01*
X203514532Y-57865540D01*
X203883083Y-58078323D01*
X203892207Y-58084135D01*
X204240820Y-58328237D01*
X204249402Y-58334822D01*
X204575420Y-58608383D01*
X204583395Y-58615692D01*
X204884307Y-58916604D01*
X204891616Y-58924579D01*
X205165177Y-59250597D01*
X205171762Y-59259179D01*
X205415864Y-59607792D01*
X205421676Y-59616916D01*
X205634459Y-59985467D01*
X205639454Y-59995062D01*
X205819310Y-60380764D01*
X205823450Y-60390759D01*
X205969003Y-60790664D01*
X205972256Y-60800980D01*
X206082405Y-61212061D01*
X206084746Y-61222623D01*
X206158644Y-61641725D01*
X206160056Y-61652450D01*
X206197206Y-62077073D01*
X206197671Y-62086527D01*
X206199993Y-62299357D01*
X206200000Y-62300710D01*
X206200000Y-106299289D01*
X206199993Y-106300642D01*
X206197671Y-106513472D01*
X206197206Y-106522926D01*
X206160056Y-106947549D01*
X206158644Y-106958274D01*
X206084746Y-107377376D01*
X206082405Y-107387938D01*
X205972256Y-107799019D01*
X205969003Y-107809335D01*
X205823450Y-108209240D01*
X205819310Y-108219235D01*
X205639454Y-108604937D01*
X205634459Y-108614532D01*
X205421676Y-108983083D01*
X205415864Y-108992207D01*
X205171762Y-109340820D01*
X205165177Y-109349402D01*
X204891616Y-109675420D01*
X204884307Y-109683395D01*
X204583395Y-109984307D01*
X204575420Y-109991616D01*
X204249402Y-110265177D01*
X204240820Y-110271762D01*
X203892207Y-110515864D01*
X203883083Y-110521676D01*
X203514532Y-110734459D01*
X203504937Y-110739454D01*
X203119235Y-110919310D01*
X203109240Y-110923450D01*
X202709335Y-111069003D01*
X202699019Y-111072256D01*
X202287938Y-111182405D01*
X202277376Y-111184746D01*
X201858274Y-111258644D01*
X201847549Y-111260056D01*
X201422926Y-111297206D01*
X201413472Y-111297671D01*
X201200643Y-111299993D01*
X201199290Y-111300000D01*
X126200710Y-111300000D01*
X126199357Y-111299993D01*
X125986527Y-111297671D01*
X125977073Y-111297206D01*
X125552450Y-111260056D01*
X125541725Y-111258644D01*
X125122623Y-111184746D01*
X125112061Y-111182405D01*
X124700980Y-111072256D01*
X124690664Y-111069003D01*
X124290759Y-110923450D01*
X124280764Y-110919310D01*
X123895062Y-110739454D01*
X123885467Y-110734459D01*
X123516916Y-110521676D01*
X123507792Y-110515864D01*
X123159179Y-110271762D01*
X123150597Y-110265177D01*
X122824579Y-109991616D01*
X122816604Y-109984307D01*
X122515692Y-109683395D01*
X122508383Y-109675420D01*
X122234822Y-109349402D01*
X122228237Y-109340820D01*
X121984135Y-108992207D01*
X121978323Y-108983083D01*
X121765540Y-108614532D01*
X121760545Y-108604937D01*
X121580689Y-108219235D01*
X121576549Y-108209240D01*
X121430996Y-107809335D01*
X121427743Y-107799019D01*
X121317594Y-107387938D01*
X121315253Y-107377376D01*
X121241355Y-106958274D01*
X121239943Y-106947549D01*
X121202793Y-106522926D01*
X121202328Y-106513471D01*
X121200007Y-106300641D01*
X121200000Y-106299289D01*
X121200000Y-62300710D01*
X121200004Y-62299988D01*
X122200000Y-62299988D01*
X122200000Y-106300011D01*
X122202349Y-106496392D01*
X122240847Y-106887282D01*
X122317476Y-107272517D01*
X122431496Y-107648393D01*
X122581809Y-108011280D01*
X122581811Y-108011285D01*
X122766958Y-108357670D01*
X122766969Y-108357688D01*
X122985178Y-108684261D01*
X122985188Y-108684275D01*
X123234367Y-108987901D01*
X123512098Y-109265632D01*
X123815724Y-109514811D01*
X123815738Y-109514821D01*
X124142311Y-109733030D01*
X124142329Y-109733041D01*
X124488714Y-109918188D01*
X124488719Y-109918190D01*
X124851606Y-110068503D01*
X125227482Y-110182523D01*
X125612717Y-110259152D01*
X126003607Y-110297650D01*
X126199989Y-110300000D01*
X201200011Y-110300000D01*
X201396392Y-110297650D01*
X201787282Y-110259152D01*
X202172517Y-110182523D01*
X202548393Y-110068503D01*
X202911280Y-109918190D01*
X202911285Y-109918188D01*
X203257670Y-109733041D01*
X203257688Y-109733030D01*
X203584261Y-109514821D01*
X203584275Y-109514811D01*
X203887901Y-109265632D01*
X204165632Y-108987901D01*
X204414811Y-108684275D01*
X204414821Y-108684261D01*
X204633030Y-108357688D01*
X204633041Y-108357670D01*
X204818188Y-108011285D01*
X204818190Y-108011280D01*
X204968503Y-107648393D01*
X205082523Y-107272517D01*
X205159152Y-106887282D01*
X205197650Y-106496392D01*
X205200000Y-106300011D01*
X205200000Y-62299988D01*
X205197650Y-62103607D01*
X205159152Y-61712717D01*
X205082523Y-61327482D01*
X204968503Y-60951606D01*
X204818190Y-60588719D01*
X204818188Y-60588714D01*
X204633041Y-60242329D01*
X204633030Y-60242311D01*
X204414821Y-59915738D01*
X204414811Y-59915724D01*
X204165632Y-59612098D01*
X203887901Y-59334367D01*
X203584275Y-59085188D01*
X203584261Y-59085178D01*
X203257688Y-58866969D01*
X203257670Y-58866958D01*
X202911285Y-58681811D01*
X202911280Y-58681809D01*
X202548393Y-58531496D01*
X202172517Y-58417476D01*
X201787282Y-58340847D01*
X201396392Y-58302349D01*
X201200011Y-58300000D01*
X126199989Y-58300000D01*
X126003607Y-58302349D01*
X125612717Y-58340847D01*
X125227482Y-58417476D01*
X124851606Y-58531496D01*
X124488719Y-58681809D01*
X124488714Y-58681811D01*
X124142329Y-58866958D01*
X124142311Y-58866969D01*
X123815738Y-59085178D01*
X123815724Y-59085188D01*
X123512098Y-59334367D01*
X123234367Y-59612098D01*
X122985188Y-59915724D01*
X122985178Y-59915738D01*
X122766969Y-60242311D01*
X122766958Y-60242329D01*
X122581811Y-60588714D01*
X122581809Y-60588719D01*
X122431496Y-60951606D01*
X122317476Y-61327482D01*
X122240847Y-61712717D01*
X122202349Y-62103607D01*
X122200000Y-62299988D01*
X121200004Y-62299988D01*
X121200007Y-62299358D01*
X121202328Y-62086528D01*
X121202793Y-62077073D01*
X121239943Y-61652450D01*
X121241355Y-61641725D01*
X121315253Y-61222623D01*
X121317594Y-61212061D01*
X121427743Y-60800980D01*
X121430996Y-60790664D01*
X121576549Y-60390759D01*
X121580689Y-60380764D01*
X121760545Y-59995062D01*
X121765540Y-59985467D01*
X121978323Y-59616916D01*
X121984135Y-59607792D01*
X122228237Y-59259179D01*
X122234822Y-59250597D01*
X122508383Y-58924579D01*
X122515692Y-58916604D01*
X122816604Y-58615692D01*
X122824579Y-58608383D01*
X123150597Y-58334822D01*
X123159179Y-58328237D01*
X123507792Y-58084135D01*
X123516916Y-58078323D01*
X123885467Y-57865540D01*
X123895062Y-57860545D01*
X124280764Y-57680689D01*
X124290759Y-57676549D01*
X124690664Y-57530996D01*
X124700980Y-57527743D01*
X125112061Y-57417594D01*
X125122623Y-57415253D01*
X125541725Y-57341355D01*
X125552450Y-57339943D01*
X125977073Y-57302793D01*
X125986528Y-57302328D01*
X126199358Y-57300007D01*
X126200710Y-57300000D01*
X201199290Y-57300000D01*
X201200642Y-57300007D01*
G37*
M02*
