%TF.GenerationSoftware,KiCad,Pcbnew,9.0.2*%
%TF.CreationDate,2025-12-10T00:27:38+01:00*%
%TF.ProjectId,Yet_Another_Business_Card,5965745f-416e-46f7-9468-65725f427573,rev?*%
%TF.SameCoordinates,Original*%
%TF.FileFunction,Soldermask,Bot*%
%TF.FilePolarity,Negative*%
%FSLAX46Y46*%
G04 Gerber Fmt 4.6, Leading zero omitted, Abs format (unit mm)*
G04 Created by KiCad (PCBNEW 9.0.2) date 2025-12-10 00:27:38*
%MOMM*%
%LPD*%
G01*
G04 APERTURE LIST*
%ADD10C,0.240000*%
%ADD11C,0.000000*%
%ADD12R,1.700000X1.700000*%
%ADD13C,1.700000*%
G04 APERTURE END LIST*
D10*
X202956391Y-103476796D02*
X202956391Y-102276796D01*
X202956391Y-102276796D02*
X202556391Y-103133939D01*
X202556391Y-103133939D02*
X202156391Y-102276796D01*
X202156391Y-102276796D02*
X202156391Y-103476796D01*
X201070677Y-103476796D02*
X201070677Y-102848225D01*
X201070677Y-102848225D02*
X201127819Y-102733939D01*
X201127819Y-102733939D02*
X201242105Y-102676796D01*
X201242105Y-102676796D02*
X201470677Y-102676796D01*
X201470677Y-102676796D02*
X201584962Y-102733939D01*
X201070677Y-103419654D02*
X201184962Y-103476796D01*
X201184962Y-103476796D02*
X201470677Y-103476796D01*
X201470677Y-103476796D02*
X201584962Y-103419654D01*
X201584962Y-103419654D02*
X201642105Y-103305368D01*
X201642105Y-103305368D02*
X201642105Y-103191082D01*
X201642105Y-103191082D02*
X201584962Y-103076796D01*
X201584962Y-103076796D02*
X201470677Y-103019654D01*
X201470677Y-103019654D02*
X201184962Y-103019654D01*
X201184962Y-103019654D02*
X201070677Y-102962511D01*
X199984963Y-103476796D02*
X199984963Y-102276796D01*
X199984963Y-103419654D02*
X200099248Y-103476796D01*
X200099248Y-103476796D02*
X200327820Y-103476796D01*
X200327820Y-103476796D02*
X200442105Y-103419654D01*
X200442105Y-103419654D02*
X200499248Y-103362511D01*
X200499248Y-103362511D02*
X200556391Y-103248225D01*
X200556391Y-103248225D02*
X200556391Y-102905368D01*
X200556391Y-102905368D02*
X200499248Y-102791082D01*
X200499248Y-102791082D02*
X200442105Y-102733939D01*
X200442105Y-102733939D02*
X200327820Y-102676796D01*
X200327820Y-102676796D02*
X200099248Y-102676796D01*
X200099248Y-102676796D02*
X199984963Y-102733939D01*
X198956391Y-103419654D02*
X199070677Y-103476796D01*
X199070677Y-103476796D02*
X199299249Y-103476796D01*
X199299249Y-103476796D02*
X199413534Y-103419654D01*
X199413534Y-103419654D02*
X199470677Y-103305368D01*
X199470677Y-103305368D02*
X199470677Y-102848225D01*
X199470677Y-102848225D02*
X199413534Y-102733939D01*
X199413534Y-102733939D02*
X199299249Y-102676796D01*
X199299249Y-102676796D02*
X199070677Y-102676796D01*
X199070677Y-102676796D02*
X198956391Y-102733939D01*
X198956391Y-102733939D02*
X198899249Y-102848225D01*
X198899249Y-102848225D02*
X198899249Y-102962511D01*
X198899249Y-102962511D02*
X199470677Y-103076796D01*
X197470677Y-103476796D02*
X197470677Y-102276796D01*
X197470677Y-102733939D02*
X197356392Y-102676796D01*
X197356392Y-102676796D02*
X197127820Y-102676796D01*
X197127820Y-102676796D02*
X197013534Y-102733939D01*
X197013534Y-102733939D02*
X196956392Y-102791082D01*
X196956392Y-102791082D02*
X196899249Y-102905368D01*
X196899249Y-102905368D02*
X196899249Y-103248225D01*
X196899249Y-103248225D02*
X196956392Y-103362511D01*
X196956392Y-103362511D02*
X197013534Y-103419654D01*
X197013534Y-103419654D02*
X197127820Y-103476796D01*
X197127820Y-103476796D02*
X197356392Y-103476796D01*
X197356392Y-103476796D02*
X197470677Y-103419654D01*
X196499249Y-102676796D02*
X196213535Y-103476796D01*
X195927820Y-102676796D02*
X196213535Y-103476796D01*
X196213535Y-103476796D02*
X196327820Y-103762511D01*
X196327820Y-103762511D02*
X196384963Y-103819654D01*
X196384963Y-103819654D02*
X196499249Y-103876796D01*
X195470677Y-103362511D02*
X195413534Y-103419654D01*
X195413534Y-103419654D02*
X195470677Y-103476796D01*
X195470677Y-103476796D02*
X195527820Y-103419654D01*
X195527820Y-103419654D02*
X195470677Y-103362511D01*
X195470677Y-103362511D02*
X195470677Y-103476796D01*
X195470677Y-102733939D02*
X195413534Y-102791082D01*
X195413534Y-102791082D02*
X195470677Y-102848225D01*
X195470677Y-102848225D02*
X195527820Y-102791082D01*
X195527820Y-102791082D02*
X195470677Y-102733939D01*
X195470677Y-102733939D02*
X195470677Y-102848225D01*
X194042105Y-103133939D02*
X193470677Y-103133939D01*
X194156391Y-103476796D02*
X193756391Y-102276796D01*
X193756391Y-102276796D02*
X193356391Y-103476796D01*
X192956391Y-102676796D02*
X192956391Y-103476796D01*
X192956391Y-102791082D02*
X192899248Y-102733939D01*
X192899248Y-102733939D02*
X192784963Y-102676796D01*
X192784963Y-102676796D02*
X192613534Y-102676796D01*
X192613534Y-102676796D02*
X192499248Y-102733939D01*
X192499248Y-102733939D02*
X192442106Y-102848225D01*
X192442106Y-102848225D02*
X192442106Y-103476796D01*
X191356392Y-103476796D02*
X191356392Y-102276796D01*
X191356392Y-103419654D02*
X191470677Y-103476796D01*
X191470677Y-103476796D02*
X191699249Y-103476796D01*
X191699249Y-103476796D02*
X191813534Y-103419654D01*
X191813534Y-103419654D02*
X191870677Y-103362511D01*
X191870677Y-103362511D02*
X191927820Y-103248225D01*
X191927820Y-103248225D02*
X191927820Y-102905368D01*
X191927820Y-102905368D02*
X191870677Y-102791082D01*
X191870677Y-102791082D02*
X191813534Y-102733939D01*
X191813534Y-102733939D02*
X191699249Y-102676796D01*
X191699249Y-102676796D02*
X191470677Y-102676796D01*
X191470677Y-102676796D02*
X191356392Y-102733939D01*
X190784963Y-103476796D02*
X190784963Y-102676796D01*
X190784963Y-102905368D02*
X190727820Y-102791082D01*
X190727820Y-102791082D02*
X190670678Y-102733939D01*
X190670678Y-102733939D02*
X190556392Y-102676796D01*
X190556392Y-102676796D02*
X190442106Y-102676796D01*
X189584963Y-103419654D02*
X189699249Y-103476796D01*
X189699249Y-103476796D02*
X189927821Y-103476796D01*
X189927821Y-103476796D02*
X190042106Y-103419654D01*
X190042106Y-103419654D02*
X190099249Y-103305368D01*
X190099249Y-103305368D02*
X190099249Y-102848225D01*
X190099249Y-102848225D02*
X190042106Y-102733939D01*
X190042106Y-102733939D02*
X189927821Y-102676796D01*
X189927821Y-102676796D02*
X189699249Y-102676796D01*
X189699249Y-102676796D02*
X189584963Y-102733939D01*
X189584963Y-102733939D02*
X189527821Y-102848225D01*
X189527821Y-102848225D02*
X189527821Y-102962511D01*
X189527821Y-102962511D02*
X190099249Y-103076796D01*
X188499250Y-103476796D02*
X188499250Y-102848225D01*
X188499250Y-102848225D02*
X188556392Y-102733939D01*
X188556392Y-102733939D02*
X188670678Y-102676796D01*
X188670678Y-102676796D02*
X188899250Y-102676796D01*
X188899250Y-102676796D02*
X189013535Y-102733939D01*
X188499250Y-103419654D02*
X188613535Y-103476796D01*
X188613535Y-103476796D02*
X188899250Y-103476796D01*
X188899250Y-103476796D02*
X189013535Y-103419654D01*
X189013535Y-103419654D02*
X189070678Y-103305368D01*
X189070678Y-103305368D02*
X189070678Y-103191082D01*
X189070678Y-103191082D02*
X189013535Y-103076796D01*
X189013535Y-103076796D02*
X188899250Y-103019654D01*
X188899250Y-103019654D02*
X188613535Y-103019654D01*
X188613535Y-103019654D02*
X188499250Y-102962511D01*
X186384964Y-102333939D02*
X186499250Y-102276796D01*
X186499250Y-102276796D02*
X186670678Y-102276796D01*
X186670678Y-102276796D02*
X186842107Y-102333939D01*
X186842107Y-102333939D02*
X186956392Y-102448225D01*
X186956392Y-102448225D02*
X187013535Y-102562511D01*
X187013535Y-102562511D02*
X187070678Y-102791082D01*
X187070678Y-102791082D02*
X187070678Y-102962511D01*
X187070678Y-102962511D02*
X187013535Y-103191082D01*
X187013535Y-103191082D02*
X186956392Y-103305368D01*
X186956392Y-103305368D02*
X186842107Y-103419654D01*
X186842107Y-103419654D02*
X186670678Y-103476796D01*
X186670678Y-103476796D02*
X186556392Y-103476796D01*
X186556392Y-103476796D02*
X186384964Y-103419654D01*
X186384964Y-103419654D02*
X186327821Y-103362511D01*
X186327821Y-103362511D02*
X186327821Y-102962511D01*
X186327821Y-102962511D02*
X186556392Y-102962511D01*
X185813535Y-103362511D02*
X185756392Y-103419654D01*
X185756392Y-103419654D02*
X185813535Y-103476796D01*
X185813535Y-103476796D02*
X185870678Y-103419654D01*
X185870678Y-103419654D02*
X185813535Y-103362511D01*
X185813535Y-103362511D02*
X185813535Y-103476796D01*
X184327820Y-103476796D02*
X184327820Y-102276796D01*
X184327820Y-102276796D02*
X183927820Y-103133939D01*
X183927820Y-103133939D02*
X183527820Y-102276796D01*
X183527820Y-102276796D02*
X183527820Y-103476796D01*
X182442106Y-103476796D02*
X182442106Y-102848225D01*
X182442106Y-102848225D02*
X182499248Y-102733939D01*
X182499248Y-102733939D02*
X182613534Y-102676796D01*
X182613534Y-102676796D02*
X182842106Y-102676796D01*
X182842106Y-102676796D02*
X182956391Y-102733939D01*
X182442106Y-103419654D02*
X182556391Y-103476796D01*
X182556391Y-103476796D02*
X182842106Y-103476796D01*
X182842106Y-103476796D02*
X182956391Y-103419654D01*
X182956391Y-103419654D02*
X183013534Y-103305368D01*
X183013534Y-103305368D02*
X183013534Y-103191082D01*
X183013534Y-103191082D02*
X182956391Y-103076796D01*
X182956391Y-103076796D02*
X182842106Y-103019654D01*
X182842106Y-103019654D02*
X182556391Y-103019654D01*
X182556391Y-103019654D02*
X182442106Y-102962511D01*
X181927820Y-103419654D02*
X181813534Y-103476796D01*
X181813534Y-103476796D02*
X181584963Y-103476796D01*
X181584963Y-103476796D02*
X181470677Y-103419654D01*
X181470677Y-103419654D02*
X181413534Y-103305368D01*
X181413534Y-103305368D02*
X181413534Y-103248225D01*
X181413534Y-103248225D02*
X181470677Y-103133939D01*
X181470677Y-103133939D02*
X181584963Y-103076796D01*
X181584963Y-103076796D02*
X181756392Y-103076796D01*
X181756392Y-103076796D02*
X181870677Y-103019654D01*
X181870677Y-103019654D02*
X181927820Y-102905368D01*
X181927820Y-102905368D02*
X181927820Y-102848225D01*
X181927820Y-102848225D02*
X181870677Y-102733939D01*
X181870677Y-102733939D02*
X181756392Y-102676796D01*
X181756392Y-102676796D02*
X181584963Y-102676796D01*
X181584963Y-102676796D02*
X181470677Y-102733939D01*
X180956391Y-103419654D02*
X180842105Y-103476796D01*
X180842105Y-103476796D02*
X180613534Y-103476796D01*
X180613534Y-103476796D02*
X180499248Y-103419654D01*
X180499248Y-103419654D02*
X180442105Y-103305368D01*
X180442105Y-103305368D02*
X180442105Y-103248225D01*
X180442105Y-103248225D02*
X180499248Y-103133939D01*
X180499248Y-103133939D02*
X180613534Y-103076796D01*
X180613534Y-103076796D02*
X180784963Y-103076796D01*
X180784963Y-103076796D02*
X180899248Y-103019654D01*
X180899248Y-103019654D02*
X180956391Y-102905368D01*
X180956391Y-102905368D02*
X180956391Y-102848225D01*
X180956391Y-102848225D02*
X180899248Y-102733939D01*
X180899248Y-102733939D02*
X180784963Y-102676796D01*
X180784963Y-102676796D02*
X180613534Y-102676796D01*
X180613534Y-102676796D02*
X180499248Y-102733939D01*
X179470676Y-103419654D02*
X179584962Y-103476796D01*
X179584962Y-103476796D02*
X179813534Y-103476796D01*
X179813534Y-103476796D02*
X179927819Y-103419654D01*
X179927819Y-103419654D02*
X179984962Y-103305368D01*
X179984962Y-103305368D02*
X179984962Y-102848225D01*
X179984962Y-102848225D02*
X179927819Y-102733939D01*
X179927819Y-102733939D02*
X179813534Y-102676796D01*
X179813534Y-102676796D02*
X179584962Y-102676796D01*
X179584962Y-102676796D02*
X179470676Y-102733939D01*
X179470676Y-102733939D02*
X179413534Y-102848225D01*
X179413534Y-102848225D02*
X179413534Y-102962511D01*
X179413534Y-102962511D02*
X179984962Y-103076796D01*
X179070677Y-102676796D02*
X178613534Y-102676796D01*
X178899248Y-102276796D02*
X178899248Y-103305368D01*
X178899248Y-103305368D02*
X178842105Y-103419654D01*
X178842105Y-103419654D02*
X178727820Y-103476796D01*
X178727820Y-103476796D02*
X178613534Y-103476796D01*
X178384963Y-102676796D02*
X177927820Y-102676796D01*
X178213534Y-102276796D02*
X178213534Y-103305368D01*
X178213534Y-103305368D02*
X178156391Y-103419654D01*
X178156391Y-103419654D02*
X178042106Y-103476796D01*
X178042106Y-103476796D02*
X177927820Y-103476796D01*
X177527820Y-103476796D02*
X177527820Y-102676796D01*
X177527820Y-102276796D02*
X177584963Y-102333939D01*
X177584963Y-102333939D02*
X177527820Y-102391082D01*
X177527820Y-102391082D02*
X177470677Y-102333939D01*
X177470677Y-102333939D02*
X177527820Y-102276796D01*
X177527820Y-102276796D02*
X177527820Y-102391082D01*
X202956391Y-105408729D02*
X202956391Y-104208729D01*
X202384962Y-104608729D02*
X202384962Y-105408729D01*
X202384962Y-104723015D02*
X202327819Y-104665872D01*
X202327819Y-104665872D02*
X202213534Y-104608729D01*
X202213534Y-104608729D02*
X202042105Y-104608729D01*
X202042105Y-104608729D02*
X201927819Y-104665872D01*
X201927819Y-104665872D02*
X201870677Y-104780158D01*
X201870677Y-104780158D02*
X201870677Y-105408729D01*
X201299248Y-105294444D02*
X201242105Y-105351587D01*
X201242105Y-105351587D02*
X201299248Y-105408729D01*
X201299248Y-105408729D02*
X201356391Y-105351587D01*
X201356391Y-105351587D02*
X201299248Y-105294444D01*
X201299248Y-105294444D02*
X201299248Y-105408729D01*
X201299248Y-104665872D02*
X201242105Y-104723015D01*
X201242105Y-104723015D02*
X201299248Y-104780158D01*
X201299248Y-104780158D02*
X201356391Y-104723015D01*
X201356391Y-104723015D02*
X201299248Y-104665872D01*
X201299248Y-104665872D02*
X201299248Y-104780158D01*
X199299248Y-105408729D02*
X199299248Y-104780158D01*
X199299248Y-104780158D02*
X199356390Y-104665872D01*
X199356390Y-104665872D02*
X199470676Y-104608729D01*
X199470676Y-104608729D02*
X199699248Y-104608729D01*
X199699248Y-104608729D02*
X199813533Y-104665872D01*
X199299248Y-105351587D02*
X199413533Y-105408729D01*
X199413533Y-105408729D02*
X199699248Y-105408729D01*
X199699248Y-105408729D02*
X199813533Y-105351587D01*
X199813533Y-105351587D02*
X199870676Y-105237301D01*
X199870676Y-105237301D02*
X199870676Y-105123015D01*
X199870676Y-105123015D02*
X199813533Y-105008729D01*
X199813533Y-105008729D02*
X199699248Y-104951587D01*
X199699248Y-104951587D02*
X199413533Y-104951587D01*
X199413533Y-104951587D02*
X199299248Y-104894444D01*
X197813533Y-105408729D02*
X197813533Y-104608729D01*
X197813533Y-104837301D02*
X197756390Y-104723015D01*
X197756390Y-104723015D02*
X197699248Y-104665872D01*
X197699248Y-104665872D02*
X197584962Y-104608729D01*
X197584962Y-104608729D02*
X197470676Y-104608729D01*
X196899248Y-105408729D02*
X197013533Y-105351587D01*
X197013533Y-105351587D02*
X197070676Y-105294444D01*
X197070676Y-105294444D02*
X197127819Y-105180158D01*
X197127819Y-105180158D02*
X197127819Y-104837301D01*
X197127819Y-104837301D02*
X197070676Y-104723015D01*
X197070676Y-104723015D02*
X197013533Y-104665872D01*
X197013533Y-104665872D02*
X196899248Y-104608729D01*
X196899248Y-104608729D02*
X196727819Y-104608729D01*
X196727819Y-104608729D02*
X196613533Y-104665872D01*
X196613533Y-104665872D02*
X196556391Y-104723015D01*
X196556391Y-104723015D02*
X196499248Y-104837301D01*
X196499248Y-104837301D02*
X196499248Y-105180158D01*
X196499248Y-105180158D02*
X196556391Y-105294444D01*
X196556391Y-105294444D02*
X196613533Y-105351587D01*
X196613533Y-105351587D02*
X196727819Y-105408729D01*
X196727819Y-105408729D02*
X196899248Y-105408729D01*
X195813534Y-105408729D02*
X195927819Y-105351587D01*
X195927819Y-105351587D02*
X195984962Y-105294444D01*
X195984962Y-105294444D02*
X196042105Y-105180158D01*
X196042105Y-105180158D02*
X196042105Y-104837301D01*
X196042105Y-104837301D02*
X195984962Y-104723015D01*
X195984962Y-104723015D02*
X195927819Y-104665872D01*
X195927819Y-104665872D02*
X195813534Y-104608729D01*
X195813534Y-104608729D02*
X195642105Y-104608729D01*
X195642105Y-104608729D02*
X195527819Y-104665872D01*
X195527819Y-104665872D02*
X195470677Y-104723015D01*
X195470677Y-104723015D02*
X195413534Y-104837301D01*
X195413534Y-104837301D02*
X195413534Y-105180158D01*
X195413534Y-105180158D02*
X195470677Y-105294444D01*
X195470677Y-105294444D02*
X195527819Y-105351587D01*
X195527819Y-105351587D02*
X195642105Y-105408729D01*
X195642105Y-105408729D02*
X195813534Y-105408729D01*
X194899248Y-105408729D02*
X194899248Y-104608729D01*
X194899248Y-104723015D02*
X194842105Y-104665872D01*
X194842105Y-104665872D02*
X194727820Y-104608729D01*
X194727820Y-104608729D02*
X194556391Y-104608729D01*
X194556391Y-104608729D02*
X194442105Y-104665872D01*
X194442105Y-104665872D02*
X194384963Y-104780158D01*
X194384963Y-104780158D02*
X194384963Y-105408729D01*
X194384963Y-104780158D02*
X194327820Y-104665872D01*
X194327820Y-104665872D02*
X194213534Y-104608729D01*
X194213534Y-104608729D02*
X194042105Y-104608729D01*
X194042105Y-104608729D02*
X193927820Y-104665872D01*
X193927820Y-104665872D02*
X193870677Y-104780158D01*
X193870677Y-104780158D02*
X193870677Y-105408729D01*
X192556391Y-104608729D02*
X192099248Y-104608729D01*
X192384962Y-105408729D02*
X192384962Y-104380158D01*
X192384962Y-104380158D02*
X192327819Y-104265872D01*
X192327819Y-104265872D02*
X192213534Y-104208729D01*
X192213534Y-104208729D02*
X192099248Y-104208729D01*
X191184963Y-104608729D02*
X191184963Y-105408729D01*
X191699248Y-104608729D02*
X191699248Y-105237301D01*
X191699248Y-105237301D02*
X191642105Y-105351587D01*
X191642105Y-105351587D02*
X191527820Y-105408729D01*
X191527820Y-105408729D02*
X191356391Y-105408729D01*
X191356391Y-105408729D02*
X191242105Y-105351587D01*
X191242105Y-105351587D02*
X191184963Y-105294444D01*
X190442106Y-105408729D02*
X190556391Y-105351587D01*
X190556391Y-105351587D02*
X190613534Y-105237301D01*
X190613534Y-105237301D02*
X190613534Y-104208729D01*
X189813535Y-105408729D02*
X189927820Y-105351587D01*
X189927820Y-105351587D02*
X189984963Y-105237301D01*
X189984963Y-105237301D02*
X189984963Y-104208729D01*
X188270678Y-105408729D02*
X188384963Y-105351587D01*
X188384963Y-105351587D02*
X188442106Y-105294444D01*
X188442106Y-105294444D02*
X188499249Y-105180158D01*
X188499249Y-105180158D02*
X188499249Y-104837301D01*
X188499249Y-104837301D02*
X188442106Y-104723015D01*
X188442106Y-104723015D02*
X188384963Y-104665872D01*
X188384963Y-104665872D02*
X188270678Y-104608729D01*
X188270678Y-104608729D02*
X188099249Y-104608729D01*
X188099249Y-104608729D02*
X187984963Y-104665872D01*
X187984963Y-104665872D02*
X187927821Y-104723015D01*
X187927821Y-104723015D02*
X187870678Y-104837301D01*
X187870678Y-104837301D02*
X187870678Y-105180158D01*
X187870678Y-105180158D02*
X187927821Y-105294444D01*
X187927821Y-105294444D02*
X187984963Y-105351587D01*
X187984963Y-105351587D02*
X188099249Y-105408729D01*
X188099249Y-105408729D02*
X188270678Y-105408729D01*
X187527821Y-104608729D02*
X187070678Y-104608729D01*
X187356392Y-105408729D02*
X187356392Y-104380158D01*
X187356392Y-104380158D02*
X187299249Y-104265872D01*
X187299249Y-104265872D02*
X187184964Y-104208729D01*
X187184964Y-104208729D02*
X187070678Y-104208729D01*
X185756392Y-105408729D02*
X185756392Y-104208729D01*
X185756392Y-104208729D02*
X185299249Y-104208729D01*
X185299249Y-104208729D02*
X185184964Y-104265872D01*
X185184964Y-104265872D02*
X185127821Y-104323015D01*
X185127821Y-104323015D02*
X185070678Y-104437301D01*
X185070678Y-104437301D02*
X185070678Y-104608729D01*
X185070678Y-104608729D02*
X185127821Y-104723015D01*
X185127821Y-104723015D02*
X185184964Y-104780158D01*
X185184964Y-104780158D02*
X185299249Y-104837301D01*
X185299249Y-104837301D02*
X185756392Y-104837301D01*
X184384964Y-105408729D02*
X184499249Y-105351587D01*
X184499249Y-105351587D02*
X184556392Y-105294444D01*
X184556392Y-105294444D02*
X184613535Y-105180158D01*
X184613535Y-105180158D02*
X184613535Y-104837301D01*
X184613535Y-104837301D02*
X184556392Y-104723015D01*
X184556392Y-104723015D02*
X184499249Y-104665872D01*
X184499249Y-104665872D02*
X184384964Y-104608729D01*
X184384964Y-104608729D02*
X184213535Y-104608729D01*
X184213535Y-104608729D02*
X184099249Y-104665872D01*
X184099249Y-104665872D02*
X184042107Y-104723015D01*
X184042107Y-104723015D02*
X183984964Y-104837301D01*
X183984964Y-104837301D02*
X183984964Y-105180158D01*
X183984964Y-105180158D02*
X184042107Y-105294444D01*
X184042107Y-105294444D02*
X184099249Y-105351587D01*
X184099249Y-105351587D02*
X184213535Y-105408729D01*
X184213535Y-105408729D02*
X184384964Y-105408729D01*
X183527821Y-105351587D02*
X183413535Y-105408729D01*
X183413535Y-105408729D02*
X183184964Y-105408729D01*
X183184964Y-105408729D02*
X183070678Y-105351587D01*
X183070678Y-105351587D02*
X183013535Y-105237301D01*
X183013535Y-105237301D02*
X183013535Y-105180158D01*
X183013535Y-105180158D02*
X183070678Y-105065872D01*
X183070678Y-105065872D02*
X183184964Y-105008729D01*
X183184964Y-105008729D02*
X183356393Y-105008729D01*
X183356393Y-105008729D02*
X183470678Y-104951587D01*
X183470678Y-104951587D02*
X183527821Y-104837301D01*
X183527821Y-104837301D02*
X183527821Y-104780158D01*
X183527821Y-104780158D02*
X183470678Y-104665872D01*
X183470678Y-104665872D02*
X183356393Y-104608729D01*
X183356393Y-104608729D02*
X183184964Y-104608729D01*
X183184964Y-104608729D02*
X183070678Y-104665872D01*
X182670678Y-104608729D02*
X182213535Y-104608729D01*
X182499249Y-104208729D02*
X182499249Y-105237301D01*
X182499249Y-105237301D02*
X182442106Y-105351587D01*
X182442106Y-105351587D02*
X182327821Y-105408729D01*
X182327821Y-105408729D02*
X182213535Y-105408729D01*
X181813535Y-104951587D02*
X180899250Y-104951587D01*
X180327821Y-105408729D02*
X180327821Y-104608729D01*
X180327821Y-104208729D02*
X180384964Y-104265872D01*
X180384964Y-104265872D02*
X180327821Y-104323015D01*
X180327821Y-104323015D02*
X180270678Y-104265872D01*
X180270678Y-104265872D02*
X180327821Y-104208729D01*
X180327821Y-104208729D02*
X180327821Y-104323015D01*
X179927821Y-104608729D02*
X179470678Y-104608729D01*
X179756392Y-104208729D02*
X179756392Y-105237301D01*
X179756392Y-105237301D02*
X179699249Y-105351587D01*
X179699249Y-105351587D02*
X179584964Y-105408729D01*
X179584964Y-105408729D02*
X179470678Y-105408729D01*
X177813535Y-105865872D02*
X177870678Y-105808729D01*
X177870678Y-105808729D02*
X177984964Y-105637301D01*
X177984964Y-105637301D02*
X178042107Y-105523015D01*
X178042107Y-105523015D02*
X178099249Y-105351587D01*
X178099249Y-105351587D02*
X178156392Y-105065872D01*
X178156392Y-105065872D02*
X178156392Y-104837301D01*
X178156392Y-104837301D02*
X178099249Y-104551587D01*
X178099249Y-104551587D02*
X178042107Y-104380158D01*
X178042107Y-104380158D02*
X177984964Y-104265872D01*
X177984964Y-104265872D02*
X177870678Y-104094444D01*
X177870678Y-104094444D02*
X177813535Y-104037301D01*
X177527821Y-104208729D02*
X176842107Y-104208729D01*
X177184964Y-105408729D02*
X177184964Y-104208729D01*
X176213535Y-104208729D02*
X175984963Y-104208729D01*
X175984963Y-104208729D02*
X175870678Y-104265872D01*
X175870678Y-104265872D02*
X175756392Y-104380158D01*
X175756392Y-104380158D02*
X175699249Y-104608729D01*
X175699249Y-104608729D02*
X175699249Y-105008729D01*
X175699249Y-105008729D02*
X175756392Y-105237301D01*
X175756392Y-105237301D02*
X175870678Y-105351587D01*
X175870678Y-105351587D02*
X175984963Y-105408729D01*
X175984963Y-105408729D02*
X176213535Y-105408729D01*
X176213535Y-105408729D02*
X176327821Y-105351587D01*
X176327821Y-105351587D02*
X176442106Y-105237301D01*
X176442106Y-105237301D02*
X176499249Y-105008729D01*
X176499249Y-105008729D02*
X176499249Y-104608729D01*
X176499249Y-104608729D02*
X176442106Y-104380158D01*
X176442106Y-104380158D02*
X176327821Y-104265872D01*
X176327821Y-104265872D02*
X176213535Y-104208729D01*
X175299249Y-105865872D02*
X175242106Y-105808729D01*
X175242106Y-105808729D02*
X175127820Y-105637301D01*
X175127820Y-105637301D02*
X175070678Y-105523015D01*
X175070678Y-105523015D02*
X175013535Y-105351587D01*
X175013535Y-105351587D02*
X174956392Y-105065872D01*
X174956392Y-105065872D02*
X174956392Y-104837301D01*
X174956392Y-104837301D02*
X175013535Y-104551587D01*
X175013535Y-104551587D02*
X175070678Y-104380158D01*
X175070678Y-104380158D02*
X175127820Y-104265872D01*
X175127820Y-104265872D02*
X175242106Y-104094444D01*
X175242106Y-104094444D02*
X175299249Y-104037301D01*
X203070677Y-106140662D02*
X202784963Y-107340662D01*
X202784963Y-107340662D02*
X202556391Y-106483520D01*
X202556391Y-106483520D02*
X202327820Y-107340662D01*
X202327820Y-107340662D02*
X202042106Y-106140662D01*
X201584962Y-107340662D02*
X201584962Y-106540662D01*
X201584962Y-106140662D02*
X201642105Y-106197805D01*
X201642105Y-106197805D02*
X201584962Y-106254948D01*
X201584962Y-106254948D02*
X201527819Y-106197805D01*
X201527819Y-106197805D02*
X201584962Y-106140662D01*
X201584962Y-106140662D02*
X201584962Y-106254948D01*
X201184962Y-106540662D02*
X200727819Y-106540662D01*
X201013533Y-106140662D02*
X201013533Y-107169234D01*
X201013533Y-107169234D02*
X200956390Y-107283520D01*
X200956390Y-107283520D02*
X200842105Y-107340662D01*
X200842105Y-107340662D02*
X200727819Y-107340662D01*
X200327819Y-107340662D02*
X200327819Y-106140662D01*
X199813534Y-107340662D02*
X199813534Y-106712091D01*
X199813534Y-106712091D02*
X199870676Y-106597805D01*
X199870676Y-106597805D02*
X199984962Y-106540662D01*
X199984962Y-106540662D02*
X200156391Y-106540662D01*
X200156391Y-106540662D02*
X200270676Y-106597805D01*
X200270676Y-106597805D02*
X200327819Y-106654948D01*
X199242105Y-107226377D02*
X199184962Y-107283520D01*
X199184962Y-107283520D02*
X199242105Y-107340662D01*
X199242105Y-107340662D02*
X199299248Y-107283520D01*
X199299248Y-107283520D02*
X199242105Y-107226377D01*
X199242105Y-107226377D02*
X199242105Y-107340662D01*
X199242105Y-106597805D02*
X199184962Y-106654948D01*
X199184962Y-106654948D02*
X199242105Y-106712091D01*
X199242105Y-106712091D02*
X199299248Y-106654948D01*
X199299248Y-106654948D02*
X199242105Y-106597805D01*
X199242105Y-106597805D02*
X199242105Y-106712091D01*
X197242105Y-107340662D02*
X197242105Y-106712091D01*
X197242105Y-106712091D02*
X197299247Y-106597805D01*
X197299247Y-106597805D02*
X197413533Y-106540662D01*
X197413533Y-106540662D02*
X197642105Y-106540662D01*
X197642105Y-106540662D02*
X197756390Y-106597805D01*
X197242105Y-107283520D02*
X197356390Y-107340662D01*
X197356390Y-107340662D02*
X197642105Y-107340662D01*
X197642105Y-107340662D02*
X197756390Y-107283520D01*
X197756390Y-107283520D02*
X197813533Y-107169234D01*
X197813533Y-107169234D02*
X197813533Y-107054948D01*
X197813533Y-107054948D02*
X197756390Y-106940662D01*
X197756390Y-106940662D02*
X197642105Y-106883520D01*
X197642105Y-106883520D02*
X197356390Y-106883520D01*
X197356390Y-106883520D02*
X197242105Y-106826377D01*
X195584962Y-107340662D02*
X195699247Y-107283520D01*
X195699247Y-107283520D02*
X195756390Y-107169234D01*
X195756390Y-107169234D02*
X195756390Y-106140662D01*
X194956391Y-107340662D02*
X195070676Y-107283520D01*
X195070676Y-107283520D02*
X195127819Y-107226377D01*
X195127819Y-107226377D02*
X195184962Y-107112091D01*
X195184962Y-107112091D02*
X195184962Y-106769234D01*
X195184962Y-106769234D02*
X195127819Y-106654948D01*
X195127819Y-106654948D02*
X195070676Y-106597805D01*
X195070676Y-106597805D02*
X194956391Y-106540662D01*
X194956391Y-106540662D02*
X194784962Y-106540662D01*
X194784962Y-106540662D02*
X194670676Y-106597805D01*
X194670676Y-106597805D02*
X194613534Y-106654948D01*
X194613534Y-106654948D02*
X194556391Y-106769234D01*
X194556391Y-106769234D02*
X194556391Y-107112091D01*
X194556391Y-107112091D02*
X194613534Y-107226377D01*
X194613534Y-107226377D02*
X194670676Y-107283520D01*
X194670676Y-107283520D02*
X194784962Y-107340662D01*
X194784962Y-107340662D02*
X194956391Y-107340662D01*
X194213534Y-106540662D02*
X193756391Y-106540662D01*
X194042105Y-106140662D02*
X194042105Y-107169234D01*
X194042105Y-107169234D02*
X193984962Y-107283520D01*
X193984962Y-107283520D02*
X193870677Y-107340662D01*
X193870677Y-107340662D02*
X193756391Y-107340662D01*
X192270677Y-107340662D02*
X192384962Y-107283520D01*
X192384962Y-107283520D02*
X192442105Y-107226377D01*
X192442105Y-107226377D02*
X192499248Y-107112091D01*
X192499248Y-107112091D02*
X192499248Y-106769234D01*
X192499248Y-106769234D02*
X192442105Y-106654948D01*
X192442105Y-106654948D02*
X192384962Y-106597805D01*
X192384962Y-106597805D02*
X192270677Y-106540662D01*
X192270677Y-106540662D02*
X192099248Y-106540662D01*
X192099248Y-106540662D02*
X191984962Y-106597805D01*
X191984962Y-106597805D02*
X191927820Y-106654948D01*
X191927820Y-106654948D02*
X191870677Y-106769234D01*
X191870677Y-106769234D02*
X191870677Y-107112091D01*
X191870677Y-107112091D02*
X191927820Y-107226377D01*
X191927820Y-107226377D02*
X191984962Y-107283520D01*
X191984962Y-107283520D02*
X192099248Y-107340662D01*
X192099248Y-107340662D02*
X192270677Y-107340662D01*
X191527820Y-106540662D02*
X191070677Y-106540662D01*
X191356391Y-107340662D02*
X191356391Y-106312091D01*
X191356391Y-106312091D02*
X191299248Y-106197805D01*
X191299248Y-106197805D02*
X191184963Y-106140662D01*
X191184963Y-106140662D02*
X191070677Y-106140662D01*
X189242106Y-107283520D02*
X189356391Y-107340662D01*
X189356391Y-107340662D02*
X189584963Y-107340662D01*
X189584963Y-107340662D02*
X189699248Y-107283520D01*
X189699248Y-107283520D02*
X189756391Y-107226377D01*
X189756391Y-107226377D02*
X189813534Y-107112091D01*
X189813534Y-107112091D02*
X189813534Y-106769234D01*
X189813534Y-106769234D02*
X189756391Y-106654948D01*
X189756391Y-106654948D02*
X189699248Y-106597805D01*
X189699248Y-106597805D02*
X189584963Y-106540662D01*
X189584963Y-106540662D02*
X189356391Y-106540662D01*
X189356391Y-106540662D02*
X189242106Y-106597805D01*
X188556392Y-107340662D02*
X188670677Y-107283520D01*
X188670677Y-107283520D02*
X188727820Y-107226377D01*
X188727820Y-107226377D02*
X188784963Y-107112091D01*
X188784963Y-107112091D02*
X188784963Y-106769234D01*
X188784963Y-106769234D02*
X188727820Y-106654948D01*
X188727820Y-106654948D02*
X188670677Y-106597805D01*
X188670677Y-106597805D02*
X188556392Y-106540662D01*
X188556392Y-106540662D02*
X188384963Y-106540662D01*
X188384963Y-106540662D02*
X188270677Y-106597805D01*
X188270677Y-106597805D02*
X188213535Y-106654948D01*
X188213535Y-106654948D02*
X188156392Y-106769234D01*
X188156392Y-106769234D02*
X188156392Y-107112091D01*
X188156392Y-107112091D02*
X188213535Y-107226377D01*
X188213535Y-107226377D02*
X188270677Y-107283520D01*
X188270677Y-107283520D02*
X188384963Y-107340662D01*
X188384963Y-107340662D02*
X188556392Y-107340662D01*
X187813535Y-106540662D02*
X187356392Y-106540662D01*
X187642106Y-107340662D02*
X187642106Y-106312091D01*
X187642106Y-106312091D02*
X187584963Y-106197805D01*
X187584963Y-106197805D02*
X187470678Y-106140662D01*
X187470678Y-106140662D02*
X187356392Y-106140662D01*
X187127821Y-106540662D02*
X186670678Y-106540662D01*
X186956392Y-107340662D02*
X186956392Y-106312091D01*
X186956392Y-106312091D02*
X186899249Y-106197805D01*
X186899249Y-106197805D02*
X186784964Y-106140662D01*
X186784964Y-106140662D02*
X186670678Y-106140662D01*
X185813535Y-107283520D02*
X185927821Y-107340662D01*
X185927821Y-107340662D02*
X186156393Y-107340662D01*
X186156393Y-107340662D02*
X186270678Y-107283520D01*
X186270678Y-107283520D02*
X186327821Y-107169234D01*
X186327821Y-107169234D02*
X186327821Y-106712091D01*
X186327821Y-106712091D02*
X186270678Y-106597805D01*
X186270678Y-106597805D02*
X186156393Y-106540662D01*
X186156393Y-106540662D02*
X185927821Y-106540662D01*
X185927821Y-106540662D02*
X185813535Y-106597805D01*
X185813535Y-106597805D02*
X185756393Y-106712091D01*
X185756393Y-106712091D02*
X185756393Y-106826377D01*
X185756393Y-106826377D02*
X186327821Y-106940662D01*
X184784964Y-107283520D02*
X184899250Y-107340662D01*
X184899250Y-107340662D02*
X185127822Y-107340662D01*
X185127822Y-107340662D02*
X185242107Y-107283520D01*
X185242107Y-107283520D02*
X185299250Y-107169234D01*
X185299250Y-107169234D02*
X185299250Y-106712091D01*
X185299250Y-106712091D02*
X185242107Y-106597805D01*
X185242107Y-106597805D02*
X185127822Y-106540662D01*
X185127822Y-106540662D02*
X184899250Y-106540662D01*
X184899250Y-106540662D02*
X184784964Y-106597805D01*
X184784964Y-106597805D02*
X184727822Y-106712091D01*
X184727822Y-106712091D02*
X184727822Y-106826377D01*
X184727822Y-106826377D02*
X185299250Y-106940662D01*
X182784965Y-107340662D02*
X182784965Y-106712091D01*
X182784965Y-106712091D02*
X182842107Y-106597805D01*
X182842107Y-106597805D02*
X182956393Y-106540662D01*
X182956393Y-106540662D02*
X183184965Y-106540662D01*
X183184965Y-106540662D02*
X183299250Y-106597805D01*
X182784965Y-107283520D02*
X182899250Y-107340662D01*
X182899250Y-107340662D02*
X183184965Y-107340662D01*
X183184965Y-107340662D02*
X183299250Y-107283520D01*
X183299250Y-107283520D02*
X183356393Y-107169234D01*
X183356393Y-107169234D02*
X183356393Y-107054948D01*
X183356393Y-107054948D02*
X183299250Y-106940662D01*
X183299250Y-106940662D02*
X183184965Y-106883520D01*
X183184965Y-106883520D02*
X182899250Y-106883520D01*
X182899250Y-106883520D02*
X182784965Y-106826377D01*
X182213536Y-106540662D02*
X182213536Y-107340662D01*
X182213536Y-106654948D02*
X182156393Y-106597805D01*
X182156393Y-106597805D02*
X182042108Y-106540662D01*
X182042108Y-106540662D02*
X181870679Y-106540662D01*
X181870679Y-106540662D02*
X181756393Y-106597805D01*
X181756393Y-106597805D02*
X181699251Y-106712091D01*
X181699251Y-106712091D02*
X181699251Y-107340662D01*
X180613537Y-107340662D02*
X180613537Y-106140662D01*
X180613537Y-107283520D02*
X180727822Y-107340662D01*
X180727822Y-107340662D02*
X180956394Y-107340662D01*
X180956394Y-107340662D02*
X181070679Y-107283520D01*
X181070679Y-107283520D02*
X181127822Y-107226377D01*
X181127822Y-107226377D02*
X181184965Y-107112091D01*
X181184965Y-107112091D02*
X181184965Y-106769234D01*
X181184965Y-106769234D02*
X181127822Y-106654948D01*
X181127822Y-106654948D02*
X181070679Y-106597805D01*
X181070679Y-106597805D02*
X180956394Y-106540662D01*
X180956394Y-106540662D02*
X180727822Y-106540662D01*
X180727822Y-106540662D02*
X180613537Y-106597805D01*
X179184965Y-107283520D02*
X179070679Y-107340662D01*
X179070679Y-107340662D02*
X178842108Y-107340662D01*
X178842108Y-107340662D02*
X178727822Y-107283520D01*
X178727822Y-107283520D02*
X178670679Y-107169234D01*
X178670679Y-107169234D02*
X178670679Y-107112091D01*
X178670679Y-107112091D02*
X178727822Y-106997805D01*
X178727822Y-106997805D02*
X178842108Y-106940662D01*
X178842108Y-106940662D02*
X179013537Y-106940662D01*
X179013537Y-106940662D02*
X179127822Y-106883520D01*
X179127822Y-106883520D02*
X179184965Y-106769234D01*
X179184965Y-106769234D02*
X179184965Y-106712091D01*
X179184965Y-106712091D02*
X179127822Y-106597805D01*
X179127822Y-106597805D02*
X179013537Y-106540662D01*
X179013537Y-106540662D02*
X178842108Y-106540662D01*
X178842108Y-106540662D02*
X178727822Y-106597805D01*
X177984965Y-107340662D02*
X178099250Y-107283520D01*
X178099250Y-107283520D02*
X178156393Y-107226377D01*
X178156393Y-107226377D02*
X178213536Y-107112091D01*
X178213536Y-107112091D02*
X178213536Y-106769234D01*
X178213536Y-106769234D02*
X178156393Y-106654948D01*
X178156393Y-106654948D02*
X178099250Y-106597805D01*
X178099250Y-106597805D02*
X177984965Y-106540662D01*
X177984965Y-106540662D02*
X177813536Y-106540662D01*
X177813536Y-106540662D02*
X177699250Y-106597805D01*
X177699250Y-106597805D02*
X177642108Y-106654948D01*
X177642108Y-106654948D02*
X177584965Y-106769234D01*
X177584965Y-106769234D02*
X177584965Y-107112091D01*
X177584965Y-107112091D02*
X177642108Y-107226377D01*
X177642108Y-107226377D02*
X177699250Y-107283520D01*
X177699250Y-107283520D02*
X177813536Y-107340662D01*
X177813536Y-107340662D02*
X177984965Y-107340662D01*
X177070679Y-107340662D02*
X177070679Y-106540662D01*
X177070679Y-106654948D02*
X177013536Y-106597805D01*
X177013536Y-106597805D02*
X176899251Y-106540662D01*
X176899251Y-106540662D02*
X176727822Y-106540662D01*
X176727822Y-106540662D02*
X176613536Y-106597805D01*
X176613536Y-106597805D02*
X176556394Y-106712091D01*
X176556394Y-106712091D02*
X176556394Y-107340662D01*
X176556394Y-106712091D02*
X176499251Y-106597805D01*
X176499251Y-106597805D02*
X176384965Y-106540662D01*
X176384965Y-106540662D02*
X176213536Y-106540662D01*
X176213536Y-106540662D02*
X176099251Y-106597805D01*
X176099251Y-106597805D02*
X176042108Y-106712091D01*
X176042108Y-106712091D02*
X176042108Y-107340662D01*
X175013536Y-107283520D02*
X175127822Y-107340662D01*
X175127822Y-107340662D02*
X175356394Y-107340662D01*
X175356394Y-107340662D02*
X175470679Y-107283520D01*
X175470679Y-107283520D02*
X175527822Y-107169234D01*
X175527822Y-107169234D02*
X175527822Y-106712091D01*
X175527822Y-106712091D02*
X175470679Y-106597805D01*
X175470679Y-106597805D02*
X175356394Y-106540662D01*
X175356394Y-106540662D02*
X175127822Y-106540662D01*
X175127822Y-106540662D02*
X175013536Y-106597805D01*
X175013536Y-106597805D02*
X174956394Y-106712091D01*
X174956394Y-106712091D02*
X174956394Y-106826377D01*
X174956394Y-106826377D02*
X175527822Y-106940662D01*
D11*
%TO.C,G\u002A\u002A\u002A*%
G36*
X196557280Y-93892132D02*
G01*
X196649721Y-93892630D01*
X196723937Y-93893518D01*
X196781531Y-93894849D01*
X196824106Y-93896671D01*
X196853265Y-93899034D01*
X196870609Y-93901987D01*
X196877592Y-93905372D01*
X196881789Y-93918579D01*
X196889317Y-93950518D01*
X196899697Y-93998829D01*
X196912447Y-94061154D01*
X196927088Y-94135135D01*
X196943140Y-94218415D01*
X196960120Y-94308634D01*
X196964175Y-94330482D01*
X196981597Y-94423076D01*
X196998295Y-94508888D01*
X197013779Y-94585606D01*
X197027560Y-94650916D01*
X197039146Y-94702509D01*
X197048048Y-94738070D01*
X197053776Y-94755289D01*
X197054472Y-94756305D01*
X197069103Y-94765034D01*
X197100586Y-94780079D01*
X197145738Y-94800153D01*
X197201371Y-94823969D01*
X197264301Y-94850240D01*
X197331343Y-94877680D01*
X197399312Y-94905004D01*
X197465023Y-94930922D01*
X197525291Y-94954150D01*
X197576931Y-94973400D01*
X197616757Y-94987386D01*
X197641584Y-94994821D01*
X197647081Y-94995688D01*
X197666201Y-94989255D01*
X197701633Y-94970248D01*
X197752661Y-94939105D01*
X197818567Y-94896261D01*
X197896378Y-94843702D01*
X197999427Y-94773119D01*
X198086263Y-94713718D01*
X198158337Y-94664543D01*
X198217096Y-94624637D01*
X198263991Y-94593043D01*
X198300469Y-94568804D01*
X198327983Y-94550964D01*
X198347980Y-94538566D01*
X198361909Y-94530652D01*
X198371219Y-94526267D01*
X198377361Y-94524453D01*
X198380339Y-94524199D01*
X198391917Y-94531598D01*
X198416307Y-94552443D01*
X198451491Y-94584710D01*
X198495449Y-94626378D01*
X198546165Y-94675420D01*
X198601617Y-94729814D01*
X198659788Y-94787536D01*
X198718660Y-94846562D01*
X198776213Y-94904867D01*
X198830429Y-94960429D01*
X198879289Y-95011222D01*
X198920775Y-95055225D01*
X198952868Y-95090412D01*
X198973549Y-95114759D01*
X198980800Y-95126203D01*
X198974923Y-95139976D01*
X198958483Y-95168430D01*
X198933271Y-95208733D01*
X198901073Y-95258051D01*
X198863681Y-95313554D01*
X198848888Y-95335087D01*
X198764485Y-95457590D01*
X198692380Y-95562846D01*
X198632431Y-95651065D01*
X198584500Y-95722452D01*
X198548449Y-95777218D01*
X198524137Y-95815568D01*
X198511428Y-95837713D01*
X198509313Y-95843348D01*
X198513370Y-95855594D01*
X198524853Y-95885005D01*
X198542720Y-95929054D01*
X198565935Y-95985217D01*
X198593458Y-96050968D01*
X198624251Y-96123781D01*
X198635221Y-96149556D01*
X198674005Y-96239301D01*
X198708088Y-96315653D01*
X198736809Y-96377225D01*
X198759508Y-96422626D01*
X198775520Y-96450470D01*
X198782561Y-96458881D01*
X198797724Y-96463952D01*
X198831492Y-96472270D01*
X198881374Y-96483315D01*
X198944879Y-96496566D01*
X199019515Y-96511505D01*
X199102788Y-96527612D01*
X199192209Y-96544368D01*
X199195113Y-96544903D01*
X199284267Y-96561538D01*
X199367001Y-96577375D01*
X199440887Y-96591916D01*
X199503501Y-96604672D01*
X199552417Y-96615143D01*
X199585209Y-96622838D01*
X199599451Y-96627262D01*
X199599628Y-96627385D01*
X199603095Y-96640467D01*
X199606093Y-96672079D01*
X199608619Y-96719403D01*
X199610671Y-96779620D01*
X199612247Y-96849918D01*
X199613342Y-96927477D01*
X199613955Y-97009480D01*
X199614082Y-97093110D01*
X199613721Y-97175549D01*
X199612869Y-97253981D01*
X199611523Y-97325588D01*
X199609681Y-97387553D01*
X199607338Y-97437059D01*
X199604494Y-97471289D01*
X199601146Y-97487425D01*
X199600478Y-97488197D01*
X199587407Y-97491862D01*
X199555671Y-97498907D01*
X199507688Y-97508850D01*
X199445872Y-97521208D01*
X199372641Y-97535499D01*
X199290410Y-97551239D01*
X199201597Y-97567947D01*
X199196680Y-97568863D01*
X199107552Y-97585771D01*
X199024878Y-97602026D01*
X198951079Y-97617107D01*
X198888574Y-97630498D01*
X198839779Y-97641679D01*
X198807116Y-97650131D01*
X198793003Y-97655335D01*
X198792823Y-97655506D01*
X198785883Y-97668544D01*
X198772161Y-97699014D01*
X198752711Y-97744404D01*
X198728590Y-97802199D01*
X198700852Y-97869886D01*
X198670552Y-97944949D01*
X198654682Y-97984684D01*
X198618474Y-98076234D01*
X198589885Y-98149945D01*
X198568261Y-98207751D01*
X198552940Y-98251579D01*
X198543265Y-98283360D01*
X198538579Y-98305025D01*
X198538222Y-98318505D01*
X198539411Y-98322670D01*
X198548446Y-98338046D01*
X198567750Y-98367983D01*
X198595320Y-98409472D01*
X198629149Y-98459501D01*
X198667234Y-98515065D01*
X198676835Y-98528962D01*
X198722335Y-98594735D01*
X198770500Y-98664400D01*
X198817510Y-98732427D01*
X198859545Y-98793289D01*
X198889717Y-98837009D01*
X198920812Y-98883561D01*
X198946874Y-98925376D01*
X198965647Y-98958618D01*
X198974874Y-98979451D01*
X198975442Y-98982746D01*
X198968118Y-98994413D01*
X198947476Y-99019021D01*
X198915513Y-99054540D01*
X198874225Y-99098938D01*
X198825611Y-99150187D01*
X198771667Y-99206254D01*
X198714389Y-99265110D01*
X198655775Y-99324724D01*
X198597823Y-99383065D01*
X198542527Y-99438102D01*
X198491886Y-99487807D01*
X198447896Y-99530146D01*
X198412555Y-99563091D01*
X198387859Y-99584611D01*
X198375805Y-99592675D01*
X198375604Y-99592688D01*
X198363217Y-99586859D01*
X198336454Y-99570717D01*
X198298465Y-99546276D01*
X198252402Y-99515555D01*
X198214132Y-99489384D01*
X198103208Y-99412882D01*
X198008626Y-99347974D01*
X197929222Y-99293893D01*
X197863827Y-99249873D01*
X197811277Y-99215147D01*
X197770406Y-99188950D01*
X197740048Y-99170514D01*
X197719036Y-99159075D01*
X197706207Y-99153865D01*
X197702827Y-99153348D01*
X197686342Y-99158293D01*
X197655119Y-99171886D01*
X197613097Y-99192265D01*
X197564217Y-99217567D01*
X197544164Y-99228357D01*
X197493791Y-99255055D01*
X197448868Y-99277564D01*
X197413294Y-99294022D01*
X197390971Y-99302575D01*
X197386679Y-99303366D01*
X197381358Y-99300046D01*
X197373494Y-99289273D01*
X197362551Y-99269832D01*
X197347989Y-99240508D01*
X197329271Y-99200086D01*
X197305861Y-99147349D01*
X197277217Y-99081080D01*
X197242806Y-99000067D01*
X197202088Y-98903092D01*
X197154523Y-98788940D01*
X197099577Y-98656396D01*
X197086840Y-98625603D01*
X197039524Y-98511151D01*
X196994527Y-98402259D01*
X196952530Y-98300584D01*
X196914220Y-98207789D01*
X196880281Y-98125529D01*
X196851398Y-98055466D01*
X196828254Y-97999259D01*
X196811534Y-97958566D01*
X196801924Y-97935048D01*
X196799870Y-97929916D01*
X196797695Y-97921036D01*
X196799788Y-97911939D01*
X196808421Y-97900498D01*
X196825870Y-97884581D01*
X196854406Y-97862061D01*
X196896303Y-97830808D01*
X196939474Y-97799181D01*
X197046439Y-97712653D01*
X197133906Y-97622852D01*
X197203789Y-97527294D01*
X197258002Y-97423497D01*
X197285617Y-97350834D01*
X197320624Y-97213135D01*
X197334462Y-97076310D01*
X197327353Y-96941617D01*
X197299520Y-96810312D01*
X197251186Y-96683656D01*
X197182570Y-96562905D01*
X197134966Y-96497823D01*
X197055888Y-96413719D01*
X196960485Y-96337980D01*
X196853143Y-96273441D01*
X196738243Y-96222938D01*
X196681568Y-96204479D01*
X196607146Y-96188952D01*
X196519828Y-96180180D01*
X196426888Y-96178171D01*
X196335592Y-96182929D01*
X196253213Y-96194463D01*
X196213048Y-96204066D01*
X196084549Y-96251931D01*
X195965971Y-96317704D01*
X195859085Y-96399700D01*
X195765667Y-96496225D01*
X195687491Y-96605592D01*
X195626331Y-96726110D01*
X195604983Y-96783084D01*
X195589588Y-96831551D01*
X195579067Y-96873124D01*
X195572254Y-96914917D01*
X195567984Y-96964040D01*
X195565137Y-97026296D01*
X195563524Y-97091315D01*
X195564353Y-97141906D01*
X195568144Y-97184984D01*
X195575416Y-97227465D01*
X195582703Y-97259911D01*
X195622632Y-97388816D01*
X195678439Y-97505698D01*
X195751247Y-97612101D01*
X195842177Y-97709569D01*
X195952349Y-97799649D01*
X195997021Y-97830622D01*
X196036167Y-97857658D01*
X196068258Y-97881679D01*
X196089210Y-97899521D01*
X196095047Y-97906599D01*
X196091953Y-97918753D01*
X196081123Y-97949304D01*
X196063108Y-97996886D01*
X196038463Y-98060134D01*
X196007740Y-98137681D01*
X195971492Y-98228163D01*
X195930273Y-98330212D01*
X195884635Y-98442463D01*
X195835132Y-98563551D01*
X195782316Y-98692110D01*
X195726741Y-98826773D01*
X195668959Y-98966176D01*
X195609526Y-99108951D01*
X195565228Y-99214963D01*
X195544567Y-99261048D01*
X195528298Y-99289174D01*
X195514753Y-99301935D01*
X195508607Y-99303366D01*
X195492549Y-99298465D01*
X195461649Y-99284989D01*
X195419800Y-99264771D01*
X195370893Y-99239650D01*
X195349699Y-99228357D01*
X195299015Y-99201755D01*
X195253789Y-99179304D01*
X195217912Y-99162841D01*
X195195279Y-99154201D01*
X195190731Y-99153348D01*
X195177619Y-99159225D01*
X195149007Y-99175951D01*
X195107011Y-99202161D01*
X195053747Y-99236492D01*
X194991329Y-99277585D01*
X194921872Y-99324073D01*
X194849798Y-99373018D01*
X194775922Y-99423337D01*
X194707444Y-99469600D01*
X194646410Y-99510454D01*
X194594871Y-99544543D01*
X194554871Y-99570515D01*
X194528458Y-99587014D01*
X194517715Y-99592688D01*
X194507992Y-99585350D01*
X194484869Y-99564422D01*
X194450032Y-99531535D01*
X194405172Y-99488316D01*
X194351974Y-99436397D01*
X194292130Y-99377406D01*
X194227323Y-99312973D01*
X194209598Y-99295259D01*
X194144028Y-99229379D01*
X194083467Y-99167998D01*
X194029545Y-99112807D01*
X193983892Y-99065497D01*
X193948136Y-99027761D01*
X193923907Y-99001291D01*
X193912834Y-98987776D01*
X193912312Y-98986585D01*
X193918063Y-98973815D01*
X193933720Y-98947357D01*
X193956895Y-98911073D01*
X193985195Y-98868825D01*
X193985223Y-98868784D01*
X194013530Y-98827441D01*
X194050915Y-98772879D01*
X194094330Y-98709544D01*
X194140725Y-98641885D01*
X194187049Y-98574352D01*
X194199943Y-98555560D01*
X194240919Y-98495485D01*
X194278270Y-98440044D01*
X194310110Y-98392092D01*
X194334553Y-98354481D01*
X194349716Y-98330065D01*
X194353416Y-98323296D01*
X194355811Y-98313826D01*
X194355224Y-98300012D01*
X194350946Y-98279724D01*
X194342264Y-98250830D01*
X194328467Y-98211203D01*
X194308843Y-98158712D01*
X194282683Y-98091228D01*
X194249272Y-98006620D01*
X194239051Y-97980901D01*
X194207776Y-97903006D01*
X194178451Y-97831333D01*
X194152135Y-97768369D01*
X194129891Y-97716605D01*
X194112781Y-97678527D01*
X194101864Y-97656626D01*
X194098989Y-97652457D01*
X194085572Y-97647913D01*
X194053490Y-97640052D01*
X194005166Y-97629382D01*
X193943023Y-97616407D01*
X193869484Y-97601633D01*
X193786972Y-97585564D01*
X193697909Y-97568707D01*
X193691776Y-97567562D01*
X193582757Y-97546912D01*
X193489312Y-97528505D01*
X193412476Y-97512565D01*
X193353288Y-97499320D01*
X193312786Y-97488994D01*
X193292005Y-97481815D01*
X193289506Y-97479976D01*
X193287481Y-97466377D01*
X193285604Y-97433761D01*
X193283929Y-97384539D01*
X193282505Y-97321126D01*
X193281386Y-97245934D01*
X193280624Y-97161376D01*
X193280271Y-97069866D01*
X193280254Y-97050783D01*
X193280269Y-96945195D01*
X193280465Y-96859018D01*
X193280929Y-96790231D01*
X193281752Y-96736816D01*
X193283020Y-96696749D01*
X193284823Y-96668012D01*
X193287250Y-96648585D01*
X193290387Y-96636446D01*
X193294324Y-96629577D01*
X193298842Y-96626113D01*
X193313371Y-96621988D01*
X193346521Y-96614539D01*
X193395823Y-96604264D01*
X193458808Y-96591656D01*
X193533010Y-96577208D01*
X193615957Y-96561415D01*
X193705183Y-96544770D01*
X193708714Y-96544118D01*
X193825639Y-96522209D01*
X193922022Y-96503413D01*
X193998505Y-96487588D01*
X194055730Y-96474596D01*
X194094338Y-96464294D01*
X194114971Y-96456544D01*
X194118031Y-96454439D01*
X194126682Y-96440476D01*
X194142188Y-96409816D01*
X194163216Y-96365516D01*
X194188431Y-96310632D01*
X194216500Y-96248220D01*
X194246088Y-96181339D01*
X194275861Y-96113043D01*
X194304485Y-96046389D01*
X194330626Y-95984436D01*
X194352950Y-95930238D01*
X194370123Y-95886853D01*
X194380810Y-95857337D01*
X194383799Y-95845526D01*
X194383162Y-95840187D01*
X194380583Y-95832754D01*
X194375067Y-95821714D01*
X194365613Y-95805553D01*
X194351226Y-95782754D01*
X194330908Y-95751806D01*
X194303659Y-95711194D01*
X194268482Y-95659402D01*
X194224381Y-95594917D01*
X194170356Y-95516226D01*
X194105411Y-95421812D01*
X194086432Y-95394240D01*
X194042638Y-95330360D01*
X194002764Y-95271695D01*
X193968461Y-95220721D01*
X193941391Y-95179917D01*
X193923205Y-95151757D01*
X193915561Y-95138717D01*
X193915549Y-95138688D01*
X193919707Y-95128066D01*
X193936435Y-95106004D01*
X193966252Y-95071938D01*
X194009680Y-95025305D01*
X194067242Y-94965544D01*
X194139458Y-94892092D01*
X194208047Y-94823181D01*
X194274199Y-94757361D01*
X194336011Y-94696557D01*
X194391774Y-94642396D01*
X194439779Y-94596510D01*
X194478319Y-94560526D01*
X194505683Y-94536074D01*
X194520165Y-94524782D01*
X194521670Y-94524199D01*
X194537130Y-94530079D01*
X194564263Y-94545594D01*
X194597566Y-94567561D01*
X194602109Y-94570758D01*
X194700285Y-94639891D01*
X194795467Y-94705984D01*
X194886001Y-94767952D01*
X194970238Y-94824711D01*
X195046525Y-94875176D01*
X195113210Y-94918265D01*
X195168642Y-94952892D01*
X195211168Y-94977973D01*
X195239137Y-94992424D01*
X195249381Y-94995639D01*
X195268080Y-94991542D01*
X195302882Y-94980157D01*
X195350612Y-94962796D01*
X195408096Y-94940770D01*
X195472157Y-94915390D01*
X195539622Y-94887967D01*
X195607313Y-94859814D01*
X195672059Y-94832239D01*
X195730682Y-94806556D01*
X195780008Y-94784076D01*
X195816862Y-94766109D01*
X195838069Y-94753966D01*
X195841359Y-94751158D01*
X195847698Y-94735194D01*
X195857198Y-94699486D01*
X195869560Y-94645445D01*
X195884482Y-94574478D01*
X195901660Y-94487992D01*
X195920795Y-94387396D01*
X195930343Y-94335829D01*
X195947058Y-94245616D01*
X195962944Y-94161349D01*
X195977510Y-94085520D01*
X195990266Y-94020628D01*
X196000720Y-93969166D01*
X196008381Y-93933633D01*
X196012759Y-93916522D01*
X196012926Y-93916088D01*
X196022830Y-93891978D01*
X196445015Y-93891978D01*
X196557280Y-93892132D01*
G37*
G36*
X173763407Y-105836380D02*
G01*
X173814667Y-105849619D01*
X173901097Y-105889023D01*
X173990763Y-105954593D01*
X174066165Y-106038122D01*
X174126218Y-106136734D01*
X174169825Y-106247549D01*
X174195898Y-106367692D01*
X174203345Y-106494286D01*
X174191077Y-106624449D01*
X174158003Y-106755309D01*
X174139806Y-106805227D01*
X174093200Y-106907576D01*
X174033814Y-107008801D01*
X173960368Y-107110330D01*
X173871588Y-107213591D01*
X173766198Y-107320009D01*
X173642918Y-107431012D01*
X173500475Y-107548028D01*
X173337591Y-107672481D01*
X173324929Y-107681842D01*
X173277515Y-107716452D01*
X173238160Y-107744481D01*
X173210662Y-107763255D01*
X173198820Y-107770107D01*
X173188975Y-107765252D01*
X173162108Y-107747255D01*
X173121919Y-107718270D01*
X173071554Y-107680733D01*
X173014156Y-107637074D01*
X172952869Y-107589727D01*
X172890835Y-107541122D01*
X172831201Y-107493693D01*
X172777111Y-107449873D01*
X172731708Y-107412090D01*
X172698136Y-107382783D01*
X172639341Y-107327830D01*
X172516632Y-107201946D01*
X172415197Y-107079642D01*
X172334214Y-106959422D01*
X172272867Y-106839786D01*
X172230335Y-106719245D01*
X172205800Y-106596291D01*
X172198443Y-106469434D01*
X172198467Y-106466796D01*
X172210165Y-106330588D01*
X172242243Y-106206599D01*
X172294483Y-106095438D01*
X172366664Y-105997724D01*
X172391247Y-105971767D01*
X172472290Y-105903803D01*
X172558788Y-105858909D01*
X172654670Y-105835435D01*
X172763875Y-105831742D01*
X172800520Y-105833834D01*
X172845800Y-105838783D01*
X172881862Y-105847796D01*
X172917166Y-105863279D01*
X172960159Y-105887644D01*
X172970269Y-105893826D01*
X173049211Y-105952621D01*
X173119310Y-106022884D01*
X173173561Y-106097716D01*
X173197783Y-106138912D01*
X173223849Y-106097716D01*
X173258243Y-106048224D01*
X173342709Y-105956554D01*
X173439170Y-105886695D01*
X173461526Y-105874203D01*
X173502046Y-105854274D01*
X173538828Y-105842193D01*
X173580766Y-105835491D01*
X173636751Y-105831688D01*
X173704947Y-105830753D01*
X173763407Y-105836380D01*
G37*
%TD*%
D12*
%TO.C,J1*%
X192860000Y-89554000D03*
D13*
X195400000Y-89300000D03*
X197939999Y-89554000D03*
X200480000Y-89300000D03*
X203020000Y-89554000D03*
%TD*%
G36*
X201200642Y-57300007D02*
G01*
X201413471Y-57302328D01*
X201422926Y-57302793D01*
X201847549Y-57339943D01*
X201858274Y-57341355D01*
X202277376Y-57415253D01*
X202287938Y-57417594D01*
X202699019Y-57527743D01*
X202709335Y-57530996D01*
X203109240Y-57676549D01*
X203119235Y-57680689D01*
X203504937Y-57860545D01*
X203514532Y-57865540D01*
X203883083Y-58078323D01*
X203892207Y-58084135D01*
X204240820Y-58328237D01*
X204249402Y-58334822D01*
X204575420Y-58608383D01*
X204583395Y-58615692D01*
X204884307Y-58916604D01*
X204891616Y-58924579D01*
X205165177Y-59250597D01*
X205171762Y-59259179D01*
X205415864Y-59607792D01*
X205421676Y-59616916D01*
X205634459Y-59985467D01*
X205639454Y-59995062D01*
X205819310Y-60380764D01*
X205823450Y-60390759D01*
X205969003Y-60790664D01*
X205972256Y-60800980D01*
X206082405Y-61212061D01*
X206084746Y-61222623D01*
X206158644Y-61641725D01*
X206160056Y-61652450D01*
X206197206Y-62077073D01*
X206197671Y-62086527D01*
X206199993Y-62299357D01*
X206200000Y-62300710D01*
X206200000Y-106299289D01*
X206199993Y-106300642D01*
X206197671Y-106513472D01*
X206197206Y-106522926D01*
X206160056Y-106947549D01*
X206158644Y-106958274D01*
X206084746Y-107377376D01*
X206082405Y-107387938D01*
X205972256Y-107799019D01*
X205969003Y-107809335D01*
X205823450Y-108209240D01*
X205819310Y-108219235D01*
X205639454Y-108604937D01*
X205634459Y-108614532D01*
X205421676Y-108983083D01*
X205415864Y-108992207D01*
X205171762Y-109340820D01*
X205165177Y-109349402D01*
X204891616Y-109675420D01*
X204884307Y-109683395D01*
X204583395Y-109984307D01*
X204575420Y-109991616D01*
X204249402Y-110265177D01*
X204240820Y-110271762D01*
X203892207Y-110515864D01*
X203883083Y-110521676D01*
X203514532Y-110734459D01*
X203504937Y-110739454D01*
X203119235Y-110919310D01*
X203109240Y-110923450D01*
X202709335Y-111069003D01*
X202699019Y-111072256D01*
X202287938Y-111182405D01*
X202277376Y-111184746D01*
X201858274Y-111258644D01*
X201847549Y-111260056D01*
X201422926Y-111297206D01*
X201413472Y-111297671D01*
X201200643Y-111299993D01*
X201199290Y-111300000D01*
X126200710Y-111300000D01*
X126199357Y-111299993D01*
X125986527Y-111297671D01*
X125977073Y-111297206D01*
X125552450Y-111260056D01*
X125541725Y-111258644D01*
X125122623Y-111184746D01*
X125112061Y-111182405D01*
X124700980Y-111072256D01*
X124690664Y-111069003D01*
X124290759Y-110923450D01*
X124280764Y-110919310D01*
X123895062Y-110739454D01*
X123885467Y-110734459D01*
X123516916Y-110521676D01*
X123507792Y-110515864D01*
X123159179Y-110271762D01*
X123150597Y-110265177D01*
X122824579Y-109991616D01*
X122816604Y-109984307D01*
X122515692Y-109683395D01*
X122508383Y-109675420D01*
X122234822Y-109349402D01*
X122228237Y-109340820D01*
X121984135Y-108992207D01*
X121978323Y-108983083D01*
X121765540Y-108614532D01*
X121760545Y-108604937D01*
X121580689Y-108219235D01*
X121576549Y-108209240D01*
X121430996Y-107809335D01*
X121427743Y-107799019D01*
X121317594Y-107387938D01*
X121315253Y-107377376D01*
X121241355Y-106958274D01*
X121239943Y-106947549D01*
X121202793Y-106522926D01*
X121202328Y-106513471D01*
X121200007Y-106300641D01*
X121200000Y-106299289D01*
X121200000Y-62300710D01*
X121200004Y-62300013D01*
X123200000Y-62300013D01*
X123200000Y-106299986D01*
X123202360Y-106468348D01*
X123240054Y-106802900D01*
X123240057Y-106802914D01*
X123314977Y-107131164D01*
X123314980Y-107131172D01*
X123426179Y-107448958D01*
X123572259Y-107752297D01*
X123751389Y-108037380D01*
X123961310Y-108300614D01*
X124199385Y-108538689D01*
X124462619Y-108748610D01*
X124747702Y-108927740D01*
X125051041Y-109073820D01*
X125368827Y-109185019D01*
X125368835Y-109185022D01*
X125697085Y-109259942D01*
X125697099Y-109259945D01*
X126031651Y-109297639D01*
X126031650Y-109297639D01*
X126200013Y-109300000D01*
X201199987Y-109300000D01*
X201368348Y-109297639D01*
X201702900Y-109259945D01*
X201702914Y-109259942D01*
X202031164Y-109185022D01*
X202031172Y-109185019D01*
X202348958Y-109073820D01*
X202652297Y-108927740D01*
X202937380Y-108748610D01*
X203200614Y-108538689D01*
X203438689Y-108300614D01*
X203648610Y-108037380D01*
X203827740Y-107752297D01*
X203973820Y-107448958D01*
X204085019Y-107131172D01*
X204085022Y-107131164D01*
X204159942Y-106802914D01*
X204159945Y-106802900D01*
X204197639Y-106468348D01*
X204200000Y-106299986D01*
X204200000Y-62300013D01*
X204197639Y-62131651D01*
X204159945Y-61797099D01*
X204159942Y-61797085D01*
X204085022Y-61468835D01*
X204085019Y-61468827D01*
X203973820Y-61151041D01*
X203827740Y-60847702D01*
X203648610Y-60562619D01*
X203438689Y-60299385D01*
X203200614Y-60061310D01*
X202937380Y-59851389D01*
X202652297Y-59672259D01*
X202348958Y-59526179D01*
X202031172Y-59414980D01*
X202031164Y-59414977D01*
X201702914Y-59340057D01*
X201702900Y-59340054D01*
X201368348Y-59302360D01*
X201368349Y-59302360D01*
X201199987Y-59300000D01*
X126200013Y-59300000D01*
X126031651Y-59302360D01*
X125697099Y-59340054D01*
X125697085Y-59340057D01*
X125368835Y-59414977D01*
X125368827Y-59414980D01*
X125051041Y-59526179D01*
X124747702Y-59672259D01*
X124462619Y-59851389D01*
X124199385Y-60061310D01*
X123961310Y-60299385D01*
X123751389Y-60562619D01*
X123572259Y-60847702D01*
X123426179Y-61151041D01*
X123314980Y-61468827D01*
X123314977Y-61468835D01*
X123240057Y-61797085D01*
X123240054Y-61797099D01*
X123202360Y-62131651D01*
X123200000Y-62300013D01*
X121200004Y-62300013D01*
X121200007Y-62299358D01*
X121202328Y-62086528D01*
X121202793Y-62077073D01*
X121239943Y-61652450D01*
X121241355Y-61641725D01*
X121315253Y-61222623D01*
X121317594Y-61212061D01*
X121427743Y-60800980D01*
X121430996Y-60790664D01*
X121576549Y-60390759D01*
X121580689Y-60380764D01*
X121760545Y-59995062D01*
X121765540Y-59985467D01*
X121978323Y-59616916D01*
X121984135Y-59607792D01*
X122228237Y-59259179D01*
X122234822Y-59250597D01*
X122508383Y-58924579D01*
X122515692Y-58916604D01*
X122816604Y-58615692D01*
X122824579Y-58608383D01*
X123150597Y-58334822D01*
X123159179Y-58328237D01*
X123507792Y-58084135D01*
X123516916Y-58078323D01*
X123885467Y-57865540D01*
X123895062Y-57860545D01*
X124280764Y-57680689D01*
X124290759Y-57676549D01*
X124690664Y-57530996D01*
X124700980Y-57527743D01*
X125112061Y-57417594D01*
X125122623Y-57415253D01*
X125541725Y-57341355D01*
X125552450Y-57339943D01*
X125977073Y-57302793D01*
X125986528Y-57302328D01*
X126199358Y-57300007D01*
X126200710Y-57300000D01*
X201199290Y-57300000D01*
X201200642Y-57300007D01*
G37*
M02*
