%TF.GenerationSoftware,KiCad,Pcbnew,9.0.2*%
%TF.CreationDate,2025-10-14T01:01:49+02:00*%
%TF.ProjectId,Yet_Another_Business_Card,5965745f-416e-46f7-9468-65725f427573,rev?*%
%TF.SameCoordinates,Original*%
%TF.FileFunction,Soldermask,Bot*%
%TF.FilePolarity,Negative*%
%FSLAX46Y46*%
G04 Gerber Fmt 4.6, Leading zero omitted, Abs format (unit mm)*
G04 Created by KiCad (PCBNEW 9.0.2) date 2025-10-14 01:01:49*
%MOMM*%
%LPD*%
G01*
G04 APERTURE LIST*
%ADD10C,0.000000*%
%ADD11R,1.700000X1.700000*%
%ADD12C,1.700000*%
G04 APERTURE END LIST*
D10*
%TO.C,G\u002A\u002A\u002A*%
G36*
X199110299Y-100019812D02*
G01*
X199247247Y-100020549D01*
X199357197Y-100021866D01*
X199442522Y-100023837D01*
X199505596Y-100026537D01*
X199548794Y-100030037D01*
X199574489Y-100034412D01*
X199584834Y-100039427D01*
X199591052Y-100058993D01*
X199602205Y-100106309D01*
X199617582Y-100177881D01*
X199636472Y-100270215D01*
X199658162Y-100379817D01*
X199681942Y-100503194D01*
X199707099Y-100636851D01*
X199713105Y-100669219D01*
X199738915Y-100806396D01*
X199763653Y-100933525D01*
X199786593Y-101047180D01*
X199807009Y-101143937D01*
X199824174Y-101220370D01*
X199837362Y-101273054D01*
X199845847Y-101298564D01*
X199846879Y-101300068D01*
X199868554Y-101313000D01*
X199915196Y-101335289D01*
X199982087Y-101365028D01*
X200064506Y-101400311D01*
X200157736Y-101439231D01*
X200257058Y-101479884D01*
X200357753Y-101520362D01*
X200455103Y-101558760D01*
X200544389Y-101593171D01*
X200620892Y-101621690D01*
X200679893Y-101642410D01*
X200716674Y-101653425D01*
X200724819Y-101654709D01*
X200753144Y-101645179D01*
X200805636Y-101617020D01*
X200881233Y-101570882D01*
X200978872Y-101507410D01*
X201094146Y-101429545D01*
X201246812Y-101324978D01*
X201375458Y-101236977D01*
X201482234Y-101164125D01*
X201569284Y-101105005D01*
X201638758Y-101058199D01*
X201692801Y-101022289D01*
X201733562Y-100995859D01*
X201763186Y-100977492D01*
X201783822Y-100965768D01*
X201797615Y-100959271D01*
X201806714Y-100956584D01*
X201811126Y-100956208D01*
X201828278Y-100967169D01*
X201864412Y-100998050D01*
X201916536Y-101045854D01*
X201981660Y-101107584D01*
X202056794Y-101180239D01*
X202138945Y-101260823D01*
X202225125Y-101346337D01*
X202312342Y-101433782D01*
X202397606Y-101520160D01*
X202477926Y-101602474D01*
X202550312Y-101677724D01*
X202611772Y-101742912D01*
X202659317Y-101795041D01*
X202689956Y-101831111D01*
X202700699Y-101848066D01*
X202691991Y-101868470D01*
X202667636Y-101910624D01*
X202630284Y-101970332D01*
X202582584Y-102043396D01*
X202527188Y-102125622D01*
X202505273Y-102157523D01*
X202380232Y-102339009D01*
X202273408Y-102494944D01*
X202184595Y-102625638D01*
X202113587Y-102731397D01*
X202060177Y-102812531D01*
X202024161Y-102869347D01*
X202005332Y-102902155D01*
X202002198Y-102910503D01*
X202008210Y-102928645D01*
X202025221Y-102972217D01*
X202051691Y-103037475D01*
X202086083Y-103120678D01*
X202126858Y-103218087D01*
X202172477Y-103325958D01*
X202188730Y-103364144D01*
X202246187Y-103497099D01*
X202296680Y-103610214D01*
X202339230Y-103701431D01*
X202372857Y-103768693D01*
X202396580Y-103809943D01*
X202407011Y-103822403D01*
X202429474Y-103829916D01*
X202479501Y-103842239D01*
X202553401Y-103858601D01*
X202647482Y-103878233D01*
X202758053Y-103900365D01*
X202881421Y-103924227D01*
X203013896Y-103949050D01*
X203018198Y-103949843D01*
X203150279Y-103974488D01*
X203272847Y-103997949D01*
X203382308Y-104019493D01*
X203475070Y-104038389D01*
X203547537Y-104053903D01*
X203596118Y-104065303D01*
X203617217Y-104071856D01*
X203617480Y-104072038D01*
X203622616Y-104091419D01*
X203627058Y-104138251D01*
X203630801Y-104208361D01*
X203633841Y-104297574D01*
X203636175Y-104401719D01*
X203637797Y-104516621D01*
X203638705Y-104638108D01*
X203638893Y-104762003D01*
X203638358Y-104884136D01*
X203637096Y-105000331D01*
X203635102Y-105106416D01*
X203632373Y-105198216D01*
X203628903Y-105271558D01*
X203624690Y-105322269D01*
X203619728Y-105346175D01*
X203618740Y-105347318D01*
X203599375Y-105352748D01*
X203552359Y-105363185D01*
X203481273Y-105377915D01*
X203389694Y-105396223D01*
X203281203Y-105417395D01*
X203159380Y-105440714D01*
X203027804Y-105465466D01*
X203020520Y-105466824D01*
X202888478Y-105491872D01*
X202765999Y-105515953D01*
X202656667Y-105538296D01*
X202564066Y-105558134D01*
X202491779Y-105574699D01*
X202443389Y-105587220D01*
X202422480Y-105594929D01*
X202422213Y-105595182D01*
X202411932Y-105614498D01*
X202391603Y-105659639D01*
X202362789Y-105726884D01*
X202327054Y-105812506D01*
X202285961Y-105912782D01*
X202241072Y-106023987D01*
X202217561Y-106082854D01*
X202163918Y-106218483D01*
X202121565Y-106327686D01*
X202089528Y-106413323D01*
X202066831Y-106478254D01*
X202052499Y-106525337D01*
X202045556Y-106557434D01*
X202045026Y-106577404D01*
X202046789Y-106583573D01*
X202060174Y-106606354D01*
X202088772Y-106650705D01*
X202129616Y-106712169D01*
X202179733Y-106786287D01*
X202236156Y-106868603D01*
X202250380Y-106889191D01*
X202317787Y-106986634D01*
X202389142Y-107089840D01*
X202458786Y-107190621D01*
X202521061Y-107280787D01*
X202565761Y-107345558D01*
X202611827Y-107414523D01*
X202650437Y-107476471D01*
X202678248Y-107525719D01*
X202691918Y-107556583D01*
X202692761Y-107561465D01*
X202681910Y-107578749D01*
X202651328Y-107615205D01*
X202603976Y-107667826D01*
X202542809Y-107733601D01*
X202470788Y-107809525D01*
X202390871Y-107892587D01*
X202306015Y-107979781D01*
X202219180Y-108068098D01*
X202133324Y-108154529D01*
X202051404Y-108236066D01*
X201976381Y-108309702D01*
X201911211Y-108372428D01*
X201858854Y-108421235D01*
X201822267Y-108453116D01*
X201804410Y-108465062D01*
X201804111Y-108465082D01*
X201785761Y-108456447D01*
X201746112Y-108432532D01*
X201689831Y-108396324D01*
X201621590Y-108350811D01*
X201564894Y-108312039D01*
X201400562Y-108198704D01*
X201260441Y-108102544D01*
X201142804Y-108022423D01*
X201045923Y-107957208D01*
X200968071Y-107905762D01*
X200907522Y-107866951D01*
X200862547Y-107839639D01*
X200831419Y-107822692D01*
X200812412Y-107814973D01*
X200807405Y-107814208D01*
X200782982Y-107821533D01*
X200736726Y-107841671D01*
X200674472Y-107871862D01*
X200602056Y-107909348D01*
X200572349Y-107925332D01*
X200497722Y-107964886D01*
X200431168Y-107998231D01*
X200378466Y-108022615D01*
X200345396Y-108035285D01*
X200339037Y-108036457D01*
X200331154Y-108031538D01*
X200319504Y-108015578D01*
X200303292Y-107986777D01*
X200281719Y-107943335D01*
X200253989Y-107883449D01*
X200219306Y-107805320D01*
X200176872Y-107707145D01*
X200125892Y-107587126D01*
X200065568Y-107443459D01*
X199995103Y-107274345D01*
X199913701Y-107077982D01*
X199894832Y-107032364D01*
X199824734Y-106862806D01*
X199758071Y-106701484D01*
X199695854Y-106550855D01*
X199639098Y-106413380D01*
X199588818Y-106291514D01*
X199546028Y-106187717D01*
X199511741Y-106104447D01*
X199486971Y-106044161D01*
X199472733Y-106009319D01*
X199469691Y-106001716D01*
X199466468Y-105988561D01*
X199469568Y-105975084D01*
X199482359Y-105958133D01*
X199508208Y-105934553D01*
X199550484Y-105901190D01*
X199612554Y-105854890D01*
X199676511Y-105808035D01*
X199834979Y-105679846D01*
X199964558Y-105546807D01*
X200068088Y-105405239D01*
X200148405Y-105251466D01*
X200189315Y-105143817D01*
X200241177Y-104939819D01*
X200261678Y-104737115D01*
X200251147Y-104537569D01*
X200209913Y-104343043D01*
X200138306Y-104155404D01*
X200036654Y-103976512D01*
X199966130Y-103880095D01*
X199848976Y-103755496D01*
X199707639Y-103643290D01*
X199548614Y-103547677D01*
X199378392Y-103472858D01*
X199294428Y-103445511D01*
X199184173Y-103422508D01*
X199054814Y-103409513D01*
X198917123Y-103406536D01*
X198781870Y-103413586D01*
X198659826Y-103430672D01*
X198600322Y-103444899D01*
X198409954Y-103515810D01*
X198234282Y-103613253D01*
X198075933Y-103734727D01*
X197937536Y-103877727D01*
X197821720Y-104039752D01*
X197731112Y-104218298D01*
X197699485Y-104302706D01*
X197676679Y-104374509D01*
X197661092Y-104436098D01*
X197650999Y-104498013D01*
X197644672Y-104570789D01*
X197640454Y-104663020D01*
X197638065Y-104759345D01*
X197639293Y-104834294D01*
X197644909Y-104898113D01*
X197655682Y-104961048D01*
X197666478Y-105009116D01*
X197725632Y-105200087D01*
X197808310Y-105373245D01*
X197916173Y-105530879D01*
X198050884Y-105675277D01*
X198214102Y-105808728D01*
X198280282Y-105854613D01*
X198338276Y-105894667D01*
X198385819Y-105930255D01*
X198416859Y-105956687D01*
X198425506Y-105967172D01*
X198420923Y-105985178D01*
X198404878Y-106030439D01*
X198378189Y-106100931D01*
X198341678Y-106194632D01*
X198296162Y-106309517D01*
X198242462Y-106443563D01*
X198181396Y-106594747D01*
X198113784Y-106761046D01*
X198040446Y-106940435D01*
X197962201Y-107130892D01*
X197879867Y-107330394D01*
X197794265Y-107536916D01*
X197706215Y-107748435D01*
X197640589Y-107905489D01*
X197609981Y-107973764D01*
X197585877Y-108015431D01*
X197565812Y-108034337D01*
X197556706Y-108036457D01*
X197532916Y-108029197D01*
X197487139Y-108009231D01*
X197425141Y-107979279D01*
X197352685Y-107942063D01*
X197321287Y-107925332D01*
X197246200Y-107885922D01*
X197179198Y-107852661D01*
X197126048Y-107828271D01*
X197092516Y-107815472D01*
X197085779Y-107814208D01*
X197066353Y-107822915D01*
X197023965Y-107847694D01*
X196961750Y-107886523D01*
X196882840Y-107937385D01*
X196790369Y-107998262D01*
X196687469Y-108067135D01*
X196580693Y-108139645D01*
X196471246Y-108214192D01*
X196369797Y-108282730D01*
X196279378Y-108343254D01*
X196203023Y-108393757D01*
X196143764Y-108432233D01*
X196104633Y-108456676D01*
X196088719Y-108465082D01*
X196074314Y-108454211D01*
X196040057Y-108423207D01*
X195988448Y-108374485D01*
X195921987Y-108310457D01*
X195843176Y-108233540D01*
X195754517Y-108146146D01*
X195658508Y-108050690D01*
X195632249Y-108024447D01*
X195535107Y-107926847D01*
X195445387Y-107835911D01*
X195365503Y-107754147D01*
X195297869Y-107684059D01*
X195244898Y-107628154D01*
X195209003Y-107588938D01*
X195192599Y-107568917D01*
X195191824Y-107567152D01*
X195200344Y-107548234D01*
X195223541Y-107509037D01*
X195257873Y-107455282D01*
X195299800Y-107392692D01*
X195299841Y-107392631D01*
X195341777Y-107331383D01*
X195397163Y-107250550D01*
X195461481Y-107156721D01*
X195530214Y-107056486D01*
X195598843Y-106956437D01*
X195617945Y-106928597D01*
X195678650Y-106839596D01*
X195733984Y-106757461D01*
X195781155Y-106686421D01*
X195817368Y-106630701D01*
X195839831Y-106594530D01*
X195845312Y-106584501D01*
X195848860Y-106570472D01*
X195847991Y-106550007D01*
X195841653Y-106519950D01*
X195828791Y-106477145D01*
X195808351Y-106418438D01*
X195779279Y-106340674D01*
X195740522Y-106240697D01*
X195691025Y-106115351D01*
X195675882Y-106077249D01*
X195629549Y-105961850D01*
X195586104Y-105855668D01*
X195547118Y-105762388D01*
X195514164Y-105685700D01*
X195488815Y-105629288D01*
X195472642Y-105596842D01*
X195468383Y-105590666D01*
X195448506Y-105583933D01*
X195400977Y-105572288D01*
X195329386Y-105556481D01*
X195237323Y-105537259D01*
X195128376Y-105515371D01*
X195006136Y-105491566D01*
X194874191Y-105466591D01*
X194865104Y-105464896D01*
X194703595Y-105434304D01*
X194565157Y-105407033D01*
X194451327Y-105383419D01*
X194363641Y-105363796D01*
X194303637Y-105348499D01*
X194272852Y-105337863D01*
X194269150Y-105335138D01*
X194266150Y-105314992D01*
X194263369Y-105266671D01*
X194260886Y-105193750D01*
X194258777Y-105099805D01*
X194257120Y-104988409D01*
X194255991Y-104863139D01*
X194255468Y-104727568D01*
X194255443Y-104699297D01*
X194255465Y-104542870D01*
X194255755Y-104415200D01*
X194256443Y-104313293D01*
X194257662Y-104234158D01*
X194259541Y-104174800D01*
X194262212Y-104132227D01*
X194265806Y-104103446D01*
X194270454Y-104085463D01*
X194276286Y-104075286D01*
X194282981Y-104070155D01*
X194304505Y-104064042D01*
X194353616Y-104053008D01*
X194426656Y-104037786D01*
X194519968Y-104019107D01*
X194629895Y-103997703D01*
X194752780Y-103974306D01*
X194884967Y-103949646D01*
X194890199Y-103948680D01*
X195063421Y-103916222D01*
X195206210Y-103888376D01*
X195319518Y-103864933D01*
X195404296Y-103845685D01*
X195461493Y-103830423D01*
X195492060Y-103818940D01*
X195496594Y-103815823D01*
X195509410Y-103795137D01*
X195532382Y-103749715D01*
X195563534Y-103684085D01*
X195600890Y-103602775D01*
X195642473Y-103510313D01*
X195686308Y-103411229D01*
X195730416Y-103310050D01*
X195772822Y-103211304D01*
X195811550Y-103119521D01*
X195844622Y-103039228D01*
X195870063Y-102974954D01*
X195885896Y-102931227D01*
X195890324Y-102913729D01*
X195889380Y-102905819D01*
X195885560Y-102894808D01*
X195877387Y-102878452D01*
X195863382Y-102854509D01*
X195842068Y-102820734D01*
X195811966Y-102774885D01*
X195771597Y-102714718D01*
X195719484Y-102637990D01*
X195654149Y-102542457D01*
X195574112Y-102425877D01*
X195477897Y-102286005D01*
X195449780Y-102245157D01*
X195384901Y-102150520D01*
X195325827Y-102063609D01*
X195275009Y-101988093D01*
X195234904Y-101927641D01*
X195207962Y-101885922D01*
X195196638Y-101866605D01*
X195196621Y-101866561D01*
X195202781Y-101850826D01*
X195227562Y-101818141D01*
X195271736Y-101767672D01*
X195336074Y-101698587D01*
X195421351Y-101610052D01*
X195528338Y-101501235D01*
X195629951Y-101399144D01*
X195727954Y-101301633D01*
X195819527Y-101211552D01*
X195902139Y-101131315D01*
X195973258Y-101063335D01*
X196030354Y-101010026D01*
X196070893Y-100973800D01*
X196092347Y-100957071D01*
X196094577Y-100956208D01*
X196117481Y-100964919D01*
X196157678Y-100987904D01*
X196207016Y-101020447D01*
X196213746Y-101025184D01*
X196359192Y-101127603D01*
X196500202Y-101225518D01*
X196634327Y-101317323D01*
X196759123Y-101401410D01*
X196872140Y-101476174D01*
X196970933Y-101540009D01*
X197053054Y-101591308D01*
X197116055Y-101628466D01*
X197157492Y-101649875D01*
X197172668Y-101654637D01*
X197200370Y-101648567D01*
X197251929Y-101631701D01*
X197322640Y-101605981D01*
X197407801Y-101573350D01*
X197502706Y-101535750D01*
X197602654Y-101495124D01*
X197702938Y-101453415D01*
X197798857Y-101412564D01*
X197885706Y-101374515D01*
X197958782Y-101341210D01*
X198013380Y-101314593D01*
X198044797Y-101296604D01*
X198049672Y-101292444D01*
X198059063Y-101268792D01*
X198073138Y-101215892D01*
X198091452Y-101135831D01*
X198113557Y-101030695D01*
X198139007Y-100902568D01*
X198167355Y-100753536D01*
X198181501Y-100677141D01*
X198206263Y-100543493D01*
X198229798Y-100418651D01*
X198251377Y-100306313D01*
X198270275Y-100210176D01*
X198285762Y-100133937D01*
X198297112Y-100081295D01*
X198303597Y-100055946D01*
X198303845Y-100055302D01*
X198318519Y-100019584D01*
X198943978Y-100019584D01*
X199110299Y-100019812D01*
G37*
%TD*%
D11*
%TO.C,J1*%
X193380000Y-87954000D03*
D12*
X195920000Y-87700000D03*
X198459999Y-87954000D03*
X201000000Y-87700000D03*
X203540000Y-87954000D03*
%TD*%
G36*
X201200642Y-57300007D02*
G01*
X201413471Y-57302328D01*
X201422926Y-57302793D01*
X201847549Y-57339943D01*
X201858274Y-57341355D01*
X202277376Y-57415253D01*
X202287938Y-57417594D01*
X202699019Y-57527743D01*
X202709335Y-57530996D01*
X203109240Y-57676549D01*
X203119235Y-57680689D01*
X203504937Y-57860545D01*
X203514532Y-57865540D01*
X203883083Y-58078323D01*
X203892207Y-58084135D01*
X204240820Y-58328237D01*
X204249402Y-58334822D01*
X204575420Y-58608383D01*
X204583395Y-58615692D01*
X204884307Y-58916604D01*
X204891616Y-58924579D01*
X205165177Y-59250597D01*
X205171762Y-59259179D01*
X205415864Y-59607792D01*
X205421676Y-59616916D01*
X205634459Y-59985467D01*
X205639454Y-59995062D01*
X205819310Y-60380764D01*
X205823450Y-60390759D01*
X205969003Y-60790664D01*
X205972256Y-60800980D01*
X206082405Y-61212061D01*
X206084746Y-61222623D01*
X206158644Y-61641725D01*
X206160056Y-61652450D01*
X206197206Y-62077073D01*
X206197671Y-62086527D01*
X206199993Y-62299357D01*
X206200000Y-62300710D01*
X206200000Y-106299289D01*
X206199993Y-106300642D01*
X206197671Y-106513472D01*
X206197206Y-106522926D01*
X206160056Y-106947549D01*
X206158644Y-106958274D01*
X206084746Y-107377376D01*
X206082405Y-107387938D01*
X205972256Y-107799019D01*
X205969003Y-107809335D01*
X205823450Y-108209240D01*
X205819310Y-108219235D01*
X205639454Y-108604937D01*
X205634459Y-108614532D01*
X205421676Y-108983083D01*
X205415864Y-108992207D01*
X205171762Y-109340820D01*
X205165177Y-109349402D01*
X204891616Y-109675420D01*
X204884307Y-109683395D01*
X204583395Y-109984307D01*
X204575420Y-109991616D01*
X204249402Y-110265177D01*
X204240820Y-110271762D01*
X203892207Y-110515864D01*
X203883083Y-110521676D01*
X203514532Y-110734459D01*
X203504937Y-110739454D01*
X203119235Y-110919310D01*
X203109240Y-110923450D01*
X202709335Y-111069003D01*
X202699019Y-111072256D01*
X202287938Y-111182405D01*
X202277376Y-111184746D01*
X201858274Y-111258644D01*
X201847549Y-111260056D01*
X201422926Y-111297206D01*
X201413472Y-111297671D01*
X201200643Y-111299993D01*
X201199290Y-111300000D01*
X126200710Y-111300000D01*
X126199357Y-111299993D01*
X125986527Y-111297671D01*
X125977073Y-111297206D01*
X125552450Y-111260056D01*
X125541725Y-111258644D01*
X125122623Y-111184746D01*
X125112061Y-111182405D01*
X124700980Y-111072256D01*
X124690664Y-111069003D01*
X124290759Y-110923450D01*
X124280764Y-110919310D01*
X123895062Y-110739454D01*
X123885467Y-110734459D01*
X123516916Y-110521676D01*
X123507792Y-110515864D01*
X123159179Y-110271762D01*
X123150597Y-110265177D01*
X122824579Y-109991616D01*
X122816604Y-109984307D01*
X122515692Y-109683395D01*
X122508383Y-109675420D01*
X122234822Y-109349402D01*
X122228237Y-109340820D01*
X121984135Y-108992207D01*
X121978323Y-108983083D01*
X121765540Y-108614532D01*
X121760545Y-108604937D01*
X121580689Y-108219235D01*
X121576549Y-108209240D01*
X121430996Y-107809335D01*
X121427743Y-107799019D01*
X121317594Y-107387938D01*
X121315253Y-107377376D01*
X121241355Y-106958274D01*
X121239943Y-106947549D01*
X121202793Y-106522926D01*
X121202328Y-106513471D01*
X121200007Y-106300641D01*
X121200000Y-106299289D01*
X121200000Y-62300710D01*
X121200004Y-62299988D01*
X122200000Y-62299988D01*
X122200000Y-106300011D01*
X122202349Y-106496392D01*
X122240847Y-106887282D01*
X122317476Y-107272517D01*
X122431496Y-107648393D01*
X122581809Y-108011280D01*
X122581811Y-108011285D01*
X122766958Y-108357670D01*
X122766969Y-108357688D01*
X122985178Y-108684261D01*
X122985188Y-108684275D01*
X123234367Y-108987901D01*
X123512098Y-109265632D01*
X123815724Y-109514811D01*
X123815738Y-109514821D01*
X124142311Y-109733030D01*
X124142329Y-109733041D01*
X124488714Y-109918188D01*
X124488719Y-109918190D01*
X124851606Y-110068503D01*
X125227482Y-110182523D01*
X125612717Y-110259152D01*
X126003607Y-110297650D01*
X126199989Y-110300000D01*
X201200011Y-110300000D01*
X201396392Y-110297650D01*
X201787282Y-110259152D01*
X202172517Y-110182523D01*
X202548393Y-110068503D01*
X202911280Y-109918190D01*
X202911285Y-109918188D01*
X203257670Y-109733041D01*
X203257688Y-109733030D01*
X203584261Y-109514821D01*
X203584275Y-109514811D01*
X203887901Y-109265632D01*
X204165632Y-108987901D01*
X204414811Y-108684275D01*
X204414821Y-108684261D01*
X204633030Y-108357688D01*
X204633041Y-108357670D01*
X204818188Y-108011285D01*
X204818190Y-108011280D01*
X204968503Y-107648393D01*
X205082523Y-107272517D01*
X205159152Y-106887282D01*
X205197650Y-106496392D01*
X205200000Y-106300011D01*
X205200000Y-62299988D01*
X205197650Y-62103607D01*
X205159152Y-61712717D01*
X205082523Y-61327482D01*
X204968503Y-60951606D01*
X204818190Y-60588719D01*
X204818188Y-60588714D01*
X204633041Y-60242329D01*
X204633030Y-60242311D01*
X204414821Y-59915738D01*
X204414811Y-59915724D01*
X204165632Y-59612098D01*
X203887901Y-59334367D01*
X203584275Y-59085188D01*
X203584261Y-59085178D01*
X203257688Y-58866969D01*
X203257670Y-58866958D01*
X202911285Y-58681811D01*
X202911280Y-58681809D01*
X202548393Y-58531496D01*
X202172517Y-58417476D01*
X201787282Y-58340847D01*
X201396392Y-58302349D01*
X201200011Y-58300000D01*
X126199989Y-58300000D01*
X126003607Y-58302349D01*
X125612717Y-58340847D01*
X125227482Y-58417476D01*
X124851606Y-58531496D01*
X124488719Y-58681809D01*
X124488714Y-58681811D01*
X124142329Y-58866958D01*
X124142311Y-58866969D01*
X123815738Y-59085178D01*
X123815724Y-59085188D01*
X123512098Y-59334367D01*
X123234367Y-59612098D01*
X122985188Y-59915724D01*
X122985178Y-59915738D01*
X122766969Y-60242311D01*
X122766958Y-60242329D01*
X122581811Y-60588714D01*
X122581809Y-60588719D01*
X122431496Y-60951606D01*
X122317476Y-61327482D01*
X122240847Y-61712717D01*
X122202349Y-62103607D01*
X122200000Y-62299988D01*
X121200004Y-62299988D01*
X121200007Y-62299358D01*
X121202328Y-62086528D01*
X121202793Y-62077073D01*
X121239943Y-61652450D01*
X121241355Y-61641725D01*
X121315253Y-61222623D01*
X121317594Y-61212061D01*
X121427743Y-60800980D01*
X121430996Y-60790664D01*
X121576549Y-60390759D01*
X121580689Y-60380764D01*
X121760545Y-59995062D01*
X121765540Y-59985467D01*
X121978323Y-59616916D01*
X121984135Y-59607792D01*
X122228237Y-59259179D01*
X122234822Y-59250597D01*
X122508383Y-58924579D01*
X122515692Y-58916604D01*
X122816604Y-58615692D01*
X122824579Y-58608383D01*
X123150597Y-58334822D01*
X123159179Y-58328237D01*
X123507792Y-58084135D01*
X123516916Y-58078323D01*
X123885467Y-57865540D01*
X123895062Y-57860545D01*
X124280764Y-57680689D01*
X124290759Y-57676549D01*
X124690664Y-57530996D01*
X124700980Y-57527743D01*
X125112061Y-57417594D01*
X125122623Y-57415253D01*
X125541725Y-57341355D01*
X125552450Y-57339943D01*
X125977073Y-57302793D01*
X125986528Y-57302328D01*
X126199358Y-57300007D01*
X126200710Y-57300000D01*
X201199290Y-57300000D01*
X201200642Y-57300007D01*
G37*
M02*
