%TF.GenerationSoftware,KiCad,Pcbnew,9.0.2*%
%TF.CreationDate,2025-12-10T00:27:38+01:00*%
%TF.ProjectId,Yet_Another_Business_Card,5965745f-416e-46f7-9468-65725f427573,rev?*%
%TF.SameCoordinates,Original*%
%TF.FileFunction,Profile,NP*%
%FSLAX46Y46*%
G04 Gerber Fmt 4.6, Leading zero omitted, Abs format (unit mm)*
G04 Created by KiCad (PCBNEW 9.0.2) date 2025-12-10 00:27:38*
%MOMM*%
%LPD*%
G01*
G04 APERTURE LIST*
%TA.AperFunction,Profile*%
%ADD10C,0.100000*%
%TD*%
%TA.AperFunction,Profile*%
%ADD11C,0.200000*%
%TD*%
G04 APERTURE END LIST*
D10*
X125576000Y-107500000D02*
G75*
G02*
X124424000Y-107500000I-576000J0D01*
G01*
X124424000Y-107500000D02*
G75*
G02*
X125576000Y-107500000I576000J0D01*
G01*
X202876000Y-61100000D02*
G75*
G02*
X201724000Y-61100000I-576000J0D01*
G01*
X201724000Y-61100000D02*
G75*
G02*
X202876000Y-61100000I576000J0D01*
G01*
D11*
X206200000Y-62300000D02*
X206200000Y-106300000D01*
X121200000Y-62300000D02*
G75*
G02*
X126200000Y-57300000I5000000J0D01*
G01*
X126200000Y-111300000D02*
G75*
G02*
X121200000Y-106300000I0J5000000D01*
G01*
X206200000Y-106300000D02*
G75*
G02*
X201200000Y-111300000I-5000000J0D01*
G01*
X126200000Y-57300000D02*
X201200000Y-57300000D01*
X201200000Y-57300000D02*
G75*
G02*
X206200000Y-62300000I0J-5000000D01*
G01*
X121200000Y-106300000D02*
X121200000Y-62300000D01*
X201200000Y-111300000D02*
X126200000Y-111300000D01*
D10*
%TO.C,BT1*%
X177482756Y-65228305D02*
X178331249Y-64379812D01*
X178703924Y-72999646D02*
X178903544Y-71145919D01*
X178806475Y-74861270D02*
X178703924Y-72999646D01*
X178896934Y-64379812D02*
X179462620Y-64945497D01*
X178903544Y-71145919D02*
X179400089Y-69348810D01*
X178936058Y-67247433D02*
X177482756Y-65793990D01*
X179145997Y-67494545D02*
X178936058Y-67247433D01*
X179208502Y-76681855D02*
X178806475Y-74861270D01*
X179313247Y-67772334D02*
X179145997Y-67494545D01*
X179400089Y-69348810D02*
X179486445Y-69036270D01*
X179433410Y-68073498D02*
X179313247Y-67772334D01*
X179462620Y-64945497D02*
X181845569Y-62562548D01*
X179486445Y-69036270D02*
X179521162Y-68713882D01*
X179503327Y-68390122D02*
X179433410Y-68073498D01*
X179521162Y-68713882D02*
X179503327Y-68390122D01*
X179899437Y-78413549D02*
X179208502Y-76681855D01*
X180861121Y-80010835D02*
X179899437Y-78413549D01*
X181279883Y-61431177D02*
X182128376Y-60582685D01*
X181845569Y-62562548D02*
X181279883Y-61996863D01*
X182068273Y-81431727D02*
X180861121Y-80010835D01*
X182694062Y-60582685D02*
X184147434Y-62036057D01*
X183489166Y-82638880D02*
X182068273Y-81431727D01*
X184147434Y-62036057D02*
X184394546Y-62245996D01*
X184394546Y-62245996D02*
X184672335Y-62413246D01*
X184672335Y-62413246D02*
X184973499Y-62533409D01*
X184973499Y-62533409D02*
X185290123Y-62603326D01*
X185086452Y-83600564D02*
X183489166Y-82638880D01*
X185290123Y-62603326D02*
X185613883Y-62621161D01*
X185613883Y-62621161D02*
X185936271Y-62586444D01*
X185936271Y-62586444D02*
X186248811Y-62500089D01*
X186248811Y-62500089D02*
X188045919Y-62003543D01*
X186818146Y-84291498D02*
X185086452Y-83600564D01*
X188045919Y-62003543D02*
X189899647Y-61803924D01*
X188638731Y-84693525D02*
X186818146Y-84291498D01*
X189899647Y-61803924D02*
X191761271Y-61906475D01*
X190500354Y-84796076D02*
X188638731Y-84693525D01*
X191761271Y-61906475D02*
X193581856Y-62308502D01*
X192354082Y-84596457D02*
X190500354Y-84796076D01*
X193581856Y-62308502D02*
X195313549Y-62999436D01*
X194151190Y-84099911D02*
X192354082Y-84596457D01*
X194463731Y-84013556D02*
X194151190Y-84099911D01*
X194786119Y-83978839D02*
X194463731Y-84013556D01*
X195109879Y-83996674D02*
X194786119Y-83978839D01*
X195313549Y-62999436D02*
X196910836Y-63961120D01*
X195426503Y-84066591D02*
X195109879Y-83996674D01*
X195727667Y-84186754D02*
X195426503Y-84066591D01*
X196005456Y-84354004D02*
X195727667Y-84186754D01*
X196252567Y-84563943D02*
X196005456Y-84354004D01*
X196910836Y-63961120D02*
X198331728Y-65168272D01*
X197707499Y-86015755D02*
X196252567Y-84563943D01*
X198331728Y-65168272D02*
X199538881Y-66589165D01*
X198554503Y-84037380D02*
X199120117Y-84603137D01*
X199121677Y-85167262D02*
X198273184Y-86015755D01*
X199538881Y-66589165D02*
X200500564Y-68186451D01*
X200500564Y-68186451D02*
X201191499Y-69918145D01*
X200878840Y-77886118D02*
X200896674Y-78209878D01*
X200896674Y-78209878D02*
X200966592Y-78526502D01*
X200913557Y-77563730D02*
X200878840Y-77886118D01*
X200937452Y-81654431D02*
X198554503Y-84037380D01*
X200966592Y-78526502D02*
X201086755Y-78827666D01*
X200999912Y-77251190D02*
X200913557Y-77563730D01*
X201086755Y-78827666D02*
X201254004Y-79105455D01*
X201191499Y-69918145D02*
X201593526Y-71738730D01*
X201254004Y-79105455D02*
X201463944Y-79352567D01*
X201463944Y-79352567D02*
X202917315Y-80805938D01*
X201496457Y-75454081D02*
X200999912Y-77251190D01*
X201503137Y-82220117D02*
X200937452Y-81654431D01*
X201593526Y-71738730D02*
X201696077Y-73600354D01*
X201696077Y-73600354D02*
X201496457Y-75454081D01*
X202917315Y-81371624D02*
X202068823Y-82220117D01*
X177482756Y-65793990D02*
G75*
G02*
X177482755Y-65228304I282841J282843D01*
G01*
X178331249Y-64379812D02*
G75*
G02*
X178896933Y-64379812I282842J-282841D01*
G01*
X181279883Y-61996863D02*
G75*
G02*
X181279883Y-61431177I282842J282843D01*
G01*
X182128376Y-60582685D02*
G75*
G02*
X182694062Y-60582685I282843J-282841D01*
G01*
X198273184Y-86015755D02*
G75*
G02*
X197707494Y-86015760I-282847J282838D01*
G01*
X199120117Y-84603137D02*
G75*
G02*
X199120082Y-85168788I-282808J-282808D01*
G01*
X202068823Y-82220117D02*
G75*
G02*
X201503137Y-82220117I-282843J282843D01*
G01*
X202917315Y-80805938D02*
G75*
G02*
X202917315Y-81371624I-282842J-282843D01*
G01*
%TD*%
M02*
