%TF.GenerationSoftware,KiCad,Pcbnew,9.0.2*%
%TF.CreationDate,2025-10-11T19:40:46+02:00*%
%TF.ProjectId,Yet_Another_Business_Card,5965745f-416e-46f7-9468-65725f427573,rev?*%
%TF.SameCoordinates,Original*%
%TF.FileFunction,Profile,NP*%
%FSLAX46Y46*%
G04 Gerber Fmt 4.6, Leading zero omitted, Abs format (unit mm)*
G04 Created by KiCad (PCBNEW 9.0.2) date 2025-10-11 19:40:46*
%MOMM*%
%LPD*%
G01*
G04 APERTURE LIST*
%TA.AperFunction,Profile*%
%ADD10C,0.200000*%
%TD*%
%TA.AperFunction,Profile*%
%ADD11C,0.100000*%
%TD*%
G04 APERTURE END LIST*
D10*
X206200000Y-62300000D02*
X206200000Y-106300000D01*
X121200000Y-62300000D02*
G75*
G02*
X126200000Y-57300000I5000000J0D01*
G01*
X126200000Y-111300000D02*
G75*
G02*
X121200000Y-106300000I0J5000000D01*
G01*
X206200000Y-106300000D02*
G75*
G02*
X201200000Y-111300000I-5000000J0D01*
G01*
X126200000Y-57300000D02*
X201200000Y-57300000D01*
X201200000Y-57300000D02*
G75*
G02*
X206200000Y-62300000I0J-5000000D01*
G01*
X121200000Y-106300000D02*
X121200000Y-62300000D01*
X201200000Y-111300000D02*
X126200000Y-111300000D01*
D11*
%TO.C,BT1*%
X178482756Y-64228305D02*
X179331249Y-63379812D01*
X179703924Y-71999646D02*
X179903544Y-70145919D01*
X179806475Y-73861270D02*
X179703924Y-71999646D01*
X179896934Y-63379812D02*
X180462620Y-63945497D01*
X179903544Y-70145919D02*
X180400089Y-68348810D01*
X179936058Y-66247433D02*
X178482756Y-64793990D01*
X180145997Y-66494545D02*
X179936058Y-66247433D01*
X180208502Y-75681855D02*
X179806475Y-73861270D01*
X180313247Y-66772334D02*
X180145997Y-66494545D01*
X180400089Y-68348810D02*
X180486445Y-68036270D01*
X180433410Y-67073498D02*
X180313247Y-66772334D01*
X180462620Y-63945497D02*
X182845569Y-61562548D01*
X180486445Y-68036270D02*
X180521162Y-67713882D01*
X180503327Y-67390122D02*
X180433410Y-67073498D01*
X180521162Y-67713882D02*
X180503327Y-67390122D01*
X180899437Y-77413549D02*
X180208502Y-75681855D01*
X181861121Y-79010835D02*
X180899437Y-77413549D01*
X182279883Y-60431177D02*
X183128376Y-59582685D01*
X182845569Y-61562548D02*
X182279883Y-60996863D01*
X183068273Y-80431727D02*
X181861121Y-79010835D01*
X183694062Y-59582685D02*
X185147434Y-61036057D01*
X184489166Y-81638880D02*
X183068273Y-80431727D01*
X185147434Y-61036057D02*
X185394546Y-61245996D01*
X185394546Y-61245996D02*
X185672335Y-61413246D01*
X185672335Y-61413246D02*
X185973499Y-61533409D01*
X185973499Y-61533409D02*
X186290123Y-61603326D01*
X186086452Y-82600564D02*
X184489166Y-81638880D01*
X186290123Y-61603326D02*
X186613883Y-61621161D01*
X186613883Y-61621161D02*
X186936271Y-61586444D01*
X186936271Y-61586444D02*
X187248811Y-61500089D01*
X187248811Y-61500089D02*
X189045919Y-61003543D01*
X187818146Y-83291498D02*
X186086452Y-82600564D01*
X189045919Y-61003543D02*
X190899647Y-60803924D01*
X189638731Y-83693525D02*
X187818146Y-83291498D01*
X190899647Y-60803924D02*
X192761271Y-60906475D01*
X191500354Y-83796076D02*
X189638731Y-83693525D01*
X192761271Y-60906475D02*
X194581856Y-61308502D01*
X193354082Y-83596457D02*
X191500354Y-83796076D01*
X194581856Y-61308502D02*
X196313549Y-61999436D01*
X195151190Y-83099911D02*
X193354082Y-83596457D01*
X195463731Y-83013556D02*
X195151190Y-83099911D01*
X195786119Y-82978839D02*
X195463731Y-83013556D01*
X196109879Y-82996674D02*
X195786119Y-82978839D01*
X196313549Y-61999436D02*
X197910836Y-62961120D01*
X196426503Y-83066591D02*
X196109879Y-82996674D01*
X196727667Y-83186754D02*
X196426503Y-83066591D01*
X197005456Y-83354004D02*
X196727667Y-83186754D01*
X197252567Y-83563943D02*
X197005456Y-83354004D01*
X197910836Y-62961120D02*
X199331728Y-64168272D01*
X198707499Y-85015755D02*
X197252567Y-83563943D01*
X199331728Y-64168272D02*
X200538881Y-65589165D01*
X199554503Y-83037380D02*
X200120117Y-83603137D01*
X200121677Y-84167262D02*
X199273184Y-85015755D01*
X200538881Y-65589165D02*
X201500564Y-67186451D01*
X201500564Y-67186451D02*
X202191499Y-68918145D01*
X201878840Y-76886118D02*
X201896674Y-77209878D01*
X201896674Y-77209878D02*
X201966592Y-77526502D01*
X201913557Y-76563730D02*
X201878840Y-76886118D01*
X201937452Y-80654431D02*
X199554503Y-83037380D01*
X201966592Y-77526502D02*
X202086755Y-77827666D01*
X201999912Y-76251190D02*
X201913557Y-76563730D01*
X202086755Y-77827666D02*
X202254004Y-78105455D01*
X202191499Y-68918145D02*
X202593526Y-70738730D01*
X202254004Y-78105455D02*
X202463944Y-78352567D01*
X202463944Y-78352567D02*
X203917315Y-79805938D01*
X202496457Y-74454081D02*
X201999912Y-76251190D01*
X202503137Y-81220117D02*
X201937452Y-80654431D01*
X202593526Y-70738730D02*
X202696077Y-72600354D01*
X202696077Y-72600354D02*
X202496457Y-74454081D01*
X203917315Y-80371624D02*
X203068823Y-81220117D01*
X178482756Y-64793990D02*
G75*
G02*
X178482755Y-64228304I282841J282843D01*
G01*
X179331249Y-63379812D02*
G75*
G02*
X179896933Y-63379812I282842J-282841D01*
G01*
X182279883Y-60996863D02*
G75*
G02*
X182279883Y-60431177I282842J282843D01*
G01*
X183128376Y-59582685D02*
G75*
G02*
X183694062Y-59582685I282843J-282841D01*
G01*
X199273184Y-85015755D02*
G75*
G02*
X198707494Y-85015760I-282847J282838D01*
G01*
X200120117Y-83603137D02*
G75*
G02*
X200120082Y-84168788I-282808J-282808D01*
G01*
X203068823Y-81220117D02*
G75*
G02*
X202503137Y-81220117I-282843J282843D01*
G01*
X203917315Y-79805938D02*
G75*
G02*
X203917315Y-80371624I-282842J-282843D01*
G01*
%TD*%
M02*
