M48
; DRILL file {KiCad 9.0.2} date 2026-03-10T00:08:16+0100
; FORMAT={-:-/ absolute / inch / decimal}
; #@! TF.CreationDate,2026-03-10T00:08:16+01:00
; #@! TF.GenerationSoftware,Kicad,Pcbnew,9.0.2
; #@! TF.FileFunction,Plated,1,2,PTH
FMAT,2
INCH
; #@! TA.AperFunction,Plated,PTH,ViaDrill
T1C0.0118
; #@! TA.AperFunction,Plated,PTH,ComponentDrill
T2C0.0394
%
G90
G05
T1
X5.0849Y-2.6053
X5.0849Y-2.7785
X5.0849Y-2.8651
X5.0849Y-2.9518
X5.0849Y-3.0384
X5.0849Y-3.125
X5.0849Y-3.2116
X5.0849Y-3.2982
X5.0849Y-3.3848
X5.0849Y-3.4714
X5.0849Y-3.5581
X5.0849Y-3.6447
X5.0849Y-3.7313
X5.0849Y-3.8179
X5.0849Y-3.9045
X5.0849Y-3.9911
X5.0849Y-4.0777
X5.1277Y-2.7358
X5.1715Y-2.6053
X5.1715Y-2.6919
X5.1715Y-2.7785
X5.1715Y-2.8651
X5.1715Y-2.9518
X5.1715Y-3.0384
X5.1715Y-3.125
X5.1715Y-3.2116
X5.1715Y-3.2982
X5.1715Y-3.3848
X5.1715Y-3.4714
X5.1715Y-3.5581
X5.1715Y-3.6447
X5.1715Y-3.7313
X5.1715Y-3.8179
X5.1715Y-3.9045
X5.1715Y-3.9911
X5.1715Y-4.0777
X5.2143Y-2.8224
X5.2581Y-2.6053
X5.2581Y-2.6919
X5.2581Y-2.7785
X5.2581Y-2.8651
X5.2581Y-2.9518
X5.2581Y-3.0384
X5.2581Y-3.125
X5.2581Y-3.2116
X5.2581Y-3.2982
X5.2581Y-3.3848
X5.2581Y-3.4714
X5.2581Y-3.5581
X5.2581Y-3.6447
X5.2581Y-3.7313
X5.2581Y-3.8179
X5.2581Y-3.9045
X5.2581Y-3.9911
X5.2581Y-4.0777
X5.3009Y-2.909
X5.3448Y-2.6053
X5.3448Y-2.6919
X5.3448Y-2.7785
X5.3448Y-2.8651
X5.3448Y-2.9518
X5.3448Y-3.0384
X5.3448Y-3.125
X5.3448Y-3.2116
X5.3448Y-3.2982
X5.3448Y-3.3848
X5.3448Y-3.4714
X5.3448Y-3.5581
X5.3448Y-3.6447
X5.3448Y-3.7313
X5.3448Y-3.8179
X5.3448Y-3.9045
X5.3448Y-3.9911
X5.3448Y-4.0777
X5.3875Y-2.9956
X5.4314Y-2.6053
X5.4314Y-2.6919
X5.4314Y-2.7785
X5.4314Y-2.8651
X5.4314Y-2.9518
X5.4314Y-3.0384
X5.4314Y-3.125
X5.4314Y-3.2116
X5.4314Y-3.2982
X5.4314Y-3.3848
X5.4314Y-3.4714
X5.4314Y-3.5581
X5.4314Y-3.6447
X5.4314Y-3.7313
X5.4314Y-3.8179
X5.4314Y-3.9045
X5.4314Y-3.9911
X5.4314Y-4.0777
X5.4741Y-3.0822
X5.518Y-2.6053
X5.518Y-2.6919
X5.518Y-2.7785
X5.518Y-2.8651
X5.518Y-2.9518
X5.518Y-3.0384
X5.518Y-3.125
X5.518Y-3.2116
X5.518Y-3.2982
X5.518Y-3.3848
X5.518Y-3.4714
X5.518Y-3.5581
X5.518Y-3.6447
X5.518Y-3.7313
X5.518Y-3.8179
X5.518Y-3.9045
X5.518Y-3.9911
X5.518Y-4.0777
X5.5608Y-3.1688
X5.6046Y-2.6053
X5.6046Y-2.6919
X5.6046Y-2.7785
X5.6046Y-2.8651
X5.6046Y-2.9518
X5.6046Y-3.0384
X5.6046Y-3.125
X5.6046Y-3.2116
X5.6046Y-3.2982
X5.6046Y-3.3848
X5.6046Y-3.4714
X5.6046Y-3.5581
X5.6046Y-3.6447
X5.6046Y-3.7313
X5.6046Y-3.8179
X5.6046Y-3.9045
X5.6046Y-3.9911
X5.6046Y-4.0777
X5.6474Y-3.2554
X5.6912Y-2.6053
X5.6912Y-2.6919
X5.6912Y-2.7785
X5.6912Y-2.8651
X5.6912Y-2.9518
X5.6912Y-3.0384
X5.6912Y-3.125
X5.6912Y-3.2116
X5.6912Y-3.2982
X5.6912Y-3.3848
X5.6912Y-3.4714
X5.6912Y-3.5581
X5.6912Y-3.6447
X5.6912Y-3.7313
X5.6912Y-3.8179
X5.6912Y-3.9045
X5.6912Y-3.9911
X5.6912Y-4.0777
X5.734Y-3.3421
X5.7778Y-2.6053
X5.7778Y-2.6919
X5.7778Y-2.7785
X5.7778Y-2.8651
X5.7778Y-2.9518
X5.7778Y-3.0384
X5.7778Y-3.125
X5.7778Y-3.2116
X5.7778Y-3.2982
X5.7778Y-3.3848
X5.7778Y-3.4714
X5.7778Y-3.5581
X5.7778Y-3.6447
X5.7778Y-3.7313
X5.7778Y-3.8179
X5.7778Y-3.9045
X5.7778Y-3.9911
X5.7778Y-4.0777
X5.8206Y-3.4287
X5.8644Y-2.6053
X5.8644Y-2.6919
X5.8644Y-2.7785
X5.8644Y-2.8651
X5.8644Y-2.9518
X5.8644Y-3.0384
X5.8644Y-3.125
X5.8644Y-3.2116
X5.8644Y-3.2982
X5.8644Y-3.3848
X5.8644Y-3.4714
X5.8644Y-3.5581
X5.8644Y-3.6447
X5.8644Y-3.7313
X5.8644Y-3.8179
X5.8644Y-3.9045
X5.8644Y-3.9911
X5.8644Y-4.0777
X5.9072Y-3.5153
X5.9511Y-2.6053
X5.9511Y-2.6919
X5.9511Y-2.7785
X5.9511Y-2.8651
X5.9511Y-2.9518
X5.9511Y-3.0384
X5.9511Y-3.125
X5.9511Y-3.2116
X5.9511Y-3.2982
X5.9511Y-3.3848
X5.9511Y-3.4714
X5.9511Y-3.5581
X5.9511Y-3.6447
X5.9511Y-3.7313
X5.9511Y-3.8179
X5.9511Y-3.9045
X5.9511Y-3.9911
X5.9511Y-4.0777
X5.9938Y-3.6019
X6.0377Y-2.6053
X6.0377Y-2.6919
X6.0377Y-2.7785
X6.0377Y-2.8651
X6.0377Y-2.9518
X6.0377Y-3.0384
X6.0377Y-3.125
X6.0377Y-3.2116
X6.0377Y-3.2982
X6.0377Y-3.3848
X6.0377Y-3.4714
X6.0377Y-3.5581
X6.0377Y-3.6447
X6.0377Y-3.7313
X6.0377Y-3.8179
X6.0377Y-3.9045
X6.0377Y-3.9911
X6.0377Y-4.0777
X6.0804Y-3.6885
X6.1243Y-2.6053
X6.1243Y-2.6919
X6.1243Y-2.7785
X6.1243Y-2.8651
X6.1243Y-2.9518
X6.1243Y-3.0384
X6.1243Y-3.125
X6.1243Y-3.2116
X6.1243Y-3.2982
X6.1243Y-3.3848
X6.1243Y-3.4714
X6.1243Y-3.5581
X6.1243Y-3.6447
X6.1243Y-3.7313
X6.1243Y-3.8179
X6.1243Y-3.9045
X6.1243Y-3.9911
X6.1243Y-4.0777
X6.1671Y-3.7751
X6.2109Y-2.6053
X6.2109Y-2.6919
X6.2109Y-2.7785
X6.2109Y-2.8651
X6.2109Y-2.9518
X6.2109Y-3.0384
X6.2109Y-3.125
X6.2109Y-3.2116
X6.2109Y-3.2982
X6.2109Y-3.3848
X6.2109Y-3.4714
X6.2109Y-3.5581
X6.2109Y-3.6447
X6.2109Y-3.7313
X6.2109Y-3.8179
X6.2109Y-3.9045
X6.2109Y-3.9911
X6.2109Y-4.0777
X6.2537Y-3.8617
X6.2975Y-2.6053
X6.2975Y-2.6919
X6.2975Y-2.7785
X6.2975Y-2.8651
X6.2975Y-2.9518
X6.2975Y-3.0384
X6.2975Y-3.125
X6.2975Y-3.2116
X6.2975Y-3.2982
X6.2975Y-3.3848
X6.2975Y-3.4714
X6.2975Y-3.5581
X6.2975Y-3.6447
X6.2975Y-3.7313
X6.2975Y-3.8179
X6.2975Y-3.9045
X6.2975Y-3.9911
X6.2975Y-4.0777
X6.3403Y-3.9484
X6.3841Y-2.6053
X6.3841Y-2.6919
X6.3841Y-2.7785
X6.3841Y-2.8651
X6.3841Y-2.9518
X6.3841Y-3.0384
X6.3841Y-3.125
X6.3841Y-3.2116
X6.3841Y-3.2982
X6.3841Y-3.3848
X6.3841Y-3.4714
X6.3841Y-3.5581
X6.3841Y-3.6447
X6.3841Y-3.7313
X6.3841Y-3.8179
X6.3841Y-3.9045
X6.3841Y-3.9911
X6.3841Y-4.0777
X6.4269Y-4.035
X6.4707Y-2.6053
X6.4707Y-2.6919
X6.4707Y-2.7785
X6.4707Y-2.8651
X6.4707Y-2.9518
X6.4707Y-3.0384
X6.4707Y-3.125
X6.4707Y-3.2116
X6.4707Y-3.2982
X6.4707Y-3.3848
X6.4707Y-3.4714
X6.4707Y-3.5581
X6.4707Y-3.6447
X6.4707Y-3.7313
X6.4707Y-3.8179
X6.4707Y-3.9045
X6.4707Y-3.9911
X6.4707Y-4.0777
X6.5135Y-4.1216
X6.5574Y-2.6053
X6.5574Y-2.6919
X6.5574Y-2.7785
X6.5574Y-2.8651
X6.5574Y-2.9518
X6.5574Y-3.0384
X6.5574Y-3.125
X6.5574Y-3.2116
X6.5574Y-3.2982
X6.5574Y-3.3848
X6.5574Y-3.4714
X6.5574Y-3.5581
X6.5574Y-3.6447
X6.5574Y-3.7313
X6.5574Y-3.8179
X6.5574Y-3.9045
X6.5574Y-3.9911
X6.7402Y-3.3898
X6.7402Y-3.4724
X6.7402Y-3.5591
X6.7402Y-3.6457
X6.7402Y-3.7323
X6.7402Y-3.8189
X6.752Y-2.5354
X6.7598Y-2.6063
X6.7598Y-2.6929
X6.817Y-3.7381
X6.8346Y-3.6496
X6.8543Y-3.8701
X6.8858Y-3.9291
X6.9173Y-3.311
X6.9764Y-3.622
X7.0082Y-3.6221
X7.0433Y-3.622
X7.0443Y-3.378
X7.0483Y-3.7018
X7.0748Y-3.622
X7.0827Y-3.7362
X7.1811Y-3.626
X7.2047Y-3.3543
X7.2057Y-3.6457
X7.2319Y-3.6672
X7.252Y-3.4094
X7.2874Y-3.752
X7.3031Y-3.4528
X7.3268Y-3.752
X7.3622Y-3.7165
X7.4331Y-3.7165
X7.5213Y-3.6276
T2
X7.2081Y-2.5829
X7.2944Y-2.4966
X7.5929Y-3.5257
X7.6929Y-3.5157
X7.7871Y-3.162
X7.7929Y-3.5257
X7.8734Y-3.0757
X7.8929Y-3.5157
X7.9929Y-3.5257
M30
