%TF.GenerationSoftware,KiCad,Pcbnew,9.0.2*%
%TF.CreationDate,2025-10-14T01:01:49+02:00*%
%TF.ProjectId,Yet_Another_Business_Card,5965745f-416e-46f7-9468-65725f427573,rev?*%
%TF.SameCoordinates,Original*%
%TF.FileFunction,Legend,Bot*%
%TF.FilePolarity,Positive*%
%FSLAX46Y46*%
G04 Gerber Fmt 4.6, Leading zero omitted, Abs format (unit mm)*
G04 Created by KiCad (PCBNEW 9.0.2) date 2025-10-14 01:01:49*
%MOMM*%
%LPD*%
G01*
G04 APERTURE LIST*
%ADD10C,0.000000*%
%ADD11R,1.700000X1.700000*%
%ADD12C,1.700000*%
G04 APERTURE END LIST*
D10*
%TO.C,G\u002A\u002A\u002A*%
G36*
X134124168Y-67701666D02*
G01*
X134124168Y-69924166D01*
X131901668Y-69924166D01*
X129679168Y-69924166D01*
X129679168Y-67701666D01*
X129679168Y-65479166D01*
X131901668Y-65479166D01*
X134124168Y-65479166D01*
X134124168Y-67701666D01*
G37*
G36*
X166720834Y-67701666D02*
G01*
X166720834Y-69924166D01*
X164498334Y-69924166D01*
X162275834Y-69924166D01*
X162275834Y-67701666D01*
X162275834Y-65479166D01*
X164498334Y-65479166D01*
X166720834Y-65479166D01*
X166720834Y-67701666D01*
G37*
G36*
X136671425Y-95215263D02*
G01*
X136956027Y-95508988D01*
X137056811Y-95912113D01*
X136894908Y-96325251D01*
X136738125Y-96460588D01*
X136346668Y-96594165D01*
X136243783Y-96587626D01*
X135847470Y-96393030D01*
X135659023Y-96019014D01*
X135707650Y-95588873D01*
X136022553Y-95225901D01*
X136281869Y-95130325D01*
X136671425Y-95215263D01*
G37*
G36*
X166720834Y-100298332D02*
G01*
X166720834Y-102520832D01*
X164498334Y-102520832D01*
X162275834Y-102520832D01*
X162275834Y-100298332D01*
X162275834Y-98075832D01*
X164498334Y-98075832D01*
X166720834Y-98075832D01*
X166720834Y-100298332D01*
G37*
G36*
X151533750Y-62658060D02*
G01*
X151897567Y-62796682D01*
X152275223Y-62657660D01*
X152541463Y-62554062D01*
X152955354Y-62619406D01*
X153256932Y-62901084D01*
X153363720Y-63302882D01*
X153193241Y-63728585D01*
X153013871Y-63882642D01*
X152563891Y-63986369D01*
X152148253Y-63797085D01*
X151935462Y-63698683D01*
X151555586Y-63841637D01*
X151537827Y-63852629D01*
X151161192Y-63992329D01*
X150792917Y-63855273D01*
X150429100Y-63716651D01*
X150051443Y-63855673D01*
X149975332Y-63897996D01*
X149525933Y-63955644D01*
X149175030Y-63720134D01*
X149033437Y-63256666D01*
X149037733Y-63167032D01*
X149221591Y-62736767D01*
X149596432Y-62545241D01*
X150051443Y-62657660D01*
X150415644Y-62796675D01*
X150792917Y-62658060D01*
X151156195Y-62519398D01*
X151533750Y-62658060D01*
G37*
G36*
X157414757Y-62618597D02*
G01*
X157699360Y-62912322D01*
X157800143Y-63315447D01*
X157638241Y-63728585D01*
X157406251Y-63913015D01*
X156949540Y-63973155D01*
X156541759Y-63728585D01*
X156404230Y-63472091D01*
X156433004Y-63011664D01*
X156765886Y-62629236D01*
X157025202Y-62533659D01*
X157414757Y-62618597D01*
G37*
G36*
X139634758Y-64100264D02*
G01*
X139919361Y-64393989D01*
X140020144Y-64797114D01*
X139858242Y-65210252D01*
X139626252Y-65394681D01*
X139169541Y-65454822D01*
X138761760Y-65210252D01*
X138624231Y-64953758D01*
X138653005Y-64493331D01*
X138985887Y-64110902D01*
X139245203Y-64015326D01*
X139634758Y-64100264D01*
G37*
G36*
X142643111Y-62657660D02*
G01*
X142982277Y-62793228D01*
X143360051Y-62673382D01*
X143527915Y-62590299D01*
X143977598Y-62569322D01*
X144316376Y-62801013D01*
X144460107Y-63198134D01*
X144324650Y-63673453D01*
X144198981Y-63961043D01*
X144295420Y-64241585D01*
X144400663Y-64381259D01*
X144479608Y-64835027D01*
X144266487Y-65264014D01*
X143946521Y-65449833D01*
X143542246Y-65416577D01*
X143214872Y-65168840D01*
X143059100Y-64785823D01*
X143169631Y-64346721D01*
X143245331Y-64205950D01*
X143288923Y-63849494D01*
X143072592Y-63705319D01*
X142664947Y-63842036D01*
X142587332Y-63885594D01*
X142124549Y-63955244D01*
X141767913Y-63725395D01*
X141625105Y-63256666D01*
X141629400Y-63167032D01*
X141813259Y-62736767D01*
X142188100Y-62545241D01*
X142643111Y-62657660D01*
G37*
G36*
X146807914Y-62612575D02*
G01*
X147242079Y-62797310D01*
X147427548Y-63178438D01*
X147303705Y-63648279D01*
X147165329Y-63963622D01*
X147258753Y-64241585D01*
X147363997Y-64381259D01*
X147442941Y-64835027D01*
X147229820Y-65264014D01*
X146926115Y-65442662D01*
X146518410Y-65416230D01*
X146182356Y-65175433D01*
X146016484Y-64799724D01*
X146119328Y-64368557D01*
X146258403Y-64003772D01*
X146119328Y-63626443D01*
X146077005Y-63550332D01*
X146019357Y-63100932D01*
X146254867Y-62750029D01*
X146718335Y-62608438D01*
X146807914Y-62612575D01*
G37*
G36*
X145561425Y-65581931D02*
G01*
X145846027Y-65875656D01*
X145946811Y-66278781D01*
X145784908Y-66691918D01*
X145552919Y-66876348D01*
X145096207Y-66936489D01*
X144688427Y-66691918D01*
X144550897Y-66435424D01*
X144579671Y-65974997D01*
X144912553Y-65592569D01*
X145171869Y-65496993D01*
X145561425Y-65581931D01*
G37*
G36*
X154521617Y-64155048D02*
G01*
X154846358Y-64276057D01*
X155238557Y-64139326D01*
X155314668Y-64097004D01*
X155764068Y-64039355D01*
X156114971Y-64274866D01*
X156256563Y-64738333D01*
X156252425Y-64827913D01*
X156067690Y-65262077D01*
X155686562Y-65447547D01*
X155216721Y-65323703D01*
X154956889Y-65216027D01*
X154647457Y-65240611D01*
X154510832Y-65424051D01*
X154645251Y-65701416D01*
X154754325Y-65840666D01*
X154852991Y-66306486D01*
X154638153Y-66745681D01*
X154334447Y-66924328D01*
X153926743Y-66897896D01*
X153590688Y-66657100D01*
X153424817Y-66281391D01*
X153527660Y-65850223D01*
X153663228Y-65511057D01*
X153543382Y-65133284D01*
X153467650Y-64983267D01*
X153438847Y-64530633D01*
X153663911Y-64182715D01*
X154054336Y-64028018D01*
X154521617Y-64155048D01*
G37*
G36*
X139634758Y-67063597D02*
G01*
X139919361Y-67357322D01*
X140020144Y-67760447D01*
X139858242Y-68173585D01*
X139701458Y-68308923D01*
X139310001Y-68442500D01*
X139207116Y-68435960D01*
X138810803Y-68241365D01*
X138622357Y-67867349D01*
X138670983Y-67437207D01*
X138985887Y-67074236D01*
X139245203Y-66978659D01*
X139634758Y-67063597D01*
G37*
G36*
X151252913Y-65575908D02*
G01*
X151687078Y-65760643D01*
X151872547Y-66141771D01*
X151748704Y-66611612D01*
X151610328Y-66926955D01*
X151703753Y-67204919D01*
X151808996Y-67344593D01*
X151887940Y-67798361D01*
X151674819Y-68227347D01*
X151371114Y-68405995D01*
X150963409Y-68379563D01*
X150627355Y-68138766D01*
X150461483Y-67763058D01*
X150564327Y-67331890D01*
X150703402Y-66967105D01*
X150564327Y-66589777D01*
X150522004Y-66513666D01*
X150464356Y-66064266D01*
X150699866Y-65713363D01*
X151163334Y-65571771D01*
X151252913Y-65575908D01*
G37*
G36*
X142362914Y-65575908D02*
G01*
X142797079Y-65760643D01*
X142982548Y-66141771D01*
X142858705Y-66611612D01*
X142785821Y-66746996D01*
X142739694Y-67104152D01*
X142946403Y-67256996D01*
X143338215Y-67132018D01*
X143507839Y-67047052D01*
X143969038Y-67016590D01*
X144315788Y-67241885D01*
X144462766Y-67637613D01*
X144324650Y-68118453D01*
X144198981Y-68406043D01*
X144295420Y-68686585D01*
X144400663Y-68826259D01*
X144479608Y-69280027D01*
X144266487Y-69709014D01*
X143946521Y-69894833D01*
X143542246Y-69861577D01*
X143214872Y-69613840D01*
X143059100Y-69230823D01*
X143169631Y-68791721D01*
X143242514Y-68656338D01*
X143288641Y-68299181D01*
X143081933Y-68146338D01*
X142690120Y-68271315D01*
X142520478Y-68355688D01*
X142062584Y-68383953D01*
X141713391Y-68162451D01*
X141560135Y-67775325D01*
X141690049Y-67306716D01*
X141811059Y-66981976D01*
X141674328Y-66589777D01*
X141632005Y-66513666D01*
X141574357Y-66064266D01*
X141809867Y-65713363D01*
X142273335Y-65571771D01*
X142362914Y-65575908D01*
G37*
G36*
X147043092Y-68545264D02*
G01*
X147327694Y-68838989D01*
X147428478Y-69242114D01*
X147266575Y-69655252D01*
X147109791Y-69790589D01*
X146718335Y-69924166D01*
X146615449Y-69917627D01*
X146219137Y-69723031D01*
X146030690Y-69349015D01*
X146079316Y-68918874D01*
X146394220Y-68555902D01*
X146653536Y-68460326D01*
X147043092Y-68545264D01*
G37*
G36*
X152969757Y-68545264D02*
G01*
X153254360Y-68838989D01*
X153355143Y-69242114D01*
X153193241Y-69655252D01*
X153036457Y-69790589D01*
X152645001Y-69924166D01*
X152542115Y-69917627D01*
X152145803Y-69723031D01*
X151957356Y-69349015D01*
X152005982Y-68918874D01*
X152320886Y-68555902D01*
X152580202Y-68460326D01*
X152969757Y-68545264D01*
G37*
G36*
X155933091Y-68545264D02*
G01*
X156217693Y-68838989D01*
X156318477Y-69242114D01*
X156156574Y-69655252D01*
X155999790Y-69790589D01*
X155608334Y-69924166D01*
X155505448Y-69917627D01*
X155109136Y-69723031D01*
X154920689Y-69349015D01*
X154969315Y-68918874D01*
X155284219Y-68555902D01*
X155543535Y-68460326D01*
X155933091Y-68545264D01*
G37*
G36*
X140881247Y-68539242D02*
G01*
X141315412Y-68723976D01*
X141500881Y-69105104D01*
X141377038Y-69574945D01*
X141238662Y-69890288D01*
X141332087Y-70168252D01*
X141437330Y-70307926D01*
X141516275Y-70761694D01*
X141303154Y-71190681D01*
X140999448Y-71369328D01*
X140591743Y-71342896D01*
X140255689Y-71102100D01*
X140089818Y-70726391D01*
X140192661Y-70295223D01*
X140331737Y-69930439D01*
X140192661Y-69553110D01*
X140150338Y-69476999D01*
X140092690Y-69027599D01*
X140328200Y-68676696D01*
X140791668Y-68535104D01*
X140881247Y-68539242D01*
G37*
G36*
X137087501Y-72887500D02*
G01*
X131901668Y-72887500D01*
X126715835Y-72887500D01*
X126715835Y-67701666D01*
X126715835Y-63997500D01*
X128197501Y-63997500D01*
X128197501Y-67701666D01*
X128197501Y-71405833D01*
X131901668Y-71405833D01*
X135605835Y-71405833D01*
X135605835Y-67701666D01*
X135605835Y-63997500D01*
X131901668Y-63997500D01*
X128197501Y-63997500D01*
X126715835Y-63997500D01*
X126715835Y-62515833D01*
X131901668Y-62515833D01*
X137087501Y-62515833D01*
X137087501Y-67701666D01*
X137087501Y-72887500D01*
G37*
G36*
X139634758Y-71508597D02*
G01*
X139919361Y-71802322D01*
X140020144Y-72205447D01*
X139858242Y-72618585D01*
X139701458Y-72753923D01*
X139310001Y-72887500D01*
X139207116Y-72880960D01*
X138810803Y-72686365D01*
X138622357Y-72312349D01*
X138670983Y-71882207D01*
X138985887Y-71519236D01*
X139245203Y-71423659D01*
X139634758Y-71508597D01*
G37*
G36*
X169684167Y-72887500D02*
G01*
X164498334Y-72887500D01*
X159312500Y-72887500D01*
X159312500Y-67701666D01*
X159312500Y-63997500D01*
X160794167Y-63997500D01*
X160794167Y-67701666D01*
X160794167Y-71405833D01*
X164498334Y-71405833D01*
X168202500Y-71405833D01*
X168202500Y-67701666D01*
X168202500Y-63997500D01*
X164498334Y-63997500D01*
X160794167Y-63997500D01*
X159312500Y-63997500D01*
X159312500Y-62515833D01*
X164498334Y-62515833D01*
X169684167Y-62515833D01*
X169684167Y-67701666D01*
X169684167Y-72887500D01*
G37*
G36*
X157179580Y-71502575D02*
G01*
X157613744Y-71687310D01*
X157799214Y-72068438D01*
X157675370Y-72538279D01*
X157536995Y-72853622D01*
X157630419Y-73131585D01*
X157735662Y-73271259D01*
X157814607Y-73725027D01*
X157601486Y-74154014D01*
X157297781Y-74332662D01*
X156890076Y-74306230D01*
X156554022Y-74065433D01*
X156388150Y-73689724D01*
X156490994Y-73258557D01*
X156630069Y-72893772D01*
X156490994Y-72516443D01*
X156448671Y-72440332D01*
X156391022Y-71990932D01*
X156626533Y-71640029D01*
X157090001Y-71498438D01*
X157179580Y-71502575D01*
G37*
G36*
X136671425Y-74471931D02*
G01*
X136956027Y-74765656D01*
X137056811Y-75168781D01*
X136894908Y-75581918D01*
X136738125Y-75717256D01*
X136346668Y-75850833D01*
X136243783Y-75844294D01*
X135847470Y-75649698D01*
X135659023Y-75275682D01*
X135707650Y-74845540D01*
X136022553Y-74482569D01*
X136281869Y-74386993D01*
X136671425Y-74471931D01*
G37*
G36*
X150052084Y-70066393D02*
G01*
X150390329Y-70201595D01*
X150768383Y-70081715D01*
X150918399Y-70005983D01*
X151371033Y-69977180D01*
X151718952Y-70202244D01*
X151873649Y-70592670D01*
X151746618Y-71059950D01*
X151625609Y-71384690D01*
X151762340Y-71776890D01*
X151804663Y-71853001D01*
X151862312Y-72302401D01*
X151626801Y-72653303D01*
X151163334Y-72794896D01*
X151073754Y-72790757D01*
X150639589Y-72606023D01*
X150454120Y-72224896D01*
X150577964Y-71755054D01*
X150653588Y-71614429D01*
X150697251Y-71257947D01*
X150481164Y-71113550D01*
X150073919Y-71249970D01*
X150017937Y-71283998D01*
X149661214Y-71401795D01*
X149289415Y-71249970D01*
X149149572Y-71174725D01*
X148793073Y-71130959D01*
X148648605Y-71347122D01*
X148784970Y-71754414D01*
X148818998Y-71810396D01*
X148936795Y-72167120D01*
X148784970Y-72538919D01*
X148712461Y-72673536D01*
X148666241Y-73030694D01*
X148873027Y-73183604D01*
X149264881Y-73058684D01*
X149434505Y-72973718D01*
X149895704Y-72943257D01*
X150242454Y-73168552D01*
X150389432Y-73564280D01*
X150251316Y-74045119D01*
X150125647Y-74332709D01*
X150222086Y-74613252D01*
X150327329Y-74752926D01*
X150406274Y-75206694D01*
X150193153Y-75635681D01*
X149873187Y-75821499D01*
X149468912Y-75788243D01*
X149141538Y-75540507D01*
X148985766Y-75157490D01*
X149096297Y-74718387D01*
X149171921Y-74577762D01*
X149215584Y-74221281D01*
X148999498Y-74076883D01*
X148592253Y-74213304D01*
X148536270Y-74247331D01*
X148179548Y-74365128D01*
X147807749Y-74213304D01*
X147667203Y-74137734D01*
X147311065Y-74094371D01*
X147167035Y-74310833D01*
X147303705Y-74718387D01*
X147347262Y-74796003D01*
X147416912Y-75258786D01*
X147187064Y-75615421D01*
X146718335Y-75758229D01*
X146628755Y-75754091D01*
X146194590Y-75569357D01*
X146009121Y-75188229D01*
X146132964Y-74718387D01*
X146208589Y-74577762D01*
X146252252Y-74221281D01*
X146036165Y-74076883D01*
X145628920Y-74213304D01*
X145572938Y-74247331D01*
X145216215Y-74365128D01*
X144844416Y-74213304D01*
X144703869Y-74137734D01*
X144347731Y-74094371D01*
X144203701Y-74310833D01*
X144340371Y-74718387D01*
X144383928Y-74796003D01*
X144453578Y-75258786D01*
X144223730Y-75615421D01*
X143755001Y-75758229D01*
X143665422Y-75754091D01*
X143231257Y-75569357D01*
X143045787Y-75188229D01*
X143169631Y-74718387D01*
X143242514Y-74583004D01*
X143288641Y-74225848D01*
X143081933Y-74073004D01*
X142690120Y-74197982D01*
X142520478Y-74282355D01*
X142062584Y-74310619D01*
X141713391Y-74089118D01*
X141560135Y-73701991D01*
X141690049Y-73233383D01*
X141811059Y-72908642D01*
X141674328Y-72516443D01*
X141632005Y-72440332D01*
X141574357Y-71990932D01*
X141809867Y-71640029D01*
X142273335Y-71498438D01*
X142362914Y-71502575D01*
X142797079Y-71687310D01*
X142982548Y-72068438D01*
X142858705Y-72538279D01*
X142783080Y-72678904D01*
X142739417Y-73035386D01*
X142955503Y-73179783D01*
X143362749Y-73043363D01*
X143418731Y-73009335D01*
X143775454Y-72891538D01*
X144147253Y-73043363D01*
X144287096Y-73118607D01*
X144643595Y-73162374D01*
X144788063Y-72946211D01*
X144651697Y-72538919D01*
X144640705Y-72521160D01*
X144501005Y-72144524D01*
X144638061Y-71776250D01*
X144776683Y-71412433D01*
X144637661Y-71034777D01*
X144595338Y-70958666D01*
X144537690Y-70509266D01*
X144773200Y-70158363D01*
X145236668Y-70016771D01*
X145326303Y-70021065D01*
X145756568Y-70204924D01*
X145948093Y-70579765D01*
X145835674Y-71034777D01*
X145696660Y-71398977D01*
X145835275Y-71776250D01*
X145845649Y-71793029D01*
X145972099Y-72157463D01*
X145821638Y-72538919D01*
X145746394Y-72678761D01*
X145702627Y-73035260D01*
X145918790Y-73179728D01*
X146326082Y-73043363D01*
X146382064Y-73009335D01*
X146738787Y-72891538D01*
X147110587Y-73043363D01*
X147250429Y-73118607D01*
X147606929Y-73162374D01*
X147751397Y-72946211D01*
X147615031Y-72538919D01*
X147604038Y-72521160D01*
X147464339Y-72144524D01*
X147601394Y-71776250D01*
X147736597Y-71438005D01*
X147616716Y-71059950D01*
X147540984Y-70909934D01*
X147512181Y-70457300D01*
X147737245Y-70109382D01*
X148127671Y-69954685D01*
X148594950Y-70081715D01*
X148919143Y-70202747D01*
X149311250Y-70066393D01*
X149674529Y-69927731D01*
X150052084Y-70066393D01*
G37*
G36*
X160378091Y-74471931D02*
G01*
X160662693Y-74765656D01*
X160763477Y-75168781D01*
X160601574Y-75581918D01*
X160444790Y-75717256D01*
X160053334Y-75850833D01*
X159950448Y-75844294D01*
X159554136Y-75649698D01*
X159365689Y-75275682D01*
X159414315Y-74845540D01*
X159729219Y-74482569D01*
X159988535Y-74386993D01*
X160378091Y-74471931D01*
G37*
G36*
X163386443Y-74510993D02*
G01*
X163751228Y-74650069D01*
X164128557Y-74510993D01*
X164394796Y-74407395D01*
X164808687Y-74472739D01*
X165110265Y-74754417D01*
X165217053Y-75156215D01*
X165046574Y-75581918D01*
X164867204Y-75735975D01*
X164417224Y-75839703D01*
X164001586Y-75650419D01*
X163788450Y-75552083D01*
X163408279Y-75695370D01*
X163330664Y-75738927D01*
X162867881Y-75808577D01*
X162511245Y-75578729D01*
X162368437Y-75109999D01*
X162372733Y-75020365D01*
X162556591Y-74590100D01*
X162931432Y-74398575D01*
X163386443Y-74510993D01*
G37*
G36*
X167831443Y-74510993D02*
G01*
X168196228Y-74650069D01*
X168573557Y-74510993D01*
X168839796Y-74407395D01*
X169253687Y-74472739D01*
X169555265Y-74754417D01*
X169662053Y-75156215D01*
X169491574Y-75581918D01*
X169312204Y-75735975D01*
X168862224Y-75839703D01*
X168446586Y-75650419D01*
X168233450Y-75552083D01*
X167853279Y-75695370D01*
X167775664Y-75738927D01*
X167312881Y-75808577D01*
X166956245Y-75578729D01*
X166813438Y-75109999D01*
X166817733Y-75020365D01*
X167001591Y-74590100D01*
X167376432Y-74398575D01*
X167831443Y-74510993D01*
G37*
G36*
X127546247Y-74465908D02*
G01*
X127980412Y-74650643D01*
X128165881Y-75031771D01*
X128042038Y-75501612D01*
X127903662Y-75816955D01*
X127997087Y-76094919D01*
X128102330Y-76234593D01*
X128181275Y-76688361D01*
X127968154Y-77117347D01*
X127664448Y-77295995D01*
X127256743Y-77269563D01*
X126920689Y-77028766D01*
X126754818Y-76653058D01*
X126857661Y-76221890D01*
X126996737Y-75857105D01*
X126857661Y-75479777D01*
X126815338Y-75403666D01*
X126757690Y-74954266D01*
X126993200Y-74603363D01*
X127456668Y-74461771D01*
X127546247Y-74465908D01*
G37*
G36*
X151488091Y-75953597D02*
G01*
X151772693Y-76247322D01*
X151873477Y-76650447D01*
X151711574Y-77063585D01*
X151554790Y-77198923D01*
X151163334Y-77332499D01*
X151060448Y-77325960D01*
X150664136Y-77131365D01*
X150475689Y-76757349D01*
X150524315Y-76327207D01*
X150839219Y-75964236D01*
X151098535Y-75868659D01*
X151488091Y-75953597D01*
G37*
G36*
X154592908Y-74512360D02*
G01*
X154799694Y-74665271D01*
X155191547Y-74540351D01*
X155361171Y-74455385D01*
X155822371Y-74424923D01*
X156169120Y-74650218D01*
X156316099Y-75045946D01*
X156177982Y-75526786D01*
X156052313Y-75814376D01*
X156148753Y-76094919D01*
X156253996Y-76234593D01*
X156332940Y-76688361D01*
X156119819Y-77117347D01*
X155799854Y-77303166D01*
X155395579Y-77269910D01*
X155068205Y-77022174D01*
X154912433Y-76639156D01*
X155022964Y-76200054D01*
X155098588Y-76059429D01*
X155142251Y-75702947D01*
X154926164Y-75558550D01*
X154518919Y-75694970D01*
X154501160Y-75705963D01*
X154124525Y-75845662D01*
X153756251Y-75708607D01*
X153418005Y-75573404D01*
X153039950Y-75693285D01*
X152889934Y-75769017D01*
X152437301Y-75797819D01*
X152089383Y-75572755D01*
X151934685Y-75182330D01*
X152061715Y-74715050D01*
X152182884Y-74412456D01*
X152134103Y-74255781D01*
X153076412Y-74255781D01*
X153098048Y-74538237D01*
X153148296Y-74604671D01*
X153385834Y-74739583D01*
X153560555Y-74680995D01*
X153695640Y-74422833D01*
X153591946Y-74130779D01*
X153541141Y-74089160D01*
X153272366Y-74066278D01*
X153076412Y-74255781D01*
X152134103Y-74255781D01*
X152061715Y-74023284D01*
X151978633Y-73855420D01*
X151957656Y-73405736D01*
X152189347Y-73066958D01*
X152586469Y-72923227D01*
X153061786Y-73058684D01*
X153193509Y-73129172D01*
X153537470Y-73163861D01*
X153676180Y-72942582D01*
X153541696Y-72538919D01*
X153530704Y-72521160D01*
X153391004Y-72144524D01*
X153528060Y-71776250D01*
X153666682Y-71412433D01*
X153527660Y-71034777D01*
X153485337Y-70958666D01*
X153427689Y-70509266D01*
X153663200Y-70158363D01*
X154126667Y-70016771D01*
X154216302Y-70021065D01*
X154646567Y-70204924D01*
X154838092Y-70579765D01*
X154725674Y-71034777D01*
X154586659Y-71398977D01*
X154725274Y-71776250D01*
X154863935Y-72139528D01*
X154725274Y-72517083D01*
X154586612Y-72880362D01*
X154725274Y-73257916D01*
X154735649Y-73274695D01*
X154862098Y-73639130D01*
X154711637Y-74020585D01*
X154639127Y-74155203D01*
X154604494Y-74422833D01*
X154592908Y-74512360D01*
G37*
G36*
X166304757Y-75953597D02*
G01*
X166589360Y-76247322D01*
X166690143Y-76650447D01*
X166528241Y-77063585D01*
X166371457Y-77198923D01*
X165980001Y-77332499D01*
X165877115Y-77325960D01*
X165480803Y-77131365D01*
X165292356Y-76757349D01*
X165340982Y-76327207D01*
X165655886Y-75964236D01*
X165915202Y-75868659D01*
X166304757Y-75953597D01*
G37*
G36*
X150006424Y-77435264D02*
G01*
X150291027Y-77728989D01*
X150391810Y-78132114D01*
X150229907Y-78545252D01*
X150073124Y-78680589D01*
X149681667Y-78814166D01*
X149578782Y-78807627D01*
X149182469Y-78613031D01*
X148994022Y-78239015D01*
X149042649Y-77808874D01*
X149357552Y-77445902D01*
X149616868Y-77350326D01*
X150006424Y-77435264D01*
G37*
G36*
X157414757Y-77435264D02*
G01*
X157699360Y-77728989D01*
X157800143Y-78132114D01*
X157638241Y-78545252D01*
X157481457Y-78680589D01*
X157090001Y-78814166D01*
X156987115Y-78807627D01*
X156590803Y-78613031D01*
X156402356Y-78239015D01*
X156450982Y-77808874D01*
X156765886Y-77445902D01*
X157025202Y-77350326D01*
X157414757Y-77435264D01*
G37*
G36*
X129263092Y-78916931D02*
G01*
X129547694Y-79210656D01*
X129648478Y-79613781D01*
X129486575Y-80026918D01*
X129329791Y-80162256D01*
X128938335Y-80295833D01*
X128835449Y-80289294D01*
X128439137Y-80094698D01*
X128250690Y-79720682D01*
X128299316Y-79290540D01*
X128614220Y-78927569D01*
X128873536Y-78831993D01*
X129263092Y-78916931D01*
G37*
G36*
X127781425Y-80398597D02*
G01*
X128066027Y-80692322D01*
X128166811Y-81095447D01*
X128004908Y-81508585D01*
X127848125Y-81643923D01*
X127456668Y-81777500D01*
X127353783Y-81770960D01*
X126957470Y-81576365D01*
X126769023Y-81202349D01*
X126817650Y-80772207D01*
X127132553Y-80409236D01*
X127391869Y-80313659D01*
X127781425Y-80398597D01*
G37*
G36*
X158941443Y-80437660D02*
G01*
X159306228Y-80576736D01*
X159683557Y-80437660D01*
X159949796Y-80334062D01*
X160363687Y-80399406D01*
X160665265Y-80681084D01*
X160772053Y-81082882D01*
X160601574Y-81508585D01*
X160422204Y-81662642D01*
X159972224Y-81766369D01*
X159556586Y-81577085D01*
X159343450Y-81478750D01*
X158963279Y-81622036D01*
X158885664Y-81665594D01*
X158422881Y-81735244D01*
X158066245Y-81505395D01*
X157923438Y-81036666D01*
X157927733Y-80947032D01*
X158111591Y-80516767D01*
X158486432Y-80325241D01*
X158941443Y-80437660D01*
G37*
G36*
X150006424Y-81880264D02*
G01*
X150291027Y-82173989D01*
X150391810Y-82577114D01*
X150229907Y-82990252D01*
X150073124Y-83125589D01*
X149681667Y-83259166D01*
X149578782Y-83252627D01*
X149182469Y-83058031D01*
X148994022Y-82684015D01*
X149042649Y-82253874D01*
X149357552Y-81890902D01*
X149616868Y-81795326D01*
X150006424Y-81880264D01*
G37*
G36*
X154588121Y-78952500D02*
G01*
X154798026Y-79107982D01*
X155191547Y-78985351D01*
X155361190Y-78900978D01*
X155819083Y-78872714D01*
X156168276Y-79094215D01*
X156321534Y-79481341D01*
X156191618Y-79949950D01*
X156070586Y-80274142D01*
X156206940Y-80666250D01*
X156217315Y-80683029D01*
X156343765Y-81047463D01*
X156193304Y-81428919D01*
X156055254Y-81743556D01*
X156148753Y-82021585D01*
X156253996Y-82161259D01*
X156332940Y-82615027D01*
X156119819Y-83044014D01*
X155816114Y-83222662D01*
X155408409Y-83196230D01*
X155072355Y-82955433D01*
X154906483Y-82579724D01*
X155009327Y-82148557D01*
X155148341Y-81784356D01*
X155009727Y-81407083D01*
X154999352Y-81390304D01*
X154872902Y-81025870D01*
X155023363Y-80644414D01*
X155098608Y-80504572D01*
X155142374Y-80148072D01*
X154926211Y-80003604D01*
X154518919Y-80139970D01*
X154462937Y-80173998D01*
X154106214Y-80291795D01*
X153734415Y-80139970D01*
X153599797Y-80067460D01*
X153242640Y-80021241D01*
X153089729Y-80228027D01*
X153128453Y-80349499D01*
X153214649Y-80619881D01*
X153299022Y-80789523D01*
X153327286Y-81247417D01*
X153105785Y-81596610D01*
X152718659Y-81749866D01*
X152250050Y-81619952D01*
X151947456Y-81498783D01*
X151558284Y-81619952D01*
X151408267Y-81695683D01*
X150955634Y-81724486D01*
X150607716Y-81499422D01*
X150453018Y-81108997D01*
X150580048Y-80641716D01*
X150701217Y-80339122D01*
X150652436Y-80182447D01*
X151594745Y-80182447D01*
X151616381Y-80464904D01*
X151666630Y-80531338D01*
X151904167Y-80666250D01*
X152078888Y-80607662D01*
X152213974Y-80349499D01*
X152110279Y-80057445D01*
X152059474Y-80015826D01*
X151790700Y-79992944D01*
X151594745Y-80182447D01*
X150652436Y-80182447D01*
X150580048Y-79949950D01*
X150496967Y-79782086D01*
X150475990Y-79332403D01*
X150707680Y-78993625D01*
X151104802Y-78849894D01*
X151580119Y-78985351D01*
X151685374Y-79043362D01*
X152042501Y-79093545D01*
X152197982Y-78883641D01*
X152140999Y-78700781D01*
X153076412Y-78700781D01*
X153098048Y-78983237D01*
X153148296Y-79049671D01*
X153385834Y-79184583D01*
X153560555Y-79125995D01*
X153695640Y-78867833D01*
X153591946Y-78575779D01*
X153541141Y-78534160D01*
X153272366Y-78511278D01*
X153076412Y-78700781D01*
X152140999Y-78700781D01*
X152075352Y-78490119D01*
X151990978Y-78320477D01*
X151962714Y-77862583D01*
X152184216Y-77513390D01*
X152571342Y-77360133D01*
X153039950Y-77490048D01*
X153342544Y-77611216D01*
X153731716Y-77490048D01*
X153899580Y-77406966D01*
X154349264Y-77385989D01*
X154688042Y-77617679D01*
X154831773Y-78014801D01*
X154696316Y-78490119D01*
X154638304Y-78595374D01*
X154600019Y-78867833D01*
X154588121Y-78952500D01*
G37*
G36*
X165081618Y-79160050D02*
G01*
X165164701Y-79327914D01*
X165185678Y-79777597D01*
X164953987Y-80116374D01*
X164556866Y-80260105D01*
X164081547Y-80124648D01*
X163949825Y-80054161D01*
X163605863Y-80019473D01*
X163467155Y-80240750D01*
X163601637Y-80644414D01*
X163635665Y-80700396D01*
X163753462Y-81057120D01*
X163601637Y-81428919D01*
X163463587Y-81743556D01*
X163557086Y-82021585D01*
X163660259Y-82157991D01*
X163742407Y-82611208D01*
X163535250Y-83036916D01*
X163394279Y-83146055D01*
X162937108Y-83247782D01*
X162519919Y-83058752D01*
X162306783Y-82960416D01*
X161926613Y-83103703D01*
X161848997Y-83147261D01*
X161386214Y-83216911D01*
X161029579Y-82987062D01*
X160886771Y-82518333D01*
X160890909Y-82428754D01*
X161075643Y-81994589D01*
X161456771Y-81809120D01*
X161926613Y-81932963D01*
X162067238Y-82008588D01*
X162423719Y-82052251D01*
X162568117Y-81836164D01*
X162431696Y-81428919D01*
X162420704Y-81411160D01*
X162281004Y-81034524D01*
X162418060Y-80666250D01*
X162556721Y-80302971D01*
X162418060Y-79925416D01*
X162407686Y-79908637D01*
X162281236Y-79544203D01*
X162431696Y-79162747D01*
X162506941Y-79022905D01*
X162546488Y-78700781D01*
X163448078Y-78700781D01*
X163469714Y-78983237D01*
X163519963Y-79049671D01*
X163757500Y-79184583D01*
X163932222Y-79125995D01*
X164067307Y-78867833D01*
X163963613Y-78575779D01*
X163912808Y-78534160D01*
X163644033Y-78511278D01*
X163448078Y-78700781D01*
X162546488Y-78700781D01*
X162550708Y-78666405D01*
X162334544Y-78521938D01*
X161927253Y-78658304D01*
X161909494Y-78669296D01*
X161532858Y-78808996D01*
X161164584Y-78671940D01*
X160800766Y-78533318D01*
X160423110Y-78672340D01*
X160346999Y-78714663D01*
X159897599Y-78772311D01*
X159546697Y-78536800D01*
X159405104Y-78073333D01*
X159409243Y-77983754D01*
X159593977Y-77549589D01*
X159975104Y-77364120D01*
X160444946Y-77487963D01*
X160585717Y-77563663D01*
X160942173Y-77607255D01*
X161086348Y-77390924D01*
X160949630Y-76983279D01*
X160906073Y-76905664D01*
X160836423Y-76442881D01*
X161066271Y-76086245D01*
X161535000Y-75943437D01*
X161624580Y-75947575D01*
X162058744Y-76132310D01*
X162244214Y-76513438D01*
X162120370Y-76983279D01*
X162044746Y-77123904D01*
X162001082Y-77480386D01*
X162217169Y-77624783D01*
X162624415Y-77488363D01*
X162642173Y-77477371D01*
X163018809Y-77337670D01*
X163387084Y-77474726D01*
X163725329Y-77609929D01*
X164103383Y-77490048D01*
X164253399Y-77414316D01*
X164706033Y-77385513D01*
X165053952Y-77610577D01*
X165208649Y-78001003D01*
X165081618Y-78468284D01*
X164960451Y-78770878D01*
X164990637Y-78867833D01*
X165081618Y-79160050D01*
G37*
G36*
X167856617Y-77490048D02*
G01*
X168181358Y-77611057D01*
X168573557Y-77474326D01*
X168649668Y-77432004D01*
X169099068Y-77374355D01*
X169449971Y-77609866D01*
X169591562Y-78073333D01*
X169587425Y-78162913D01*
X169402690Y-78597077D01*
X169021562Y-78782547D01*
X168551721Y-78658703D01*
X168411096Y-78583079D01*
X168054614Y-78539416D01*
X167910217Y-78755502D01*
X168046637Y-79162747D01*
X168057629Y-79180506D01*
X168197330Y-79557142D01*
X168060274Y-79925416D01*
X167925071Y-80263661D01*
X168044952Y-80641716D01*
X168128034Y-80809580D01*
X168149011Y-81259264D01*
X167917321Y-81598041D01*
X167520199Y-81741772D01*
X167044881Y-81606315D01*
X166815373Y-81509721D01*
X166507371Y-81534640D01*
X166368258Y-81722121D01*
X166498584Y-81999749D01*
X166607658Y-82138999D01*
X166706324Y-82604820D01*
X166491486Y-83044014D01*
X166187781Y-83222662D01*
X165780076Y-83196230D01*
X165444022Y-82955433D01*
X165278150Y-82579724D01*
X165380994Y-82148557D01*
X165516561Y-81809391D01*
X165396715Y-81431617D01*
X165313633Y-81263753D01*
X165292656Y-80814070D01*
X165524347Y-80475292D01*
X165921469Y-80331561D01*
X166396786Y-80467018D01*
X166528509Y-80537505D01*
X166872470Y-80572194D01*
X167011180Y-80350916D01*
X166876696Y-79947252D01*
X166865704Y-79929493D01*
X166726004Y-79552857D01*
X166863060Y-79184583D01*
X166998263Y-78846338D01*
X166878382Y-78468284D01*
X166802650Y-78318267D01*
X166773847Y-77865633D01*
X166998911Y-77517715D01*
X167389336Y-77363018D01*
X167856617Y-77490048D01*
G37*
G36*
X169268091Y-81880264D02*
G01*
X169552693Y-82173989D01*
X169653477Y-82577114D01*
X169491574Y-82990252D01*
X169334790Y-83125589D01*
X168943334Y-83259166D01*
X168840448Y-83252627D01*
X168444136Y-83058031D01*
X168255689Y-82684015D01*
X168304315Y-82253874D01*
X168619219Y-81890902D01*
X168878535Y-81795326D01*
X169268091Y-81880264D01*
G37*
G36*
X160378091Y-83361931D02*
G01*
X160662693Y-83655656D01*
X160763477Y-84058780D01*
X160601574Y-84471917D01*
X160444790Y-84607255D01*
X160053334Y-84740832D01*
X159950448Y-84734293D01*
X159554136Y-84539697D01*
X159365689Y-84165681D01*
X159414315Y-83735540D01*
X159729219Y-83372569D01*
X159988535Y-83276993D01*
X160378091Y-83361931D01*
G37*
G36*
X136929953Y-83605050D02*
G01*
X137013035Y-83772914D01*
X137034012Y-84222596D01*
X136802321Y-84561373D01*
X136405200Y-84705104D01*
X135929882Y-84569647D01*
X135700374Y-84473054D01*
X135392372Y-84497972D01*
X135253259Y-84685454D01*
X135383585Y-84963082D01*
X135482271Y-85092779D01*
X135605835Y-85481665D01*
X135582576Y-85636505D01*
X135383585Y-86000249D01*
X135242613Y-86109388D01*
X134785442Y-86211114D01*
X134368253Y-86022084D01*
X134155117Y-85923749D01*
X133774947Y-86067036D01*
X133697332Y-86110593D01*
X133234549Y-86180243D01*
X132877913Y-85950395D01*
X132735105Y-85481665D01*
X132739244Y-85392086D01*
X132923978Y-84957921D01*
X133305105Y-84772452D01*
X133774947Y-84896295D01*
X133915572Y-84971920D01*
X134272054Y-85015583D01*
X134416451Y-84799497D01*
X134280031Y-84392251D01*
X134246003Y-84336269D01*
X134128206Y-83979547D01*
X134280031Y-83607747D01*
X134355600Y-83467201D01*
X134394736Y-83145781D01*
X135296413Y-83145781D01*
X135318048Y-83428237D01*
X135368297Y-83494671D01*
X135605835Y-83629583D01*
X135780556Y-83570995D01*
X135915641Y-83312833D01*
X135811947Y-83020779D01*
X135761142Y-82979160D01*
X135492367Y-82956278D01*
X135296413Y-83145781D01*
X134394736Y-83145781D01*
X134398963Y-83111064D01*
X134182501Y-82967034D01*
X133774947Y-83103703D01*
X133697332Y-83147261D01*
X133234549Y-83216911D01*
X132877913Y-82987062D01*
X132735105Y-82518333D01*
X132739400Y-82428698D01*
X132923259Y-81998433D01*
X133298100Y-81806908D01*
X133753111Y-81919326D01*
X134117312Y-82058341D01*
X134494585Y-81919726D01*
X134857863Y-81781065D01*
X135235418Y-81919726D01*
X135573663Y-82054929D01*
X135951717Y-81935048D01*
X136101734Y-81859316D01*
X136554367Y-81830513D01*
X136902286Y-82055577D01*
X137056983Y-82446003D01*
X136929953Y-82913284D01*
X136808785Y-83215878D01*
X136838971Y-83312833D01*
X136929953Y-83605050D01*
G37*
G36*
X139776242Y-77475694D02*
G01*
X139983028Y-77628604D01*
X140374882Y-77503684D01*
X140544506Y-77418718D01*
X141005705Y-77388257D01*
X141352455Y-77613552D01*
X141499433Y-78009280D01*
X141361316Y-78490119D01*
X141290522Y-78622515D01*
X141266038Y-78867833D01*
X141256227Y-78966133D01*
X141477796Y-79104414D01*
X141881722Y-78969630D01*
X141959337Y-78926073D01*
X142422120Y-78856423D01*
X142778756Y-79086271D01*
X142921563Y-79555000D01*
X142917426Y-79644579D01*
X142732691Y-80078744D01*
X142351563Y-80264214D01*
X141881722Y-80140370D01*
X141741097Y-80064746D01*
X141384615Y-80021082D01*
X141240218Y-80237169D01*
X141277846Y-80349499D01*
X141376638Y-80644414D01*
X141387630Y-80662173D01*
X141527331Y-81038808D01*
X141390275Y-81407083D01*
X141251613Y-81770362D01*
X141390275Y-82147916D01*
X141400649Y-82164695D01*
X141527099Y-82529130D01*
X141376638Y-82910585D01*
X141301394Y-83050428D01*
X141257627Y-83406927D01*
X141473790Y-83551395D01*
X141881082Y-83415030D01*
X141898841Y-83404037D01*
X142275477Y-83264337D01*
X142643751Y-83401393D01*
X142981996Y-83536595D01*
X143360051Y-83416715D01*
X143527915Y-83333633D01*
X143977598Y-83312655D01*
X144316376Y-83544346D01*
X144460107Y-83941468D01*
X144324650Y-84416785D01*
X144198981Y-84704375D01*
X144229961Y-84794499D01*
X144295420Y-84984918D01*
X144398593Y-85121323D01*
X144480742Y-85574541D01*
X144273585Y-86000249D01*
X144132613Y-86109388D01*
X143675442Y-86211114D01*
X143258253Y-86022084D01*
X143045463Y-85923682D01*
X142665587Y-86066636D01*
X142647828Y-86077628D01*
X142271193Y-86217328D01*
X141902918Y-86080273D01*
X141564673Y-85945070D01*
X141186618Y-86064951D01*
X141036602Y-86140683D01*
X140583969Y-86169485D01*
X140236050Y-85944421D01*
X140081352Y-85553996D01*
X140208383Y-85086715D01*
X140329416Y-84762523D01*
X140282443Y-84627446D01*
X141223079Y-84627446D01*
X141244715Y-84909903D01*
X141294964Y-84976337D01*
X141532501Y-85111249D01*
X141707223Y-85052661D01*
X141842308Y-84794499D01*
X141782996Y-84627446D01*
X142704746Y-84627446D01*
X142717542Y-84794499D01*
X142726382Y-84909903D01*
X142776631Y-84976337D01*
X143014168Y-85111249D01*
X143188889Y-85052661D01*
X143323975Y-84794499D01*
X143220280Y-84502445D01*
X143169475Y-84460825D01*
X142900700Y-84437943D01*
X142704746Y-84627446D01*
X141782996Y-84627446D01*
X141738614Y-84502445D01*
X141687809Y-84460825D01*
X141419034Y-84437943D01*
X141223079Y-84627446D01*
X140282443Y-84627446D01*
X140193061Y-84370415D01*
X140054400Y-84007137D01*
X140193061Y-83629583D01*
X140331722Y-83266305D01*
X140193061Y-82888750D01*
X140182687Y-82871970D01*
X140056236Y-82507536D01*
X140206697Y-82126081D01*
X140279207Y-81991464D01*
X140325427Y-81634306D01*
X140118640Y-81481396D01*
X139726787Y-81606315D01*
X139557144Y-81690688D01*
X139099251Y-81718953D01*
X138750058Y-81497451D01*
X138596801Y-81110325D01*
X138726716Y-80641716D01*
X138847749Y-80317524D01*
X138800776Y-80182447D01*
X139741413Y-80182447D01*
X139763048Y-80464904D01*
X139813297Y-80531338D01*
X140050835Y-80666250D01*
X140225556Y-80607662D01*
X140360641Y-80349499D01*
X140256947Y-80057445D01*
X140206142Y-80015826D01*
X139937367Y-79992944D01*
X139741413Y-80182447D01*
X138800776Y-80182447D01*
X138711394Y-79925416D01*
X138701020Y-79908637D01*
X138574570Y-79544203D01*
X138725031Y-79162747D01*
X138797541Y-79028130D01*
X138839902Y-78700781D01*
X139741413Y-78700781D01*
X139763048Y-78983237D01*
X139813297Y-79049671D01*
X140050835Y-79184583D01*
X140225556Y-79125995D01*
X140360641Y-78867833D01*
X140256947Y-78575779D01*
X140206142Y-78534160D01*
X139937367Y-78511278D01*
X139741413Y-78700781D01*
X138839902Y-78700781D01*
X138843760Y-78670972D01*
X138636974Y-78518062D01*
X138245120Y-78642982D01*
X138075478Y-78727355D01*
X137617584Y-78755619D01*
X137268391Y-78534118D01*
X137115135Y-78146991D01*
X137245049Y-77678383D01*
X137366218Y-77375789D01*
X137317437Y-77219114D01*
X138259746Y-77219114D01*
X138281382Y-77501570D01*
X138331631Y-77568004D01*
X138569168Y-77702916D01*
X138743889Y-77644328D01*
X138878975Y-77386166D01*
X138775280Y-77094112D01*
X138724475Y-77052493D01*
X138455700Y-77029611D01*
X138259746Y-77219114D01*
X137317437Y-77219114D01*
X137245049Y-76986617D01*
X137161967Y-76818753D01*
X137140991Y-76369070D01*
X137372681Y-76030292D01*
X137769803Y-75886561D01*
X138245120Y-76022018D01*
X138350375Y-76080029D01*
X138707502Y-76130212D01*
X138862983Y-75920308D01*
X138740353Y-75526786D01*
X138655979Y-75357143D01*
X138627715Y-74899250D01*
X138849217Y-74550057D01*
X139236343Y-74396800D01*
X139704951Y-74526715D01*
X140029692Y-74647724D01*
X140421891Y-74510993D01*
X140498002Y-74468671D01*
X140947402Y-74411021D01*
X141298305Y-74646532D01*
X141439897Y-75109999D01*
X141435759Y-75199579D01*
X141251024Y-75633744D01*
X140869897Y-75819214D01*
X140400055Y-75695370D01*
X140259430Y-75619746D01*
X139902948Y-75576082D01*
X139758551Y-75792169D01*
X139894971Y-76199414D01*
X139928999Y-76255396D01*
X140046796Y-76612120D01*
X139894971Y-76983919D01*
X139822462Y-77118536D01*
X139787828Y-77386166D01*
X139776242Y-77475694D01*
G37*
G36*
X154667086Y-84984918D02*
G01*
X154770259Y-85121323D01*
X154852407Y-85574541D01*
X154645250Y-86000249D01*
X154504279Y-86109388D01*
X154047108Y-86211114D01*
X153629919Y-86022084D01*
X153430356Y-85921479D01*
X153061786Y-86051314D01*
X152892162Y-86136280D01*
X152430963Y-86166741D01*
X152084213Y-85941447D01*
X151937235Y-85545719D01*
X152075352Y-85064880D01*
X152146146Y-84932483D01*
X152176590Y-84627446D01*
X153076412Y-84627446D01*
X153098048Y-84909903D01*
X153148296Y-84976337D01*
X153385834Y-85111249D01*
X153560555Y-85052661D01*
X153695640Y-84794499D01*
X153591946Y-84502445D01*
X153541141Y-84460825D01*
X153272366Y-84437943D01*
X153076412Y-84627446D01*
X152176590Y-84627446D01*
X152180441Y-84588866D01*
X151958872Y-84450584D01*
X151554946Y-84585369D01*
X151477331Y-84628926D01*
X151014548Y-84698576D01*
X150657912Y-84468728D01*
X150515104Y-83999999D01*
X150519399Y-83910365D01*
X150703258Y-83480100D01*
X151078099Y-83288575D01*
X151533110Y-83400993D01*
X151897311Y-83540008D01*
X152274584Y-83401393D01*
X152637862Y-83262731D01*
X153015417Y-83401393D01*
X153353662Y-83536595D01*
X153731716Y-83416715D01*
X153899580Y-83333633D01*
X154349264Y-83312655D01*
X154688042Y-83544346D01*
X154831773Y-83941468D01*
X154696316Y-84416785D01*
X154570647Y-84704375D01*
X154601627Y-84794499D01*
X154667086Y-84984918D01*
G37*
G36*
X169268091Y-84843597D02*
G01*
X169552693Y-85137321D01*
X169653477Y-85540447D01*
X169491574Y-85953584D01*
X169334790Y-86088922D01*
X168943334Y-86222499D01*
X168840448Y-86215959D01*
X168444136Y-86021364D01*
X168255689Y-85647348D01*
X168304315Y-85217206D01*
X168619219Y-84854235D01*
X168878535Y-84758659D01*
X169268091Y-84843597D01*
G37*
G36*
X133753751Y-75993060D02*
G01*
X134117568Y-76131682D01*
X134495224Y-75992660D01*
X134571335Y-75950337D01*
X135020735Y-75892688D01*
X135371638Y-76128199D01*
X135513230Y-76591666D01*
X135508936Y-76681301D01*
X135325077Y-77111567D01*
X134950236Y-77303092D01*
X134495224Y-77190673D01*
X134131024Y-77051659D01*
X133753751Y-77190273D01*
X133736972Y-77200648D01*
X133372538Y-77327098D01*
X132991082Y-77176637D01*
X132851240Y-77101392D01*
X132494741Y-77057626D01*
X132350272Y-77273789D01*
X132486638Y-77681081D01*
X132520666Y-77737063D01*
X132638462Y-78093786D01*
X132486638Y-78465585D01*
X132411069Y-78606132D01*
X132367706Y-78962270D01*
X132584168Y-79106299D01*
X132991722Y-78969630D01*
X133069337Y-78926073D01*
X133532120Y-78856423D01*
X133888756Y-79086271D01*
X134031564Y-79555000D01*
X134027426Y-79644579D01*
X133842691Y-80078744D01*
X133461563Y-80264214D01*
X132991722Y-80140370D01*
X132856339Y-80067487D01*
X132499182Y-80021360D01*
X132346339Y-80228068D01*
X132471316Y-80619881D01*
X132556282Y-80789505D01*
X132586744Y-81250704D01*
X132361449Y-81597454D01*
X131965721Y-81744431D01*
X131484882Y-81606315D01*
X131353159Y-81535828D01*
X131009198Y-81501139D01*
X130870489Y-81722417D01*
X131004971Y-82126081D01*
X131015964Y-82143840D01*
X131155664Y-82520475D01*
X131018608Y-82888750D01*
X130879947Y-83252028D01*
X131018608Y-83629583D01*
X131157269Y-83992862D01*
X131018608Y-84370415D01*
X130879947Y-84733694D01*
X131018608Y-85111249D01*
X131028983Y-85128028D01*
X131155433Y-85492462D01*
X131004971Y-85873918D01*
X130866921Y-86188555D01*
X130960420Y-86466584D01*
X131065663Y-86606258D01*
X131144608Y-87060026D01*
X130931487Y-87489013D01*
X130627782Y-87667661D01*
X130220077Y-87641229D01*
X129884023Y-87400432D01*
X129718151Y-87024723D01*
X129820995Y-86593556D01*
X129960009Y-86229355D01*
X129821394Y-85852082D01*
X129811020Y-85835303D01*
X129684570Y-85470869D01*
X129835031Y-85089413D01*
X129910600Y-84948867D01*
X129953963Y-84592729D01*
X129737501Y-84448699D01*
X129329947Y-84585369D01*
X129252332Y-84628926D01*
X128789549Y-84698576D01*
X128432913Y-84468728D01*
X128290105Y-83999999D01*
X128294244Y-83910420D01*
X128478978Y-83476256D01*
X128860105Y-83290786D01*
X129329947Y-83414630D01*
X129470572Y-83490254D01*
X129827054Y-83533918D01*
X129971451Y-83317831D01*
X129835031Y-82910585D01*
X129824038Y-82892827D01*
X129684339Y-82516191D01*
X129821394Y-82147916D01*
X129956597Y-81809671D01*
X129836716Y-81431617D01*
X129753634Y-81263753D01*
X129732657Y-80814070D01*
X129964348Y-80475292D01*
X130361470Y-80331561D01*
X130836787Y-80467018D01*
X130968510Y-80537505D01*
X131312471Y-80572194D01*
X131451181Y-80350916D01*
X131316697Y-79947252D01*
X131305705Y-79929493D01*
X131166005Y-79552857D01*
X131303061Y-79184583D01*
X131441722Y-78821305D01*
X131303061Y-78443749D01*
X131292687Y-78426970D01*
X131166236Y-78062536D01*
X131316697Y-77681081D01*
X131392267Y-77540535D01*
X131435630Y-77184397D01*
X131219168Y-77040367D01*
X130811614Y-77177036D01*
X130733998Y-77220594D01*
X130271215Y-77290244D01*
X129914580Y-77060395D01*
X129771772Y-76591666D01*
X129776067Y-76502032D01*
X129959925Y-76071767D01*
X130334767Y-75880241D01*
X130789778Y-75992660D01*
X131153978Y-76131675D01*
X131531251Y-75993060D01*
X131894530Y-75854398D01*
X132272085Y-75993060D01*
X132635363Y-76131721D01*
X133012918Y-75993060D01*
X133376196Y-75854398D01*
X133753751Y-75993060D01*
G37*
G36*
X167786424Y-86325263D02*
G01*
X168071027Y-86618988D01*
X168171810Y-87022113D01*
X168009907Y-87435251D01*
X167853124Y-87570588D01*
X167461667Y-87704165D01*
X167358782Y-87697626D01*
X166962469Y-87503030D01*
X166774022Y-87129014D01*
X166822649Y-86698873D01*
X167137552Y-86335901D01*
X167396868Y-86240325D01*
X167786424Y-86325263D01*
G37*
G36*
X127781425Y-87806930D02*
G01*
X128066027Y-88100655D01*
X128166811Y-88503780D01*
X128004908Y-88916917D01*
X127848125Y-89052255D01*
X127456668Y-89185832D01*
X127353783Y-89179293D01*
X126957470Y-88984697D01*
X126769023Y-88610681D01*
X126817650Y-88180539D01*
X127132553Y-87817568D01*
X127391869Y-87721992D01*
X127781425Y-87806930D01*
G37*
G36*
X132271444Y-87845992D02*
G01*
X132636229Y-87985068D01*
X133013558Y-87845992D01*
X133279797Y-87742395D01*
X133693688Y-87807738D01*
X133995266Y-88089416D01*
X134102054Y-88491214D01*
X133931575Y-88916917D01*
X133752205Y-89070974D01*
X133302225Y-89174702D01*
X132886587Y-88985418D01*
X132673451Y-88887082D01*
X132293280Y-89030369D01*
X132215665Y-89073926D01*
X131752882Y-89143576D01*
X131396246Y-88913728D01*
X131253439Y-88444999D01*
X131257733Y-88355364D01*
X131441592Y-87925099D01*
X131816433Y-87733574D01*
X132271444Y-87845992D01*
G37*
G36*
X144079758Y-87806930D02*
G01*
X144364361Y-88100655D01*
X144465144Y-88503780D01*
X144303242Y-88916917D01*
X144146458Y-89052255D01*
X143755001Y-89185832D01*
X143652116Y-89179293D01*
X143255803Y-88984697D01*
X143067357Y-88610681D01*
X143115983Y-88180539D01*
X143430887Y-87817568D01*
X143690203Y-87721992D01*
X144079758Y-87806930D01*
G37*
G36*
X139399580Y-87800908D02*
G01*
X139833745Y-87985642D01*
X140019215Y-88366770D01*
X139895371Y-88836611D01*
X139819671Y-88977381D01*
X139776079Y-89333838D01*
X139992410Y-89478013D01*
X140400055Y-89341295D01*
X140678423Y-89232103D01*
X141100442Y-89292394D01*
X141406730Y-89569190D01*
X141514236Y-89969062D01*
X141339908Y-90398584D01*
X141160539Y-90552641D01*
X140710559Y-90656369D01*
X140294920Y-90467084D01*
X140095357Y-90366479D01*
X139726787Y-90496314D01*
X139557144Y-90580687D01*
X139099251Y-90608952D01*
X138750058Y-90387450D01*
X138596801Y-90000324D01*
X138726716Y-89531715D01*
X138847725Y-89206975D01*
X138710995Y-88814776D01*
X138668672Y-88738665D01*
X138611023Y-88289265D01*
X138846534Y-87938362D01*
X139310001Y-87796770D01*
X139399580Y-87800908D01*
G37*
G36*
X154451424Y-92251930D02*
G01*
X154736027Y-92545655D01*
X154836810Y-92948780D01*
X154674907Y-93361917D01*
X154518124Y-93497255D01*
X154126667Y-93630832D01*
X154023782Y-93624293D01*
X153627469Y-93429697D01*
X153439022Y-93055681D01*
X153487649Y-92625539D01*
X153802552Y-92262568D01*
X154061868Y-92166992D01*
X154451424Y-92251930D01*
G37*
G36*
X152969757Y-93733597D02*
G01*
X153254360Y-94027321D01*
X153355143Y-94430447D01*
X153193241Y-94843584D01*
X153036457Y-94978922D01*
X152645001Y-95112499D01*
X152542115Y-95105959D01*
X152145803Y-94911364D01*
X151957356Y-94537348D01*
X152005982Y-94107206D01*
X152320886Y-93744235D01*
X152580202Y-93648659D01*
X152969757Y-93733597D01*
G37*
G36*
X155933091Y-95215263D02*
G01*
X156217693Y-95508988D01*
X156318477Y-95912113D01*
X156156574Y-96325251D01*
X155999790Y-96460588D01*
X155608334Y-96594165D01*
X155505448Y-96587626D01*
X155109136Y-96393030D01*
X154920689Y-96019014D01*
X154969315Y-95588873D01*
X155284219Y-95225901D01*
X155543535Y-95130325D01*
X155933091Y-95215263D01*
G37*
G36*
X130744758Y-96696930D02*
G01*
X131029361Y-96990655D01*
X131130144Y-97393780D01*
X130968242Y-97806917D01*
X130811458Y-97942255D01*
X130420001Y-98075832D01*
X130317116Y-98069293D01*
X129920803Y-97874697D01*
X129732357Y-97500681D01*
X129780983Y-97070539D01*
X130095887Y-96707568D01*
X130355203Y-96611992D01*
X130744758Y-96696930D01*
G37*
G36*
X142598092Y-96696930D02*
G01*
X142882694Y-96990655D01*
X142983478Y-97393780D01*
X142821575Y-97806917D01*
X142664791Y-97942255D01*
X142273335Y-98075832D01*
X142170449Y-98069293D01*
X141774137Y-97874697D01*
X141585690Y-97500681D01*
X141634316Y-97070539D01*
X141949220Y-96707568D01*
X142208536Y-96611992D01*
X142598092Y-96696930D01*
G37*
G36*
X150051443Y-95254326D02*
G01*
X150390609Y-95389893D01*
X150768383Y-95270047D01*
X150936247Y-95186965D01*
X151385930Y-95165988D01*
X151724708Y-95397679D01*
X151868439Y-95794800D01*
X151732982Y-96270118D01*
X151607313Y-96557708D01*
X151703753Y-96838251D01*
X151808996Y-96977925D01*
X151887940Y-97431693D01*
X151674819Y-97860680D01*
X151354854Y-98046498D01*
X150950579Y-98013243D01*
X150623205Y-97765506D01*
X150467433Y-97382489D01*
X150577964Y-96943386D01*
X150653663Y-96802616D01*
X150697255Y-96446160D01*
X150480924Y-96301985D01*
X150073279Y-96438702D01*
X149995664Y-96482260D01*
X149532881Y-96551910D01*
X149176245Y-96322061D01*
X149033437Y-95853332D01*
X149037733Y-95763697D01*
X149221591Y-95333432D01*
X149596432Y-95141907D01*
X150051443Y-95254326D01*
G37*
G36*
X154451424Y-96696930D02*
G01*
X154736027Y-96990655D01*
X154836810Y-97393780D01*
X154674907Y-97806917D01*
X154518124Y-97942255D01*
X154126667Y-98075832D01*
X154023782Y-98069293D01*
X153627469Y-97874697D01*
X153439022Y-97500681D01*
X153487649Y-97070539D01*
X153802552Y-96707568D01*
X154061868Y-96611992D01*
X154451424Y-96696930D01*
G37*
G36*
X147113285Y-96751714D02*
G01*
X147438025Y-96872723D01*
X147830224Y-96735992D01*
X147906335Y-96693670D01*
X148355734Y-96636021D01*
X148706637Y-96871531D01*
X148848229Y-97334999D01*
X148844092Y-97424578D01*
X148659357Y-97858743D01*
X148278229Y-98044213D01*
X147808389Y-97920369D01*
X147548556Y-97812693D01*
X147239125Y-97837277D01*
X147102499Y-98020716D01*
X147236918Y-98298082D01*
X147345992Y-98437331D01*
X147444659Y-98903152D01*
X147229820Y-99342346D01*
X146926115Y-99520994D01*
X146518410Y-99494562D01*
X146182356Y-99253765D01*
X146016484Y-98878057D01*
X146119328Y-98446889D01*
X146254895Y-98107723D01*
X146135049Y-97729949D01*
X146059317Y-97579933D01*
X146030515Y-97127299D01*
X146255579Y-96779381D01*
X146646004Y-96624684D01*
X147113285Y-96751714D01*
G37*
G36*
X152969757Y-98178597D02*
G01*
X153254360Y-98472321D01*
X153355143Y-98875447D01*
X153193241Y-99288584D01*
X153036457Y-99423922D01*
X152645001Y-99557499D01*
X152542115Y-99550959D01*
X152145803Y-99356364D01*
X151957356Y-98982348D01*
X152005982Y-98552206D01*
X152320886Y-98189235D01*
X152580202Y-98093659D01*
X152969757Y-98178597D01*
G37*
G36*
X157179580Y-98172574D02*
G01*
X157613744Y-98357309D01*
X157799214Y-98738437D01*
X157675370Y-99208278D01*
X157536995Y-99523621D01*
X157630419Y-99801584D01*
X157733592Y-99937990D01*
X157815741Y-100391207D01*
X157608584Y-100816915D01*
X157467612Y-100926054D01*
X157010441Y-101027781D01*
X156593253Y-100838751D01*
X156380117Y-100740415D01*
X155999946Y-100883702D01*
X155922331Y-100927260D01*
X155459548Y-100996910D01*
X155102912Y-100767061D01*
X154960104Y-100298332D01*
X154964243Y-100208753D01*
X155148977Y-99774588D01*
X155530104Y-99589119D01*
X155999946Y-99712962D01*
X156140717Y-99788662D01*
X156497173Y-99832254D01*
X156641348Y-99615923D01*
X156504630Y-99208278D01*
X156461073Y-99130663D01*
X156391423Y-98667880D01*
X156621271Y-98311244D01*
X157090001Y-98168436D01*
X157179580Y-98172574D01*
G37*
G36*
X148783285Y-80641716D02*
G01*
X148866367Y-80809580D01*
X148887345Y-81259264D01*
X148655654Y-81598041D01*
X148258532Y-81741772D01*
X147783215Y-81606315D01*
X147651492Y-81535828D01*
X147307531Y-81501139D01*
X147168822Y-81722417D01*
X147303305Y-82126081D01*
X147337332Y-82182063D01*
X147455129Y-82538786D01*
X147303305Y-82910585D01*
X147227735Y-83051132D01*
X147184372Y-83407270D01*
X147400835Y-83551299D01*
X147808389Y-83414630D01*
X147886004Y-83371073D01*
X148348786Y-83301423D01*
X148705422Y-83531271D01*
X148848229Y-83999999D01*
X148844092Y-84089578D01*
X148659357Y-84523743D01*
X148278229Y-84709213D01*
X147808389Y-84585369D01*
X147667763Y-84509745D01*
X147311282Y-84466081D01*
X147166885Y-84682168D01*
X147303305Y-85089413D01*
X147337332Y-85145395D01*
X147455129Y-85502119D01*
X147303305Y-85873918D01*
X147228061Y-86013760D01*
X147184294Y-86370259D01*
X147400457Y-86514728D01*
X147807749Y-86378362D01*
X147825508Y-86367370D01*
X148202143Y-86227669D01*
X148570417Y-86364725D01*
X148933695Y-86503387D01*
X149311250Y-86364725D01*
X149674529Y-86226064D01*
X150052084Y-86364725D01*
X150390329Y-86499928D01*
X150768383Y-86380047D01*
X150936247Y-86296965D01*
X151385930Y-86275988D01*
X151724708Y-86507679D01*
X151868439Y-86904800D01*
X151732982Y-87380118D01*
X151662495Y-87511841D01*
X151627806Y-87855802D01*
X151849084Y-87994511D01*
X152252748Y-87860029D01*
X152270507Y-87849036D01*
X152647143Y-87709336D01*
X153015417Y-87846392D01*
X153353662Y-87981594D01*
X153731716Y-87861714D01*
X153899580Y-87778632D01*
X154349264Y-87757655D01*
X154688042Y-87989345D01*
X154831773Y-88386467D01*
X154696316Y-88861785D01*
X154625828Y-88993508D01*
X154601020Y-89239499D01*
X154591139Y-89337469D01*
X154812418Y-89476178D01*
X155216081Y-89341695D01*
X155272063Y-89307668D01*
X155628786Y-89189871D01*
X156000586Y-89341695D01*
X156141132Y-89417265D01*
X156497270Y-89460628D01*
X156641300Y-89244165D01*
X156504630Y-88836611D01*
X156461073Y-88758996D01*
X156391423Y-88296213D01*
X156621271Y-87939578D01*
X157090001Y-87796770D01*
X157179580Y-87800908D01*
X157613744Y-87985642D01*
X157799214Y-88366770D01*
X157675370Y-88836611D01*
X157599746Y-88977237D01*
X157556082Y-89333718D01*
X157772169Y-89478115D01*
X158179415Y-89341695D01*
X158197173Y-89330703D01*
X158573809Y-89191003D01*
X158942084Y-89328059D01*
X159305900Y-89466681D01*
X159683557Y-89327659D01*
X159759668Y-89285336D01*
X160209068Y-89227687D01*
X160559971Y-89463198D01*
X160701562Y-89926665D01*
X160697425Y-90016245D01*
X160512690Y-90450410D01*
X160131562Y-90635879D01*
X159661721Y-90512036D01*
X159521096Y-90436411D01*
X159164614Y-90392748D01*
X159020217Y-90608835D01*
X159156637Y-91016080D01*
X159190665Y-91072062D01*
X159308462Y-91428785D01*
X159156637Y-91800584D01*
X159081393Y-91940427D01*
X159037626Y-92296926D01*
X159253789Y-92441394D01*
X159661081Y-92305029D01*
X159717063Y-92271001D01*
X160073786Y-92153204D01*
X160445586Y-92305029D01*
X160580203Y-92377538D01*
X160937361Y-92423758D01*
X161090271Y-92216972D01*
X160965352Y-91825118D01*
X160880978Y-91655476D01*
X160852714Y-91197582D01*
X161074216Y-90848389D01*
X161461342Y-90695132D01*
X161929950Y-90825047D01*
X162254143Y-90946080D01*
X162646250Y-90809725D01*
X162663030Y-90799351D01*
X163027464Y-90672901D01*
X163408919Y-90823362D01*
X163548761Y-90898606D01*
X163905261Y-90942373D01*
X164049729Y-90726210D01*
X163913363Y-90318918D01*
X163902371Y-90301159D01*
X163762671Y-89924523D01*
X163899727Y-89556249D01*
X164038388Y-89192970D01*
X163899727Y-88815415D01*
X163761066Y-88452137D01*
X163899727Y-88074582D01*
X164038388Y-87711304D01*
X163899727Y-87333749D01*
X163889352Y-87316970D01*
X163762902Y-86952536D01*
X163913363Y-86571080D01*
X163988608Y-86431238D01*
X164032374Y-86074738D01*
X163816211Y-85930270D01*
X163408919Y-86066636D01*
X163352937Y-86100664D01*
X162996214Y-86218460D01*
X162624415Y-86066636D01*
X162484572Y-85991391D01*
X162128073Y-85947625D01*
X161983605Y-86163788D01*
X162119970Y-86571080D01*
X162130963Y-86588839D01*
X162270663Y-86965474D01*
X162133607Y-87333749D01*
X161994985Y-87697566D01*
X162134007Y-88075222D01*
X162176329Y-88151333D01*
X162233979Y-88600733D01*
X161998468Y-88951635D01*
X161535001Y-89093228D01*
X161445421Y-89089090D01*
X161011256Y-88904356D01*
X160825786Y-88523228D01*
X160949630Y-88053386D01*
X161025254Y-87912761D01*
X161068918Y-87556280D01*
X160852831Y-87411883D01*
X160445586Y-87548303D01*
X160427827Y-87559295D01*
X160051192Y-87698995D01*
X159682917Y-87561939D01*
X159344672Y-87426737D01*
X158966617Y-87546617D01*
X158798753Y-87629699D01*
X158349070Y-87650676D01*
X158010292Y-87418986D01*
X157866561Y-87021864D01*
X158002018Y-86546546D01*
X158060030Y-86441291D01*
X158110212Y-86084165D01*
X157900309Y-85928683D01*
X157506786Y-86051314D01*
X157337143Y-86135687D01*
X156879250Y-86163952D01*
X156530057Y-85942450D01*
X156376800Y-85555324D01*
X156506715Y-85086715D01*
X156627724Y-84761975D01*
X156490994Y-84369776D01*
X156448671Y-84293665D01*
X156391022Y-83844266D01*
X156626533Y-83493363D01*
X157090001Y-83351771D01*
X157179580Y-83355908D01*
X157613744Y-83540643D01*
X157799214Y-83921771D01*
X157675370Y-84391611D01*
X157602487Y-84526995D01*
X157556360Y-84884151D01*
X157763069Y-85036995D01*
X158154881Y-84912017D01*
X158324505Y-84827051D01*
X158785704Y-84796589D01*
X159132454Y-85021884D01*
X159279432Y-85417612D01*
X159141316Y-85898452D01*
X159070828Y-86030174D01*
X159036139Y-86374136D01*
X159257418Y-86512845D01*
X159661081Y-86378362D01*
X159717063Y-86344334D01*
X160073786Y-86226538D01*
X160445586Y-86378362D01*
X160580203Y-86450872D01*
X160937361Y-86497091D01*
X161090271Y-86290305D01*
X160965352Y-85898452D01*
X160880978Y-85728809D01*
X160852714Y-85270916D01*
X161074216Y-84921723D01*
X161461342Y-84768466D01*
X161929950Y-84898381D01*
X162254143Y-85019413D01*
X162646250Y-84883059D01*
X162663030Y-84872684D01*
X163027464Y-84746234D01*
X163408919Y-84896695D01*
X163549465Y-84972265D01*
X163905603Y-85015628D01*
X164049633Y-84799165D01*
X163912964Y-84391611D01*
X163869406Y-84313996D01*
X163799756Y-83851214D01*
X164029605Y-83494578D01*
X164498334Y-83351771D01*
X164587968Y-83356065D01*
X165018233Y-83539924D01*
X165209759Y-83914765D01*
X165097340Y-84369776D01*
X164958325Y-84733976D01*
X165096940Y-85111249D01*
X165235602Y-85474528D01*
X165096940Y-85852082D01*
X164958279Y-86215361D01*
X165096940Y-86592915D01*
X165235602Y-86956194D01*
X165096940Y-87333749D01*
X164958279Y-87697028D01*
X165096940Y-88074582D01*
X165107315Y-88091361D01*
X165233765Y-88455795D01*
X165083304Y-88837251D01*
X165008060Y-88977094D01*
X164964293Y-89333593D01*
X165180456Y-89478061D01*
X165587748Y-89341695D01*
X165605507Y-89330703D01*
X165982143Y-89191003D01*
X166350417Y-89328059D01*
X166713695Y-89466720D01*
X167091250Y-89328059D01*
X167108030Y-89317684D01*
X167472464Y-89191234D01*
X167853919Y-89341695D01*
X167994465Y-89417265D01*
X168350603Y-89460628D01*
X168494633Y-89244165D01*
X168357964Y-88836611D01*
X168314406Y-88758996D01*
X168244756Y-88296213D01*
X168474605Y-87939578D01*
X168943334Y-87796770D01*
X169032968Y-87801064D01*
X169463233Y-87984923D01*
X169654759Y-88359764D01*
X169542340Y-88814776D01*
X169403325Y-89178976D01*
X169541940Y-89556249D01*
X169680602Y-89919528D01*
X169541940Y-90297082D01*
X169403279Y-90660361D01*
X169425611Y-90721165D01*
X169541940Y-91037915D01*
X169680602Y-91401194D01*
X169541940Y-91778749D01*
X169406738Y-92116994D01*
X169433957Y-92202832D01*
X169526618Y-92495049D01*
X169602350Y-92645065D01*
X169631154Y-93097698D01*
X169406089Y-93445617D01*
X169015664Y-93600314D01*
X168548383Y-93473284D01*
X168224191Y-93352251D01*
X167832084Y-93488606D01*
X167468805Y-93627267D01*
X167091250Y-93488606D01*
X166727433Y-93349984D01*
X166349777Y-93489005D01*
X166273666Y-93531328D01*
X165824266Y-93588977D01*
X165473364Y-93353466D01*
X165331771Y-92889999D01*
X165335909Y-92800420D01*
X165520643Y-92366255D01*
X165901771Y-92180785D01*
X166371613Y-92304629D01*
X166512238Y-92380253D01*
X166868719Y-92423917D01*
X167013117Y-92207830D01*
X166955483Y-92035780D01*
X167893078Y-92035780D01*
X167914714Y-92318236D01*
X167964963Y-92384670D01*
X168202500Y-92519582D01*
X168377222Y-92460994D01*
X168512307Y-92202832D01*
X168408613Y-91910778D01*
X168357808Y-91869159D01*
X168089033Y-91846277D01*
X167893078Y-92035780D01*
X166955483Y-92035780D01*
X166876696Y-91800584D01*
X166842669Y-91744603D01*
X166724872Y-91387879D01*
X166876696Y-91016080D01*
X166951941Y-90876238D01*
X166991488Y-90554113D01*
X167893078Y-90554113D01*
X167914714Y-90836570D01*
X167964963Y-90903003D01*
X168202500Y-91037915D01*
X168377222Y-90979328D01*
X168512307Y-90721165D01*
X168408613Y-90429111D01*
X168357808Y-90387492D01*
X168089033Y-90364610D01*
X167893078Y-90554113D01*
X166991488Y-90554113D01*
X166995708Y-90519738D01*
X166779544Y-90375270D01*
X166372253Y-90511636D01*
X166316270Y-90545664D01*
X165959547Y-90663460D01*
X165587748Y-90511636D01*
X165453130Y-90439126D01*
X165095973Y-90392907D01*
X164943063Y-90599693D01*
X165067982Y-90991546D01*
X165152356Y-91161189D01*
X165180619Y-91619082D01*
X164959118Y-91968275D01*
X164571992Y-92121532D01*
X164103383Y-91991617D01*
X163779191Y-91870584D01*
X163387084Y-92006939D01*
X163370305Y-92017313D01*
X163005870Y-92143764D01*
X162624415Y-91993303D01*
X162489797Y-91920793D01*
X162132640Y-91874573D01*
X161979729Y-92081360D01*
X162104649Y-92473213D01*
X162189022Y-92642856D01*
X162217286Y-93100749D01*
X161995785Y-93449942D01*
X161608659Y-93603199D01*
X161140050Y-93473284D01*
X160815858Y-93352251D01*
X160423750Y-93488606D01*
X160060472Y-93627267D01*
X159682917Y-93488606D01*
X159319638Y-93349945D01*
X158942084Y-93488606D01*
X158925305Y-93498980D01*
X158560870Y-93625430D01*
X158179415Y-93474969D01*
X158038868Y-93399400D01*
X157682730Y-93356037D01*
X157538701Y-93572499D01*
X157675370Y-93980053D01*
X157718927Y-94057668D01*
X157788577Y-94520451D01*
X157558729Y-94877087D01*
X157090001Y-95019895D01*
X157000366Y-95015600D01*
X156570100Y-94831741D01*
X156378575Y-94456900D01*
X156490994Y-94001889D01*
X156626561Y-93662723D01*
X156506715Y-93284949D01*
X156423633Y-93117085D01*
X156402656Y-92667402D01*
X156634347Y-92328624D01*
X157031469Y-92184893D01*
X157506786Y-92320350D01*
X157638509Y-92390838D01*
X157982470Y-92425526D01*
X158121180Y-92204248D01*
X157986696Y-91800584D01*
X157952669Y-91744603D01*
X157834872Y-91387879D01*
X157986696Y-91016080D01*
X158061941Y-90876238D01*
X158105708Y-90519738D01*
X157889544Y-90375270D01*
X157482253Y-90511636D01*
X157426270Y-90545664D01*
X157069547Y-90663460D01*
X156697748Y-90511636D01*
X156557202Y-90436067D01*
X156201064Y-90392704D01*
X156057034Y-90609165D01*
X156193704Y-91016720D01*
X156237261Y-91094335D01*
X156306911Y-91557118D01*
X156077063Y-91913754D01*
X155608334Y-92056561D01*
X155518754Y-92052423D01*
X155084589Y-91867689D01*
X154899120Y-91486561D01*
X155022964Y-91016720D01*
X155098588Y-90876095D01*
X155142251Y-90519613D01*
X154926164Y-90375216D01*
X154518919Y-90511636D01*
X154501160Y-90522628D01*
X154124525Y-90662328D01*
X153756251Y-90525273D01*
X153392972Y-90386611D01*
X153015417Y-90525273D01*
X152998638Y-90535647D01*
X152634204Y-90662097D01*
X152252748Y-90511636D01*
X152118130Y-90439126D01*
X151760973Y-90392907D01*
X151608063Y-90599693D01*
X151732982Y-90991546D01*
X151817948Y-91161170D01*
X151848410Y-91622369D01*
X151623115Y-91969119D01*
X151227387Y-92116097D01*
X150746547Y-91977981D01*
X150641293Y-91919969D01*
X150284167Y-91869787D01*
X150128685Y-92079690D01*
X150167059Y-92202832D01*
X150251316Y-92473213D01*
X150335689Y-92642856D01*
X150363953Y-93100749D01*
X150142452Y-93449942D01*
X149755326Y-93603199D01*
X149286716Y-93473284D01*
X148962525Y-93352251D01*
X148570417Y-93488606D01*
X148553638Y-93498980D01*
X148189205Y-93625430D01*
X147807749Y-93474969D01*
X147667203Y-93399400D01*
X147311065Y-93356037D01*
X147167035Y-93572499D01*
X147303705Y-93980053D01*
X147347262Y-94057668D01*
X147416912Y-94520451D01*
X147187064Y-94877087D01*
X146718335Y-95019895D01*
X146628755Y-95015756D01*
X146194590Y-94831022D01*
X146009121Y-94449895D01*
X146132964Y-93980053D01*
X146205847Y-93844670D01*
X146251975Y-93487514D01*
X146045266Y-93334670D01*
X145653454Y-93459647D01*
X145483830Y-93544613D01*
X145022631Y-93575075D01*
X144675881Y-93349781D01*
X144528903Y-92954053D01*
X144667019Y-92473213D01*
X144737506Y-92341490D01*
X144768337Y-92035780D01*
X145668079Y-92035780D01*
X145689715Y-92318236D01*
X145739964Y-92384670D01*
X145977501Y-92519582D01*
X146152223Y-92460994D01*
X146287308Y-92202832D01*
X146227996Y-92035780D01*
X147149746Y-92035780D01*
X147162542Y-92202832D01*
X147171382Y-92318236D01*
X147221631Y-92384670D01*
X147459168Y-92519582D01*
X147633889Y-92460994D01*
X147768975Y-92202832D01*
X147709662Y-92035780D01*
X148631412Y-92035780D01*
X148644208Y-92202832D01*
X148653048Y-92318236D01*
X148703296Y-92384670D01*
X148940834Y-92519582D01*
X149115555Y-92460994D01*
X149250640Y-92202832D01*
X149146946Y-91910778D01*
X149096141Y-91869159D01*
X148827366Y-91846277D01*
X148631412Y-92035780D01*
X147709662Y-92035780D01*
X147665280Y-91910778D01*
X147614475Y-91869159D01*
X147345700Y-91846277D01*
X147149746Y-92035780D01*
X146227996Y-92035780D01*
X146183614Y-91910778D01*
X146132809Y-91869159D01*
X145864034Y-91846277D01*
X145668079Y-92035780D01*
X144768337Y-92035780D01*
X144772195Y-91997529D01*
X144550917Y-91858819D01*
X144147253Y-91993303D01*
X144091271Y-92027330D01*
X143734548Y-92145127D01*
X143362749Y-91993303D01*
X143228131Y-91920793D01*
X142870974Y-91874573D01*
X142718063Y-92081360D01*
X142842983Y-92473213D01*
X142927949Y-92642837D01*
X142958411Y-93104036D01*
X142733116Y-93450786D01*
X142337388Y-93597764D01*
X141856548Y-93459647D01*
X141724826Y-93389160D01*
X141380864Y-93354472D01*
X141242155Y-93575749D01*
X141278386Y-93684499D01*
X141376638Y-93979413D01*
X141387630Y-93997172D01*
X141527331Y-94373807D01*
X141390275Y-94742082D01*
X141255072Y-95080327D01*
X141282291Y-95166165D01*
X141374953Y-95458382D01*
X141458035Y-95626246D01*
X141479012Y-96075929D01*
X141247321Y-96414707D01*
X140850200Y-96558438D01*
X140374882Y-96422981D01*
X140243159Y-96352494D01*
X139899198Y-96317805D01*
X139760489Y-96539083D01*
X139894971Y-96942747D01*
X139905964Y-96960506D01*
X140045664Y-97337141D01*
X139908608Y-97705415D01*
X139773406Y-98043660D01*
X139782273Y-98071625D01*
X139893286Y-98421715D01*
X139969018Y-98571732D01*
X139997821Y-99024365D01*
X139772757Y-99372283D01*
X139382331Y-99526981D01*
X138915051Y-99399951D01*
X138590859Y-99278917D01*
X138198751Y-99415273D01*
X138181972Y-99425647D01*
X137817538Y-99552097D01*
X137436082Y-99401636D01*
X137296240Y-99326391D01*
X136939741Y-99282625D01*
X136795272Y-99498788D01*
X136832897Y-99611165D01*
X136931638Y-99906080D01*
X136942630Y-99923839D01*
X137082331Y-100300474D01*
X136945275Y-100668749D01*
X136806613Y-101032028D01*
X136828944Y-101092832D01*
X136945275Y-101409582D01*
X136955649Y-101426361D01*
X137082099Y-101790795D01*
X136931638Y-102172251D01*
X136859128Y-102306869D01*
X136812909Y-102664026D01*
X137019695Y-102816937D01*
X137411548Y-102692017D01*
X137581172Y-102607051D01*
X138042371Y-102576589D01*
X138389121Y-102801884D01*
X138536100Y-103197612D01*
X138397983Y-103678452D01*
X138272314Y-103966042D01*
X138303295Y-104056165D01*
X138368753Y-104246584D01*
X138471926Y-104382990D01*
X138554075Y-104836207D01*
X138346918Y-105261915D01*
X138205947Y-105371054D01*
X137748775Y-105472781D01*
X137331587Y-105283751D01*
X137118796Y-105185348D01*
X136738920Y-105328303D01*
X136721161Y-105339295D01*
X136344526Y-105478995D01*
X135976251Y-105341939D01*
X135612972Y-105203278D01*
X135235418Y-105341939D01*
X134872139Y-105480600D01*
X134494585Y-105341939D01*
X134131306Y-105203278D01*
X133753751Y-105341939D01*
X133390472Y-105480600D01*
X133012918Y-105341939D01*
X132674673Y-105206737D01*
X132296618Y-105326617D01*
X132146602Y-105402349D01*
X131693969Y-105431152D01*
X131346050Y-105206088D01*
X131191352Y-104815663D01*
X131318383Y-104348382D01*
X131439416Y-104024190D01*
X131303061Y-103632082D01*
X131292687Y-103615303D01*
X131166236Y-103250869D01*
X131316697Y-102869413D01*
X131391942Y-102729571D01*
X131435708Y-102373071D01*
X131219545Y-102228603D01*
X130812253Y-102364969D01*
X130756271Y-102398997D01*
X130399548Y-102516794D01*
X130027749Y-102364969D01*
X129887203Y-102289400D01*
X129531065Y-102246037D01*
X129387035Y-102462499D01*
X129523705Y-102870053D01*
X129567262Y-102947668D01*
X129636912Y-103410451D01*
X129407064Y-103767087D01*
X128938335Y-103909895D01*
X128848755Y-103905756D01*
X128414590Y-103721022D01*
X128229121Y-103339895D01*
X128352964Y-102870053D01*
X128428664Y-102729283D01*
X128472256Y-102372826D01*
X128255925Y-102228651D01*
X127848280Y-102365369D01*
X127770665Y-102408926D01*
X127307882Y-102478576D01*
X126951246Y-102248728D01*
X126808438Y-101779999D01*
X126812577Y-101690420D01*
X126997311Y-101256255D01*
X127378439Y-101070785D01*
X127848280Y-101194629D01*
X127988905Y-101270253D01*
X128345387Y-101313917D01*
X128489784Y-101097830D01*
X128432150Y-100925780D01*
X129369746Y-100925780D01*
X129391382Y-101208236D01*
X129441631Y-101274670D01*
X129679168Y-101409582D01*
X129853889Y-101350994D01*
X129988975Y-101092832D01*
X129929662Y-100925780D01*
X130851413Y-100925780D01*
X130864209Y-101092832D01*
X130873048Y-101208236D01*
X130923297Y-101274670D01*
X131160835Y-101409582D01*
X131335556Y-101350994D01*
X131470641Y-101092832D01*
X131366947Y-100800778D01*
X131316142Y-100759159D01*
X131047367Y-100736277D01*
X130851413Y-100925780D01*
X129929662Y-100925780D01*
X129885280Y-100800778D01*
X129834475Y-100759159D01*
X129565700Y-100736277D01*
X129369746Y-100925780D01*
X128432150Y-100925780D01*
X128353364Y-100690584D01*
X128342372Y-100672826D01*
X128202672Y-100296190D01*
X128339727Y-99927915D01*
X128478350Y-99564099D01*
X128339328Y-99186442D01*
X128297005Y-99110331D01*
X128239357Y-98660932D01*
X128474867Y-98310029D01*
X128938335Y-98168436D01*
X129027914Y-98172574D01*
X129462079Y-98357309D01*
X129647548Y-98738437D01*
X129523705Y-99208278D01*
X129448080Y-99348903D01*
X129404417Y-99705385D01*
X129620503Y-99849782D01*
X130027749Y-99713362D01*
X130083731Y-99679334D01*
X130440454Y-99561538D01*
X130812253Y-99713362D01*
X130946871Y-99785872D01*
X131304029Y-99832091D01*
X131456939Y-99625305D01*
X131416606Y-99498788D01*
X132350272Y-99498788D01*
X132486638Y-99906080D01*
X132497630Y-99923839D01*
X132637331Y-100300474D01*
X132500275Y-100668749D01*
X132361613Y-101032028D01*
X132383944Y-101092832D01*
X132500275Y-101409582D01*
X132638936Y-101772861D01*
X132500275Y-102150415D01*
X132361613Y-102513694D01*
X132500275Y-102891249D01*
X132510649Y-102908028D01*
X132637099Y-103272462D01*
X132486638Y-103653918D01*
X132364130Y-103923289D01*
X132420251Y-104224749D01*
X132591890Y-104295967D01*
X132991082Y-104158362D01*
X133008841Y-104147370D01*
X133385477Y-104007669D01*
X133753751Y-104144725D01*
X134117030Y-104283387D01*
X134494585Y-104144725D01*
X134855541Y-104006317D01*
X135232905Y-104143156D01*
X135519767Y-104309662D01*
X135734047Y-104350599D01*
X135878991Y-104195241D01*
X135895090Y-103998292D01*
X135851767Y-103889113D01*
X136778079Y-103889113D01*
X136786442Y-103998292D01*
X136799715Y-104171570D01*
X136849964Y-104238003D01*
X137087501Y-104372915D01*
X137262223Y-104314328D01*
X137397308Y-104056165D01*
X137293614Y-103764111D01*
X137242809Y-103722492D01*
X136974034Y-103699610D01*
X136778079Y-103889113D01*
X135851767Y-103889113D01*
X135752766Y-103639616D01*
X135733923Y-103608928D01*
X135610745Y-103247273D01*
X135761697Y-102869413D01*
X135834207Y-102734796D01*
X135880427Y-102377638D01*
X135673640Y-102224728D01*
X135281787Y-102349647D01*
X135112144Y-102434021D01*
X134654251Y-102462285D01*
X134305058Y-102240783D01*
X134151801Y-101853657D01*
X134281716Y-101385049D01*
X134402749Y-101060856D01*
X134355776Y-100925780D01*
X135296413Y-100925780D01*
X135318048Y-101208236D01*
X135368297Y-101274670D01*
X135605835Y-101409582D01*
X135780556Y-101350994D01*
X135915641Y-101092832D01*
X135811947Y-100800778D01*
X135761142Y-100759159D01*
X135492367Y-100736277D01*
X135296413Y-100925780D01*
X134355776Y-100925780D01*
X134266394Y-100668749D01*
X134256020Y-100651970D01*
X134129570Y-100287536D01*
X134280031Y-99906080D01*
X134355275Y-99766238D01*
X134394822Y-99444113D01*
X135296413Y-99444113D01*
X135318048Y-99726570D01*
X135368297Y-99793003D01*
X135605835Y-99927915D01*
X135780556Y-99869328D01*
X135915641Y-99611165D01*
X135811947Y-99319111D01*
X135761142Y-99277492D01*
X135492367Y-99254610D01*
X135296413Y-99444113D01*
X134394822Y-99444113D01*
X134399042Y-99409738D01*
X134182879Y-99265270D01*
X133775587Y-99401636D01*
X133719605Y-99435664D01*
X133362881Y-99553460D01*
X132991082Y-99401636D01*
X132851240Y-99326391D01*
X132494741Y-99282625D01*
X132350272Y-99498788D01*
X131416606Y-99498788D01*
X131332019Y-99233452D01*
X131247054Y-99063828D01*
X131216592Y-98602629D01*
X131441886Y-98255879D01*
X131837614Y-98108900D01*
X132318454Y-98247017D01*
X132450176Y-98317504D01*
X132794138Y-98352193D01*
X132932847Y-98130915D01*
X132798364Y-97727251D01*
X132764336Y-97671269D01*
X132646540Y-97314546D01*
X132798364Y-96942747D01*
X132873933Y-96802201D01*
X132917296Y-96446063D01*
X132700835Y-96302033D01*
X132293280Y-96438702D01*
X132215665Y-96482260D01*
X131752882Y-96551910D01*
X131396246Y-96322061D01*
X131253439Y-95853332D01*
X131257577Y-95763753D01*
X131442311Y-95329588D01*
X131823439Y-95144119D01*
X132293280Y-95267962D01*
X132433905Y-95343587D01*
X132790387Y-95387250D01*
X132934784Y-95171163D01*
X132798364Y-94763918D01*
X132787372Y-94746159D01*
X132647672Y-94369523D01*
X132784727Y-94001249D01*
X132923389Y-93637970D01*
X132902180Y-93580221D01*
X133830699Y-93580221D01*
X133968305Y-93979413D01*
X133979297Y-93997172D01*
X134118997Y-94373807D01*
X133981941Y-94742082D01*
X133843280Y-95105361D01*
X133981941Y-95482915D01*
X134120603Y-95846194D01*
X133981941Y-96223749D01*
X133843280Y-96587028D01*
X133981941Y-96964582D01*
X133992316Y-96981361D01*
X134118766Y-97345795D01*
X133968305Y-97727251D01*
X133893061Y-97867094D01*
X133849294Y-98223593D01*
X134065457Y-98368061D01*
X134472749Y-98231695D01*
X134490508Y-98220703D01*
X134867143Y-98081003D01*
X135235418Y-98218059D01*
X135598696Y-98356720D01*
X135976251Y-98218059D01*
X136339530Y-98079397D01*
X136717085Y-98218059D01*
X137080363Y-98356720D01*
X137457918Y-98218059D01*
X137818874Y-98079650D01*
X138196238Y-98216489D01*
X138483101Y-98382995D01*
X138697380Y-98423933D01*
X138842324Y-98268575D01*
X138858423Y-98071625D01*
X138716099Y-97712950D01*
X138573283Y-97338855D01*
X138711394Y-96964582D01*
X138850055Y-96601304D01*
X138711394Y-96223749D01*
X138572733Y-95860470D01*
X138711394Y-95482915D01*
X138850055Y-95119637D01*
X138805791Y-94999113D01*
X139741413Y-94999113D01*
X139763048Y-95281570D01*
X139813297Y-95348003D01*
X140050835Y-95482915D01*
X140225556Y-95424328D01*
X140360641Y-95166165D01*
X140256947Y-94874111D01*
X140206142Y-94832492D01*
X139937367Y-94809610D01*
X139741413Y-94999113D01*
X138805791Y-94999113D01*
X138711394Y-94742082D01*
X138701020Y-94725303D01*
X138574570Y-94360869D01*
X138725031Y-93979413D01*
X138800275Y-93839571D01*
X138839822Y-93517446D01*
X139741413Y-93517446D01*
X139763048Y-93799903D01*
X139813297Y-93866337D01*
X140050835Y-94001249D01*
X140225556Y-93942661D01*
X140360641Y-93684499D01*
X140256947Y-93392445D01*
X140206142Y-93350825D01*
X139937367Y-93327943D01*
X139741413Y-93517446D01*
X138839822Y-93517446D01*
X138844042Y-93483071D01*
X138627879Y-93338603D01*
X138220587Y-93474969D01*
X138202828Y-93485962D01*
X137826193Y-93625661D01*
X137457918Y-93488606D01*
X137094639Y-93349945D01*
X136717085Y-93488606D01*
X136353806Y-93627267D01*
X135976251Y-93488606D01*
X135612972Y-93349945D01*
X135235418Y-93488606D01*
X135218639Y-93498980D01*
X134854205Y-93625430D01*
X134472749Y-93474969D01*
X134203378Y-93352462D01*
X133901918Y-93408582D01*
X133830699Y-93580221D01*
X132902180Y-93580221D01*
X132784727Y-93260415D01*
X132774353Y-93243636D01*
X132647903Y-92879202D01*
X132798364Y-92497747D01*
X132873609Y-92357904D01*
X132913155Y-92035780D01*
X133814746Y-92035780D01*
X133836382Y-92318236D01*
X133886631Y-92384670D01*
X134124168Y-92519582D01*
X134298889Y-92460994D01*
X134433975Y-92202832D01*
X134374662Y-92035780D01*
X135296413Y-92035780D01*
X135309209Y-92202832D01*
X135318048Y-92318236D01*
X135368297Y-92384670D01*
X135605835Y-92519582D01*
X135780556Y-92460994D01*
X135915641Y-92202832D01*
X135811947Y-91910778D01*
X135761142Y-91869159D01*
X135492367Y-91846277D01*
X135296413Y-92035780D01*
X134374662Y-92035780D01*
X134330280Y-91910778D01*
X134279475Y-91869159D01*
X134010700Y-91846277D01*
X133814746Y-92035780D01*
X132913155Y-92035780D01*
X132917375Y-92001405D01*
X132701212Y-91856937D01*
X132293920Y-91993303D01*
X132237938Y-92027330D01*
X131881215Y-92145127D01*
X131509416Y-91993303D01*
X131369573Y-91918058D01*
X131013074Y-91874292D01*
X130868606Y-92090455D01*
X131004971Y-92497747D01*
X131015964Y-92515506D01*
X131155664Y-92892141D01*
X131018608Y-93260415D01*
X130879986Y-93624233D01*
X131019008Y-94001889D01*
X131061330Y-94078000D01*
X131118979Y-94527400D01*
X130883469Y-94878302D01*
X130420001Y-95019895D01*
X130330422Y-95015756D01*
X129896257Y-94831022D01*
X129710787Y-94449895D01*
X129834631Y-93980053D01*
X129910255Y-93839428D01*
X129953919Y-93482946D01*
X129737832Y-93338549D01*
X129330587Y-93474969D01*
X129274605Y-93508997D01*
X128917881Y-93626794D01*
X128546082Y-93474969D01*
X128405536Y-93399400D01*
X128049398Y-93356037D01*
X127905368Y-93572499D01*
X128042038Y-93980053D01*
X128085595Y-94057668D01*
X128155245Y-94520451D01*
X127925397Y-94877087D01*
X127456668Y-95019895D01*
X127367033Y-95015600D01*
X126936768Y-94831741D01*
X126745242Y-94456900D01*
X126857661Y-94001889D01*
X126996676Y-93637688D01*
X126858061Y-93260415D01*
X126719400Y-92897137D01*
X126858061Y-92519582D01*
X126996683Y-92155765D01*
X126857661Y-91778109D01*
X126815338Y-91701998D01*
X126757690Y-91252598D01*
X126993200Y-90901695D01*
X127456668Y-90760103D01*
X127546247Y-90764241D01*
X127980412Y-90948976D01*
X128165881Y-91330103D01*
X128042038Y-91799945D01*
X127966413Y-91940570D01*
X127922750Y-92297052D01*
X128138837Y-92441449D01*
X128546082Y-92305029D01*
X128602064Y-92271001D01*
X128958787Y-92153204D01*
X129330587Y-92305029D01*
X129465204Y-92377538D01*
X129822362Y-92423758D01*
X129975272Y-92216972D01*
X129850353Y-91825118D01*
X129765979Y-91655476D01*
X129737715Y-91197582D01*
X129959217Y-90848389D01*
X130346343Y-90695132D01*
X130814951Y-90825047D01*
X131139144Y-90946080D01*
X131531251Y-90809725D01*
X131894530Y-90671064D01*
X132272085Y-90809725D01*
X132635363Y-90948387D01*
X133012918Y-90809725D01*
X133376196Y-90671064D01*
X133753751Y-90809725D01*
X134117030Y-90948387D01*
X134494585Y-90809725D01*
X134511364Y-90799351D01*
X134875798Y-90672901D01*
X135257253Y-90823362D01*
X135397096Y-90898606D01*
X135753595Y-90942373D01*
X135898063Y-90726210D01*
X135761697Y-90318918D01*
X135750705Y-90301159D01*
X135611005Y-89924523D01*
X135748061Y-89556249D01*
X135886722Y-89192970D01*
X135748061Y-88815415D01*
X135609400Y-88452137D01*
X135748061Y-88074582D01*
X135886683Y-87710765D01*
X135747661Y-87333109D01*
X135705338Y-87256998D01*
X135647690Y-86807598D01*
X135883200Y-86456695D01*
X136346668Y-86315103D01*
X136436303Y-86319398D01*
X136866568Y-86503257D01*
X137058093Y-86878098D01*
X136945674Y-87333109D01*
X136806660Y-87697310D01*
X136945275Y-88074582D01*
X137083936Y-88437861D01*
X136945275Y-88815415D01*
X136806613Y-89178694D01*
X136945275Y-89556249D01*
X137083936Y-89919528D01*
X136945275Y-90297082D01*
X136806613Y-90660361D01*
X136945275Y-91037915D01*
X136955649Y-91054694D01*
X137082099Y-91419129D01*
X136931638Y-91800584D01*
X136856394Y-91940427D01*
X136824179Y-92202832D01*
X136812627Y-92296926D01*
X137028790Y-92441394D01*
X137436082Y-92305029D01*
X137453841Y-92294036D01*
X137830477Y-92154336D01*
X138198751Y-92291392D01*
X138562030Y-92430053D01*
X138939585Y-92291392D01*
X139302863Y-92152731D01*
X139680418Y-92291392D01*
X140043696Y-92430053D01*
X140421251Y-92291392D01*
X140438030Y-92281017D01*
X140802464Y-92154567D01*
X141183920Y-92305029D01*
X141318537Y-92377538D01*
X141675695Y-92423758D01*
X141828605Y-92216972D01*
X141703686Y-91825118D01*
X141619313Y-91655476D01*
X141591048Y-91197582D01*
X141812550Y-90848389D01*
X142199676Y-90695132D01*
X142668285Y-90825047D01*
X142992477Y-90946080D01*
X143384585Y-90809725D01*
X143401364Y-90799351D01*
X143765798Y-90672901D01*
X144147253Y-90823362D01*
X144281871Y-90895872D01*
X144639029Y-90942091D01*
X144791939Y-90735305D01*
X144734176Y-90554113D01*
X145668079Y-90554113D01*
X145689715Y-90836570D01*
X145739964Y-90903003D01*
X145977501Y-91037915D01*
X146152223Y-90979328D01*
X146287308Y-90721165D01*
X146183614Y-90429111D01*
X146132809Y-90387492D01*
X145864034Y-90364610D01*
X145668079Y-90554113D01*
X144734176Y-90554113D01*
X144667019Y-90343452D01*
X144582646Y-90173809D01*
X144554382Y-89715916D01*
X144775883Y-89366723D01*
X145163009Y-89213466D01*
X145631618Y-89343381D01*
X145934212Y-89464549D01*
X146323384Y-89343381D01*
X146491248Y-89260298D01*
X146940931Y-89239321D01*
X147279709Y-89471012D01*
X147423440Y-89868134D01*
X147287983Y-90343452D01*
X147217496Y-90475174D01*
X147192687Y-90721165D01*
X147182807Y-90819136D01*
X147404085Y-90957845D01*
X147807749Y-90823362D01*
X147825508Y-90812370D01*
X148202143Y-90672669D01*
X148570417Y-90809725D01*
X148933695Y-90948387D01*
X149311250Y-90809725D01*
X149328030Y-90799351D01*
X149692464Y-90672901D01*
X150073919Y-90823362D01*
X150213761Y-90898606D01*
X150570261Y-90942373D01*
X150714729Y-90726210D01*
X150578363Y-90318918D01*
X150567371Y-90301159D01*
X150427671Y-89924523D01*
X150564727Y-89556249D01*
X150703388Y-89192970D01*
X150659124Y-89072446D01*
X151594745Y-89072446D01*
X151616381Y-89354903D01*
X151666630Y-89421337D01*
X151904167Y-89556249D01*
X152078888Y-89497661D01*
X152213974Y-89239499D01*
X152154661Y-89072446D01*
X153076412Y-89072446D01*
X153089208Y-89239499D01*
X153098048Y-89354903D01*
X153148296Y-89421337D01*
X153385834Y-89556249D01*
X153560555Y-89497661D01*
X153695640Y-89239499D01*
X153591946Y-88947445D01*
X153541141Y-88905825D01*
X153272366Y-88882943D01*
X153076412Y-89072446D01*
X152154661Y-89072446D01*
X152110279Y-88947445D01*
X152059474Y-88905825D01*
X151790700Y-88882943D01*
X151594745Y-89072446D01*
X150659124Y-89072446D01*
X150564727Y-88815415D01*
X150554352Y-88798636D01*
X150427902Y-88434202D01*
X150578363Y-88052747D01*
X150653608Y-87912904D01*
X150697374Y-87556405D01*
X150481211Y-87411937D01*
X150073919Y-87548303D01*
X150017937Y-87582330D01*
X149661214Y-87700127D01*
X149289415Y-87548303D01*
X149148868Y-87472733D01*
X148792730Y-87429370D01*
X148648701Y-87645832D01*
X148785370Y-88053386D01*
X148828927Y-88131002D01*
X148898577Y-88593785D01*
X148668729Y-88950420D01*
X148200001Y-89093228D01*
X148110422Y-89089090D01*
X147676257Y-88904356D01*
X147490787Y-88523228D01*
X147614631Y-88053386D01*
X147687514Y-87918003D01*
X147733641Y-87560847D01*
X147526933Y-87408003D01*
X147135120Y-87532981D01*
X146965478Y-87617354D01*
X146507584Y-87645618D01*
X146158391Y-87424117D01*
X146005135Y-87036991D01*
X146135049Y-86568382D01*
X146256083Y-86244190D01*
X146119727Y-85852082D01*
X145981067Y-85488804D01*
X146119727Y-85111249D01*
X146258389Y-84747970D01*
X146119727Y-84370415D01*
X145981067Y-84007137D01*
X146119727Y-83629583D01*
X146258389Y-83266305D01*
X146119727Y-82888750D01*
X146109353Y-82871970D01*
X145982903Y-82507536D01*
X146133364Y-82126081D01*
X146208609Y-81986239D01*
X146252375Y-81629739D01*
X146036212Y-81485271D01*
X145628920Y-81621637D01*
X145611161Y-81632629D01*
X145234526Y-81772329D01*
X144866251Y-81635273D01*
X144502434Y-81496651D01*
X144124778Y-81635673D01*
X144048667Y-81677996D01*
X143599267Y-81735644D01*
X143248365Y-81500134D01*
X143106772Y-81036666D01*
X143111067Y-80947032D01*
X143294925Y-80516767D01*
X143669767Y-80325241D01*
X144124778Y-80437660D01*
X144488978Y-80576675D01*
X144866251Y-80438060D01*
X144883030Y-80427685D01*
X145247464Y-80301235D01*
X145628920Y-80451696D01*
X145768762Y-80526940D01*
X146125262Y-80570707D01*
X146269730Y-80354544D01*
X146212110Y-80182447D01*
X147149746Y-80182447D01*
X147171382Y-80464904D01*
X147221631Y-80531338D01*
X147459168Y-80666250D01*
X147633889Y-80607662D01*
X147768975Y-80349499D01*
X147665280Y-80057445D01*
X147614475Y-80015826D01*
X147345700Y-79992944D01*
X147149746Y-80182447D01*
X146212110Y-80182447D01*
X146133364Y-79947252D01*
X146122372Y-79929493D01*
X145982672Y-79552857D01*
X146119727Y-79184583D01*
X146258350Y-78820766D01*
X146119328Y-78443110D01*
X146077005Y-78366999D01*
X146019357Y-77917599D01*
X146254867Y-77566696D01*
X146718335Y-77425104D01*
X146807914Y-77429242D01*
X147242079Y-77613976D01*
X147427548Y-77995104D01*
X147303705Y-78464945D01*
X147230821Y-78600329D01*
X147184694Y-78957485D01*
X147391403Y-79110329D01*
X147783215Y-78985351D01*
X147952858Y-78900978D01*
X148410750Y-78872714D01*
X148759943Y-79094215D01*
X148913200Y-79481341D01*
X148783285Y-79949950D01*
X148662117Y-80252544D01*
X148692304Y-80349499D01*
X148783285Y-80641716D01*
G37*
G36*
X141116425Y-104105263D02*
G01*
X141401027Y-104398988D01*
X141501811Y-104802113D01*
X141339908Y-105215251D01*
X141183125Y-105350588D01*
X140791668Y-105484165D01*
X140688783Y-105477626D01*
X140292470Y-105283030D01*
X140104023Y-104909014D01*
X140152650Y-104478873D01*
X140467553Y-104115901D01*
X140726869Y-104020325D01*
X141116425Y-104105263D01*
G37*
G36*
X144324650Y-102844880D02*
G01*
X144409023Y-103014522D01*
X144437287Y-103472416D01*
X144215786Y-103821609D01*
X143828660Y-103974865D01*
X143360051Y-103844951D01*
X143057457Y-103723782D01*
X142668285Y-103844951D01*
X142518268Y-103920683D01*
X142065635Y-103949485D01*
X141717717Y-103724421D01*
X141563019Y-103333996D01*
X141690049Y-102866715D01*
X141811083Y-102542523D01*
X141764110Y-102407446D01*
X142704746Y-102407446D01*
X142726382Y-102689903D01*
X142776631Y-102756337D01*
X143014168Y-102891249D01*
X143188889Y-102832661D01*
X143323975Y-102574499D01*
X143220280Y-102282445D01*
X143169475Y-102240825D01*
X142900700Y-102217943D01*
X142704746Y-102407446D01*
X141764110Y-102407446D01*
X141674727Y-102150415D01*
X141664353Y-102133636D01*
X141537903Y-101769202D01*
X141688364Y-101387747D01*
X141763933Y-101247201D01*
X141807296Y-100891063D01*
X141590835Y-100747033D01*
X141183280Y-100883702D01*
X141105665Y-100927260D01*
X140642882Y-100996910D01*
X140286246Y-100767061D01*
X140143439Y-100298332D01*
X140147733Y-100208697D01*
X140331592Y-99778432D01*
X140706433Y-99586907D01*
X141161444Y-99699326D01*
X141500610Y-99834893D01*
X141878384Y-99715047D01*
X142046248Y-99631965D01*
X142495931Y-99610988D01*
X142834709Y-99842679D01*
X142978440Y-100239800D01*
X142842983Y-100715118D01*
X142772496Y-100846841D01*
X142737807Y-101190802D01*
X142959085Y-101329511D01*
X143362749Y-101195029D01*
X143380508Y-101184036D01*
X143757143Y-101044336D01*
X144125418Y-101181392D01*
X144488696Y-101320053D01*
X144866251Y-101181392D01*
X145229530Y-101042731D01*
X145607085Y-101181392D01*
X145970363Y-101320053D01*
X146347918Y-101181392D01*
X146364697Y-101171017D01*
X146729131Y-101044567D01*
X147110587Y-101195029D01*
X147245204Y-101267538D01*
X147602362Y-101313758D01*
X147755272Y-101106972D01*
X147630353Y-100715118D01*
X147545387Y-100545494D01*
X147514925Y-100084295D01*
X147740219Y-99737545D01*
X148135947Y-99590567D01*
X148616786Y-99728684D01*
X148749183Y-99799478D01*
X149092799Y-99833773D01*
X149231082Y-99612204D01*
X149096297Y-99208278D01*
X149052739Y-99130663D01*
X148983089Y-98667880D01*
X149212938Y-98311244D01*
X149681667Y-98168436D01*
X149771246Y-98172574D01*
X150205411Y-98357309D01*
X150390880Y-98738437D01*
X150267037Y-99208278D01*
X150194154Y-99343661D01*
X150148026Y-99700818D01*
X150354735Y-99853661D01*
X150746547Y-99728684D01*
X151029967Y-99614331D01*
X151420813Y-99616672D01*
X151696323Y-99803882D01*
X151867371Y-100226875D01*
X151732982Y-100715118D01*
X151674971Y-100820373D01*
X151624788Y-101177499D01*
X151834692Y-101332981D01*
X152228214Y-101210350D01*
X152397838Y-101125384D01*
X152859037Y-101094923D01*
X153205787Y-101320217D01*
X153352765Y-101715945D01*
X153214649Y-102196785D01*
X153144161Y-102328508D01*
X153109473Y-102672469D01*
X153330751Y-102811178D01*
X153734415Y-102676695D01*
X153752173Y-102665703D01*
X154128809Y-102526003D01*
X154497084Y-102663059D01*
X154860362Y-102801720D01*
X155237917Y-102663059D01*
X155601195Y-102524397D01*
X155978751Y-102663059D01*
X156316995Y-102798261D01*
X156695050Y-102678381D01*
X156862914Y-102595298D01*
X157312597Y-102574321D01*
X157651375Y-102806012D01*
X157795106Y-103203134D01*
X157659649Y-103678452D01*
X157533980Y-103966042D01*
X157630419Y-104246584D01*
X157735662Y-104386258D01*
X157814607Y-104840026D01*
X157601486Y-105269013D01*
X157281521Y-105454832D01*
X156877245Y-105421576D01*
X156549871Y-105173839D01*
X156394099Y-104790822D01*
X156504630Y-104351720D01*
X156580254Y-104211095D01*
X156623918Y-103854613D01*
X156407831Y-103710216D01*
X156000586Y-103846636D01*
X155982827Y-103857628D01*
X155606192Y-103997328D01*
X155237917Y-103860273D01*
X154874638Y-103721611D01*
X154497084Y-103860273D01*
X154480305Y-103870647D01*
X154115870Y-103997097D01*
X153734415Y-103846636D01*
X153599797Y-103774126D01*
X153242640Y-103727907D01*
X153089729Y-103934693D01*
X153214649Y-104326546D01*
X153299022Y-104496189D01*
X153327286Y-104954082D01*
X153105785Y-105303275D01*
X152718659Y-105456532D01*
X152250050Y-105326617D01*
X151925310Y-105205608D01*
X151533110Y-105342339D01*
X151456999Y-105384662D01*
X151007599Y-105442310D01*
X150656697Y-105206800D01*
X150515104Y-104743332D01*
X150519243Y-104653753D01*
X150703977Y-104219588D01*
X151085104Y-104034119D01*
X151554946Y-104157962D01*
X151695571Y-104233587D01*
X152052053Y-104277250D01*
X152196450Y-104061163D01*
X152060030Y-103653918D01*
X152026002Y-103597936D01*
X151908205Y-103241213D01*
X152060030Y-102869413D01*
X152132540Y-102734796D01*
X152178759Y-102377638D01*
X151971973Y-102224728D01*
X151580119Y-102349647D01*
X151410495Y-102434613D01*
X150949296Y-102465075D01*
X150602546Y-102239781D01*
X150455569Y-101844053D01*
X150593685Y-101363213D01*
X150664172Y-101231490D01*
X150698861Y-100887529D01*
X150477583Y-100748819D01*
X150073919Y-100883303D01*
X150017937Y-100917330D01*
X149661214Y-101035127D01*
X149289415Y-100883303D01*
X149154797Y-100810793D01*
X148797640Y-100764573D01*
X148644729Y-100971360D01*
X148769649Y-101363213D01*
X148854615Y-101532837D01*
X148885077Y-101994036D01*
X148659782Y-102340786D01*
X148264054Y-102487764D01*
X147783215Y-102349647D01*
X147651492Y-102279160D01*
X147307531Y-102244472D01*
X147168822Y-102465749D01*
X147303305Y-102869413D01*
X147314297Y-102887172D01*
X147453997Y-103263807D01*
X147316941Y-103632082D01*
X147181739Y-103970327D01*
X147301619Y-104348382D01*
X147377351Y-104498398D01*
X147406155Y-104951031D01*
X147181090Y-105298950D01*
X146790665Y-105453648D01*
X146323384Y-105326617D01*
X145998644Y-105205608D01*
X145606444Y-105342339D01*
X145530333Y-105384662D01*
X145080934Y-105442310D01*
X144730031Y-105206800D01*
X144588438Y-104743332D01*
X144592577Y-104653753D01*
X144777311Y-104219588D01*
X145158439Y-104034119D01*
X145628280Y-104157962D01*
X145768905Y-104233587D01*
X146125387Y-104277250D01*
X146269784Y-104061163D01*
X146133364Y-103653918D01*
X146099336Y-103597936D01*
X145981540Y-103241213D01*
X146133364Y-102869413D01*
X146208609Y-102729571D01*
X146252375Y-102373071D01*
X146036212Y-102228603D01*
X145628920Y-102364969D01*
X145572938Y-102398997D01*
X145216215Y-102516794D01*
X144844416Y-102364969D01*
X144709798Y-102292459D01*
X144352640Y-102246240D01*
X144199730Y-102453026D01*
X144238454Y-102574499D01*
X144324650Y-102844880D01*
G37*
G36*
X169684167Y-105484165D02*
G01*
X164498334Y-105484165D01*
X159312500Y-105484165D01*
X159312500Y-100298332D01*
X159312500Y-96594165D01*
X160794167Y-96594165D01*
X160794167Y-100298332D01*
X160794167Y-104002499D01*
X164498334Y-104002499D01*
X168202500Y-104002499D01*
X168202500Y-100298332D01*
X168202500Y-96594165D01*
X164498334Y-96594165D01*
X160794167Y-96594165D01*
X159312500Y-96594165D01*
X159312500Y-95112499D01*
X164498334Y-95112499D01*
X169684167Y-95112499D01*
X169684167Y-100298332D01*
X169684167Y-105484165D01*
G37*
%TD*%
%LPC*%
%TO.C,G\u002A\u002A\u002A*%
G36*
X199110299Y-100019812D02*
G01*
X199247247Y-100020549D01*
X199357197Y-100021866D01*
X199442522Y-100023837D01*
X199505596Y-100026537D01*
X199548794Y-100030037D01*
X199574489Y-100034412D01*
X199584834Y-100039427D01*
X199591052Y-100058993D01*
X199602205Y-100106309D01*
X199617582Y-100177881D01*
X199636472Y-100270215D01*
X199658162Y-100379817D01*
X199681942Y-100503194D01*
X199707099Y-100636851D01*
X199713105Y-100669219D01*
X199738915Y-100806396D01*
X199763653Y-100933525D01*
X199786593Y-101047180D01*
X199807009Y-101143937D01*
X199824174Y-101220370D01*
X199837362Y-101273054D01*
X199845847Y-101298564D01*
X199846879Y-101300068D01*
X199868554Y-101313000D01*
X199915196Y-101335289D01*
X199982087Y-101365028D01*
X200064506Y-101400311D01*
X200157736Y-101439231D01*
X200257058Y-101479884D01*
X200357753Y-101520362D01*
X200455103Y-101558760D01*
X200544389Y-101593171D01*
X200620892Y-101621690D01*
X200679893Y-101642410D01*
X200716674Y-101653425D01*
X200724819Y-101654709D01*
X200753144Y-101645179D01*
X200805636Y-101617020D01*
X200881233Y-101570882D01*
X200978872Y-101507410D01*
X201094146Y-101429545D01*
X201246812Y-101324978D01*
X201375458Y-101236977D01*
X201482234Y-101164125D01*
X201569284Y-101105005D01*
X201638758Y-101058199D01*
X201692801Y-101022289D01*
X201733562Y-100995859D01*
X201763186Y-100977492D01*
X201783822Y-100965768D01*
X201797615Y-100959271D01*
X201806714Y-100956584D01*
X201811126Y-100956208D01*
X201828278Y-100967169D01*
X201864412Y-100998050D01*
X201916536Y-101045854D01*
X201981660Y-101107584D01*
X202056794Y-101180239D01*
X202138945Y-101260823D01*
X202225125Y-101346337D01*
X202312342Y-101433782D01*
X202397606Y-101520160D01*
X202477926Y-101602474D01*
X202550312Y-101677724D01*
X202611772Y-101742912D01*
X202659317Y-101795041D01*
X202689956Y-101831111D01*
X202700699Y-101848066D01*
X202691991Y-101868470D01*
X202667636Y-101910624D01*
X202630284Y-101970332D01*
X202582584Y-102043396D01*
X202527188Y-102125622D01*
X202505273Y-102157523D01*
X202380232Y-102339009D01*
X202273408Y-102494944D01*
X202184595Y-102625638D01*
X202113587Y-102731397D01*
X202060177Y-102812531D01*
X202024161Y-102869347D01*
X202005332Y-102902155D01*
X202002198Y-102910503D01*
X202008210Y-102928645D01*
X202025221Y-102972217D01*
X202051691Y-103037475D01*
X202086083Y-103120678D01*
X202126858Y-103218087D01*
X202172477Y-103325958D01*
X202188730Y-103364144D01*
X202246187Y-103497099D01*
X202296680Y-103610214D01*
X202339230Y-103701431D01*
X202372857Y-103768693D01*
X202396580Y-103809943D01*
X202407011Y-103822403D01*
X202429474Y-103829916D01*
X202479501Y-103842239D01*
X202553401Y-103858601D01*
X202647482Y-103878233D01*
X202758053Y-103900365D01*
X202881421Y-103924227D01*
X203013896Y-103949050D01*
X203018198Y-103949843D01*
X203150279Y-103974488D01*
X203272847Y-103997949D01*
X203382308Y-104019493D01*
X203475070Y-104038389D01*
X203547537Y-104053903D01*
X203596118Y-104065303D01*
X203617217Y-104071856D01*
X203617480Y-104072038D01*
X203622616Y-104091419D01*
X203627058Y-104138251D01*
X203630801Y-104208361D01*
X203633841Y-104297574D01*
X203636175Y-104401719D01*
X203637797Y-104516621D01*
X203638705Y-104638108D01*
X203638893Y-104762003D01*
X203638358Y-104884136D01*
X203637096Y-105000331D01*
X203635102Y-105106416D01*
X203632373Y-105198216D01*
X203628903Y-105271558D01*
X203624690Y-105322269D01*
X203619728Y-105346175D01*
X203618740Y-105347318D01*
X203599375Y-105352748D01*
X203552359Y-105363185D01*
X203481273Y-105377915D01*
X203389694Y-105396223D01*
X203281203Y-105417395D01*
X203159380Y-105440714D01*
X203027804Y-105465466D01*
X203020520Y-105466824D01*
X202888478Y-105491872D01*
X202765999Y-105515953D01*
X202656667Y-105538296D01*
X202564066Y-105558134D01*
X202491779Y-105574699D01*
X202443389Y-105587220D01*
X202422480Y-105594929D01*
X202422213Y-105595182D01*
X202411932Y-105614498D01*
X202391603Y-105659639D01*
X202362789Y-105726884D01*
X202327054Y-105812506D01*
X202285961Y-105912782D01*
X202241072Y-106023987D01*
X202217561Y-106082854D01*
X202163918Y-106218483D01*
X202121565Y-106327686D01*
X202089528Y-106413323D01*
X202066831Y-106478254D01*
X202052499Y-106525337D01*
X202045556Y-106557434D01*
X202045026Y-106577404D01*
X202046789Y-106583573D01*
X202060174Y-106606354D01*
X202088772Y-106650705D01*
X202129616Y-106712169D01*
X202179733Y-106786287D01*
X202236156Y-106868603D01*
X202250380Y-106889191D01*
X202317787Y-106986634D01*
X202389142Y-107089840D01*
X202458786Y-107190621D01*
X202521061Y-107280787D01*
X202565761Y-107345558D01*
X202611827Y-107414523D01*
X202650437Y-107476471D01*
X202678248Y-107525719D01*
X202691918Y-107556583D01*
X202692761Y-107561465D01*
X202681910Y-107578749D01*
X202651328Y-107615205D01*
X202603976Y-107667826D01*
X202542809Y-107733601D01*
X202470788Y-107809525D01*
X202390871Y-107892587D01*
X202306015Y-107979781D01*
X202219180Y-108068098D01*
X202133324Y-108154529D01*
X202051404Y-108236066D01*
X201976381Y-108309702D01*
X201911211Y-108372428D01*
X201858854Y-108421235D01*
X201822267Y-108453116D01*
X201804410Y-108465062D01*
X201804111Y-108465082D01*
X201785761Y-108456447D01*
X201746112Y-108432532D01*
X201689831Y-108396324D01*
X201621590Y-108350811D01*
X201564894Y-108312039D01*
X201400562Y-108198704D01*
X201260441Y-108102544D01*
X201142804Y-108022423D01*
X201045923Y-107957208D01*
X200968071Y-107905762D01*
X200907522Y-107866951D01*
X200862547Y-107839639D01*
X200831419Y-107822692D01*
X200812412Y-107814973D01*
X200807405Y-107814208D01*
X200782982Y-107821533D01*
X200736726Y-107841671D01*
X200674472Y-107871862D01*
X200602056Y-107909348D01*
X200572349Y-107925332D01*
X200497722Y-107964886D01*
X200431168Y-107998231D01*
X200378466Y-108022615D01*
X200345396Y-108035285D01*
X200339037Y-108036457D01*
X200331154Y-108031538D01*
X200319504Y-108015578D01*
X200303292Y-107986777D01*
X200281719Y-107943335D01*
X200253989Y-107883449D01*
X200219306Y-107805320D01*
X200176872Y-107707145D01*
X200125892Y-107587126D01*
X200065568Y-107443459D01*
X199995103Y-107274345D01*
X199913701Y-107077982D01*
X199894832Y-107032364D01*
X199824734Y-106862806D01*
X199758071Y-106701484D01*
X199695854Y-106550855D01*
X199639098Y-106413380D01*
X199588818Y-106291514D01*
X199546028Y-106187717D01*
X199511741Y-106104447D01*
X199486971Y-106044161D01*
X199472733Y-106009319D01*
X199469691Y-106001716D01*
X199466468Y-105988561D01*
X199469568Y-105975084D01*
X199482359Y-105958133D01*
X199508208Y-105934553D01*
X199550484Y-105901190D01*
X199612554Y-105854890D01*
X199676511Y-105808035D01*
X199834979Y-105679846D01*
X199964558Y-105546807D01*
X200068088Y-105405239D01*
X200148405Y-105251466D01*
X200189315Y-105143817D01*
X200241177Y-104939819D01*
X200261678Y-104737115D01*
X200251147Y-104537569D01*
X200209913Y-104343043D01*
X200138306Y-104155404D01*
X200036654Y-103976512D01*
X199966130Y-103880095D01*
X199848976Y-103755496D01*
X199707639Y-103643290D01*
X199548614Y-103547677D01*
X199378392Y-103472858D01*
X199294428Y-103445511D01*
X199184173Y-103422508D01*
X199054814Y-103409513D01*
X198917123Y-103406536D01*
X198781870Y-103413586D01*
X198659826Y-103430672D01*
X198600322Y-103444899D01*
X198409954Y-103515810D01*
X198234282Y-103613253D01*
X198075933Y-103734727D01*
X197937536Y-103877727D01*
X197821720Y-104039752D01*
X197731112Y-104218298D01*
X197699485Y-104302706D01*
X197676679Y-104374509D01*
X197661092Y-104436098D01*
X197650999Y-104498013D01*
X197644672Y-104570789D01*
X197640454Y-104663020D01*
X197638065Y-104759345D01*
X197639293Y-104834294D01*
X197644909Y-104898113D01*
X197655682Y-104961048D01*
X197666478Y-105009116D01*
X197725632Y-105200087D01*
X197808310Y-105373245D01*
X197916173Y-105530879D01*
X198050884Y-105675277D01*
X198214102Y-105808728D01*
X198280282Y-105854613D01*
X198338276Y-105894667D01*
X198385819Y-105930255D01*
X198416859Y-105956687D01*
X198425506Y-105967172D01*
X198420923Y-105985178D01*
X198404878Y-106030439D01*
X198378189Y-106100931D01*
X198341678Y-106194632D01*
X198296162Y-106309517D01*
X198242462Y-106443563D01*
X198181396Y-106594747D01*
X198113784Y-106761046D01*
X198040446Y-106940435D01*
X197962201Y-107130892D01*
X197879867Y-107330394D01*
X197794265Y-107536916D01*
X197706215Y-107748435D01*
X197640589Y-107905489D01*
X197609981Y-107973764D01*
X197585877Y-108015431D01*
X197565812Y-108034337D01*
X197556706Y-108036457D01*
X197532916Y-108029197D01*
X197487139Y-108009231D01*
X197425141Y-107979279D01*
X197352685Y-107942063D01*
X197321287Y-107925332D01*
X197246200Y-107885922D01*
X197179198Y-107852661D01*
X197126048Y-107828271D01*
X197092516Y-107815472D01*
X197085779Y-107814208D01*
X197066353Y-107822915D01*
X197023965Y-107847694D01*
X196961750Y-107886523D01*
X196882840Y-107937385D01*
X196790369Y-107998262D01*
X196687469Y-108067135D01*
X196580693Y-108139645D01*
X196471246Y-108214192D01*
X196369797Y-108282730D01*
X196279378Y-108343254D01*
X196203023Y-108393757D01*
X196143764Y-108432233D01*
X196104633Y-108456676D01*
X196088719Y-108465082D01*
X196074314Y-108454211D01*
X196040057Y-108423207D01*
X195988448Y-108374485D01*
X195921987Y-108310457D01*
X195843176Y-108233540D01*
X195754517Y-108146146D01*
X195658508Y-108050690D01*
X195632249Y-108024447D01*
X195535107Y-107926847D01*
X195445387Y-107835911D01*
X195365503Y-107754147D01*
X195297869Y-107684059D01*
X195244898Y-107628154D01*
X195209003Y-107588938D01*
X195192599Y-107568917D01*
X195191824Y-107567152D01*
X195200344Y-107548234D01*
X195223541Y-107509037D01*
X195257873Y-107455282D01*
X195299800Y-107392692D01*
X195299841Y-107392631D01*
X195341777Y-107331383D01*
X195397163Y-107250550D01*
X195461481Y-107156721D01*
X195530214Y-107056486D01*
X195598843Y-106956437D01*
X195617945Y-106928597D01*
X195678650Y-106839596D01*
X195733984Y-106757461D01*
X195781155Y-106686421D01*
X195817368Y-106630701D01*
X195839831Y-106594530D01*
X195845312Y-106584501D01*
X195848860Y-106570472D01*
X195847991Y-106550007D01*
X195841653Y-106519950D01*
X195828791Y-106477145D01*
X195808351Y-106418438D01*
X195779279Y-106340674D01*
X195740522Y-106240697D01*
X195691025Y-106115351D01*
X195675882Y-106077249D01*
X195629549Y-105961850D01*
X195586104Y-105855668D01*
X195547118Y-105762388D01*
X195514164Y-105685700D01*
X195488815Y-105629288D01*
X195472642Y-105596842D01*
X195468383Y-105590666D01*
X195448506Y-105583933D01*
X195400977Y-105572288D01*
X195329386Y-105556481D01*
X195237323Y-105537259D01*
X195128376Y-105515371D01*
X195006136Y-105491566D01*
X194874191Y-105466591D01*
X194865104Y-105464896D01*
X194703595Y-105434304D01*
X194565157Y-105407033D01*
X194451327Y-105383419D01*
X194363641Y-105363796D01*
X194303637Y-105348499D01*
X194272852Y-105337863D01*
X194269150Y-105335138D01*
X194266150Y-105314992D01*
X194263369Y-105266671D01*
X194260886Y-105193750D01*
X194258777Y-105099805D01*
X194257120Y-104988409D01*
X194255991Y-104863139D01*
X194255468Y-104727568D01*
X194255443Y-104699297D01*
X194255465Y-104542870D01*
X194255755Y-104415200D01*
X194256443Y-104313293D01*
X194257662Y-104234158D01*
X194259541Y-104174800D01*
X194262212Y-104132227D01*
X194265806Y-104103446D01*
X194270454Y-104085463D01*
X194276286Y-104075286D01*
X194282981Y-104070155D01*
X194304505Y-104064042D01*
X194353616Y-104053008D01*
X194426656Y-104037786D01*
X194519968Y-104019107D01*
X194629895Y-103997703D01*
X194752780Y-103974306D01*
X194884967Y-103949646D01*
X194890199Y-103948680D01*
X195063421Y-103916222D01*
X195206210Y-103888376D01*
X195319518Y-103864933D01*
X195404296Y-103845685D01*
X195461493Y-103830423D01*
X195492060Y-103818940D01*
X195496594Y-103815823D01*
X195509410Y-103795137D01*
X195532382Y-103749715D01*
X195563534Y-103684085D01*
X195600890Y-103602775D01*
X195642473Y-103510313D01*
X195686308Y-103411229D01*
X195730416Y-103310050D01*
X195772822Y-103211304D01*
X195811550Y-103119521D01*
X195844622Y-103039228D01*
X195870063Y-102974954D01*
X195885896Y-102931227D01*
X195890324Y-102913729D01*
X195889380Y-102905819D01*
X195885560Y-102894808D01*
X195877387Y-102878452D01*
X195863382Y-102854509D01*
X195842068Y-102820734D01*
X195811966Y-102774885D01*
X195771597Y-102714718D01*
X195719484Y-102637990D01*
X195654149Y-102542457D01*
X195574112Y-102425877D01*
X195477897Y-102286005D01*
X195449780Y-102245157D01*
X195384901Y-102150520D01*
X195325827Y-102063609D01*
X195275009Y-101988093D01*
X195234904Y-101927641D01*
X195207962Y-101885922D01*
X195196638Y-101866605D01*
X195196621Y-101866561D01*
X195202781Y-101850826D01*
X195227562Y-101818141D01*
X195271736Y-101767672D01*
X195336074Y-101698587D01*
X195421351Y-101610052D01*
X195528338Y-101501235D01*
X195629951Y-101399144D01*
X195727954Y-101301633D01*
X195819527Y-101211552D01*
X195902139Y-101131315D01*
X195973258Y-101063335D01*
X196030354Y-101010026D01*
X196070893Y-100973800D01*
X196092347Y-100957071D01*
X196094577Y-100956208D01*
X196117481Y-100964919D01*
X196157678Y-100987904D01*
X196207016Y-101020447D01*
X196213746Y-101025184D01*
X196359192Y-101127603D01*
X196500202Y-101225518D01*
X196634327Y-101317323D01*
X196759123Y-101401410D01*
X196872140Y-101476174D01*
X196970933Y-101540009D01*
X197053054Y-101591308D01*
X197116055Y-101628466D01*
X197157492Y-101649875D01*
X197172668Y-101654637D01*
X197200370Y-101648567D01*
X197251929Y-101631701D01*
X197322640Y-101605981D01*
X197407801Y-101573350D01*
X197502706Y-101535750D01*
X197602654Y-101495124D01*
X197702938Y-101453415D01*
X197798857Y-101412564D01*
X197885706Y-101374515D01*
X197958782Y-101341210D01*
X198013380Y-101314593D01*
X198044797Y-101296604D01*
X198049672Y-101292444D01*
X198059063Y-101268792D01*
X198073138Y-101215892D01*
X198091452Y-101135831D01*
X198113557Y-101030695D01*
X198139007Y-100902568D01*
X198167355Y-100753536D01*
X198181501Y-100677141D01*
X198206263Y-100543493D01*
X198229798Y-100418651D01*
X198251377Y-100306313D01*
X198270275Y-100210176D01*
X198285762Y-100133937D01*
X198297112Y-100081295D01*
X198303597Y-100055946D01*
X198303845Y-100055302D01*
X198318519Y-100019584D01*
X198943978Y-100019584D01*
X199110299Y-100019812D01*
G37*
%TD*%
D11*
%TO.C,J1*%
X193380000Y-87954000D03*
D12*
X195920000Y-87700000D03*
X198459999Y-87954000D03*
X201000000Y-87700000D03*
X203540000Y-87954000D03*
%TD*%
G36*
X201200642Y-57300007D02*
G01*
X201413471Y-57302328D01*
X201422926Y-57302793D01*
X201847549Y-57339943D01*
X201858274Y-57341355D01*
X202277376Y-57415253D01*
X202287938Y-57417594D01*
X202699019Y-57527743D01*
X202709335Y-57530996D01*
X203109240Y-57676549D01*
X203119235Y-57680689D01*
X203504937Y-57860545D01*
X203514532Y-57865540D01*
X203883083Y-58078323D01*
X203892207Y-58084135D01*
X204240820Y-58328237D01*
X204249402Y-58334822D01*
X204575420Y-58608383D01*
X204583395Y-58615692D01*
X204884307Y-58916604D01*
X204891616Y-58924579D01*
X205165177Y-59250597D01*
X205171762Y-59259179D01*
X205415864Y-59607792D01*
X205421676Y-59616916D01*
X205634459Y-59985467D01*
X205639454Y-59995062D01*
X205819310Y-60380764D01*
X205823450Y-60390759D01*
X205969003Y-60790664D01*
X205972256Y-60800980D01*
X206082405Y-61212061D01*
X206084746Y-61222623D01*
X206158644Y-61641725D01*
X206160056Y-61652450D01*
X206197206Y-62077073D01*
X206197671Y-62086527D01*
X206199993Y-62299357D01*
X206200000Y-62300710D01*
X206200000Y-106299289D01*
X206199993Y-106300642D01*
X206197671Y-106513472D01*
X206197206Y-106522926D01*
X206160056Y-106947549D01*
X206158644Y-106958274D01*
X206084746Y-107377376D01*
X206082405Y-107387938D01*
X205972256Y-107799019D01*
X205969003Y-107809335D01*
X205823450Y-108209240D01*
X205819310Y-108219235D01*
X205639454Y-108604937D01*
X205634459Y-108614532D01*
X205421676Y-108983083D01*
X205415864Y-108992207D01*
X205171762Y-109340820D01*
X205165177Y-109349402D01*
X204891616Y-109675420D01*
X204884307Y-109683395D01*
X204583395Y-109984307D01*
X204575420Y-109991616D01*
X204249402Y-110265177D01*
X204240820Y-110271762D01*
X203892207Y-110515864D01*
X203883083Y-110521676D01*
X203514532Y-110734459D01*
X203504937Y-110739454D01*
X203119235Y-110919310D01*
X203109240Y-110923450D01*
X202709335Y-111069003D01*
X202699019Y-111072256D01*
X202287938Y-111182405D01*
X202277376Y-111184746D01*
X201858274Y-111258644D01*
X201847549Y-111260056D01*
X201422926Y-111297206D01*
X201413472Y-111297671D01*
X201200643Y-111299993D01*
X201199290Y-111300000D01*
X126200710Y-111300000D01*
X126199357Y-111299993D01*
X125986527Y-111297671D01*
X125977073Y-111297206D01*
X125552450Y-111260056D01*
X125541725Y-111258644D01*
X125122623Y-111184746D01*
X125112061Y-111182405D01*
X124700980Y-111072256D01*
X124690664Y-111069003D01*
X124290759Y-110923450D01*
X124280764Y-110919310D01*
X123895062Y-110739454D01*
X123885467Y-110734459D01*
X123516916Y-110521676D01*
X123507792Y-110515864D01*
X123159179Y-110271762D01*
X123150597Y-110265177D01*
X122824579Y-109991616D01*
X122816604Y-109984307D01*
X122515692Y-109683395D01*
X122508383Y-109675420D01*
X122234822Y-109349402D01*
X122228237Y-109340820D01*
X121984135Y-108992207D01*
X121978323Y-108983083D01*
X121765540Y-108614532D01*
X121760545Y-108604937D01*
X121580689Y-108219235D01*
X121576549Y-108209240D01*
X121430996Y-107809335D01*
X121427743Y-107799019D01*
X121317594Y-107387938D01*
X121315253Y-107377376D01*
X121241355Y-106958274D01*
X121239943Y-106947549D01*
X121202793Y-106522926D01*
X121202328Y-106513471D01*
X121200007Y-106300641D01*
X121200000Y-106299289D01*
X121200000Y-62300710D01*
X121200004Y-62299988D01*
X122200000Y-62299988D01*
X122200000Y-106300011D01*
X122202349Y-106496392D01*
X122240847Y-106887282D01*
X122317476Y-107272517D01*
X122431496Y-107648393D01*
X122581809Y-108011280D01*
X122581811Y-108011285D01*
X122766958Y-108357670D01*
X122766969Y-108357688D01*
X122985178Y-108684261D01*
X122985188Y-108684275D01*
X123234367Y-108987901D01*
X123512098Y-109265632D01*
X123815724Y-109514811D01*
X123815738Y-109514821D01*
X124142311Y-109733030D01*
X124142329Y-109733041D01*
X124488714Y-109918188D01*
X124488719Y-109918190D01*
X124851606Y-110068503D01*
X125227482Y-110182523D01*
X125612717Y-110259152D01*
X126003607Y-110297650D01*
X126199989Y-110300000D01*
X201200011Y-110300000D01*
X201396392Y-110297650D01*
X201787282Y-110259152D01*
X202172517Y-110182523D01*
X202548393Y-110068503D01*
X202911280Y-109918190D01*
X202911285Y-109918188D01*
X203257670Y-109733041D01*
X203257688Y-109733030D01*
X203584261Y-109514821D01*
X203584275Y-109514811D01*
X203887901Y-109265632D01*
X204165632Y-108987901D01*
X204414811Y-108684275D01*
X204414821Y-108684261D01*
X204633030Y-108357688D01*
X204633041Y-108357670D01*
X204818188Y-108011285D01*
X204818190Y-108011280D01*
X204968503Y-107648393D01*
X205082523Y-107272517D01*
X205159152Y-106887282D01*
X205197650Y-106496392D01*
X205200000Y-106300011D01*
X205200000Y-62299988D01*
X205197650Y-62103607D01*
X205159152Y-61712717D01*
X205082523Y-61327482D01*
X204968503Y-60951606D01*
X204818190Y-60588719D01*
X204818188Y-60588714D01*
X204633041Y-60242329D01*
X204633030Y-60242311D01*
X204414821Y-59915738D01*
X204414811Y-59915724D01*
X204165632Y-59612098D01*
X203887901Y-59334367D01*
X203584275Y-59085188D01*
X203584261Y-59085178D01*
X203257688Y-58866969D01*
X203257670Y-58866958D01*
X202911285Y-58681811D01*
X202911280Y-58681809D01*
X202548393Y-58531496D01*
X202172517Y-58417476D01*
X201787282Y-58340847D01*
X201396392Y-58302349D01*
X201200011Y-58300000D01*
X126199989Y-58300000D01*
X126003607Y-58302349D01*
X125612717Y-58340847D01*
X125227482Y-58417476D01*
X124851606Y-58531496D01*
X124488719Y-58681809D01*
X124488714Y-58681811D01*
X124142329Y-58866958D01*
X124142311Y-58866969D01*
X123815738Y-59085178D01*
X123815724Y-59085188D01*
X123512098Y-59334367D01*
X123234367Y-59612098D01*
X122985188Y-59915724D01*
X122985178Y-59915738D01*
X122766969Y-60242311D01*
X122766958Y-60242329D01*
X122581811Y-60588714D01*
X122581809Y-60588719D01*
X122431496Y-60951606D01*
X122317476Y-61327482D01*
X122240847Y-61712717D01*
X122202349Y-62103607D01*
X122200000Y-62299988D01*
X121200004Y-62299988D01*
X121200007Y-62299358D01*
X121202328Y-62086528D01*
X121202793Y-62077073D01*
X121239943Y-61652450D01*
X121241355Y-61641725D01*
X121315253Y-61222623D01*
X121317594Y-61212061D01*
X121427743Y-60800980D01*
X121430996Y-60790664D01*
X121576549Y-60390759D01*
X121580689Y-60380764D01*
X121760545Y-59995062D01*
X121765540Y-59985467D01*
X121978323Y-59616916D01*
X121984135Y-59607792D01*
X122228237Y-59259179D01*
X122234822Y-59250597D01*
X122508383Y-58924579D01*
X122515692Y-58916604D01*
X122816604Y-58615692D01*
X122824579Y-58608383D01*
X123150597Y-58334822D01*
X123159179Y-58328237D01*
X123507792Y-58084135D01*
X123516916Y-58078323D01*
X123885467Y-57865540D01*
X123895062Y-57860545D01*
X124280764Y-57680689D01*
X124290759Y-57676549D01*
X124690664Y-57530996D01*
X124700980Y-57527743D01*
X125112061Y-57417594D01*
X125122623Y-57415253D01*
X125541725Y-57341355D01*
X125552450Y-57339943D01*
X125977073Y-57302793D01*
X125986528Y-57302328D01*
X126199358Y-57300007D01*
X126200710Y-57300000D01*
X201199290Y-57300000D01*
X201200642Y-57300007D01*
G37*
%LPD*%
M02*
